<?xml version="1.0" encoding="UTF-8" ?>
<!DOCTYPE svg PUBLIC "-//W3C//DTD SVG 1.1//EN" "http://www.w3.org/Graphics/SVG/1.1/DTD/svg11.dtd">
<svg width="1000pt" height="1000pt" viewBox="0 0 1000 1000" version="1.1" xmlns="http://www.w3.org/2000/svg">
<g id="#ff0000ff">
<path fill="#ff0000" opacity="1.00" d=" M 400.87 42.85 C 424.01 33.38 449.66 31.83 474.28 34.80 C 493.23 37.67 511.71 44.03 528.14 53.93 C 536.86 59.66 545.63 65.53 552.95 73.04 C 563.20 83.65 571.79 95.99 577.40 109.67 C 581.75 119.79 584.68 130.47 586.58 141.31 C 586.88 143.25 587.43 145.14 587.95 147.03 C 590.87 148.75 594.16 149.64 597.36 150.66 C 611.02 155.03 624.22 160.67 637.16 166.82 C 647.24 171.28 656.54 177.26 665.84 183.12 C 678.45 191.57 689.66 201.90 700.33 212.65 C 713.58 227.14 724.99 244.13 729.23 263.57 C 730.46 270.30 731.87 277.08 731.63 283.95 C 730.50 300.33 726.05 316.89 716.33 330.33 C 711.08 337.01 705.51 343.56 698.73 348.75 C 683.68 361.39 665.63 369.86 650.76 382.75 C 644.30 388.61 637.60 394.28 632.09 401.09 C 626.09 407.62 621.24 415.07 616.58 422.59 C 611.85 430.66 608.22 439.32 605.17 448.15 C 601.52 458.45 597.09 468.62 595.58 479.53 C 594.16 489.28 593.90 499.16 593.99 509.00 C 593.57 535.74 597.77 562.23 601.22 588.66 C 603.76 603.70 606.11 618.77 607.78 633.92 C 608.25 643.31 610.07 652.58 609.96 662.00 C 610.70 675.45 610.80 688.93 610.43 702.39 C 609.82 710.59 610.16 718.84 608.97 726.99 C 607.96 734.04 607.63 741.18 606.32 748.20 C 600.94 781.73 590.58 814.80 572.98 843.99 C 567.03 853.54 560.34 862.59 553.46 871.48 C 545.68 880.87 536.63 889.07 527.89 897.53 C 536.89 897.61 545.84 896.43 554.67 894.79 C 572.39 891.96 589.90 887.70 606.88 881.86 C 613.42 879.38 620.01 877.02 626.54 874.51 C 653.24 864.26 678.44 850.28 701.70 833.68 C 722.02 819.39 740.45 802.57 757.44 784.48 C 763.47 777.17 770.12 770.39 775.70 762.71 C 785.62 750.29 794.43 737.00 802.12 723.09 C 819.93 691.50 833.42 657.35 840.91 621.83 C 844.10 607.93 846.21 593.78 847.56 579.59 C 847.87 570.71 849.29 561.89 849.03 553.00 C 848.87 546.31 849.16 539.62 848.96 532.94 C 848.06 517.38 845.48 501.98 842.46 486.71 C 838.95 465.02 832.82 443.78 824.46 423.47 C 819.62 410.95 813.92 398.79 808.59 386.48 C 806.58 381.31 804.56 376.10 803.44 370.66 C 802.12 362.82 803.13 354.30 807.56 347.56 C 813.21 338.69 823.46 333.04 833.96 332.90 C 841.11 332.62 848.48 334.45 854.31 338.71 C 859.67 342.77 863.24 348.60 866.85 354.17 C 876.91 369.47 884.48 386.28 890.44 403.56 C 902.82 436.35 911.28 470.70 914.66 505.61 C 916.32 517.32 916.30 529.18 916.90 540.97 C 917.40 564.90 916.37 588.91 912.67 612.58 C 907.90 640.60 901.44 668.49 891.15 695.05 C 887.89 704.00 884.44 712.90 880.58 721.62 C 874.52 734.37 868.50 747.16 861.21 759.27 C 853.50 773.17 844.45 786.27 835.19 799.17 C 825.93 811.16 816.60 823.16 805.94 833.94 C 793.71 847.05 780.98 859.73 767.15 871.17 C 756.41 879.84 745.62 888.51 733.98 895.96 C 725.33 902.22 716.03 907.47 706.87 912.92 C 698.14 918.13 688.93 922.45 679.77 926.83 C 667.65 932.86 655.01 937.75 642.30 942.37 C 624.09 949.17 605.29 954.27 586.27 958.22 C 572.98 961.37 559.42 963.13 545.89 964.85 C 534.95 966.07 523.93 965.80 512.95 966.23 C 505.66 966.84 498.35 966.54 491.06 966.09 C 479.59 965.94 468.09 965.77 456.69 964.30 C 427.51 961.40 398.69 955.09 370.75 946.22 C 356.89 941.22 342.91 936.53 329.41 930.60 C 317.42 925.10 305.34 919.75 293.89 913.17 C 267.23 898.85 242.49 881.14 219.42 861.59 C 210.75 853.60 201.59 846.12 193.67 837.35 C 142.32 783.14 106.18 714.32 92.24 640.86 C 89.21 627.13 87.22 613.20 85.76 599.23 C 83.71 584.16 84.35 568.93 83.45 553.80 C 83.30 548.19 84.01 542.61 84.01 537.01 C 83.96 525.96 84.51 514.89 85.96 503.93 C 87.41 487.42 90.46 471.11 93.90 454.91 C 97.57 439.64 101.15 424.30 106.43 409.49 C 110.38 398.24 114.21 386.94 118.97 376.01 C 122.01 368.54 125.76 361.39 129.13 354.07 C 138.65 334.63 150.22 316.27 162.51 298.48 C 182.75 270.51 206.25 244.85 232.86 222.82 C 237.70 218.65 242.48 214.40 247.70 210.70 C 265.77 196.91 284.76 184.10 305.40 174.46 C 307.06 173.48 309.14 172.84 310.22 171.15 C 311.18 168.19 310.93 165.01 311.15 161.93 C 313.25 122.59 334.84 85.58 366.15 62.15 C 376.55 53.82 388.42 47.53 400.87 42.85 M 399.50 112.51 C 387.61 122.18 378.68 135.33 373.67 149.78 C 370.23 161.13 368.77 173.25 370.91 184.99 C 372.79 199.81 378.68 213.86 386.61 226.44 C 390.38 232.20 395.00 237.34 398.90 243.02 C 401.81 247.19 405.08 251.64 405.06 256.97 C 405.54 264.68 400.92 272.85 393.36 275.27 C 385.61 278.18 377.11 275.68 370.18 271.82 C 357.83 264.63 347.77 254.00 339.94 242.14 C 336.90 237.67 334.92 232.61 331.91 228.13 C 328.14 229.38 324.63 231.24 321.12 233.07 C 304.13 242.10 289.02 254.12 273.96 265.99 C 251.10 284.77 231.07 306.88 213.90 330.94 C 189.90 364.64 171.57 402.38 159.95 442.09 C 154.33 461.87 149.50 481.89 145.86 502.13 C 144.66 510.04 143.77 518.00 143.52 526.00 C 143.23 534.36 145.02 542.64 144.67 551.01 C 144.65 565.77 144.11 580.63 146.31 595.28 C 149.19 619.21 153.83 642.97 161.01 666.00 C 166.39 682.05 172.21 698.00 179.69 713.21 C 191.66 738.03 207.12 761.09 224.99 782.04 C 236.20 795.74 249.05 808.01 262.21 819.81 C 288.32 842.14 317.88 860.62 350.00 872.97 C 365.15 879.04 381.14 882.96 397.38 884.55 C 408.69 886.20 420.20 886.03 431.50 884.38 C 449.43 882.74 466.29 875.07 481.02 864.99 C 489.11 859.24 497.13 853.18 503.54 845.54 C 511.66 836.42 518.65 826.34 524.58 815.68 C 531.29 804.70 536.48 792.86 540.58 780.69 C 546.82 761.39 550.90 741.35 552.18 721.09 C 554.15 702.94 554.08 684.61 552.53 666.43 C 551.70 658.80 551.76 651.08 550.53 643.49 C 547.24 611.57 541.34 579.97 538.70 547.98 C 537.72 540.01 538.48 531.99 538.62 524.00 C 538.74 518.32 539.70 512.69 539.67 507.01 C 539.66 497.50 539.95 487.97 541.21 478.54 C 543.66 446.91 554.58 416.18 571.33 389.34 C 577.40 380.52 583.42 371.58 590.75 363.74 C 600.47 353.05 611.43 343.51 623.22 335.17 C 634.38 326.72 646.61 319.88 658.29 312.22 C 667.01 306.41 675.11 298.63 678.30 288.37 C 681.05 281.49 678.35 274.04 675.18 267.83 C 667.96 255.15 656.76 245.39 645.34 236.59 C 624.59 220.90 600.29 210.45 575.32 203.57 C 566.60 201.09 557.57 199.84 548.98 196.90 C 544.87 195.49 540.89 193.21 538.27 189.66 C 536.39 186.90 535.97 183.49 535.33 180.30 C 533.79 172.14 534.02 163.75 532.34 155.61 C 530.94 148.16 528.04 141.08 524.58 134.37 C 518.90 123.61 510.26 114.65 500.43 107.58 C 490.19 100.53 478.37 95.90 466.15 93.67 C 442.59 90.00 417.77 97.31 399.50 112.51 Z" />
<path fill="#ff0000" opacity="1.00" d=" M 561.28 241.66 C 568.08 241.48 574.75 243.91 580.40 247.57 C 585.12 250.47 588.94 254.86 590.64 260.19 C 595.87 273.27 590.04 289.84 577.54 296.45 C 570.33 299.56 562.03 300.70 554.39 298.53 C 544.22 296.02 534.98 288.07 532.57 277.65 C 531.22 270.30 531.51 262.13 535.65 255.67 C 541.02 246.89 551.28 242.28 561.28 241.66 Z" />
</g>
<g id="#ffffffff">
<path fill="#ffffff" opacity="1.00" d=" M 399.50 112.51 C 417.77 97.31 442.59 90.00 466.15 93.67 C 478.37 95.90 490.19 100.53 500.43 107.58 C 510.26 114.65 518.90 123.61 524.58 134.37 C 528.04 141.08 530.94 148.16 532.34 155.61 C 534.02 163.75 533.79 172.14 535.33 180.30 C 535.97 183.49 536.39 186.90 538.27 189.66 C 540.89 193.21 544.87 195.49 548.98 196.90 C 557.57 199.84 566.60 201.09 575.32 203.57 C 600.29 210.45 624.59 220.90 645.34 236.59 C 656.76 245.39 667.96 255.15 675.18 267.83 C 678.35 274.04 681.05 281.49 678.30 288.37 C 675.11 298.63 667.01 306.41 658.29 312.22 C 646.61 319.88 634.38 326.72 623.22 335.17 C 611.43 343.51 600.47 353.05 590.75 363.74 C 583.42 371.58 577.40 380.52 571.33 389.34 C 554.58 416.18 543.66 446.91 541.21 478.54 C 539.95 487.97 539.66 497.50 539.67 507.01 C 539.70 512.69 538.74 518.32 538.62 524.00 C 538.48 531.99 537.72 540.01 538.70 547.98 C 541.34 579.97 547.24 611.57 550.53 643.49 C 551.76 651.08 551.70 658.80 552.53 666.43 C 554.08 684.61 554.15 702.94 552.18 721.09 C 550.90 741.35 546.82 761.39 540.58 780.69 C 536.48 792.86 531.29 804.70 524.58 815.68 C 518.65 826.34 511.66 836.42 503.54 845.54 C 497.13 853.18 489.11 859.24 481.02 864.99 C 466.29 875.07 449.43 882.74 431.50 884.38 C 420.20 886.03 408.69 886.20 397.38 884.55 C 381.14 882.96 365.15 879.04 350.00 872.97 C 317.88 860.62 288.32 842.14 262.21 819.81 C 249.05 808.01 236.20 795.74 224.99 782.04 C 207.12 761.09 191.66 738.03 179.69 713.21 C 172.21 698.00 166.39 682.05 161.01 666.00 C 153.83 642.97 149.19 619.21 146.31 595.28 C 144.11 580.63 144.65 565.77 144.67 551.01 C 145.02 542.64 143.23 534.36 143.52 526.00 C 143.77 518.00 144.66 510.04 145.86 502.13 C 149.50 481.89 154.33 461.87 159.95 442.09 C 171.57 402.38 189.90 364.64 213.90 330.94 C 231.07 306.88 251.10 284.77 273.96 265.99 C 289.02 254.12 304.13 242.10 321.12 233.07 C 324.63 231.24 328.14 229.38 331.91 228.13 C 334.92 232.61 336.90 237.67 339.94 242.14 C 347.77 254.00 357.83 264.63 370.18 271.82 C 377.11 275.68 385.61 278.18 393.36 275.27 C 400.92 272.85 405.54 264.68 405.06 256.97 C 405.08 251.64 401.81 247.19 398.90 243.02 C 395.00 237.34 390.38 232.20 386.61 226.44 C 378.68 213.86 372.79 199.81 370.91 184.99 C 368.77 173.25 370.23 161.13 373.67 149.78 C 378.68 135.33 387.61 122.18 399.50 112.51 M 561.28 241.66 C 551.28 242.28 541.02 246.89 535.65 255.67 C 531.51 262.13 531.22 270.30 532.57 277.65 C 534.98 288.07 544.22 296.02 554.39 298.53 C 562.03 300.70 570.33 299.56 577.54 296.45 C 590.04 289.84 595.87 273.27 590.64 260.19 C 588.94 254.86 585.12 250.47 580.40 247.57 C 574.75 243.91 568.08 241.48 561.28 241.66 Z" />
</g>
</svg>
