<?xml version="1.0" encoding="UTF-8" ?>
<!DOCTYPE svg PUBLIC "-//W3C//DTD SVG 1.1//EN" "http://www.w3.org/Graphics/SVG/1.1/DTD/svg11.dtd">
<svg width="171pt" height="151pt" viewBox="0 0 171 151" version="1.1" xmlns="http://www.w3.org/2000/svg">
<g id="#3f3c32ff">
<path fill="#3f3c32" opacity="1.00" d=" M 51.56 3.79 C 61.57 2.28 71.71 1.08 81.85 1.49 C 83.45 4.60 85.55 7.44 87.04 10.62 C 87.89 12.38 87.24 14.59 88.23 16.25 C 90.22 17.02 92.45 16.96 94.54 17.44 C 83.05 18.49 71.44 18.68 60.13 21.21 C 62.78 26.29 64.80 32.11 69.42 35.79 C 72.27 36.53 75.25 35.97 78.15 35.82 C 76.44 32.82 74.54 29.95 72.81 26.97 C 80.79 25.67 88.95 26.32 96.93 24.95 C 101.45 24.20 106.05 24.22 110.62 24.36 C 112.99 28.10 115.24 31.93 118.01 35.40 C 121.25 34.94 124.50 34.55 127.75 34.11 C 124.87 28.66 121.07 23.64 116.80 19.20 C 109.98 16.66 102.38 17.34 95.21 17.63 C 97.25 14.16 98.28 10.13 100.93 7.01 C 105.71 3.22 112.05 2.33 117.95 1.79 C 126.88 0.92 136.83 4.99 141.04 13.22 C 142.77 17.01 140.61 20.85 138.83 24.14 C 138.17 27.21 138.63 30.40 138.58 33.52 C 142.33 33.65 146.09 33.59 149.84 33.37 C 150.33 32.11 150.82 30.86 151.34 29.61 C 151.76 29.52 152.59 29.35 153.01 29.26 C 153.81 29.09 155.41 28.74 156.21 28.57 C 155.56 25.91 153.96 23.70 152.24 21.63 C 151.62 18.41 150.41 15.36 149.45 12.24 C 150.42 10.21 152.20 8.78 153.92 7.42 C 156.81 10.12 160.04 12.74 161.55 16.52 C 163.39 19.90 162.18 24.08 159.88 26.92 C 158.89 28.24 157.87 29.55 156.87 30.86 C 158.93 31.19 161.00 31.48 163.05 31.84 C 164.08 33.27 165.21 34.85 164.78 36.72 C 164.27 40.19 165.31 43.56 165.76 46.97 C 165.51 49.56 164.96 52.11 164.63 54.69 C 163.51 62.63 164.68 70.68 163.59 78.63 C 161.66 78.69 159.73 78.73 157.80 78.81 C 159.53 78.57 161.26 78.25 162.99 77.94 C 164.01 68.22 162.98 58.44 163.97 48.72 C 151.97 50.17 139.80 50.07 127.90 52.34 C 131.33 54.31 134.14 57.08 136.54 60.21 C 137.55 60.07 138.57 59.93 139.59 59.79 C 140.55 62.22 143.29 64.45 142.24 67.25 C 140.85 71.69 141.15 76.39 141.27 80.97 C 143.26 80.76 145.26 80.54 147.24 80.23 C 145.09 81.08 143.00 82.04 140.88 82.94 C 140.43 87.55 139.83 92.14 139.58 96.77 C 139.05 101.92 140.27 107.47 137.82 112.26 C 138.32 112.27 139.32 112.29 139.82 112.30 C 140.33 112.33 141.36 112.37 141.87 112.39 C 141.86 113.55 141.86 114.71 141.87 115.88 C 141.55 115.87 140.92 115.84 140.61 115.82 C 139.02 115.25 137.44 114.61 135.86 114.02 C 136.21 112.09 136.60 110.16 137.05 108.26 C 138.36 103.62 137.47 98.76 138.17 94.04 C 139.29 85.43 139.73 76.75 139.77 68.06 C 137.68 68.20 135.59 68.34 133.49 68.46 C 132.95 69.34 132.41 70.22 131.87 71.09 C 131.38 70.97 130.40 70.71 129.92 70.58 C 128.74 70.36 127.54 70.21 126.36 70.05 C 126.02 79.64 125.23 89.20 124.88 98.78 C 126.17 98.42 127.47 98.06 128.76 97.70 C 128.77 98.09 128.77 98.87 128.78 99.26 C 127.79 100.28 126.77 101.27 125.76 102.27 C 124.57 103.47 123.39 104.68 122.28 105.96 C 120.88 107.79 120.08 109.96 119.42 112.14 C 118.49 114.33 117.75 116.58 117.19 118.89 C 115.47 119.62 113.74 120.32 112.02 121.05 C 108.89 122.30 106.33 124.56 103.75 126.67 C 106.52 126.07 109.25 125.35 112.04 124.87 C 113.73 124.83 115.41 124.88 117.10 124.90 C 113.15 126.35 108.76 126.22 104.99 128.25 C 98.53 131.40 91.25 131.84 84.37 133.59 C 79.95 135.05 75.64 137.00 70.93 137.37 C 66.21 137.71 61.77 139.57 57.09 140.17 C 55.97 139.92 54.85 139.65 53.74 139.36 C 56.76 138.42 59.82 137.61 62.92 136.96 C 67.17 136.21 71.55 135.56 75.26 133.21 C 78.64 130.83 82.86 131.88 86.68 131.92 C 86.81 130.57 86.94 129.22 87.07 127.88 C 80.86 129.15 73.51 129.12 68.99 134.24 C 66.89 134.02 64.72 133.86 62.69 134.58 C 58.54 135.95 54.15 136.35 49.83 135.68 C 49.45 137.50 49.09 139.33 48.83 141.17 C 47.20 138.76 45.20 136.64 42.97 134.79 C 42.67 131.90 42.94 128.02 46.29 127.08 C 49.43 126.14 51.31 129.46 53.54 131.04 C 52.73 132.14 51.91 133.24 51.12 134.36 C 56.39 134.10 61.53 132.86 66.71 131.99 C 64.70 130.14 61.79 128.20 62.66 125.03 C 62.42 121.86 65.56 120.44 67.29 118.33 C 68.06 115.17 67.83 111.88 67.96 108.66 C 56.13 110.37 44.48 113.51 32.46 113.68 C 36.05 111.04 40.71 111.71 44.87 110.89 C 52.87 109.53 60.84 107.99 68.82 106.49 C 68.53 105.83 68.25 105.18 67.96 104.53 C 56.24 106.55 44.48 108.37 32.85 110.88 C 32.49 111.93 32.13 112.98 31.79 114.04 C 31.67 121.84 32.45 129.61 33.19 137.36 C 36.44 136.78 39.69 136.17 42.97 135.81 C 39.77 138.83 34.95 138.48 30.96 139.71 C 30.72 140.31 30.24 141.50 30.00 142.10 C 27.22 140.46 23.93 140.08 20.76 140.02 C 22.16 139.31 23.59 138.45 24.32 136.99 C 23.76 135.56 22.32 135.18 20.97 134.89 C 19.47 134.67 18.80 135.35 18.98 136.96 L 19.07 138.06 C 17.61 137.78 16.92 138.44 17.00 140.06 C 16.52 140.35 15.55 140.93 15.07 141.22 C 15.32 137.65 14.66 134.11 13.75 130.67 C 12.26 131.15 10.50 131.23 9.34 132.39 C 8.53 134.73 8.81 137.25 8.77 139.68 C 9.28 140.04 10.30 140.76 10.80 141.12 C 11.04 138.99 11.29 136.86 11.58 134.73 C 12.60 137.02 13.48 139.36 14.37 141.70 C 12.52 142.98 10.75 144.38 8.99 145.78 C 8.62 144.74 8.25 143.70 7.91 142.65 C 7.77 142.19 7.50 141.28 7.37 140.82 C 7.33 140.68 7.25 140.40 7.21 140.26 C 6.52 136.43 4.03 133.04 4.22 129.04 C 4.42 122.05 4.34 115.06 4.45 108.07 L 5.12 107.72 C 6.13 115.84 4.07 124.13 5.87 132.13 C 6.19 132.64 6.84 133.66 7.16 134.17 C 7.37 133.40 7.79 131.87 8.00 131.10 C 8.68 127.64 9.15 124.14 9.74 120.66 C 9.85 123.32 10.01 125.97 10.17 128.62 C 11.59 128.98 13.02 129.34 14.45 129.71 C 15.27 131.61 16.13 133.51 17.05 135.38 C 17.34 127.96 17.22 120.53 18.07 113.14 C 17.34 113.03 15.90 112.81 15.17 112.70 C 13.75 112.32 12.34 111.89 10.94 111.47 C 10.75 109.75 10.56 108.04 10.36 106.34 C 9.57 106.69 8.77 107.05 7.98 107.41 C 7.72 106.56 7.47 105.70 7.23 104.85 C 6.77 102.75 6.48 100.62 6.21 98.49 C 10.43 98.13 14.61 97.35 18.59 95.86 C 23.37 95.86 28.11 95.34 32.88 95.05 C 33.77 95.00 35.56 94.89 36.46 94.84 C 35.18 89.93 31.87 85.97 29.70 81.47 C 24.13 82.33 20.22 88.85 21.72 94.26 C 20.97 94.63 20.22 95.00 19.46 95.37 C 16.71 95.14 13.97 95.60 11.23 95.57 C 8.31 94.74 5.68 93.15 2.97 91.83 C 3.21 88.93 5.54 87.00 8.12 86.07 C 9.82 85.37 11.57 84.79 13.32 84.23 C 10.49 86.46 7.44 88.39 4.45 90.39 C 6.06 91.04 7.78 92.68 9.57 91.61 C 12.93 90.01 16.32 88.31 20.12 88.16 C 19.87 86.81 19.63 85.47 19.38 84.12 C 16.91 82.86 14.39 81.70 11.81 80.66 C 13.31 80.19 14.82 79.74 16.33 79.32 C 16.44 74.50 16.88 69.69 16.95 64.87 L 16.97 64.22 C 17.08 60.96 17.06 57.68 16.65 54.44 C 20.58 59.46 23.52 65.48 28.96 69.10 C 28.47 67.00 27.95 64.90 27.43 62.80 C 27.75 62.93 28.37 63.20 28.68 63.33 C 30.00 63.90 31.35 64.64 32.85 64.52 C 40.63 64.06 48.49 63.93 56.11 62.06 C 62.41 60.49 68.91 60.28 75.35 59.85 C 72.84 57.62 70.25 55.49 67.85 53.14 C 66.78 50.92 66.01 48.57 65.27 46.22 C 63.17 46.22 61.06 46.23 58.96 46.37 C 61.42 44.48 64.35 44.88 67.13 45.70 C 67.28 48.65 68.84 51.16 70.96 53.13 C 70.80 50.22 70.16 47.30 68.36 44.95 C 68.12 44.65 67.65 44.04 67.41 43.73 C 66.10 42.07 64.91 40.27 63.27 38.91 C 61.82 38.42 60.26 38.85 58.77 38.90 C 56.65 37.85 54.99 36.13 54.12 33.91 C 53.71 32.47 53.58 30.93 52.90 29.59 C 51.32 28.39 49.54 27.46 48.00 26.20 C 47.74 25.70 47.21 24.71 46.94 24.22 C 48.47 24.77 49.95 25.43 51.42 26.12 C 51.49 26.16 51.64 26.23 51.72 26.26 L 51.76 26.03 C 52.95 21.74 51.65 17.38 51.58 13.06 C 51.47 9.97 51.49 6.88 51.56 3.79 M 53.93 5.23 C 55.49 7.80 56.32 11.57 59.13 12.90 C 67.80 12.78 76.38 10.76 85.10 11.00 C 83.23 8.08 82.43 2.55 78.07 2.86 C 69.99 3.13 61.88 3.72 53.93 5.23 M 107.63 6.57 C 104.29 8.18 101.10 11.23 101.60 15.27 C 106.54 15.74 111.54 15.84 116.45 16.64 C 119.15 18.63 121.09 21.43 123.34 23.87 C 126.94 23.38 130.84 23.25 133.80 20.85 C 137.44 18.68 137.44 13.60 135.73 10.19 C 133.74 6.69 129.76 4.99 126.07 3.90 C 119.88 1.94 113.27 3.85 107.63 6.57 M 53.05 7.77 C 52.95 9.99 53.08 12.21 53.40 14.40 C 52.32 17.19 52.99 20.29 53.49 23.14 C 53.86 23.55 54.61 24.38 54.99 24.79 C 55.32 25.29 55.98 26.30 56.30 26.80 C 54.55 27.09 54.77 30.11 56.25 30.69 C 57.74 30.42 57.20 28.25 56.68 27.33 C 56.96 22.86 56.97 18.38 56.75 13.91 C 56.02 13.85 54.56 13.72 53.83 13.66 C 55.74 11.71 54.46 9.54 53.05 7.77 M 151.26 12.07 C 152.44 15.58 153.44 19.14 154.33 22.73 C 155.16 23.20 156.00 23.66 156.84 24.13 C 156.57 22.05 156.31 19.96 156.12 17.87 C 157.21 19.79 158.29 21.75 159.89 23.30 C 162.01 18.15 157.96 13.77 154.62 10.37 C 153.19 9.97 152.30 11.38 151.26 12.07 M 65.48 14.39 C 62.99 13.97 60.50 14.57 58.05 14.94 C 58.06 16.49 58.07 18.04 58.07 19.59 C 61.53 19.24 65.04 18.99 68.38 17.94 C 72.47 17.60 76.52 16.82 80.65 16.89 C 80.60 15.85 80.56 14.81 80.53 13.77 C 82.41 14.28 83.76 15.72 85.21 16.93 C 85.57 15.69 85.93 14.45 86.27 13.20 C 79.32 12.85 72.31 12.95 65.48 14.39 M 134.75 22.74 C 131.61 24.52 127.77 24.71 124.81 26.89 C 130.58 26.97 138.74 24.76 139.45 17.97 C 137.91 19.58 136.57 21.42 134.75 22.74 M 58.05 34.07 L 59.12 34.00 C 59.03 29.90 59.15 25.79 58.61 21.72 C 57.55 25.75 58.12 29.96 58.05 34.07 M 88.94 27.34 C 84.34 27.44 79.76 27.93 75.17 28.02 C 77.32 31.15 79.42 34.32 81.38 37.58 C 82.19 37.64 83.00 37.70 83.81 37.76 C 84.86 42.91 84.80 48.17 85.18 53.39 C 87.31 51.07 88.91 48.33 91.03 46.01 C 90.25 45.85 88.69 45.54 87.91 45.38 C 89.21 42.37 92.63 41.28 95.24 39.68 C 95.31 38.80 95.37 37.92 95.44 37.04 C 97.77 36.35 100.14 35.77 102.44 35.00 C 104.59 35.40 106.78 35.48 108.96 35.58 C 109.34 32.53 109.61 29.47 109.75 26.39 C 108.53 26.27 107.30 26.15 106.08 26.02 C 100.31 25.77 94.69 27.33 88.94 27.34 M 127.97 29.31 C 128.31 30.17 128.66 31.02 129.02 31.87 C 129.98 31.22 130.95 30.59 131.93 29.97 C 131.40 31.45 130.83 32.91 130.28 34.37 C 132.47 34.20 134.65 33.94 136.83 33.69 C 136.88 33.03 136.98 31.72 137.03 31.06 C 136.37 30.37 135.71 29.68 135.05 29.00 C 135.82 27.93 136.58 26.85 137.30 25.75 C 134.16 26.86 131.07 28.10 127.97 29.31 M 60.89 27.96 C 61.16 29.94 61.71 31.87 63.24 33.25 C 62.49 34.18 61.72 35.11 60.97 36.04 C 62.59 36.11 64.21 36.13 65.84 36.14 C 65.81 37.04 65.77 37.94 65.74 38.84 C 66.74 39.25 67.73 39.66 68.73 40.07 C 66.36 35.88 63.47 32.02 60.89 27.96 M 111.27 28.99 C 111.25 31.59 111.02 34.21 111.29 36.81 C 112.13 39.33 113.34 41.71 114.37 44.15 C 114.95 43.39 116.37 42.52 115.46 41.43 C 114.11 38.92 112.14 36.65 111.89 33.68 C 113.36 34.45 114.74 35.35 116.12 36.26 C 114.56 33.80 112.99 31.34 111.27 28.99 M 154.08 30.33 C 151.99 31.00 154.14 34.52 155.80 33.36 C 156.77 32.21 155.52 30.19 154.08 30.33 M 151.61 33.88 C 151.81 36.03 153.09 37.68 155.17 38.33 C 154.61 36.38 153.58 34.64 151.61 33.88 M 138.02 35.49 C 132.32 36.24 126.50 35.61 120.85 36.75 L 120.70 36.50 C 119.18 37.30 117.63 38.06 116.09 38.81 C 119.37 42.22 121.92 46.46 125.97 49.03 C 125.99 45.43 122.00 43.19 122.62 39.57 C 124.30 41.68 126.18 43.61 127.97 45.63 C 132.67 45.03 137.27 43.70 142.03 43.54 C 148.53 43.26 155.07 43.77 161.55 42.97 C 161.40 42.46 161.09 41.44 160.94 40.92 C 157.90 40.54 154.82 40.50 151.84 39.71 C 151.15 38.26 150.44 36.83 149.73 35.39 C 145.84 35.14 141.88 34.64 138.02 35.49 M 99.99 37.85 C 98.28 40.01 96.08 41.65 93.44 42.51 C 93.63 46.38 90.72 49.12 88.71 52.07 C 91.44 51.88 94.26 51.91 96.87 51.00 C 100.30 49.46 102.67 45.80 106.60 45.38 C 109.30 45.09 111.00 47.81 113.44 48.45 C 115.11 48.63 116.79 48.30 118.45 48.11 C 116.87 45.91 114.13 45.41 111.76 44.49 C 111.17 41.50 109.35 39.12 106.95 37.34 C 106.26 37.72 105.57 38.10 104.89 38.49 C 103.33 38.13 101.32 36.15 99.99 37.85 M 155.67 38.44 C 158.26 38.55 160.85 38.82 163.27 39.83 C 163.16 39.13 162.93 37.74 162.82 37.04 C 160.40 37.27 157.71 36.84 155.67 38.44 M 72.63 43.98 C 75.14 44.57 77.86 44.72 80.16 43.35 C 77.63 43.17 75.10 43.44 72.63 43.98 M 117.30 43.57 C 116.74 45.17 118.93 47.32 120.51 46.82 C 120.81 45.30 118.84 43.18 117.30 43.57 M 82.03 44.23 C 80.44 47.19 85.37 44.44 82.03 44.23 M 129.37 47.47 C 127.80 47.98 127.02 49.61 125.98 50.76 C 138.59 48.24 151.54 49.01 164.17 46.66 C 163.97 46.31 163.56 45.61 163.36 45.26 C 159.62 44.52 155.78 45.22 152.00 45.14 C 144.41 45.11 136.69 45.23 129.37 47.47 M 72.07 47.97 C 72.12 50.45 72.17 52.92 72.20 55.40 C 75.39 55.31 78.41 54.21 81.37 53.12 C 81.25 51.11 81.15 49.11 81.02 47.11 C 78.03 47.23 75.03 47.48 72.07 47.97 M 121.27 51.59 C 122.49 52.34 123.72 53.08 124.95 53.82 C 125.09 53.54 125.37 52.98 125.50 52.71 C 124.32 51.60 123.20 50.44 122.10 49.25 C 121.82 50.03 121.54 50.81 121.27 51.59 M 114.79 50.99 C 116.87 53.03 119.48 54.37 122.25 55.21 C 120.34 53.35 117.86 49.05 114.79 50.99 M 94.92 55.90 C 91.71 60.13 88.51 64.42 86.07 69.16 C 100.55 67.97 114.98 65.86 129.09 62.38 C 126.88 59.51 123.08 58.78 120.19 56.79 C 115.74 54.40 111.52 50.13 106.05 51.04 C 102.05 51.60 97.50 52.45 94.92 55.90 M 75.08 56.74 C 77.98 60.68 80.77 64.71 84.04 68.36 C 87.27 63.48 90.48 58.59 93.92 53.87 C 87.55 54.10 81.31 55.46 75.08 56.74 M 125.64 54.70 C 127.89 57.47 130.64 59.84 132.40 62.99 C 133.63 62.88 134.86 62.75 136.09 62.63 C 133.39 59.27 130.18 55.15 125.64 54.70 M 18.25 59.01 C 18.50 65.05 18.22 71.08 17.71 77.09 C 16.95 80.60 20.51 82.49 22.26 84.98 C 24.39 82.77 25.43 79.80 24.77 76.76 C 26.17 77.95 27.65 79.04 29.13 80.13 C 29.82 77.34 29.89 74.45 29.72 71.59 C 27.83 71.40 25.97 70.94 24.33 69.94 C 24.43 69.55 24.63 68.75 24.73 68.35 C 22.10 65.56 19.27 62.85 18.25 59.01 M 66.98 62.02 C 69.31 65.64 71.76 69.30 75.19 71.99 C 77.87 72.33 80.56 71.77 83.23 71.56 C 81.46 67.79 78.75 64.60 76.02 61.51 C 73.00 61.60 69.98 61.74 66.98 62.02 M 39.05 65.88 C 36.02 66.17 32.36 65.45 30.25 68.21 C 34.83 69.01 39.46 68.06 44.06 67.88 C 49.94 67.25 55.91 67.19 61.72 65.96 C 61.73 65.28 61.74 63.93 61.75 63.26 C 54.20 64.20 46.68 65.66 39.05 65.88 M 63.01 64.75 C 66.55 68.91 69.17 74.04 73.82 77.11 C 73.62 75.48 74.01 73.53 72.68 72.28 C 70.21 69.41 68.01 66.33 65.51 63.49 C 64.42 63.14 63.75 64.17 63.01 64.75 M 131.66 66.82 C 134.72 66.75 137.74 66.10 140.53 64.82 C 137.54 62.80 133.91 64.51 131.66 66.82 M 124.23 64.95 C 124.23 66.30 124.24 67.64 124.25 68.99 C 125.55 68.95 126.85 68.90 128.15 68.84 C 126.92 67.47 125.59 66.19 124.23 64.95 M 120.08 66.18 C 120.01 68.50 119.98 70.82 119.95 73.14 C 120.68 73.11 122.15 73.03 122.89 73.00 C 122.83 70.72 122.79 68.44 122.78 66.16 C 122.10 66.17 120.75 66.17 120.08 66.18 M 101.38 69.34 C 101.35 71.81 101.33 74.28 101.33 76.76 C 104.32 76.38 107.29 75.89 110.24 75.32 C 110.72 73.11 110.14 69.93 112.83 69.07 C 113.50 70.79 114.04 72.59 115.00 74.18 C 118.39 74.14 116.54 69.28 117.12 67.00 C 111.93 68.12 106.64 68.64 101.38 69.34 M 45.99 69.49 C 41.10 69.99 36.10 69.72 31.32 71.07 C 31.40 73.94 31.22 76.83 31.58 79.69 C 32.23 82.13 33.36 84.42 34.13 86.83 C 35.18 86.68 36.22 86.53 37.27 86.39 C 37.16 89.23 37.72 92.02 38.28 94.79 C 38.78 94.82 39.77 94.89 40.27 94.92 C 40.95 90.51 43.23 86.56 45.63 82.88 C 44.79 81.66 43.98 80.43 43.20 79.18 C 43.60 78.91 44.41 78.39 44.81 78.13 C 45.57 78.73 46.32 79.33 47.08 79.93 C 47.48 77.16 47.50 74.27 48.62 71.66 C 50.43 70.81 52.41 70.41 54.34 69.93 C 54.24 71.56 54.15 73.19 54.06 74.82 C 55.61 75.66 57.18 76.47 58.79 77.19 C 58.42 78.84 58.05 80.49 57.70 82.14 C 57.27 81.08 56.84 80.01 56.42 78.95 L 56.31 78.16 C 55.07 77.96 53.84 77.76 52.61 77.56 C 52.50 75.67 52.30 73.79 51.97 71.93 C 51.02 72.54 49.66 72.95 49.59 74.31 C 48.77 78.10 48.12 81.94 46.86 85.63 C 46.31 85.87 45.74 86.09 45.17 86.30 C 44.92 89.17 44.03 91.90 42.09 94.08 C 44.00 93.76 45.91 93.43 47.81 93.07 C 51.78 92.07 56.08 92.41 59.84 90.63 C 59.68 92.57 63.25 91.71 61.93 90.13 C 60.95 89.36 59.94 88.63 59.09 87.73 C 58.13 85.82 59.24 83.79 59.72 81.93 C 59.97 84.02 60.39 86.09 60.78 88.16 C 62.34 81.69 61.34 74.87 62.74 68.32 C 57.13 68.17 51.58 69.17 45.99 69.49 M 63.91 69.95 C 63.84 75.33 63.33 80.68 63.25 86.06 C 63.57 88.67 63.46 91.32 62.63 93.84 C 64.50 96.47 66.37 99.15 68.86 101.24 C 70.60 102.58 71.39 104.79 71.56 106.91 C 70.85 108.42 69.55 109.67 69.31 111.37 C 69.06 113.88 69.23 116.40 69.26 118.92 C 69.91 118.99 71.20 119.13 71.85 119.20 C 72.88 106.87 74.36 94.53 73.66 82.13 C 73.43 81.61 72.99 80.56 72.77 80.04 L 73.17 79.84 C 69.04 77.69 66.86 73.36 63.91 69.95 M 94.70 70.05 C 95.36 72.55 95.78 75.11 96.21 77.66 C 96.84 77.69 98.10 77.76 98.73 77.79 C 98.73 75.19 98.70 72.59 98.64 69.99 C 97.32 70.01 96.01 70.03 94.70 70.05 M 84.90 71.90 C 85.17 72.44 85.71 73.54 85.99 74.09 C 87.52 74.41 89.05 74.73 90.57 75.07 C 90.81 76.52 91.08 77.97 91.38 79.41 C 93.05 76.91 92.29 73.72 92.60 70.88 C 89.99 70.85 87.38 71.05 84.90 71.90 M 75.29 74.24 C 75.25 75.43 75.21 76.63 75.18 77.83 C 78.01 77.49 80.90 77.26 83.63 76.40 C 84.98 75.14 83.46 74.14 82.66 73.15 C 80.19 73.40 77.72 73.74 75.29 74.24 M 91.18 80.47 C 89.46 91.19 89.50 102.10 88.71 112.91 C 90.59 114.57 92.10 116.57 93.61 118.56 C 95.03 119.26 96.61 117.93 98.07 117.75 C 98.12 115.64 97.24 113.75 96.07 112.05 C 97.20 109.81 98.49 107.64 99.64 105.40 C 104.02 108.26 109.30 106.45 114.15 106.67 C 113.53 109.15 112.97 111.65 112.77 114.20 C 114.26 113.99 115.75 113.75 117.24 113.50 C 116.89 110.53 118.12 107.88 120.22 105.82 C 119.80 104.58 119.36 103.34 118.93 102.11 C 119.96 101.58 121.00 101.05 122.03 100.52 C 121.07 98.80 119.94 97.19 118.82 95.58 C 119.88 95.56 120.93 95.54 121.98 95.53 C 122.89 88.64 123.70 81.72 124.07 74.78 C 113.02 76.12 102.12 78.47 91.18 80.47 M 85.16 79.09 C 84.56 84.36 84.65 89.67 84.19 94.95 C 84.09 104.04 82.52 113.03 82.09 122.09 C 82.55 120.54 82.90 118.96 83.47 117.45 C 84.45 115.19 86.99 113.67 86.97 111.02 C 87.53 105.00 87.80 98.96 88.12 92.93 C 88.41 87.22 89.41 81.51 88.81 75.78 C 87.49 76.69 85.28 77.17 85.16 79.09 M 76.05 79.27 C 74.34 85.36 75.64 91.77 75.05 97.99 C 75.45 106.67 72.42 115.29 74.07 123.93 C 75.98 123.59 77.89 123.23 79.80 122.90 C 81.89 108.16 82.93 93.31 83.36 78.43 C 80.92 78.69 78.48 78.99 76.05 79.27 M 16.03 98.04 C 17.49 100.55 18.50 103.61 21.01 105.30 C 23.61 105.45 26.21 105.07 28.82 105.21 C 30.57 106.07 31.77 107.71 33.18 109.03 C 44.37 106.67 55.72 105.18 66.95 102.99 C 64.64 99.62 62.35 96.24 59.79 93.07 C 45.36 95.95 30.72 97.43 16.03 98.04 M 8.83 101.09 C 9.42 102.53 10.04 103.97 10.71 105.38 C 11.27 103.94 11.81 102.48 12.32 101.02 C 11.45 101.04 9.70 101.07 8.83 101.09 M 11.93 105.87 C 14.03 105.89 16.13 105.88 18.24 105.79 C 17.01 104.53 15.62 103.45 14.09 102.57 C 13.37 103.66 12.64 104.76 11.93 105.87 M 11.75 110.02 C 13.88 110.01 16.02 109.97 18.15 109.91 C 18.51 106.37 11.39 106.51 11.75 110.02 M 98.61 110.73 C 103.17 110.25 107.73 109.54 112.16 108.34 C 107.61 108.64 102.68 108.35 98.61 110.73 M 18.59 110.46 L 19.60 110.40 C 19.70 113.25 19.57 116.11 19.68 118.96 C 18.11 123.74 19.23 129.00 19.17 133.96 C 20.70 133.39 23.02 133.67 23.67 131.80 C 27.53 124.73 24.68 116.50 25.02 108.90 C 22.82 109.12 20.23 108.61 18.59 110.46 M 26.97 110.80 C 26.90 116.51 27.38 122.20 27.37 127.90 C 28.46 127.95 29.55 127.99 30.64 128.04 C 30.14 122.26 32.11 115.00 26.97 110.80 M 101.18 112.21 C 101.12 113.59 101.06 114.97 100.99 116.35 C 104.01 116.20 106.97 115.56 109.87 114.72 C 109.99 113.39 110.11 112.06 110.22 110.73 C 107.18 111.03 104.17 111.60 101.18 112.21 M 86.70 126.44 C 87.29 124.22 87.89 121.99 88.66 119.83 C 88.96 121.67 89.23 123.52 89.53 125.36 C 92.64 122.64 92.28 115.60 87.17 115.83 C 82.95 117.94 84.20 123.48 86.70 126.44 M 103.06 117.87 C 99.21 119.09 94.30 119.34 92.12 123.26 C 93.69 123.57 95.29 123.77 96.90 123.60 C 97.40 123.91 98.40 124.53 98.91 124.84 C 95.53 125.45 91.92 125.78 89.17 128.05 C 89.41 128.93 89.65 129.80 89.89 130.68 C 93.43 129.71 97.05 129.09 100.69 128.66 C 100.36 127.88 100.03 127.09 99.70 126.31 C 100.82 125.38 101.94 124.43 103.04 123.47 C 104.08 123.46 105.12 123.43 106.16 123.38 C 107.21 122.10 108.26 120.82 109.36 119.57 C 111.55 119.20 116.96 119.58 115.71 116.14 C 111.49 114.89 107.20 117.12 103.06 117.87 M 64.99 122.28 C 64.46 124.73 64.11 127.33 65.66 129.50 C 66.61 128.28 67.54 127.03 68.47 125.79 C 68.77 127.25 69.07 128.71 69.39 130.17 C 72.24 127.86 72.17 124.11 72.03 120.77 C 69.59 120.76 67.21 121.31 64.99 122.28 M 82.33 123.88 C 79.33 125.53 74.51 124.40 72.76 127.79 C 76.27 127.86 79.75 127.28 83.20 126.68 C 85.91 126.88 83.36 121.16 82.33 123.88 M 46.03 135.31 C 47.06 133.04 48.26 130.86 49.42 128.65 C 45.49 127.41 42.09 133.14 46.03 135.31 M 26.06 130.19 C 24.94 133.25 25.22 136.56 27.06 139.29 C 27.73 137.81 28.34 136.29 28.91 134.77 C 29.59 135.82 30.27 136.88 30.97 137.93 C 31.44 135.48 31.53 132.96 30.65 130.59 C 29.12 130.46 27.59 130.32 26.06 130.19 Z" />
<path fill="#3f3c32" opacity="1.00" d=" M 95.59 29.19 C 96.71 29.58 97.84 29.99 98.96 30.42 C 97.72 31.31 96.48 32.19 95.21 33.04 C 95.32 31.75 95.45 30.47 95.59 29.19 Z" />
<path fill="#3f3c32" opacity="1.00" d=" M 145.27 53.05 C 147.06 52.38 147.87 55.38 145.99 55.70 C 144.29 56.22 143.46 53.41 145.27 53.05 Z" />
<path fill="#3f3c32" opacity="1.00" d=" M 151.12 53.26 C 152.49 53.09 153.85 52.93 155.22 52.79 C 155.08 53.99 154.54 54.95 153.61 55.66 C 152.38 55.38 151.88 54.11 151.12 53.26 Z" />
<path fill="#3f3c32" opacity="1.00" d=" M 137.32 54.27 C 137.94 54.26 139.18 54.24 139.80 54.23 C 139.76 54.83 139.69 56.04 139.66 56.64 C 139.11 56.62 138.02 56.57 137.47 56.55 C 137.43 55.98 137.36 54.84 137.32 54.27 Z" />
<path fill="#3f3c32" opacity="1.00" d=" M 144.82 59.83 C 145.29 59.64 146.24 59.26 146.71 59.07 C 146.79 59.81 146.94 61.29 147.02 62.03 C 146.29 61.94 144.81 61.77 144.08 61.68 C 144.26 61.22 144.64 60.29 144.82 59.83 Z" />
<path fill="#3f3c32" opacity="1.00" d=" M 78.27 80.29 C 78.91 80.30 80.19 80.31 80.83 80.32 C 80.71 81.32 80.58 82.32 80.45 83.32 C 79.91 83.43 78.81 83.64 78.26 83.74 C 78.26 82.59 78.27 81.44 78.27 80.29 Z" />
<path fill="#3f3c32" opacity="1.00" d=" M 78.23 87.20 C 78.86 87.21 80.10 87.23 80.72 87.24 C 80.72 87.88 80.71 89.15 80.71 89.78 C 80.08 89.80 78.83 89.82 78.20 89.83 C 78.21 89.18 78.22 87.86 78.23 87.20 Z" />
<path fill="#3f3c32" opacity="1.00" d=" M 106.95 91.52 C 107.57 90.63 108.20 89.75 108.84 88.88 C 109.10 89.41 109.61 90.47 109.87 91.00 C 109.66 91.49 109.24 92.47 109.03 92.96 C 108.51 92.60 107.47 91.88 106.95 91.52 Z" />
<path fill="#3f3c32" opacity="1.00" d=" M 133.98 96.68 C 134.28 95.30 133.38 92.19 135.84 93.17 C 135.97 94.33 136.06 95.49 136.13 96.66 C 135.59 96.67 134.52 96.68 133.98 96.68 Z" />
<path fill="#3f3c32" opacity="1.00" d=" M 90.95 102.82 C 91.55 101.48 92.18 100.15 92.84 98.83 C 93.24 100.16 93.63 101.50 94.01 102.84 C 93.25 102.84 91.72 102.83 90.95 102.82 Z" />
<path fill="#3f3c32" opacity="1.00" d=" M 99.39 98.84 C 100.53 99.52 101.48 100.45 102.15 101.61 C 101.37 101.75 99.81 102.05 99.03 102.20 C 99.12 101.36 99.30 99.68 99.39 98.84 Z" />
<path fill="#3f3c32" opacity="1.00" d=" M 91.25 107.36 C 92.58 105.88 94.88 108.18 93.35 109.47 C 92.00 110.96 89.73 108.69 91.25 107.36 Z" />
</g>
<g id="#c1c8c1ff">
<path fill="#c1c8c1" opacity="1.00" d=" M 53.93 5.23 C 61.88 3.72 69.99 3.13 78.07 2.86 C 82.43 2.55 83.23 8.08 85.10 11.00 C 76.38 10.76 67.80 12.78 59.13 12.90 C 56.32 11.57 55.49 7.80 53.93 5.23 Z" />
</g>
<g id="#c1c6c4ff">
<path fill="#c1c6c4" opacity="1.00" d=" M 107.63 6.57 C 113.27 3.85 119.88 1.94 126.07 3.90 C 129.76 4.99 133.74 6.69 135.73 10.19 C 137.44 13.60 137.44 18.68 133.80 20.85 C 130.84 23.25 126.94 23.38 123.34 23.87 C 121.09 21.43 119.15 18.63 116.45 16.64 C 111.54 15.84 106.54 15.74 101.60 15.27 C 101.10 11.23 104.29 8.18 107.63 6.57 Z" />
</g>
<g id="#c0c8c3ff">
<path fill="#c0c8c3" opacity="1.00" d=" M 94.94 16.17 C 97.11 13.23 98.59 9.84 100.93 7.01 C 98.28 10.13 97.25 14.16 95.21 17.63 C 102.38 17.34 109.98 16.66 116.80 19.20 C 121.07 23.64 124.87 28.66 127.75 34.11 C 124.50 34.55 121.25 34.94 118.01 35.40 C 115.24 31.93 112.99 28.10 110.62 24.36 C 106.05 24.22 101.45 24.20 96.93 24.95 C 88.95 26.32 80.79 25.67 72.81 26.97 C 74.54 29.95 76.44 32.82 78.15 35.82 C 75.25 35.97 72.27 36.53 69.42 35.79 C 64.80 32.11 62.78 26.29 60.13 21.21 C 71.44 18.68 83.05 18.49 94.54 17.44 C 92.45 16.96 90.22 17.02 88.23 16.25 C 90.43 16.08 92.98 17.38 94.94 16.17 Z" />
</g>
<g id="#a3998cff">
<path fill="#a3998c" opacity="1.00" d=" M 53.05 7.77 C 54.46 9.54 55.74 11.71 53.83 13.66 L 53.40 14.40 C 53.08 12.21 52.95 9.99 53.05 7.77 Z" />
</g>
<g id="#81a441ff">
<path fill="#81a441" opacity="1.00" d=" M 151.26 12.07 C 152.30 11.38 153.19 9.97 154.62 10.37 C 157.96 13.77 162.01 18.15 159.89 23.30 C 158.29 21.75 157.21 19.79 156.12 17.87 C 156.31 19.96 156.57 22.05 156.84 24.13 C 156.00 23.66 155.16 23.20 154.33 22.73 C 153.44 19.14 152.44 15.58 151.26 12.07 Z" />
</g>
<g id="#d5d3ccff">
<path fill="#d5d3cc" opacity="1.00" d=" M 65.48 14.39 C 72.31 12.95 79.32 12.85 86.27 13.20 C 85.93 14.45 85.57 15.69 85.21 16.93 C 83.76 15.72 82.41 14.28 80.53 13.77 C 80.56 14.81 80.60 15.85 80.65 16.89 C 76.52 16.82 72.47 17.60 68.38 17.94 L 67.75 17.38 C 69.66 17.13 68.86 14.31 67.14 14.67 C 66.73 14.60 65.90 14.46 65.48 14.39 M 73.42 15.04 C 73.63 18.40 76.40 13.48 73.42 15.04 Z" />
<path fill="#d5d3cc" opacity="1.00" d=" M 125.64 54.70 C 130.18 55.15 133.39 59.27 136.09 62.63 C 134.86 62.75 133.63 62.88 132.40 62.99 C 130.64 59.84 127.89 57.47 125.64 54.70 Z" />
</g>
<g id="#4f493fff">
<path fill="#4f493f" opacity="1.00" d=" M 53.40 14.40 L 53.83 13.66 C 54.56 13.72 56.02 13.85 56.75 13.91 C 56.97 18.38 56.96 22.86 56.68 27.33 L 56.30 26.80 C 55.98 26.30 55.32 25.29 54.99 24.79 C 55.91 23.99 56.31 23.00 56.19 21.83 C 55.40 20.17 53.60 22.01 53.49 23.14 C 52.99 20.29 52.32 17.19 53.40 14.40 M 54.04 15.22 C 53.50 16.86 54.04 17.42 55.68 16.90 C 56.21 15.28 55.67 14.72 54.04 15.22 Z" />
<path fill="#4f493f" opacity="1.00" d=" M 152.29 59.18 C 152.90 59.19 154.12 59.19 154.74 59.19 C 154.72 59.82 154.69 61.07 154.68 61.69 C 154.10 61.70 152.93 61.70 152.35 61.70 C 152.33 61.07 152.30 59.81 152.29 59.18 Z" />
<path fill="#4f493f" opacity="1.00" d=" M 159.17 58.97 C 159.80 59.02 161.07 59.11 161.70 59.16 C 161.69 59.79 161.67 61.04 161.66 61.66 C 161.07 61.67 159.89 61.70 159.30 61.71 C 159.26 61.02 159.20 59.65 159.17 58.97 Z" />
<path fill="#4f493f" opacity="1.00" d=" M 100.15 85.68 C 99.95 83.78 100.72 82.65 102.72 82.77 C 102.71 83.51 102.71 84.99 102.71 85.72 C 102.07 85.71 100.79 85.69 100.15 85.68 Z" />
</g>
<g id="#b4ada4ff">
<path fill="#b4ada4" opacity="1.00" d=" M 58.05 14.94 C 60.50 14.57 62.99 13.97 65.48 14.39 C 65.90 14.46 66.73 14.60 67.14 14.67 C 67.30 15.35 67.60 16.70 67.75 17.38 L 68.38 17.94 C 65.04 18.99 61.53 19.24 58.07 19.59 C 58.07 18.04 58.06 16.49 58.05 14.94 M 60.20 16.13 C 59.69 17.75 60.25 18.30 61.88 17.77 C 62.39 16.14 61.83 15.59 60.20 16.13 Z" />
<path fill="#b4ada4" opacity="1.00" d=" M 154.52 80.55 C 157.10 80.27 159.70 80.54 162.24 81.06 C 159.67 81.16 156.94 81.70 154.52 80.55 Z" />
</g>
<g id="#b7b0a2ff">
<path fill="#b7b0a2" opacity="1.00" d=" M 54.04 15.22 C 55.67 14.72 56.21 15.28 55.68 16.90 C 54.04 17.42 53.50 16.86 54.04 15.22 Z" />
</g>
<g id="#5d554dff">
<path fill="#5d554d" opacity="1.00" d=" M 67.14 14.67 C 68.86 14.31 69.66 17.13 67.75 17.38 C 67.60 16.70 67.30 15.35 67.14 14.67 Z" />
</g>
<g id="#423c35ff">
<path fill="#423c35" opacity="1.00" d=" M 73.42 15.04 C 76.40 13.48 73.63 18.40 73.42 15.04 Z" />
</g>
<g id="#544d46ff">
<path fill="#544d46" opacity="1.00" d=" M 60.20 16.13 C 61.83 15.59 62.39 16.14 61.88 17.77 C 60.25 18.30 59.69 17.75 60.20 16.13 Z" />
</g>
<g id="#6b5d69ff">
<path fill="#6b5d69" opacity="1.00" d=" M 134.75 22.74 C 136.57 21.42 137.91 19.58 139.45 17.97 C 138.74 24.76 130.58 26.97 124.81 26.89 C 127.77 24.71 131.61 24.52 134.75 22.74 Z" />
</g>
<g id="#a79e91ff">
<path fill="#a79e91" opacity="1.00" d=" M 53.49 23.14 C 53.60 22.01 55.40 20.17 56.19 21.83 C 56.31 23.00 55.91 23.99 54.99 24.79 C 54.61 24.38 53.86 23.55 53.49 23.14 Z" />
</g>
<g id="#8b7b73ff">
<path fill="#8b7b73" opacity="1.00" d=" M 58.05 34.07 C 58.12 29.96 57.55 25.75 58.61 21.72 C 59.15 25.79 59.03 29.90 59.12 34.00 L 58.05 34.07 Z" />
</g>
<g id="#332c276d">
<path fill="#332c27" opacity="0.43" d=" M 152.24 21.63 C 153.96 23.70 155.56 25.91 156.21 28.57 C 155.41 28.74 153.81 29.09 153.01 29.26 C 153.70 28.45 154.40 27.65 155.10 26.85 C 153.79 25.33 151.95 23.87 152.24 21.63 Z" />
</g>
<g id="#4a482ff6">
<path fill="#4a482f" opacity="0.96" d=" M 43.12 31.18 C 44.24 28.76 44.59 25.86 46.94 24.22 C 47.21 24.71 47.74 25.70 48.00 26.20 C 47.15 27.65 46.33 29.13 45.44 30.57 C 44.44 32.06 43.31 33.45 42.17 34.83 C 41.02 35.91 40.60 37.62 41.20 39.09 C 39.88 40.17 38.54 41.23 37.17 42.25 C 38.75 39.75 39.40 36.84 40.24 34.04 C 41.16 33.05 42.22 32.20 43.12 31.18 Z" />
</g>
<g id="#91ab5aff">
<path fill="#91ab5a" opacity="1.00" d=" M 45.44 30.57 C 46.33 29.13 47.15 27.65 48.00 26.20 C 49.54 27.46 51.32 28.39 52.90 29.59 C 53.58 30.93 53.71 32.47 54.12 33.91 C 51.80 31.63 48.51 31.12 45.44 30.57 Z" />
<path fill="#91ab5a" opacity="1.00" d=" M 86.70 126.44 C 84.20 123.48 82.95 117.94 87.17 115.83 C 92.28 115.60 92.64 122.64 89.53 125.36 C 89.23 123.52 88.96 121.67 88.66 119.83 C 87.89 121.99 87.29 124.22 86.70 126.44 Z" />
</g>
<g id="#aebb92ff">
<path fill="#aebb92" opacity="1.00" d=" M 51.42 26.12 L 51.76 26.03 L 51.72 26.26 C 51.64 26.23 51.49 26.16 51.42 26.12 Z" />
</g>
<g id="#c3c9c6ff">
<path fill="#c3c9c6" opacity="1.00" d=" M 88.94 27.34 C 94.69 27.33 100.31 25.77 106.08 26.02 C 105.53 27.02 104.98 28.02 104.45 29.02 C 103.99 29.91 103.53 30.80 103.09 31.69 C 103.82 31.80 105.30 32.03 106.04 32.15 L 106.91 32.28 C 105.43 33.20 103.95 34.13 102.44 35.00 C 100.14 35.77 97.77 36.35 95.44 37.04 C 95.37 37.92 95.31 38.80 95.24 39.68 C 92.63 41.28 89.21 42.37 87.91 45.38 C 88.69 45.54 90.25 45.85 91.03 46.01 C 88.91 48.33 87.31 51.07 85.18 53.39 C 84.80 48.17 84.86 42.91 83.81 37.76 C 83.00 37.70 82.19 37.64 81.38 37.58 C 79.42 34.32 77.32 31.15 75.17 28.02 C 79.76 27.93 84.34 27.44 88.94 27.34 M 95.59 29.19 C 95.45 30.47 95.32 31.75 95.21 33.04 C 96.48 32.19 97.72 31.31 98.96 30.42 C 97.84 29.99 96.71 29.58 95.59 29.19 M 87.36 30.32 C 87.78 31.05 88.20 31.79 88.61 32.53 C 89.11 32.59 90.11 32.71 90.60 32.77 C 90.60 32.21 90.60 31.11 90.60 30.55 C 89.52 30.48 88.44 30.41 87.36 30.32 M 81.31 31.09 C 80.81 32.74 81.36 33.29 82.96 32.74 C 83.48 31.08 82.93 30.53 81.31 31.09 M 88.27 37.25 C 86.84 38.54 88.95 40.93 90.31 39.44 C 91.73 38.18 89.60 35.58 88.27 37.25 Z" />
</g>
<g id="#afb1a8ff">
<path fill="#afb1a8" opacity="1.00" d=" M 106.08 26.02 C 107.30 26.15 108.53 26.27 109.75 26.39 C 109.61 29.47 109.34 32.53 108.96 35.58 C 106.78 35.48 104.59 35.40 102.44 35.00 C 103.95 34.13 105.43 33.20 106.91 32.28 L 106.04 32.15 C 106.27 31.58 106.72 30.44 106.95 29.87 C 106.11 29.59 105.28 29.30 104.45 29.02 C 104.98 28.02 105.53 27.02 106.08 26.02 Z" />
<path fill="#afb1a8" opacity="1.00" d=" M 111.27 28.99 C 112.99 31.34 114.56 33.80 116.12 36.26 C 114.74 35.35 113.36 34.45 111.89 33.68 C 112.14 36.65 114.11 38.92 115.46 41.43 C 116.37 42.52 114.95 43.39 114.37 44.15 C 113.34 41.71 112.13 39.33 111.29 36.81 C 111.02 34.21 111.25 31.59 111.27 28.99 Z" />
</g>
<g id="#aeada9ff">
<path fill="#aeada9" opacity="1.00" d=" M 127.97 29.31 C 131.07 28.10 134.16 26.86 137.30 25.75 C 136.58 26.85 135.82 27.93 135.05 29.00 C 135.71 29.68 136.37 30.37 137.03 31.06 C 136.98 31.72 136.88 33.03 136.83 33.69 C 134.65 33.94 132.47 34.20 130.28 34.37 C 130.83 32.91 131.40 31.45 131.93 29.97 C 130.95 30.59 129.98 31.22 129.02 31.87 C 128.66 31.02 128.31 30.17 127.97 29.31 Z" />
</g>
<g id="#b1a798ff">
<path fill="#b1a798" opacity="1.00" d=" M 56.25 30.69 C 54.77 30.11 54.55 27.09 56.30 26.80 L 56.68 27.33 C 57.20 28.25 57.74 30.42 56.25 30.69 Z" />
</g>
<g id="#d1cbc2ff">
<path fill="#d1cbc2" opacity="1.00" d=" M 156.87 30.86 C 157.87 29.55 158.89 28.24 159.88 26.92 C 159.43 27.53 158.52 28.75 158.07 29.36 C 159.67 30.29 161.32 31.17 163.05 31.84 C 161.00 31.48 158.93 31.19 156.87 30.86 Z" />
<path fill="#d1cbc2" opacity="1.00" d=" M 60.89 27.96 C 63.47 32.02 66.36 35.88 68.73 40.07 C 67.73 39.66 66.74 39.25 65.74 38.84 C 65.77 37.94 65.81 37.04 65.84 36.14 C 64.21 36.13 62.59 36.11 60.97 36.04 C 61.72 35.11 62.49 34.18 63.24 33.25 C 61.71 31.87 61.16 29.94 60.89 27.96 Z" />
<path fill="#d1cbc2" opacity="1.00" d=" M 126.36 70.05 C 127.54 70.21 128.74 70.36 129.92 70.58 C 129.32 79.61 129.50 88.68 128.76 97.70 C 127.47 98.06 126.17 98.42 124.88 98.78 C 125.23 89.20 126.02 79.64 126.36 70.05 Z" />
</g>
<g id="#5f5c58ff">
<path fill="#5f5c58" opacity="1.00" d=" M 104.45 29.02 C 105.28 29.30 106.11 29.59 106.95 29.87 C 106.72 30.44 106.27 31.58 106.04 32.15 C 105.30 32.03 103.82 31.80 103.09 31.69 C 103.53 30.80 103.99 29.91 104.45 29.02 Z" />
</g>
<g id="#261d19ff">
<path fill="#261d19" opacity="1.00" d=" M 87.36 30.32 C 88.44 30.41 89.52 30.48 90.60 30.55 C 90.60 31.11 90.60 32.21 90.60 32.77 C 90.11 32.71 89.11 32.59 88.61 32.53 C 88.20 31.79 87.78 31.05 87.36 30.32 Z" />
<path fill="#261d19" opacity="1.00" d=" M 88.27 37.25 C 89.60 35.58 91.73 38.18 90.31 39.44 C 88.95 40.93 86.84 38.54 88.27 37.25 Z" />
<path fill="#261d19" opacity="1.00" d=" M 14.19 51.56 C 18.44 48.32 23.97 49.64 28.91 49.18 C 31.05 49.14 33.20 49.17 35.34 49.15 C 32.62 49.44 29.93 49.91 27.22 50.26 C 23.13 50.34 18.68 49.70 15.15 52.27 C 15.53 52.82 16.28 53.90 16.65 54.44 C 17.06 57.68 17.08 60.96 16.97 64.22 L 16.41 64.22 C 17.41 59.78 16.25 55.49 14.19 51.56 Z" />
<path fill="#261d19" opacity="1.00" d=" M 145.25 66.08 C 147.02 65.47 147.68 68.42 145.96 68.84 C 144.24 69.38 143.53 66.48 145.25 66.08 Z" />
<path fill="#261d19" opacity="1.00" d=" M 58.91 68.95 C 59.57 69.60 60.20 70.28 60.79 70.99 C 60.21 71.71 59.59 72.40 58.95 73.06 C 58.73 71.70 58.72 70.32 58.91 68.95 Z" />
<path fill="#261d19" opacity="1.00" d=" M 20.23 70.93 C 20.85 72.12 21.44 73.31 22.01 74.52 C 21.26 74.55 19.77 74.62 19.02 74.65 C 19.41 73.40 19.81 72.16 20.23 70.93 Z" />
<path fill="#261d19" opacity="1.00" d=" M 35.04 70.98 C 35.61 71.20 36.76 71.63 37.34 71.85 C 37.41 72.30 37.55 73.20 37.62 73.66 C 36.81 74.11 36.01 74.57 35.20 75.02 C 35.14 73.67 35.08 72.33 35.04 70.98 Z" />
<path fill="#261d19" opacity="1.00" d=" M 43.24 71.10 C 44.39 71.16 45.54 71.22 46.69 71.28 C 46.23 71.97 45.78 72.68 45.33 73.38 C 44.87 73.49 43.96 73.70 43.51 73.81 C 43.44 73.13 43.31 71.77 43.24 71.10 Z" />
<path fill="#261d19" opacity="1.00" d=" M 129.92 70.58 C 130.40 70.71 131.38 70.97 131.87 71.09 C 131.80 81.59 131.01 92.09 131.71 102.58 L 131.12 102.97 C 130.34 101.73 129.54 100.50 128.78 99.26 C 128.77 98.87 128.77 98.09 128.76 97.70 C 129.50 88.68 129.32 79.61 129.92 70.58 Z" />
<path fill="#261d19" opacity="1.00" d=" M 34.82 79.22 C 35.59 79.23 37.15 79.26 37.92 79.28 C 37.56 80.55 37.19 81.81 36.80 83.07 C 35.97 81.88 35.32 80.58 34.82 79.22 Z" />
<path fill="#261d19" opacity="1.00" d=" M 114.99 80.31 C 116.46 79.19 118.06 81.71 116.61 82.70 C 115.13 83.88 113.50 81.29 114.99 80.31 Z" />
<path fill="#261d19" opacity="1.00" d=" M 107.34 82.40 C 108.15 81.91 108.98 81.45 109.84 81.02 C 109.62 82.43 109.36 83.83 109.03 85.21 C 108.39 84.33 107.55 83.52 107.34 82.40 Z" />
<path fill="#261d19" opacity="1.00" d=" M 70.10 84.20 C 71.96 83.65 72.64 86.75 70.88 87.25 C 68.96 87.88 68.26 84.66 70.10 84.20 Z" />
<path fill="#261d19" opacity="1.00" d=" M 134.07 89.56 C 134.22 88.13 133.78 86.13 135.82 86.07 C 135.81 87.26 135.80 88.45 135.78 89.64 C 135.35 89.62 134.50 89.58 134.07 89.56 Z" />
<path fill="#261d19" opacity="1.00" d=" M 114.53 88.15 C 115.24 88.45 115.95 88.75 116.67 89.06 C 115.66 90.69 115.00 92.49 114.84 94.41 C 114.77 92.32 114.66 90.24 114.53 88.15 Z" />
<path fill="#261d19" opacity="1.00" d=" M 115.15 102.31 C 116.94 101.76 117.34 104.68 115.77 105.17 C 113.98 105.78 113.53 102.73 115.15 102.31 Z" />
<path fill="#261d19" opacity="1.00" d=" M 77.59 111.18 C 79.72 109.99 80.37 114.47 78.27 114.65 C 76.90 114.26 76.71 112.13 77.59 111.18 Z" />
<path fill="#261d19" opacity="1.00" d=" M 59.15 112.37 C 60.45 111.03 62.80 113.13 61.32 114.47 C 59.99 115.98 57.63 113.75 59.15 112.37 Z" />
</g>
<g id="#776168ff">
<path fill="#776168" opacity="1.00" d=" M 154.08 30.33 C 155.52 30.19 156.77 32.21 155.80 33.36 C 154.14 34.52 151.99 31.00 154.08 30.33 Z" />
</g>
<g id="#607f3cff">
<path fill="#607f3c" opacity="1.00" d=" M 42.17 34.83 C 43.31 33.45 44.44 32.06 45.44 30.57 C 48.51 31.12 51.80 31.63 54.12 33.91 C 54.99 36.13 56.65 37.85 58.77 38.90 C 60.06 39.68 61.35 40.45 62.64 41.22 C 62.47 42.25 62.30 43.28 62.13 44.30 C 58.99 44.61 56.23 43.13 54.20 40.83 C 52.20 38.97 48.97 35.95 46.24 38.11 C 45.31 40.90 45.24 43.88 44.87 46.78 C 41.73 46.93 38.58 46.92 35.44 46.70 C 35.13 45.84 34.82 44.98 34.51 44.13 C 35.41 43.51 36.30 42.90 37.17 42.25 C 38.54 41.23 39.88 40.17 41.20 39.09 C 42.72 38.27 43.36 36.22 42.17 34.83 Z" />
</g>
<g id="#3f3c36ff">
<path fill="#3f3c36" opacity="1.00" d=" M 81.31 31.09 C 82.93 30.53 83.48 31.08 82.96 32.74 C 81.36 33.29 80.81 32.74 81.31 31.09 Z" />
</g>
<g id="#322e2689">
<path fill="#322e26" opacity="0.54" d=" M 35.88 40.89 C 37.98 39.06 38.52 36.17 40.24 34.04 C 39.40 36.84 38.75 39.75 37.17 42.25 C 36.30 42.90 35.41 43.51 34.51 44.13 C 34.82 44.98 35.13 45.84 35.44 46.70 C 35.66 47.30 36.09 48.51 36.30 49.11 L 35.34 49.15 C 33.20 49.17 31.05 49.14 28.91 49.18 L 28.79 48.11 C 30.83 48.06 32.87 48.01 34.92 47.99 C 34.31 46.71 33.66 45.45 33.23 44.09 C 33.66 42.74 35.00 41.94 35.88 40.89 Z" />
</g>
<g id="#7e837aff">
<path fill="#7e837a" opacity="1.00" d=" M 151.61 33.88 C 153.58 34.64 154.61 36.38 155.17 38.33 C 153.09 37.68 151.81 36.03 151.61 33.88 Z" />
</g>
<g id="#a6a16aff">
<path fill="#a6a16a" opacity="1.00" d=" M 42.17 34.83 C 43.36 36.22 42.72 38.27 41.20 39.09 C 40.60 37.62 41.02 35.91 42.17 34.83 Z" />
</g>
<g id="#9ea8a5ff">
<path fill="#9ea8a5" opacity="1.00" d=" M 138.02 35.49 C 141.88 34.64 145.84 35.14 149.73 35.39 C 150.44 36.83 151.15 38.26 151.84 39.71 C 147.00 39.14 142.63 36.91 138.02 35.49 Z" />
</g>
<g id="#6b5b7bff">
<path fill="#6b5b7b" opacity="1.00" d=" M 120.70 36.50 L 120.85 36.75 C 121.42 37.70 122.00 38.65 122.62 39.57 C 122.00 43.19 125.99 45.43 125.97 49.03 C 121.92 46.46 119.37 42.22 116.09 38.81 C 117.63 38.06 119.18 37.30 120.70 36.50 Z" />
</g>
<g id="#b7c6bdff">
<path fill="#b7c6bd" opacity="1.00" d=" M 120.85 36.75 C 126.50 35.61 132.32 36.24 138.02 35.49 C 142.63 36.91 147.00 39.14 151.84 39.71 C 154.82 40.50 157.90 40.54 160.94 40.92 C 161.09 41.44 161.40 42.46 161.55 42.97 C 155.07 43.77 148.53 43.26 142.03 43.54 C 137.27 43.70 132.67 45.03 127.97 45.63 C 126.18 43.61 124.30 41.68 122.62 39.57 C 122.00 38.65 121.42 37.70 120.85 36.75 Z" />
</g>
<g id="#3d552eff">
<path fill="#3d552e" opacity="1.00" d=" M 46.24 38.11 C 48.97 35.95 52.20 38.97 54.20 40.83 C 56.23 43.13 58.99 44.61 62.13 44.30 C 63.90 44.15 65.65 43.91 67.41 43.73 C 67.65 44.04 68.12 44.65 68.36 44.95 C 68.05 45.14 67.44 45.51 67.13 45.70 C 64.35 44.88 61.42 44.48 58.96 46.37 L 58.09 46.69 C 50.88 47.90 43.61 48.84 36.30 49.11 C 36.09 48.51 35.66 47.30 35.44 46.70 C 38.58 46.92 41.73 46.93 44.87 46.78 C 45.24 43.88 45.31 40.90 46.24 38.11 Z" />
</g>
<g id="#59813aff">
<path fill="#59813a" opacity="1.00" d=" M 99.99 37.85 C 101.32 36.15 103.33 38.13 104.89 38.49 C 105.57 38.10 106.26 37.72 106.95 37.34 C 109.35 39.12 111.17 41.50 111.76 44.49 C 114.13 45.41 116.87 45.91 118.45 48.11 C 116.79 48.30 115.11 48.63 113.44 48.45 C 111.00 47.81 109.30 45.09 106.60 45.38 C 102.67 45.80 100.30 49.46 96.87 51.00 C 94.26 51.91 91.44 51.88 88.71 52.07 C 90.72 49.12 93.63 46.38 93.44 42.51 C 96.08 41.65 98.28 40.01 99.99 37.85 Z" />
</g>
<g id="#fcf9e7ff">
<path fill="#fcf9e7" opacity="1.00" d=" M 155.67 38.44 C 157.71 36.84 160.40 37.27 162.82 37.04 C 162.93 37.74 163.16 39.13 163.27 39.83 C 160.85 38.82 158.26 38.55 155.67 38.44 Z" />
<path fill="#fcf9e7" opacity="1.00" d=" M 121.27 51.59 C 121.54 50.81 121.82 50.03 122.10 49.25 C 123.20 50.44 124.32 51.60 125.50 52.71 C 125.37 52.98 125.09 53.54 124.95 53.82 C 123.72 53.08 122.49 52.34 121.27 51.59 Z" />
<path fill="#fcf9e7" opacity="1.00" d=" M 2.97 91.83 C 5.68 93.15 8.31 94.74 11.23 95.57 C 13.97 95.60 16.71 95.14 19.46 95.37 L 18.59 95.86 C 14.61 97.35 10.43 98.13 6.21 98.49 C 6.48 100.62 6.77 102.75 7.23 104.85 C 6.56 104.66 5.23 104.28 4.57 104.09 C 4.65 99.98 5.52 95.42 2.97 91.83 Z" />
<path fill="#fcf9e7" opacity="1.00" d=" M 137.82 112.26 C 140.27 107.47 139.05 101.92 139.58 96.77 C 139.27 101.96 140.20 107.11 139.82 112.30 C 139.32 112.29 138.32 112.27 137.82 112.26 Z" />
<path fill="#fcf9e7" opacity="1.00" d=" M 98.61 110.73 C 102.68 108.35 107.61 108.64 112.16 108.34 C 107.73 109.54 103.17 110.25 98.61 110.73 Z" />
</g>
<g id="#7f9353ff">
<path fill="#7f9353" opacity="1.00" d=" M 58.77 38.90 C 60.26 38.85 61.82 38.42 63.27 38.91 C 64.91 40.27 66.10 42.07 67.41 43.73 C 65.65 43.91 63.90 44.15 62.13 44.30 C 62.30 43.28 62.47 42.25 62.64 41.22 C 61.35 40.45 60.06 39.68 58.77 38.90 Z" />
</g>
<g id="#ccc9c0ff">
<path fill="#ccc9c0" opacity="1.00" d=" M 72.63 43.98 C 75.10 43.44 77.63 43.17 80.16 43.35 C 77.86 44.72 75.14 44.57 72.63 43.98 Z" />
<path fill="#ccc9c0" opacity="1.00" d=" M 85.16 79.09 C 85.28 77.17 87.49 76.69 88.81 75.78 C 89.41 81.51 88.41 87.22 88.12 92.93 C 87.80 98.96 87.53 105.00 86.97 111.02 C 86.99 113.67 84.45 115.19 83.47 117.45 C 82.90 118.96 82.55 120.54 82.09 122.09 C 82.52 113.03 84.09 104.04 84.19 94.95 C 84.65 89.67 84.56 84.36 85.16 79.09 Z" />
</g>
<g id="#84846fff">
<path fill="#84846f" opacity="1.00" d=" M 117.30 43.57 C 118.84 43.18 120.81 45.30 120.51 46.82 C 118.93 47.32 116.74 45.17 117.30 43.57 Z" />
</g>
<g id="#999085ff">
<path fill="#999085" opacity="1.00" d=" M 82.03 44.23 C 85.37 44.44 80.44 47.19 82.03 44.23 Z" />
</g>
<g id="#91988eff">
<path fill="#91988e" opacity="1.00" d=" M 68.36 44.95 C 70.16 47.30 70.80 50.22 70.96 53.13 C 68.84 51.16 67.28 48.65 67.13 45.70 C 67.44 45.51 68.05 45.14 68.36 44.95 Z" />
<path fill="#91988e" opacity="1.00" d=" M 101.38 69.34 C 106.64 68.64 111.93 68.12 117.12 67.00 C 116.54 69.28 118.39 74.14 115.00 74.18 C 114.04 72.59 113.50 70.79 112.83 69.07 C 110.14 69.93 110.72 73.11 110.24 75.32 C 107.29 75.89 104.32 76.38 101.33 76.76 C 101.33 74.28 101.35 71.81 101.38 69.34 Z" />
</g>
<g id="#5a5a85ff">
<path fill="#5a5a85" opacity="1.00" d=" M 129.37 47.47 C 136.69 45.23 144.41 45.11 152.00 45.14 C 155.78 45.22 159.62 44.52 163.36 45.26 C 163.56 45.61 163.97 46.31 164.17 46.66 C 151.54 49.01 138.59 48.24 125.98 50.76 C 127.02 49.61 127.80 47.98 129.37 47.47 Z" />
</g>
<g id="#8b9a94ff">
<path fill="#8b9a94" opacity="1.00" d=" M 58.96 46.37 C 61.06 46.23 63.17 46.22 65.27 46.22 C 66.01 48.57 66.78 50.92 67.85 53.14 C 64.86 50.62 61.36 48.82 58.09 46.69 L 58.96 46.37 Z" />
</g>
<g id="#bfc9c8ff">
<path fill="#bfc9c8" opacity="1.00" d=" M 36.30 49.11 C 43.61 48.84 50.88 47.90 58.09 46.69 C 61.36 48.82 64.86 50.62 67.85 53.14 C 70.25 55.49 72.84 57.62 75.35 59.85 C 68.91 60.28 62.41 60.49 56.11 62.06 C 48.49 63.93 40.63 64.06 32.85 64.52 C 31.35 64.64 30.00 63.90 28.68 63.33 C 26.09 59.27 23.41 55.26 21.02 51.08 C 23.09 50.82 25.16 50.56 27.22 50.26 C 29.93 49.91 32.62 49.44 35.34 49.15 L 36.30 49.11 Z" />
</g>
<g id="#cdced4ff">
<path fill="#cdced4" opacity="1.00" d=" M 72.07 47.97 C 75.03 47.48 78.03 47.23 81.02 47.11 C 81.15 49.11 81.25 51.11 81.37 53.12 C 78.41 54.21 75.39 55.31 72.20 55.40 C 72.17 52.92 72.12 50.45 72.07 47.97 Z" />
<path fill="#cdced4" opacity="1.00" d=" M 124.23 64.95 C 125.59 66.19 126.92 67.47 128.15 68.84 C 126.85 68.90 125.55 68.95 124.25 68.99 C 124.24 67.64 124.23 66.30 124.23 64.95 Z" />
</g>
<g id="#bec7c3ff">
<path fill="#bec7c3" opacity="1.00" d=" M 127.90 52.34 C 139.80 50.07 151.97 50.17 163.97 48.72 C 162.98 58.44 164.01 68.22 162.99 77.94 C 161.26 78.25 159.53 78.57 157.80 78.81 C 154.25 79.06 150.72 79.50 147.24 80.23 C 145.26 80.54 143.26 80.76 141.27 80.97 C 141.15 76.39 140.85 71.69 142.24 67.25 C 143.29 64.45 140.55 62.22 139.59 59.79 C 138.57 59.93 137.55 60.07 136.54 60.21 C 134.14 57.08 131.33 54.31 127.90 52.34 M 145.27 53.05 C 143.46 53.41 144.29 56.22 145.99 55.70 C 147.87 55.38 147.06 52.38 145.27 53.05 M 151.12 53.26 C 151.88 54.11 152.38 55.38 153.61 55.66 C 154.54 54.95 155.08 53.99 155.22 52.79 C 153.85 52.93 152.49 53.09 151.12 53.26 M 160.03 53.08 C 159.52 54.71 160.07 55.27 161.70 54.74 C 162.21 53.11 161.65 52.55 160.03 53.08 M 137.32 54.27 C 137.36 54.84 137.43 55.98 137.47 56.55 C 138.02 56.57 139.11 56.62 139.66 56.64 C 139.69 56.04 139.76 54.83 139.80 54.23 C 139.18 54.24 137.94 54.26 137.32 54.27 M 144.82 59.83 C 144.64 60.29 144.26 61.22 144.08 61.68 C 144.81 61.77 146.29 61.94 147.02 62.03 C 146.94 61.29 146.79 59.81 146.71 59.07 C 146.24 59.26 145.29 59.64 144.82 59.83 M 152.29 59.18 C 152.30 59.81 152.33 61.07 152.35 61.70 C 152.93 61.70 154.10 61.70 154.68 61.69 C 154.69 61.07 154.72 59.82 154.74 59.19 C 154.12 59.19 152.90 59.19 152.29 59.18 M 159.17 58.97 C 159.20 59.65 159.26 61.02 159.30 61.71 C 159.89 61.70 161.07 61.67 161.66 61.66 C 161.67 61.04 161.69 59.79 161.70 59.16 C 161.07 59.11 159.80 59.02 159.17 58.97 M 145.25 66.08 C 143.53 66.48 144.24 69.38 145.96 68.84 C 147.68 68.42 147.02 65.47 145.25 66.08 M 152.12 66.38 C 151.59 68.02 152.14 68.58 153.78 68.06 C 154.30 66.43 153.75 65.87 152.12 66.38 M 159.09 66.16 C 158.56 67.80 159.11 68.36 160.74 67.84 C 161.26 66.20 160.71 65.64 159.09 66.16 M 160.07 72.21 C 158.01 72.56 159.01 75.68 160.89 75.03 C 162.92 74.66 161.94 71.57 160.07 72.21 M 145.18 73.37 C 143.53 73.52 143.54 76.44 145.18 76.59 C 146.84 76.46 146.84 73.51 145.18 73.37 M 152.24 73.10 C 150.81 74.07 152.28 76.71 153.78 75.51 C 155.25 74.55 153.74 71.86 152.24 73.10 Z" />
</g>
<g id="#57556bff">
<path fill="#57556b" opacity="1.00" d=" M 15.15 52.27 C 18.68 49.70 23.13 50.34 27.22 50.26 C 25.16 50.56 23.09 50.82 21.02 51.08 C 23.41 55.26 26.09 59.27 28.68 63.33 C 28.37 63.20 27.75 62.93 27.43 62.80 C 27.95 64.90 28.47 67.00 28.96 69.10 C 23.52 65.48 20.58 59.46 16.65 54.44 C 16.28 53.90 15.53 52.82 15.15 52.27 Z" />
</g>
<g id="#5d5765ff">
<path fill="#5d5765" opacity="1.00" d=" M 114.79 50.99 C 117.86 49.05 120.34 53.35 122.25 55.21 C 119.48 54.37 116.87 53.03 114.79 50.99 Z" />
</g>
<g id="#495b8bff">
<path fill="#495b8b" opacity="1.00" d=" M 94.92 55.90 C 97.50 52.45 102.05 51.60 106.05 51.04 C 111.52 50.13 115.74 54.40 120.19 56.79 C 123.08 58.78 126.88 59.51 129.09 62.38 C 114.98 65.86 100.55 67.97 86.07 69.16 C 88.51 64.42 91.71 60.13 94.92 55.90 Z" />
</g>
<g id="#4f4f45ff">
<path fill="#4f4f45" opacity="1.00" d=" M 160.03 53.08 C 161.65 52.55 162.21 53.11 161.70 54.74 C 160.07 55.27 159.52 54.71 160.03 53.08 Z" />
</g>
<g id="#4a598dff">
<path fill="#4a598d" opacity="1.00" d=" M 75.08 56.74 C 81.31 55.46 87.55 54.10 93.92 53.87 C 90.48 58.59 87.27 63.48 84.04 68.36 C 80.77 64.71 77.98 60.68 75.08 56.74 Z" />
</g>
<g id="#3e4127ff">
<path fill="#3e4127" opacity="1.00" d=" M 163.59 78.63 C 164.68 70.68 163.51 62.63 164.63 54.69 C 164.59 62.67 165.27 70.67 164.55 78.64 C 164.11 79.71 163.02 80.27 162.24 81.06 C 159.70 80.54 157.10 80.27 154.52 80.55 C 149.91 80.99 145.46 82.33 140.88 82.94 C 143.00 82.04 145.09 81.08 147.24 80.23 C 150.72 79.50 154.25 79.06 157.80 78.81 C 159.73 78.73 161.66 78.69 163.59 78.63 Z" />
<path fill="#3e4127" opacity="1.00" d=" M 32.38 144.13 C 36.48 142.88 40.33 140.81 44.61 140.18 C 42.59 141.75 40.42 143.13 38.09 144.18 C 35.94 145.32 33.51 145.61 31.13 145.90 C 28.57 146.17 26.09 146.90 23.65 147.69 C 19.91 148.01 15.21 148.90 11.99 146.74 C 11.71 146.39 11.14 145.67 10.86 145.32 C 13.28 145.91 15.78 147.11 18.29 146.28 C 22.87 144.89 27.64 144.56 32.38 144.13 Z" />
</g>
<g id="#a4b0adff">
<path fill="#a4b0ad" opacity="1.00" d=" M 18.25 59.01 C 19.27 62.85 22.10 65.56 24.73 68.35 C 24.63 68.75 24.43 69.55 24.33 69.94 C 23.36 72.20 23.96 74.56 24.77 76.76 C 25.43 79.80 24.39 82.77 22.26 84.98 C 20.51 82.49 16.95 80.60 17.71 77.09 C 18.22 71.08 18.50 65.05 18.25 59.01 M 20.23 70.93 C 19.81 72.16 19.41 73.40 19.02 74.65 C 19.77 74.62 21.26 74.55 22.01 74.52 C 21.44 73.31 20.85 72.12 20.23 70.93 Z" />
</g>
<g id="#bdc6bbff">
<path fill="#bdc6bb" opacity="1.00" d=" M 66.98 62.02 C 69.98 61.74 73.00 61.60 76.02 61.51 C 78.75 64.60 81.46 67.79 83.23 71.56 C 80.56 71.77 77.87 72.33 75.19 71.99 C 71.76 69.30 69.31 65.64 66.98 62.02 Z" />
</g>
<g id="#605e81ff">
<path fill="#605e81" opacity="1.00" d=" M 39.05 65.88 C 46.68 65.66 54.20 64.20 61.75 63.26 C 61.74 63.93 61.73 65.28 61.72 65.96 C 55.91 67.19 49.94 67.25 44.06 67.88 C 39.46 68.06 34.83 69.01 30.25 68.21 C 32.36 65.45 36.02 66.17 39.05 65.88 Z" />
</g>
<g id="#6a657fff">
<path fill="#6a657f" opacity="1.00" d=" M 63.01 64.75 C 63.75 64.17 64.42 63.14 65.51 63.49 C 68.01 66.33 70.21 69.41 72.68 72.28 C 74.01 73.53 73.62 75.48 73.82 77.11 C 69.17 74.04 66.55 68.91 63.01 64.75 Z" />
</g>
<g id="#d2c1a5ff">
<path fill="#d2c1a5" opacity="1.00" d=" M 16.41 64.22 L 16.97 64.22 L 16.95 64.87 C 16.81 64.71 16.54 64.39 16.41 64.22 Z" />
</g>
<g id="#6f6377ff">
<path fill="#6f6377" opacity="1.00" d=" M 131.66 66.82 C 133.91 64.51 137.54 62.80 140.53 64.82 C 137.74 66.10 134.72 66.75 131.66 66.82 Z" />
</g>
<g id="#928a80ff">
<path fill="#928a80" opacity="1.00" d=" M 120.08 66.18 C 120.75 66.17 122.10 66.17 122.78 66.16 C 122.79 68.44 122.83 70.72 122.89 73.00 C 122.15 73.03 120.68 73.11 119.95 73.14 C 119.98 70.82 120.01 68.50 120.08 66.18 Z" />
</g>
<g id="#42403bff">
<path fill="#42403b" opacity="1.00" d=" M 152.12 66.38 C 153.75 65.87 154.30 66.43 153.78 68.06 C 152.14 68.58 151.59 68.02 152.12 66.38 Z" />
</g>
<g id="#494942ff">
<path fill="#494942" opacity="1.00" d=" M 159.09 66.16 C 160.71 65.64 161.26 66.20 160.74 67.84 C 159.11 68.36 158.56 67.80 159.09 66.16 Z" />
</g>
<g id="#c1c8c2ff">
<path fill="#c1c8c2" opacity="1.00" d=" M 45.99 69.49 C 51.58 69.17 57.13 68.17 62.74 68.32 C 61.34 74.87 62.34 81.69 60.78 88.16 C 60.39 86.09 59.97 84.02 59.72 81.93 C 60.10 80.65 60.54 79.39 60.97 78.13 C 60.42 77.89 59.33 77.42 58.79 77.19 C 57.18 76.47 55.61 75.66 54.06 74.82 C 54.15 73.19 54.24 71.56 54.34 69.93 C 52.41 70.41 50.43 70.81 48.62 71.66 C 47.50 74.27 47.48 77.16 47.08 79.93 C 46.32 79.33 45.57 78.73 44.81 78.13 C 44.41 78.39 43.60 78.91 43.20 79.18 C 43.98 80.43 44.79 81.66 45.63 82.88 C 43.23 86.56 40.95 90.51 40.27 94.92 C 39.77 94.89 38.78 94.82 38.28 94.79 C 37.72 92.02 37.16 89.23 37.27 86.39 C 36.22 86.53 35.18 86.68 34.13 86.83 C 33.36 84.42 32.23 82.13 31.58 79.69 C 31.22 76.83 31.40 73.94 31.32 71.07 C 36.10 69.72 41.10 69.99 45.99 69.49 M 58.91 68.95 C 58.72 70.32 58.73 71.70 58.95 73.06 C 59.59 72.40 60.21 71.71 60.79 70.99 C 60.20 70.28 59.57 69.60 58.91 68.95 M 35.04 70.98 C 35.08 72.33 35.14 73.67 35.20 75.02 C 36.01 74.57 36.81 74.11 37.62 73.66 C 37.55 73.20 37.41 72.30 37.34 71.85 C 36.76 71.63 35.61 71.20 35.04 70.98 M 43.24 71.10 C 43.31 71.77 43.44 73.13 43.51 73.81 C 43.96 73.70 44.87 73.49 45.33 73.38 C 45.78 72.68 46.23 71.97 46.69 71.28 C 45.54 71.22 44.39 71.16 43.24 71.10 M 34.82 79.22 C 35.32 80.58 35.97 81.88 36.80 83.07 C 37.19 81.81 37.56 80.55 37.92 79.28 C 37.15 79.26 35.59 79.23 34.82 79.22 Z" />
</g>
<g id="#c6d0c2ff">
<path fill="#c6d0c2" opacity="1.00" d=" M 133.49 68.46 C 135.59 68.34 137.68 68.20 139.77 68.06 C 139.73 76.75 139.29 85.43 138.17 94.04 C 137.47 98.76 138.36 103.62 137.05 108.26 C 135.70 105.70 135.68 102.77 135.55 99.96 C 134.27 100.83 132.99 101.71 131.71 102.58 C 131.01 92.09 131.80 81.59 131.87 71.09 C 132.41 70.22 132.95 69.34 133.49 68.46 M 134.82 71.10 C 135.15 72.76 135.54 74.42 136.03 76.04 C 137.13 74.54 137.28 72.74 137.30 70.95 C 136.68 70.99 135.44 71.06 134.82 71.10 M 135.10 79.15 C 133.66 80.11 135.19 82.74 136.67 81.57 C 138.12 80.59 136.61 77.97 135.10 79.15 M 134.07 89.56 C 134.50 89.58 135.35 89.62 135.78 89.64 C 135.80 88.45 135.81 87.26 135.82 86.07 C 133.78 86.13 134.22 88.13 134.07 89.56 M 133.98 96.68 C 134.52 96.68 135.59 96.67 136.13 96.66 C 136.06 95.49 135.97 94.33 135.84 93.17 C 133.38 92.19 134.28 95.30 133.98 96.68 Z" />
</g>
<g id="#879ea2ff">
<path fill="#879ea2" opacity="1.00" d=" M 24.77 76.76 C 23.96 74.56 23.36 72.20 24.33 69.94 C 25.97 70.94 27.83 71.40 29.72 71.59 C 29.89 74.45 29.82 77.34 29.13 80.13 C 27.65 79.04 26.17 77.95 24.77 76.76 Z" />
</g>
<g id="#899a95ff">
<path fill="#899a95" opacity="1.00" d=" M 63.91 69.95 C 66.86 73.36 69.04 77.69 73.17 79.84 L 72.77 80.04 C 70.92 80.97 69.03 81.84 67.08 82.53 C 67.32 81.22 66.86 80.48 65.70 80.33 C 64.94 81.12 64.94 81.99 65.70 82.92 C 64.88 83.96 64.06 85.01 63.25 86.06 C 63.33 80.68 63.84 75.33 63.91 69.95 Z" />
</g>
<g id="#8b978fff">
<path fill="#8b978f" opacity="1.00" d=" M 94.70 70.05 C 96.01 70.03 97.32 70.01 98.64 69.99 C 98.70 72.59 98.73 75.19 98.73 77.79 C 98.10 77.76 96.84 77.69 96.21 77.66 C 95.78 75.11 95.36 72.55 94.70 70.05 Z" />
</g>
<g id="#919e9dff">
<path fill="#919e9d" opacity="1.00" d=" M 84.90 71.90 C 87.38 71.05 89.99 70.85 92.60 70.88 C 92.29 73.72 93.05 76.91 91.38 79.41 C 91.08 77.97 90.81 76.52 90.57 75.07 C 89.05 74.73 87.52 74.41 85.99 74.09 C 85.71 73.54 85.17 72.44 84.90 71.90 Z" />
</g>
<g id="#565349ff">
<path fill="#565349" opacity="1.00" d=" M 134.82 71.10 C 135.44 71.06 136.68 70.99 137.30 70.95 C 137.28 72.74 137.13 74.54 136.03 76.04 C 135.54 74.42 135.15 72.76 134.82 71.10 Z" />
</g>
<g id="#749342ff">
<path fill="#749342" opacity="1.00" d=" M 49.59 74.31 C 49.66 72.95 51.02 72.54 51.97 71.93 C 52.30 73.79 52.50 75.67 52.61 77.56 C 53.84 77.76 55.07 77.96 56.31 78.16 L 56.42 78.95 C 56.78 81.73 57.40 84.46 58.13 87.16 C 56.50 85.43 54.93 83.58 52.91 82.28 C 50.82 83.25 48.95 84.64 46.86 85.63 C 48.12 81.94 48.77 78.10 49.59 74.31 Z" />
</g>
<g id="#6b6961ff">
<path fill="#6b6961" opacity="1.00" d=" M 160.07 72.21 C 161.94 71.57 162.92 74.66 160.89 75.03 C 159.01 75.68 158.01 72.56 160.07 72.21 Z" />
</g>
<g id="#685c7fff">
<path fill="#685c7f" opacity="1.00" d=" M 75.29 74.24 C 77.72 73.74 80.19 73.40 82.66 73.15 C 83.46 74.14 84.98 75.14 83.63 76.40 C 80.90 77.26 78.01 77.49 75.18 77.83 C 75.21 76.63 75.25 75.43 75.29 74.24 Z" />
</g>
<g id="#545951ff">
<path fill="#545951" opacity="1.00" d=" M 145.18 73.37 C 146.84 73.51 146.84 76.46 145.18 76.59 C 143.54 76.44 143.53 73.52 145.18 73.37 Z" />
</g>
<g id="#625d55ff">
<path fill="#625d55" opacity="1.00" d=" M 152.24 73.10 C 153.74 71.86 155.25 74.55 153.78 75.51 C 152.28 76.71 150.81 74.07 152.24 73.10 Z" />
</g>
<g id="#c0c9c4ff">
<path fill="#c0c9c4" opacity="1.00" d=" M 91.18 80.47 C 102.12 78.47 113.02 76.12 124.07 74.78 C 123.70 81.72 122.89 88.64 121.98 95.53 C 120.93 95.54 119.88 95.56 118.82 95.58 C 119.94 97.19 121.07 98.80 122.03 100.52 C 121.00 101.05 119.96 101.58 118.93 102.11 C 119.36 103.34 119.80 104.58 120.22 105.82 C 118.12 107.88 116.89 110.53 117.24 113.50 C 115.75 113.75 114.26 113.99 112.77 114.20 C 112.97 111.65 113.53 109.15 114.15 106.67 C 109.30 106.45 104.02 108.26 99.64 105.40 C 98.49 107.64 97.20 109.81 96.07 112.05 C 97.24 113.75 98.12 115.64 98.07 117.75 C 96.61 117.93 95.03 119.26 93.61 118.56 C 92.10 116.57 90.59 114.57 88.71 112.91 C 89.50 102.10 89.46 91.19 91.18 80.47 M 121.11 79.31 C 119.66 80.28 121.17 82.94 122.67 81.72 C 124.09 80.75 122.61 78.10 121.11 79.31 M 114.99 80.31 C 113.50 81.29 115.13 83.88 116.61 82.70 C 118.06 81.71 116.46 79.19 114.99 80.31 M 107.34 82.40 C 107.55 83.52 108.39 84.33 109.03 85.21 C 109.36 83.83 109.62 82.43 109.84 81.02 C 108.98 81.45 108.15 81.91 107.34 82.40 M 92.76 87.11 C 95.79 87.79 95.16 84.94 95.16 82.97 C 92.46 82.63 92.96 85.31 92.76 87.11 M 100.15 85.68 C 100.79 85.69 102.07 85.71 102.71 85.72 C 102.71 84.99 102.71 83.51 102.72 82.77 C 100.72 82.65 99.95 83.78 100.15 85.68 M 120.12 87.58 C 118.80 88.49 120.27 90.87 121.61 89.76 C 122.88 88.84 121.46 86.49 120.12 87.58 M 114.53 88.15 C 114.66 90.24 114.77 92.32 114.84 94.41 C 115.00 92.49 115.66 90.69 116.67 89.06 C 115.95 88.75 115.24 88.45 114.53 88.15 M 106.95 91.52 C 107.47 91.88 108.51 92.60 109.03 92.96 C 109.24 92.47 109.66 91.49 109.87 91.00 C 109.61 90.47 109.10 89.41 108.84 88.88 C 108.20 89.75 107.57 90.63 106.95 91.52 M 98.89 92.20 C 99.32 93.20 99.75 94.20 100.19 95.20 C 101.77 94.18 102.25 92.53 101.21 90.91 C 100.63 91.23 99.47 91.88 98.89 92.20 M 91.72 95.04 C 92.61 94.99 94.38 94.90 95.27 94.85 C 94.56 93.55 93.81 92.27 93.03 91.01 C 92.57 92.35 92.14 93.69 91.72 95.04 M 115.15 96.34 C 113.32 95.90 112.55 98.85 114.26 99.48 C 116.06 100.05 116.91 96.85 115.15 96.34 M 107.29 98.11 C 106.75 99.73 107.31 100.28 108.95 99.75 C 109.49 98.13 108.93 97.59 107.29 98.11 M 90.95 102.82 C 91.72 102.83 93.25 102.84 94.01 102.84 C 93.63 101.50 93.24 100.16 92.84 98.83 C 92.18 100.15 91.55 101.48 90.95 102.82 M 99.39 98.84 C 99.30 99.68 99.12 101.36 99.03 102.20 C 99.81 102.05 101.37 101.75 102.15 101.61 C 101.48 100.45 100.53 99.52 99.39 98.84 M 115.15 102.31 C 113.53 102.73 113.98 105.78 115.77 105.17 C 117.34 104.68 116.94 101.76 115.15 102.31 M 107.27 104.04 C 106.74 105.67 107.29 106.21 108.93 105.68 C 109.47 104.05 108.92 103.50 107.27 104.04 M 91.25 107.36 C 89.73 108.69 92.00 110.96 93.35 109.47 C 94.88 108.18 92.58 105.88 91.25 107.36 Z" />
</g>
<g id="#4b6933ff">
<path fill="#4b6933" opacity="1.00" d=" M 58.79 77.19 C 59.33 77.42 60.42 77.89 60.97 78.13 C 60.54 79.39 60.10 80.65 59.72 81.93 C 59.24 83.79 58.13 85.82 59.09 87.73 C 59.94 88.63 60.95 89.36 61.93 90.13 C 61.41 90.25 60.36 90.50 59.84 90.63 C 56.08 92.41 51.78 92.07 47.81 93.07 C 48.00 90.50 46.58 88.32 45.17 86.30 C 45.74 86.09 46.31 85.87 46.86 85.63 C 48.95 84.64 50.82 83.25 52.91 82.28 C 54.93 83.58 56.50 85.43 58.13 87.16 C 57.40 84.46 56.78 81.73 56.42 78.95 C 56.84 80.01 57.27 81.08 57.70 82.14 C 58.05 80.49 58.42 78.84 58.79 77.19 Z" />
</g>
<g id="#c5cfcbff">
<path fill="#c5cfcb" opacity="1.00" d=" M 76.05 79.27 C 78.48 78.99 80.92 78.69 83.36 78.43 C 82.93 93.31 81.89 108.16 79.80 122.90 C 77.89 123.23 75.98 123.59 74.07 123.93 C 72.42 115.29 75.45 106.67 75.05 97.99 C 75.64 91.77 74.34 85.36 76.05 79.27 M 78.27 80.29 C 78.27 81.44 78.26 82.59 78.26 83.74 C 78.81 83.64 79.91 83.43 80.45 83.32 C 80.58 82.32 80.71 81.32 80.83 80.32 C 80.19 80.31 78.91 80.30 78.27 80.29 M 78.23 87.20 C 78.22 87.86 78.21 89.18 78.20 89.83 C 78.83 89.82 80.08 89.80 80.71 89.78 C 80.71 89.15 80.72 87.88 80.72 87.24 C 80.10 87.23 78.86 87.21 78.23 87.20 M 78.38 94.29 C 77.34 95.20 77.81 97.36 79.23 97.57 C 81.43 97.37 80.45 93.08 78.38 94.29 M 78.19 103.07 C 76.81 104.04 78.29 106.68 79.77 105.53 C 81.16 104.54 79.71 101.84 78.19 103.07 M 77.59 111.18 C 76.71 112.13 76.90 114.26 78.27 114.65 C 80.37 114.47 79.72 109.99 77.59 111.18 M 76.29 119.02 C 74.97 119.98 76.28 122.71 77.81 121.53 C 79.21 120.58 77.83 117.80 76.29 119.02 Z" />
</g>
<g id="#4f4c44ff">
<path fill="#4f4c44" opacity="1.00" d=" M 121.11 79.31 C 122.61 78.10 124.09 80.75 122.67 81.72 C 121.17 82.94 119.66 80.28 121.11 79.31 Z" />
</g>
<g id="#514e45ff">
<path fill="#514e45" opacity="1.00" d=" M 135.10 79.15 C 136.61 77.97 138.12 80.59 136.67 81.57 C 135.19 82.74 133.66 80.11 135.10 79.15 Z" />
</g>
<g id="#4d5950ff">
<path fill="#4d5950" opacity="1.00" d=" M 65.70 80.33 C 66.86 80.48 67.32 81.22 67.08 82.53 C 66.74 82.63 66.04 82.82 65.70 82.92 C 64.94 81.99 64.94 81.12 65.70 80.33 Z" />
</g>
<g id="#9bafacff">
<path fill="#9bafac" opacity="1.00" d=" M 67.08 82.53 C 69.03 81.84 70.92 80.97 72.77 80.04 C 72.99 80.56 73.43 81.61 73.66 82.13 C 74.36 94.53 72.88 106.87 71.85 119.20 C 71.20 119.13 69.91 118.99 69.26 118.92 C 69.23 116.40 69.06 113.88 69.31 111.37 C 69.55 109.67 70.85 108.42 71.56 106.91 C 71.39 104.79 70.60 102.58 68.86 101.24 C 66.37 99.15 64.50 96.47 62.63 93.84 C 63.46 91.32 63.57 88.67 63.25 86.06 C 64.06 85.01 64.88 83.96 65.70 82.92 C 66.04 82.82 66.74 82.63 67.08 82.53 M 70.10 84.20 C 68.26 84.66 68.96 87.88 70.88 87.25 C 72.64 86.75 71.96 83.65 70.10 84.20 M 65.14 89.27 C 63.66 90.25 65.30 92.81 66.76 91.65 C 68.22 90.66 66.61 88.10 65.14 89.27 M 68.50 95.15 C 67.46 96.47 69.75 98.01 70.66 96.66 C 71.73 95.33 69.42 93.83 68.50 95.15 Z" />
</g>
<g id="#5d763cff">
<path fill="#5d763c" opacity="1.00" d=" M 8.12 86.07 C 10.16 84.90 11.38 82.94 11.81 80.66 C 14.39 81.70 16.91 82.86 19.38 84.12 C 19.63 85.47 19.87 86.81 20.12 88.16 C 16.32 88.31 12.93 90.01 9.57 91.61 C 7.78 92.68 6.06 91.04 4.45 90.39 C 7.44 88.39 10.49 86.46 13.32 84.23 C 11.57 84.79 9.82 85.37 8.12 86.07 Z" />
</g>
<g id="#768b44ff">
<path fill="#768b44" opacity="1.00" d=" M 21.72 94.26 C 20.22 88.85 24.13 82.33 29.70 81.47 C 31.87 85.97 35.18 89.93 36.46 94.84 C 35.56 94.89 33.77 95.00 32.88 95.05 C 31.20 92.11 29.54 89.15 27.87 86.20 C 25.08 88.25 23.27 91.22 21.72 94.26 Z" />
</g>
<g id="#534d45ff">
<path fill="#534d45" opacity="1.00" d=" M 92.76 87.11 C 92.96 85.31 92.46 82.63 95.16 82.97 C 95.16 84.94 95.79 87.79 92.76 87.11 Z" />
</g>
<g id="#4d6e32ff">
<path fill="#4d6e32" opacity="1.00" d=" M 21.72 94.26 C 23.27 91.22 25.08 88.25 27.87 86.20 C 29.54 89.15 31.20 92.11 32.88 95.05 C 28.11 95.34 23.37 95.86 18.59 95.86 L 19.46 95.37 C 20.22 95.00 20.97 94.63 21.72 94.26 Z" />
</g>
<g id="#929e59ff">
<path fill="#929e59" opacity="1.00" d=" M 42.09 94.08 C 44.03 91.90 44.92 89.17 45.17 86.30 C 46.58 88.32 48.00 90.50 47.81 93.07 C 45.91 93.43 44.00 93.76 42.09 94.08 Z" />
<path fill="#929e59" opacity="1.00" d=" M 49.83 135.68 C 54.15 136.35 58.54 135.95 62.69 134.58 C 62.75 135.17 62.87 136.36 62.92 136.96 C 59.82 137.61 56.76 138.42 53.74 139.36 C 54.85 139.65 55.97 139.92 57.09 140.17 C 54.35 140.87 51.53 141.20 48.77 141.83 L 48.83 141.17 C 49.09 139.33 49.45 137.50 49.83 135.68 Z" />
</g>
<g id="#5e564eff">
<path fill="#5e564e" opacity="1.00" d=" M 120.12 87.58 C 121.46 86.49 122.88 88.84 121.61 89.76 C 120.27 90.87 118.80 88.49 120.12 87.58 Z" />
</g>
<g id="#57635dff">
<path fill="#57635d" opacity="1.00" d=" M 65.14 89.27 C 66.61 88.10 68.22 90.66 66.76 91.65 C 65.30 92.81 63.66 90.25 65.14 89.27 Z" />
</g>
<g id="#a3b087ff">
<path fill="#a3b087" opacity="1.00" d=" M 59.84 90.63 C 60.36 90.50 61.41 90.25 61.93 90.13 C 63.25 91.71 59.68 92.57 59.84 90.63 Z" />
</g>
<g id="#71716cff">
<path fill="#71716c" opacity="1.00" d=" M 98.89 92.20 C 99.47 91.88 100.63 91.23 101.21 90.91 C 102.25 92.53 101.77 94.18 100.19 95.20 C 99.75 94.20 99.32 93.20 98.89 92.20 Z" />
</g>
<g id="#62615cff">
<path fill="#62615c" opacity="1.00" d=" M 91.72 95.04 C 92.14 93.69 92.57 92.35 93.03 91.01 C 93.81 92.27 94.56 93.55 95.27 94.85 C 94.38 94.90 92.61 94.99 91.72 95.04 Z" />
</g>
<g id="#bfc6c7ff">
<path fill="#bfc6c7" opacity="1.00" d=" M 16.03 98.04 C 30.72 97.43 45.36 95.95 59.79 93.07 C 62.35 96.24 64.64 99.62 66.95 102.99 C 55.72 105.18 44.37 106.67 33.18 109.03 C 31.77 107.71 30.57 106.07 28.82 105.21 C 26.21 105.07 23.61 105.45 21.01 105.30 C 18.50 103.61 17.49 100.55 16.03 98.04 Z" />
</g>
<g id="#50514aff">
<path fill="#50514a" opacity="1.00" d=" M 78.38 94.29 C 80.45 93.08 81.43 97.37 79.23 97.57 C 77.81 97.36 77.34 95.20 78.38 94.29 Z" />
</g>
<g id="#505853ff">
<path fill="#505853" opacity="1.00" d=" M 68.50 95.15 C 69.42 93.83 71.73 95.33 70.66 96.66 C 69.75 98.01 67.46 96.47 68.50 95.15 Z" />
</g>
<g id="#616861ff">
<path fill="#616861" opacity="1.00" d=" M 115.15 96.34 C 116.91 96.85 116.06 100.05 114.26 99.48 C 112.55 98.85 113.32 95.90 115.15 96.34 Z" />
</g>
<g id="#4b4a43ff">
<path fill="#4b4a43" opacity="1.00" d=" M 107.29 98.11 C 108.93 97.59 109.49 98.13 108.95 99.75 C 107.31 100.28 106.75 99.73 107.29 98.11 Z" />
</g>
<g id="#93a363ff">
<path fill="#93a363" opacity="1.00" d=" M 125.76 102.27 C 126.77 101.27 127.79 100.28 128.78 99.26 C 129.54 100.50 130.34 101.73 131.12 102.97 C 129.84 103.62 128.53 104.22 127.22 104.82 C 126.73 103.97 126.25 103.12 125.76 102.27 Z" />
<path fill="#93a363" opacity="1.00" d=" M 103.75 126.67 C 106.33 124.56 108.89 122.30 112.02 121.05 C 112.72 121.04 114.13 121.02 114.83 121.00 C 113.90 122.30 112.97 123.58 112.04 124.87 C 109.25 125.35 106.52 126.07 103.75 126.67 Z" />
</g>
<g id="#537236ff">
<path fill="#537236" opacity="1.00" d=" M 131.71 102.58 C 132.99 101.71 134.27 100.83 135.55 99.96 C 135.68 102.77 135.70 105.70 137.05 108.26 C 136.60 110.16 136.21 112.09 135.86 114.02 C 137.44 114.61 139.02 115.25 140.61 115.82 C 138.53 116.13 136.47 116.49 134.40 116.82 C 133.29 114.66 133.03 111.30 130.35 110.49 C 127.87 109.68 126.02 112.15 124.92 114.01 C 123.34 116.22 125.33 118.58 126.06 120.69 C 123.79 123.18 120.50 124.84 117.10 124.90 C 115.41 124.88 113.73 124.83 112.04 124.87 C 112.97 123.58 113.90 122.30 114.83 121.00 C 114.13 121.02 112.72 121.04 112.02 121.05 C 113.74 120.32 115.47 119.62 117.19 118.89 C 117.75 116.58 118.49 114.33 119.42 112.14 C 121.35 110.26 123.21 108.29 124.91 106.20 C 124.25 106.14 122.94 106.02 122.28 105.96 C 123.39 104.68 124.57 103.47 125.76 102.27 C 126.25 103.12 126.73 103.97 127.22 104.82 C 128.53 104.22 129.84 103.62 131.12 102.97 L 131.71 102.58 Z" />
</g>
<g id="#705f69ff">
<path fill="#705f69" opacity="1.00" d=" M 8.83 101.09 C 9.70 101.07 11.45 101.04 12.32 101.02 C 11.81 102.48 11.27 103.94 10.71 105.38 C 10.04 103.97 9.42 102.53 8.83 101.09 Z" />
</g>
<g id="#645c68ff">
<path fill="#645c68" opacity="1.00" d=" M 11.93 105.87 C 12.64 104.76 13.37 103.66 14.09 102.57 C 15.62 103.45 17.01 104.53 18.24 105.79 C 16.13 105.88 14.03 105.89 11.93 105.87 Z" />
</g>
<g id="#4e4b47ff">
<path fill="#4e4b47" opacity="1.00" d=" M 78.19 103.07 C 79.71 101.84 81.16 104.54 79.77 105.53 C 78.29 106.68 76.81 104.04 78.19 103.07 Z" />
</g>
<g id="#5d554aff">
<path fill="#5d554a" opacity="1.00" d=" M 4.57 104.09 C 5.23 104.28 6.56 104.66 7.23 104.85 C 7.47 105.70 7.72 106.56 7.98 107.41 C 8.77 107.05 9.57 106.69 10.36 106.34 C 10.56 108.04 10.75 109.75 10.94 111.47 C 12.34 111.89 13.75 112.32 15.17 112.70 C 13.54 112.84 11.91 113.04 10.28 113.23 C 10.08 115.71 9.91 118.18 9.74 120.66 C 9.15 124.14 8.68 127.64 8.00 131.10 C 8.48 126.05 8.04 120.97 8.09 115.90 C 8.17 113.36 7.47 110.90 6.45 108.60 C 5.93 116.42 5.62 124.30 5.87 132.13 C 4.07 124.13 6.13 115.84 5.12 107.72 C 5.06 107.32 4.94 106.52 4.89 106.12 C 4.81 105.61 4.65 104.60 4.57 104.09 Z" />
</g>
<g id="#5d5a7eff">
<path fill="#5d5a7e" opacity="1.00" d=" M 32.85 110.88 C 44.48 108.37 56.24 106.55 67.96 104.53 C 68.25 105.18 68.53 105.83 68.82 106.49 C 60.84 107.99 52.87 109.53 44.87 110.89 C 40.71 111.71 36.05 111.04 32.46 113.68 L 31.79 114.04 C 32.13 112.98 32.49 111.93 32.85 110.88 Z" />
</g>
<g id="#544c41ff">
<path fill="#544c41" opacity="1.00" d=" M 107.27 104.04 C 108.92 103.50 109.47 104.05 108.93 105.68 C 107.29 106.21 106.74 105.67 107.27 104.04 Z" />
</g>
<g id="#bfa99be6">
<path fill="#bfa99b" opacity="0.90" d=" M 4.10 106.36 L 4.89 106.12 C 4.94 106.52 5.06 107.32 5.12 107.72 L 4.45 108.07 C 4.36 107.64 4.19 106.79 4.10 106.36 Z" />
</g>
<g id="#83965dff">
<path fill="#83965d" opacity="1.00" d=" M 122.28 105.96 C 122.94 106.02 124.25 106.14 124.91 106.20 C 123.21 108.29 121.35 110.26 119.42 112.14 C 120.08 109.96 120.88 107.79 122.28 105.96 Z" />
</g>
<g id="#ccc4c0ff">
<path fill="#ccc4c0" opacity="1.00" d=" M 11.75 110.02 C 11.39 106.51 18.51 106.37 18.15 109.91 C 16.02 109.97 13.88 110.01 11.75 110.02 Z" />
</g>
<g id="#bab7a7ff">
<path fill="#bab7a7" opacity="1.00" d=" M 6.45 108.60 C 7.47 110.90 8.17 113.36 8.09 115.90 C 8.04 120.97 8.48 126.05 8.00 131.10 C 7.79 131.87 7.37 133.40 7.16 134.17 C 6.84 133.66 6.19 132.64 5.87 132.13 C 5.62 124.30 5.93 116.42 6.45 108.60 Z" />
</g>
<g id="#a3b2a7ff">
<path fill="#a3b2a7" opacity="1.00" d=" M 18.59 110.46 C 20.23 108.61 22.82 109.12 25.02 108.90 C 24.68 116.50 27.53 124.73 23.67 131.80 C 23.02 133.67 20.70 133.39 19.17 133.96 C 19.23 129.00 18.11 123.74 19.68 118.96 C 21.16 116.28 21.70 113.27 21.90 110.25 C 21.32 110.29 20.17 110.36 19.60 110.40 L 18.59 110.46 Z" />
</g>
<g id="#c0c7c4ff">
<path fill="#c0c7c4" opacity="1.00" d=" M 32.46 113.68 C 44.48 113.51 56.13 110.37 67.96 108.66 C 67.83 111.88 68.06 115.17 67.29 118.33 C 65.56 120.44 62.42 121.86 62.66 125.03 C 61.79 128.20 64.70 130.14 66.71 131.99 C 61.53 132.86 56.39 134.10 51.12 134.36 C 51.91 133.24 52.73 132.14 53.54 131.04 C 51.31 129.46 49.43 126.14 46.29 127.08 C 42.94 128.02 42.67 131.90 42.97 134.79 L 42.97 135.81 C 39.69 136.17 36.44 136.78 33.19 137.36 C 32.45 129.61 31.67 121.84 31.79 114.04 L 32.46 113.68 M 59.15 112.37 C 57.63 113.75 59.99 115.98 61.32 114.47 C 62.80 113.13 60.45 111.03 59.15 112.37 M 50.99 114.11 C 50.46 115.76 51.01 116.32 52.64 115.80 C 53.15 114.16 52.60 113.60 50.99 114.11 M 43.28 115.20 C 42.14 116.64 44.65 118.34 45.66 116.88 C 46.79 115.42 44.30 113.74 43.28 115.20 M 36.19 116.16 C 35.67 117.79 36.22 118.34 37.85 117.82 C 38.37 116.18 37.82 115.63 36.19 116.16 M 59.13 120.21 C 58.56 121.83 59.10 122.39 60.75 121.88 C 61.32 120.27 60.78 119.71 59.13 120.21 M 51.06 121.21 C 49.63 122.19 51.14 124.84 52.64 123.64 C 54.08 122.66 52.54 120.05 51.06 121.21 M 44.09 122.35 C 42.70 123.32 44.13 126.07 45.64 124.82 C 46.97 123.84 45.60 121.13 44.09 122.35 M 36.23 123.45 C 34.72 124.45 36.42 126.96 37.88 125.79 C 39.38 124.79 37.68 122.28 36.23 123.45 M 59.26 128.29 C 58.73 129.90 59.28 130.46 60.93 129.95 C 61.47 128.34 60.91 127.79 59.26 128.29 M 36.25 131.29 C 34.34 131.72 35.14 134.85 37.04 134.21 C 38.97 133.79 38.14 130.64 36.25 131.29 Z" />
</g>
<g id="#d5d4cbff">
<path fill="#d5d4cb" opacity="1.00" d=" M 19.60 110.40 C 20.17 110.36 21.32 110.29 21.90 110.25 C 21.70 113.27 21.16 116.28 19.68 118.96 C 19.57 116.11 19.70 113.25 19.60 110.40 Z" />
</g>
<g id="#36512dff">
<path fill="#36512d" opacity="1.00" d=" M 124.92 114.01 C 126.02 112.15 127.87 109.68 130.35 110.49 C 133.03 111.30 133.29 114.66 134.40 116.82 C 136.47 116.49 138.53 116.13 140.61 115.82 C 140.92 115.84 141.55 115.87 141.87 115.88 C 141.86 114.71 141.86 113.55 141.87 112.39 C 142.21 113.70 142.49 115.03 142.75 116.37 C 137.39 118.50 131.94 120.78 126.06 120.69 C 125.33 118.58 123.34 116.22 124.92 114.01 Z" />
</g>
<g id="#a4b2afff">
<path fill="#a4b2af" opacity="1.00" d=" M 26.97 110.80 C 32.11 115.00 30.14 122.26 30.64 128.04 C 29.55 127.99 28.46 127.95 27.37 127.90 C 27.38 122.20 26.90 116.51 26.97 110.80 Z" />
</g>
<g id="#8d9589ff">
<path fill="#8d9589" opacity="1.00" d=" M 101.18 112.21 C 104.17 111.60 107.18 111.03 110.22 110.73 C 110.11 112.06 109.99 113.39 109.87 114.72 C 106.97 115.56 104.01 116.20 100.99 116.35 C 101.06 114.97 101.12 113.59 101.18 112.21 Z" />
</g>
<g id="#bcc8c9ff">
<path fill="#bcc8c9" opacity="1.00" d=" M 10.28 113.23 C 11.91 113.04 13.54 112.84 15.17 112.70 C 15.90 112.81 17.34 113.03 18.07 113.14 C 17.22 120.53 17.34 127.96 17.05 135.38 C 16.13 133.51 15.27 131.61 14.45 129.71 C 13.02 129.34 11.59 128.98 10.17 128.62 C 10.01 125.97 9.85 123.32 9.74 120.66 C 9.91 118.18 10.08 115.71 10.28 113.23 Z" />
</g>
<g id="#3d3d36ff">
<path fill="#3d3d36" opacity="1.00" d=" M 50.99 114.11 C 52.60 113.60 53.15 114.16 52.64 115.80 C 51.01 116.32 50.46 115.76 50.99 114.11 Z" />
</g>
<g id="#575549ff">
<path fill="#575549" opacity="1.00" d=" M 43.28 115.20 C 44.30 113.74 46.79 115.42 45.66 116.88 C 44.65 118.34 42.14 116.64 43.28 115.20 Z" />
</g>
<g id="#494842ff">
<path fill="#494842" opacity="1.00" d=" M 36.19 116.16 C 37.82 115.63 38.37 116.18 37.85 117.82 C 36.22 118.34 35.67 117.79 36.19 116.16 Z" />
</g>
<g id="#594a48ff">
<path fill="#594a48" opacity="1.00" d=" M 76.29 119.02 C 77.83 117.80 79.21 120.58 77.81 121.53 C 76.28 122.71 74.97 119.98 76.29 119.02 Z" />
</g>
<g id="#4d4441ff">
<path fill="#4d4441" opacity="1.00" d=" M 59.13 120.21 C 60.78 119.71 61.32 120.27 60.75 121.88 C 59.10 122.39 58.56 121.83 59.13 120.21 Z" />
</g>
<g id="#565954ff">
<path fill="#565954" opacity="1.00" d=" M 51.06 121.21 C 52.54 120.05 54.08 122.66 52.64 123.64 C 51.14 124.84 49.63 122.19 51.06 121.21 Z" />
</g>
<g id="#83a544ff">
<path fill="#83a544" opacity="1.00" d=" M 64.99 122.28 C 67.21 121.31 69.59 120.76 72.03 120.77 C 72.17 124.11 72.24 127.86 69.39 130.17 C 69.07 128.71 68.77 127.25 68.47 125.79 C 67.54 127.03 66.61 128.28 65.66 129.50 C 64.11 127.33 64.46 124.73 64.99 122.28 Z" />
</g>
<g id="#5f625cff">
<path fill="#5f625c" opacity="1.00" d=" M 44.09 122.35 C 45.60 121.13 46.97 123.84 45.64 124.82 C 44.13 126.07 42.70 123.32 44.09 122.35 Z" />
</g>
<g id="#63605bff">
<path fill="#63605b" opacity="1.00" d=" M 36.23 123.45 C 37.68 122.28 39.38 124.79 37.88 125.79 C 36.42 126.96 34.72 124.45 36.23 123.45 Z" />
</g>
<g id="#b0b38bff">
<path fill="#b0b38b" opacity="1.00" d=" M 82.33 123.88 C 83.36 121.16 85.91 126.88 83.20 126.68 C 82.87 125.76 82.58 124.83 82.33 123.88 Z" />
</g>
<g id="#5a6b37ff">
<path fill="#5a6b37" opacity="1.00" d=" M 96.90 123.60 C 98.94 123.46 100.99 123.45 103.04 123.47 C 101.94 124.43 100.82 125.38 99.70 126.31 C 100.03 127.09 100.36 127.88 100.69 128.66 C 97.05 129.09 93.43 129.71 89.89 130.68 C 89.65 129.80 89.41 128.93 89.17 128.05 C 91.92 125.78 95.53 125.45 98.91 124.84 C 98.40 124.53 97.40 123.91 96.90 123.60 Z" />
</g>
<g id="#554745ff">
<path fill="#554745" opacity="1.00" d=" M 59.26 128.29 C 60.91 127.79 61.47 128.34 60.93 129.95 C 59.28 130.46 58.73 129.90 59.26 128.29 Z" />
</g>
<g id="#6b7346ff">
<path fill="#6b7346" opacity="1.00" d=" M 68.99 134.24 C 73.51 129.12 80.86 129.15 87.07 127.88 C 86.94 129.22 86.81 130.57 86.68 131.92 C 82.86 131.88 78.64 130.83 75.26 133.21 C 71.55 135.56 67.17 136.21 62.92 136.96 C 62.87 136.36 62.75 135.17 62.69 134.58 C 64.72 133.86 66.89 134.02 68.99 134.24 Z" />
</g>
<g id="#94a064ff">
<path fill="#94a064" opacity="1.00" d=" M 46.03 135.31 C 42.09 133.14 45.49 127.41 49.42 128.65 C 48.26 130.86 47.06 133.04 46.03 135.31 Z" />
</g>
<g id="#8aa147ff">
<path fill="#8aa147" opacity="1.00" d=" M 26.06 130.19 C 27.59 130.32 29.12 130.46 30.65 130.59 C 31.53 132.96 31.44 135.48 30.97 137.93 C 30.27 136.88 29.59 135.82 28.91 134.77 C 28.34 136.29 27.73 137.81 27.06 139.29 C 25.22 136.56 24.94 133.25 26.06 130.19 Z" />
</g>
<g id="#839c5eff">
<path fill="#839c5e" opacity="1.00" d=" M 9.34 132.39 C 10.50 131.23 12.26 131.15 13.75 130.67 C 14.66 134.11 15.32 137.65 15.07 141.22 L 14.37 141.70 C 13.48 139.36 12.60 137.02 11.58 134.73 C 11.29 136.86 11.04 138.99 10.80 141.12 C 10.30 140.76 9.28 140.04 8.77 139.68 C 8.81 137.25 8.53 134.73 9.34 132.39 Z" />
</g>
<g id="#77756eff">
<path fill="#77756e" opacity="1.00" d=" M 36.25 131.29 C 38.14 130.64 38.97 133.79 37.04 134.21 C 35.14 134.85 34.34 131.72 36.25 131.29 Z" />
</g>
<g id="#f3e5eaff">
<path fill="#f3e5ea" opacity="1.00" d=" M 18.98 136.96 C 18.80 135.35 19.47 134.67 20.97 134.89 C 20.87 136.14 20.20 136.83 18.98 136.96 Z" />
</g>
<g id="#0c0c0a0f">
<path fill="#0c0c0a" opacity="0.06" d=" M 20.97 134.89 C 22.32 135.18 23.76 135.56 24.32 136.99 C 23.59 138.45 22.16 139.31 20.76 140.02 C 20.28 140.03 19.32 140.06 18.84 140.07 C 18.90 139.57 19.01 138.56 19.07 138.06 L 18.98 136.96 C 20.20 136.83 20.87 136.14 20.97 134.89 Z" />
</g>
<g id="#738d46ff">
<path fill="#738d46" opacity="1.00" d=" M 42.97 134.79 C 45.20 136.64 47.20 138.76 48.83 141.17 L 48.77 141.83 C 45.15 142.34 41.42 142.52 38.09 144.18 C 40.42 143.13 42.59 141.75 44.61 140.18 C 40.33 140.81 36.48 142.88 32.38 144.13 C 31.60 143.44 30.81 142.76 30.00 142.10 C 30.24 141.50 30.72 140.31 30.96 139.71 C 34.95 138.48 39.77 138.83 42.97 135.81 L 42.97 134.79 Z" />
</g>
<g id="#c4c4a9ff">
<path fill="#c4c4a9" opacity="1.00" d=" M 17.00 140.06 C 16.92 138.44 17.61 137.78 19.07 138.06 C 19.01 138.56 18.90 139.57 18.84 140.07 C 18.38 140.06 17.46 140.06 17.00 140.06 Z" />
</g>
<g id="#b7bf97ff">
<path fill="#b7bf97" opacity="1.00" d=" M 7.21 140.26 C 7.25 140.40 7.33 140.68 7.37 140.82 C 7.33 140.68 7.25 140.40 7.21 140.26 Z" />
</g>
<g id="#556e38ff">
<path fill="#556e38" opacity="1.00" d=" M 17.00 140.06 C 17.46 140.06 18.38 140.06 18.84 140.07 C 19.32 140.06 20.28 140.03 20.76 140.02 C 23.93 140.08 27.22 140.46 30.00 142.10 C 30.81 142.76 31.60 143.44 32.38 144.13 C 27.64 144.56 22.87 144.89 18.29 146.28 C 15.78 147.11 13.28 145.91 10.86 145.32 C 11.14 145.67 11.71 146.39 11.99 146.74 C 10.51 146.50 9.04 146.28 7.56 146.06 C 7.66 144.92 7.77 143.78 7.91 142.65 C 8.25 143.70 8.62 144.74 8.99 145.78 C 10.75 144.38 12.52 142.98 14.37 141.70 L 15.07 141.22 C 15.55 140.93 16.52 140.35 17.00 140.06 Z" />
</g>
<g id="#3d362b7d">
<path fill="#3d362b" opacity="0.49" d=" M 23.65 147.69 C 26.09 146.90 28.57 146.17 31.13 145.90 C 28.97 147.49 26.23 147.63 23.65 147.69 Z" />
</g>
</svg>
