<?xml version="1.0" encoding="UTF-8" ?>
<!DOCTYPE svg PUBLIC "-//W3C//DTD SVG 1.1//EN" "http://www.w3.org/Graphics/SVG/1.1/DTD/svg11.dtd">
<svg width="104pt" height="102pt" viewBox="0 0 104 102" version="1.1" xmlns="http://www.w3.org/2000/svg">
<g id="#473c30ff">
<path fill="#473c30" opacity="1.00" d=" M 19.65 0.00 L 24.82 0.00 C 25.21 3.52 24.58 7.25 26.08 10.57 C 26.47 11.37 26.88 12.16 27.29 12.94 C 30.66 12.93 34.06 12.86 37.38 13.53 C 41.42 14.42 45.63 13.54 49.64 14.61 C 46.92 15.25 44.29 16.18 41.64 17.06 C 36.50 17.10 31.41 16.14 26.27 16.27 C 26.51 17.16 26.98 18.95 27.22 19.85 C 28.42 20.34 29.62 20.83 30.82 21.32 C 31.88 20.66 32.95 19.99 34.01 19.33 C 34.13 19.76 34.37 20.64 34.49 21.07 C 37.16 20.64 40.07 19.67 42.52 21.36 C 44.35 21.50 46.19 21.61 48.03 21.74 C 48.60 21.27 49.17 20.81 49.75 20.35 C 50.42 20.81 51.09 21.29 51.75 21.77 C 55.95 20.36 60.04 23.21 64.31 22.74 C 66.37 22.45 68.46 22.30 70.51 22.79 C 70.57 21.63 70.63 20.48 70.70 19.33 C 69.75 19.13 68.80 18.94 67.85 18.75 C 68.84 17.99 69.85 17.23 70.77 16.38 L 70.97 16.21 C 70.87 12.14 70.86 8.05 71.65 4.04 C 71.43 14.06 73.50 23.99 73.04 34.01 C 72.11 32.73 71.19 31.45 70.25 30.18 C 70.25 29.10 70.20 28.02 70.15 26.94 C 69.91 27.68 69.44 29.17 69.20 29.92 C 67.68 30.04 66.16 30.15 64.64 30.25 C 63.38 30.30 62.12 30.32 60.86 30.29 C 54.82 29.19 48.65 29.32 42.62 28.28 C 39.82 27.92 36.99 27.95 34.17 27.90 C 33.27 27.92 31.46 27.97 30.55 28.00 C 29.56 28.16 28.57 28.33 27.58 28.51 C 27.62 30.57 27.65 32.62 27.66 34.67 C 29.84 34.81 32.02 34.89 34.20 34.97 C 34.48 35.19 35.05 35.63 35.33 35.85 C 33.25 36.00 31.18 36.13 29.10 36.27 C 28.83 43.06 28.99 49.86 29.11 56.66 L 29.61 56.83 C 30.87 57.21 32.16 57.58 33.17 58.48 C 33.08 59.44 32.90 61.36 32.81 62.32 C 32.16 61.06 31.50 59.79 30.85 58.53 C 29.89 59.32 28.94 60.11 27.98 60.90 C 27.32 60.85 25.98 60.74 25.32 60.69 C 24.58 62.20 23.81 63.70 23.01 65.18 C 22.70 65.06 22.10 64.81 21.80 64.68 C 20.51 64.15 19.21 63.64 17.90 63.17 C 17.35 64.58 16.80 65.98 16.24 67.38 C 16.10 66.76 15.84 65.52 15.71 64.90 C 15.85 64.48 16.13 63.64 16.27 63.22 C 17.92 61.39 18.63 59.12 18.25 56.66 C 18.48 58.64 18.65 60.62 18.73 62.61 C 19.65 62.63 20.58 62.65 21.50 62.67 C 21.81 62.68 22.41 62.70 22.71 62.71 C 26.26 55.99 24.20 48.22 24.31 40.99 C 24.49 30.17 24.05 19.36 23.97 8.55 L 23.95 6.92 C 23.94 6.57 23.91 5.88 23.90 5.54 C 23.13 5.11 21.60 4.27 20.83 3.85 C 21.71 3.49 23.48 2.75 24.36 2.38 C 23.24 0.80 21.63 0.98 20.22 2.18 C 20.08 1.63 19.79 0.54 19.65 0.00 M 28.21 23.44 C 32.12 25.51 36.72 23.59 40.89 24.65 C 40.93 23.95 41.00 22.54 41.04 21.83 C 40.04 22.26 39.05 22.69 38.06 23.12 C 37.55 22.93 36.51 22.56 36.00 22.38 C 33.39 22.61 30.76 22.78 28.21 23.44 M 42.48 24.94 C 44.02 25.00 47.37 26.10 46.82 23.32 C 45.13 22.63 42.97 22.89 42.48 24.94 M 49.22 23.14 C 49.43 26.44 52.19 21.51 49.22 23.14 M 54.07 22.93 C 53.64 23.56 52.78 24.82 52.35 25.45 C 57.75 25.68 63.08 26.90 68.50 26.56 C 68.62 25.94 68.86 24.70 68.98 24.08 C 64.02 24.60 58.77 24.97 54.07 22.93 M 46.38 27.18 C 46.73 28.41 47.54 28.60 48.80 27.76 C 48.46 26.51 47.65 26.32 46.38 27.18 M 54.19 27.13 C 54.38 30.37 57.26 25.65 54.19 27.13 M 60.35 28.36 C 60.78 29.73 64.47 29.67 64.82 28.30 C 63.48 27.63 61.66 27.60 60.35 28.36 Z" />
</g>
<g id="#515838c8">
<path fill="#515838" opacity="0.78" d=" M 24.82 0.00 L 25.70 0.00 C 25.96 3.52 26.14 7.04 26.08 10.57 C 24.58 7.25 25.21 3.52 24.82 0.00 Z" />
</g>
<g id="#d2d2c2ff">
<path fill="#d2d2c2" opacity="1.00" d=" M 20.22 2.18 C 21.63 0.98 23.24 0.80 24.36 2.38 C 23.48 2.75 21.71 3.49 20.83 3.85 C 21.60 4.27 23.13 5.11 23.90 5.54 C 23.91 5.88 23.94 6.57 23.95 6.92 C 22.75 6.89 21.55 6.87 20.35 6.85 C 20.33 6.05 20.29 4.44 20.27 3.64 C 20.26 3.27 20.23 2.54 20.22 2.18 Z" />
<path fill="#d2d2c2" opacity="1.00" d=" M 73.34 12.29 C 75.10 11.98 76.85 11.65 78.60 11.28 C 75.33 19.89 79.90 29.76 75.58 38.07 C 77.43 40.76 77.15 44.09 77.16 47.19 C 76.22 47.12 74.33 46.99 73.39 46.92 C 73.58 44.79 73.73 42.65 73.83 40.51 C 73.95 31.11 74.19 21.67 73.34 12.29 M 75.57 33.14 C 75.69 28.03 76.09 22.90 75.73 17.80 C 74.29 22.67 74.87 28.13 75.57 33.14 Z" />
<path fill="#d2d2c2" opacity="1.00" d=" M 14.95 65.09 C 15.28 64.62 15.94 63.69 16.27 63.22 C 16.13 63.64 15.85 64.48 15.71 64.90 C 15.21 66.34 14.47 67.68 13.64 68.96 C 13.47 68.43 13.14 67.38 12.97 66.85 C 12.95 65.61 11.22 61.84 14.95 65.09 Z" />
<path fill="#d2d2c2" opacity="1.00" d=" M 80.70 68.20 C 81.45 67.94 82.95 67.41 83.70 67.15 C 83.86 68.80 82.58 70.73 80.74 69.80 C 80.73 69.40 80.71 68.60 80.70 68.20 Z" />
</g>
<g id="#5c5147ff">
<path fill="#5c5147" opacity="1.00" d=" M 71.79 2.86 C 74.10 1.83 77.39 1.36 78.60 4.23 C 77.53 4.76 76.47 5.32 75.42 5.88 C 75.69 5.39 76.22 4.41 76.48 3.92 C 75.71 3.94 74.17 3.98 73.40 4.00 C 73.12 6.17 72.85 8.33 72.63 10.51 C 74.08 10.03 75.93 9.96 76.47 8.24 C 76.94 8.89 77.42 9.54 77.89 10.18 C 78.07 10.46 78.42 11.01 78.60 11.28 C 76.85 11.65 75.10 11.98 73.34 12.29 C 74.19 21.67 73.95 31.11 73.83 40.51 C 72.10 42.28 71.60 44.67 71.34 47.04 C 70.93 45.28 70.47 43.53 70.09 41.76 C 70.03 40.43 69.96 39.11 69.94 37.78 C 69.97 35.24 70.15 32.71 70.25 30.18 C 71.19 31.45 72.11 32.73 73.04 34.01 C 73.50 23.99 71.43 14.06 71.65 4.04 L 71.79 2.86 Z" />
</g>
<g id="#595240ff">
<path fill="#595240" opacity="1.00" d=" M 19.00 8.11 C 19.37 6.64 18.43 4.35 20.27 3.64 C 20.29 4.44 20.33 6.05 20.35 6.85 C 21.55 6.87 22.75 6.89 23.95 6.92 L 23.97 8.55 C 22.77 8.58 21.58 8.61 20.38 8.63 C 20.35 10.58 20.33 12.53 20.27 14.47 C 18.48 19.36 18.39 24.58 17.49 29.64 C 17.41 28.93 17.25 27.50 17.17 26.79 C 16.32 26.73 14.60 26.60 13.75 26.54 C 15.06 26.45 16.38 26.35 17.69 26.25 C 17.21 24.94 16.36 23.92 14.99 23.55 C 15.60 23.28 16.81 22.76 17.42 22.49 L 15.53 21.99 C 16.29 21.18 17.05 20.38 17.81 19.58 C 17.89 16.31 17.90 13.05 17.80 9.78 C 18.10 9.36 18.70 8.53 19.00 8.11 Z" />
</g>
<g id="#d8cabeff">
<path fill="#d8cabe" opacity="1.00" d=" M 73.40 4.00 C 74.17 3.98 75.71 3.94 76.48 3.92 C 76.22 4.41 75.69 5.39 75.42 5.88 C 75.32 6.73 75.67 7.51 76.47 8.24 C 75.93 9.96 74.08 10.03 72.63 10.51 C 72.85 8.33 73.12 6.17 73.40 4.00 Z" />
<path fill="#d8cabe" opacity="1.00" d=" M 27.58 28.51 C 28.57 28.33 29.56 28.16 30.55 28.00 C 30.52 29.28 30.49 30.56 30.47 31.85 C 31.71 32.88 32.95 33.93 34.20 34.97 C 32.02 34.89 29.84 34.81 27.66 34.67 C 27.65 32.62 27.62 30.57 27.58 28.51 Z" />
<path fill="#d8cabe" opacity="1.00" d=" M 101.35 28.34 C 103.27 31.66 102.40 35.58 102.73 39.22 C 103.04 51.35 103.04 63.49 103.13 75.63 C 102.58 74.99 102.04 74.34 101.50 73.70 C 102.41 58.58 100.34 43.45 101.35 28.34 Z" />
<path fill="#d8cabe" opacity="1.00" d=" M 12.06 85.01 C 16.55 86.10 21.32 85.68 25.65 87.39 C 28.71 88.47 30.31 91.61 33.17 93.03 C 36.20 94.62 39.21 96.22 42.21 97.85 C 46.26 100.19 51.12 100.00 55.36 101.84 L 52.39 102.00 L 51.18 102.00 C 45.01 99.46 38.58 97.21 32.91 93.52 C 28.77 92.17 25.42 89.36 22.12 86.61 C 18.71 86.55 14.90 87.40 12.06 85.01 Z" />
<path fill="#d8cabe" opacity="1.00" d=" M 102.01 87.96 C 102.52 89.20 101.97 91.31 104.00 91.19 L 104.00 91.47 C 103.16 91.57 101.48 91.78 100.64 91.88 C 99.81 90.44 101.14 89.00 102.01 87.96 Z" />
</g>
<g id="#463e36e3">
<path fill="#463e36" opacity="0.89" d=" M 78.60 4.23 C 78.58 4.44 78.54 4.87 78.52 5.08 C 78.29 6.78 78.04 8.47 77.89 10.18 C 77.42 9.54 76.94 8.89 76.47 8.24 C 75.67 7.51 75.32 6.73 75.42 5.88 C 76.47 5.32 77.53 4.76 78.60 4.23 Z" />
</g>
<g id="#c4ccbfff">
<path fill="#c4ccbf" opacity="1.00" d=" M 20.38 8.63 C 21.58 8.61 22.77 8.58 23.97 8.55 C 24.05 19.36 24.49 30.17 24.31 40.99 C 24.20 48.22 26.26 55.99 22.71 62.71 C 22.41 62.70 21.81 62.68 21.50 62.67 C 21.13 52.75 21.02 42.82 20.64 32.90 C 20.21 26.77 20.44 20.61 20.27 14.47 C 20.33 12.53 20.35 10.58 20.38 8.63 Z" />
</g>
<g id="#53433aff">
<path fill="#53433a" opacity="1.00" d=" M 78.60 11.28 L 79.07 12.06 C 80.72 15.94 78.85 20.03 79.00 24.03 C 79.09 28.24 78.76 32.50 79.59 36.66 C 80.25 30.60 79.53 24.47 80.58 18.45 C 80.90 20.90 81.01 23.38 81.03 25.86 C 83.96 26.40 86.91 26.81 89.86 27.25 C 91.73 27.79 93.54 28.53 95.35 29.27 C 94.36 29.92 93.37 30.57 92.35 31.16 C 90.16 30.77 88.00 30.30 85.80 30.01 C 84.23 29.80 82.67 29.61 81.10 29.41 C 81.05 31.55 81.02 33.70 80.99 35.85 C 83.87 36.21 86.73 36.72 89.63 36.91 C 90.27 36.86 91.54 36.74 92.18 36.69 C 92.69 36.62 93.70 36.50 94.21 36.44 C 94.18 38.20 94.15 39.97 94.05 41.73 C 93.56 41.76 92.58 41.83 92.09 41.86 C 88.37 42.13 84.58 42.08 81.00 40.88 C 81.00 42.56 81.00 44.24 81.00 45.92 C 84.76 46.06 88.50 46.47 92.22 47.00 C 92.58 45.36 93.01 43.70 94.03 42.33 C 94.44 46.68 94.16 51.05 94.08 55.40 C 93.81 60.75 94.23 66.10 94.32 71.45 C 93.99 71.71 93.32 72.24 92.98 72.50 C 92.78 64.44 93.16 56.36 92.71 48.31 C 91.35 48.30 89.99 48.28 88.63 48.24 C 86.04 47.94 83.45 47.68 80.84 47.57 C 80.91 54.44 80.65 61.32 80.70 68.20 C 80.71 68.60 80.73 69.40 80.74 69.80 C 80.66 71.30 80.53 72.79 80.36 74.28 C 79.89 72.99 79.39 71.69 78.88 70.41 C 78.54 70.19 77.86 69.76 77.52 69.55 C 76.98 69.69 75.89 69.96 75.34 70.10 C 73.44 71.08 71.54 72.06 69.57 72.88 C 69.52 72.47 69.43 71.64 69.39 71.23 C 69.35 69.59 69.43 67.94 69.48 66.30 C 70.04 58.13 70.09 49.94 70.09 41.76 C 70.47 43.53 70.93 45.28 71.34 47.04 C 71.60 44.67 72.10 42.28 73.83 40.51 C 73.73 42.65 73.58 44.79 73.39 46.92 C 72.92 52.48 73.13 58.06 73.03 63.63 C 73.01 65.30 72.99 66.97 72.97 68.64 C 74.27 67.94 75.58 67.26 76.87 66.54 C 76.93 66.10 77.06 65.21 77.12 64.77 C 77.22 58.91 77.07 53.05 77.16 47.19 C 77.15 44.09 77.43 40.76 75.58 38.07 C 79.90 29.76 75.33 19.89 78.60 11.28 M 81.17 38.06 C 81.54 39.32 82.34 39.50 83.56 38.63 C 83.18 37.37 82.38 37.18 81.17 38.06 M 85.32 39.23 C 85.82 40.66 88.55 40.21 89.74 39.68 C 89.26 38.25 86.45 38.45 85.32 39.23 Z" />
<path fill="#53433a" opacity="1.00" d=" M 55.39 62.67 C 56.39 62.07 57.39 61.47 58.40 60.88 C 59.03 62.95 56.90 64.38 55.95 65.96 C 55.75 64.86 55.57 63.77 55.39 62.67 Z" />
</g>
<g id="#93837aff">
<path fill="#93837a" opacity="1.00" d=" M 79.07 12.06 C 80.17 14.00 80.32 16.28 80.58 18.45 C 79.53 24.47 80.25 30.60 79.59 36.66 C 78.76 32.50 79.09 28.24 79.00 24.03 C 78.85 20.03 80.72 15.94 79.07 12.06 Z" />
<path fill="#93837a" opacity="1.00" d=" M 60.86 30.29 C 62.12 30.32 63.38 30.30 64.64 30.25 C 65.24 30.50 66.42 31.00 67.02 31.25 C 67.33 32.94 67.63 34.63 67.92 36.33 C 64.27 35.84 60.73 34.30 56.98 34.90 L 57.00 34.03 C 58.61 34.06 60.31 34.71 61.88 34.17 C 62.74 33.21 63.49 32.16 64.25 31.13 C 63.13 30.83 62.00 30.55 60.86 30.29 Z" />
<path fill="#93837a" opacity="1.00" d=" M 9.05 67.06 C 8.87 62.88 8.81 58.70 9.11 54.52 C 10.03 58.41 9.84 62.36 9.34 66.28 C 10.02 66.41 11.37 66.66 12.05 66.79 C 11.30 66.86 9.80 66.99 9.05 67.06 Z" />
</g>
<g id="#3a3027ff">
<path fill="#3a3027" opacity="1.00" d=" M 1.66 13.58 C 3.26 13.69 4.86 13.78 6.44 14.00 L 7.03 14.46 C 5.46 14.50 3.90 14.58 2.33 14.66 C 2.29 16.06 2.24 17.46 2.20 18.86 C 3.39 18.79 4.59 18.71 5.78 18.64 C 5.72 17.29 5.66 15.94 5.60 14.59 L 7.17 14.57 C 7.12 16.05 7.06 17.52 6.99 18.99 C 7.07 19.42 7.23 20.26 7.31 20.68 C 7.74 20.75 8.61 20.88 9.05 20.95 C 11.26 20.90 13.42 21.40 15.53 21.99 L 17.42 22.49 C 16.81 22.76 15.60 23.28 14.99 23.55 C 12.51 23.38 10.04 23.15 7.57 22.95 C 7.74 25.57 8.18 28.17 8.22 30.79 C 7.56 31.09 6.23 31.70 5.57 32.00 C 8.60 33.10 9.02 27.91 11.94 28.37 C 13.82 28.65 15.65 29.19 17.49 29.64 C 18.39 24.58 18.48 19.36 20.27 14.47 C 20.44 20.61 20.21 26.77 20.64 32.90 C 19.84 33.19 18.25 33.78 17.45 34.07 C 14.48 34.43 11.46 34.24 8.51 34.75 C 7.67 34.89 5.98 35.18 5.14 35.32 C 4.67 34.79 3.73 33.74 3.27 33.22 C 3.94 32.16 4.63 31.11 5.32 30.06 C 5.40 27.58 5.33 25.10 5.07 22.64 C 5.28 22.06 5.70 20.90 5.91 20.32 C 5.16 20.36 3.66 20.45 2.90 20.50 C 2.44 30.00 2.79 39.54 2.68 49.05 C 2.81 55.81 2.17 62.92 5.07 69.23 C 5.54 69.28 6.46 69.37 6.93 69.42 C 6.98 66.57 6.26 63.68 6.88 60.87 C 8.53 56.19 7.45 51.16 8.03 46.33 C 8.40 43.73 8.61 41.12 8.65 38.50 C 8.80 38.80 9.11 39.41 9.26 39.71 C 11.88 39.90 14.51 39.96 17.14 40.04 L 17.10 41.35 C 14.66 41.17 12.23 40.99 9.79 40.75 C 9.67 40.98 9.43 41.44 9.31 41.66 C 8.43 45.87 9.42 50.24 9.11 54.52 C 8.81 58.70 8.87 62.88 9.05 67.06 C 9.80 66.99 11.30 66.86 12.05 66.79 L 12.97 66.85 C 13.14 67.38 13.47 68.43 13.64 68.96 C 13.60 69.53 13.52 70.68 13.48 71.25 C 13.44 71.53 13.37 72.08 13.34 72.36 C 13.09 72.37 12.59 72.40 12.34 72.42 L 10.52 72.45 C 10.26 73.61 10.03 74.79 9.81 75.96 C 8.45 76.57 7.10 77.19 5.75 77.81 C 5.50 77.21 4.99 76.02 4.74 75.43 C 3.88 74.92 3.03 74.40 2.19 73.87 C 1.86 73.62 1.20 73.13 0.87 72.88 C 0.59 70.37 0.52 67.83 0.73 65.31 L 1.07 64.44 C 0.80 64.10 0.27 63.42 0.00 63.08 L 0.00 62.25 C 2.17 55.32 0.45 47.90 0.67 40.76 C 1.15 33.83 0.11 26.82 1.46 19.96 C 1.80 17.85 1.71 15.71 1.66 13.58 M 11.16 30.01 C 9.16 30.43 10.60 32.80 12.12 32.00 C 14.26 31.68 12.71 29.12 11.16 30.01 M 15.40 31.04 C 15.62 34.31 18.40 29.46 15.40 31.04 M 9.17 68.25 C 8.57 69.35 7.98 70.44 7.39 71.54 C 6.89 71.59 5.90 71.69 5.40 71.74 C 4.38 70.85 3.35 69.96 2.32 69.08 C 2.27 69.77 2.18 71.16 2.14 71.85 C 4.26 72.88 5.74 75.53 8.41 74.57 C 8.59 73.42 8.77 72.26 8.97 71.11 C 9.67 70.98 11.07 70.72 11.78 70.59 C 11.73 70.06 11.65 69.01 11.60 68.48 C 10.99 68.43 9.78 68.31 9.17 68.25 Z" />
<path fill="#3a3027" opacity="1.00" d=" M 36.16 36.65 C 37.57 36.20 38.98 35.70 40.46 35.55 C 42.27 35.72 44.09 35.92 45.91 36.02 C 52.47 36.40 59.01 37.12 65.55 37.80 C 61.62 38.37 57.65 38.23 53.69 38.08 C 53.19 38.03 52.19 37.91 51.68 37.85 C 48.22 36.42 44.46 36.92 40.83 37.10 C 39.27 36.95 37.72 36.80 36.16 36.65 Z" />
</g>
<g id="#c0d2b5ff">
<path fill="#c0d2b5" opacity="1.00" d=" M 2.33 14.66 C 3.90 14.58 5.46 14.50 7.03 14.46 L 7.17 14.57 L 5.60 14.59 C 5.66 15.94 5.72 17.29 5.78 18.64 C 4.59 18.71 3.39 18.79 2.20 18.86 C 2.24 17.46 2.29 16.06 2.33 14.66 Z" />
</g>
<g id="#c1afa1ff">
<path fill="#c1afa1" opacity="1.00" d=" M 49.98 14.67 C 50.94 13.39 51.58 13.49 51.90 14.96 C 51.42 14.88 50.46 14.74 49.98 14.67 Z" />
</g>
<g id="#362e1dff">
<path fill="#362e1d" opacity="1.00" d=" M 41.64 17.06 C 44.29 16.18 46.92 15.25 49.64 14.61 L 49.98 14.67 C 50.46 14.74 51.42 14.88 51.90 14.96 C 53.79 14.91 55.68 14.96 57.57 15.03 C 60.75 15.91 64.05 16.13 67.33 15.92 C 68.47 16.10 69.62 16.26 70.77 16.38 C 69.85 17.23 68.84 17.99 67.85 18.75 C 63.64 17.86 59.34 17.67 55.06 17.36 C 50.59 17.05 46.11 17.07 41.64 17.06 Z" />
<path fill="#362e1d" opacity="1.00" d=" M 100.55 19.85 C 101.01 22.01 101.03 24.22 101.19 26.42 C 101.23 26.90 101.31 27.86 101.35 28.34 C 100.34 43.45 102.41 58.58 101.50 73.70 C 102.04 74.34 102.58 74.99 103.13 75.63 C 103.04 63.49 103.04 51.35 102.73 39.22 L 104.00 39.78 L 104.00 79.13 C 102.98 79.56 101.96 79.98 100.93 80.39 C 101.16 79.60 101.62 78.03 101.85 77.25 C 101.20 77.09 99.90 76.78 99.25 76.62 C 99.47 75.70 99.68 74.78 99.88 73.85 C 100.55 58.39 99.13 42.92 99.71 27.45 L 98.51 27.43 L 99.00 25.85 C 98.85 25.10 98.56 23.60 98.42 22.85 C 99.14 21.85 99.85 20.86 100.55 19.85 Z" />
</g>
<g id="#5f5349ff">
<path fill="#5f5349" opacity="1.00" d=" M 57.57 15.03 C 60.85 14.91 64.14 15.12 67.33 15.92 C 64.05 16.13 60.75 15.91 57.57 15.03 Z" />
<path fill="#5f5349" opacity="1.00" d=" M 5.14 35.32 C 5.98 35.18 7.67 34.89 8.51 34.75 C 8.55 36.00 8.60 37.25 8.65 38.50 C 8.61 41.12 8.40 43.73 8.03 46.33 C 6.96 49.97 7.29 53.79 7.58 57.52 C 6.94 57.50 6.30 57.48 5.66 57.44 C 5.63 50.06 4.54 42.70 5.14 35.32 Z" />
</g>
<g id="#c3cabeff">
<path fill="#c3cabe" opacity="1.00" d=" M 26.27 16.27 C 31.41 16.14 36.50 17.10 41.64 17.06 C 46.11 17.07 50.59 17.05 55.06 17.36 C 55.81 18.51 56.57 19.66 57.32 20.80 C 59.66 21.42 61.98 22.09 64.31 22.74 C 60.04 23.21 55.95 20.36 51.75 21.77 C 51.09 21.29 50.42 20.81 49.75 20.35 C 49.17 20.81 48.60 21.27 48.03 21.74 C 46.19 21.61 44.35 21.50 42.52 21.36 C 40.07 19.67 37.16 20.64 34.49 21.07 C 34.37 20.64 34.13 19.76 34.01 19.33 C 32.95 19.99 31.88 20.66 30.82 21.32 C 29.62 20.83 28.42 20.34 27.22 19.85 C 26.98 18.95 26.51 17.16 26.27 16.27 Z" />
</g>
<g id="#ccd2d4ff">
<path fill="#ccd2d4" opacity="1.00" d=" M 55.06 17.36 C 59.34 17.67 63.64 17.86 67.85 18.75 C 68.80 18.94 69.75 19.13 70.70 19.33 C 70.63 20.48 70.57 21.63 70.51 22.79 C 68.46 22.30 66.37 22.45 64.31 22.74 C 61.98 22.09 59.66 21.42 57.32 20.80 C 56.57 19.66 55.81 18.51 55.06 17.36 Z" />
</g>
<g id="#bfc4bcff">
<path fill="#bfc4bc" opacity="1.00" d=" M 75.57 33.14 C 74.87 28.13 74.29 22.67 75.73 17.80 C 76.09 22.90 75.69 28.03 75.57 33.14 Z" />
</g>
<g id="#5d6439ff">
<path fill="#5d6439" opacity="1.00" d=" M 6.99 18.99 C 8.26 19.03 8.94 19.68 9.05 20.95 C 8.61 20.88 7.74 20.75 7.31 20.68 C 7.23 20.26 7.07 19.42 6.99 18.99 Z" />
</g>
<g id="#5d544bff">
<path fill="#5d544b" opacity="1.00" d=" M 95.14 18.69 L 96.04 18.63 C 96.00 20.90 95.94 23.18 96.02 25.45 L 97.09 25.80 C 97.57 25.81 98.52 25.84 99.00 25.85 L 98.51 27.43 L 98.05 27.43 C 97.57 27.39 96.62 27.33 96.15 27.29 C 96.06 28.56 95.98 29.82 95.91 31.09 C 95.63 37.43 96.11 43.77 95.97 50.12 C 96.00 50.85 96.05 52.32 96.07 53.06 L 96.05 53.75 C 95.80 53.96 95.29 54.39 95.03 54.60 L 94.08 55.40 C 94.16 51.05 94.44 46.68 94.03 42.33 C 93.01 43.70 92.58 45.36 92.22 47.00 C 92.20 45.28 92.15 43.57 92.09 41.86 C 92.58 41.83 93.56 41.76 94.05 41.73 C 94.15 39.97 94.18 38.20 94.21 36.44 C 93.70 36.50 92.69 36.62 92.18 36.69 C 92.23 34.84 92.28 33.00 92.35 31.16 C 93.37 30.57 94.36 29.92 95.35 29.27 C 93.54 28.53 91.73 27.79 89.86 27.25 C 90.73 27.40 92.48 27.70 93.35 27.85 C 95.06 25.08 95.21 21.85 95.14 18.69 Z" />
<path fill="#5d544b" opacity="1.00" d=" M 40.83 37.10 C 44.46 36.92 48.22 36.42 51.68 37.85 C 48.05 37.91 44.42 37.62 40.83 37.10 Z" />
</g>
<g id="#827268ff">
<path fill="#827268" opacity="1.00" d=" M 96.04 18.63 C 97.33 18.55 98.62 18.51 99.91 18.51 L 100.55 19.85 C 99.85 20.86 99.14 21.85 98.42 22.85 C 97.23 23.24 96.01 24.60 97.09 25.80 L 96.02 25.45 C 95.94 23.18 96.00 20.90 96.04 18.63 M 97.09 20.35 C 95.67 23.50 100.32 20.34 97.09 20.35 Z" />
</g>
<g id="#d6c7bdff">
<path fill="#d6c7bd" opacity="1.00" d=" M 97.09 20.35 C 100.32 20.34 95.67 23.50 97.09 20.35 Z" />
</g>
<g id="#d1c3b8ff">
<path fill="#d1c3b8" opacity="1.00" d=" M 2.90 20.50 C 3.66 20.45 5.16 20.36 5.91 20.32 C 5.70 20.90 5.28 22.06 5.07 22.64 C 5.33 25.10 5.40 27.58 5.32 30.06 C 4.63 31.11 3.94 32.16 3.27 33.22 C 3.73 33.74 4.67 34.79 5.14 35.32 C 4.54 42.70 5.63 50.06 5.66 57.44 C 6.30 57.48 6.94 57.50 7.58 57.52 C 7.29 53.79 6.96 49.97 8.03 46.33 C 7.45 51.16 8.53 56.19 6.88 60.87 C 6.26 63.68 6.98 66.57 6.93 69.42 C 6.46 69.37 5.54 69.28 5.07 69.23 C 2.17 62.92 2.81 55.81 2.68 49.05 C 2.79 39.54 2.44 30.00 2.90 20.50 Z" />
</g>
<g id="#6f7950ff">
<path fill="#6f7950" opacity="1.00" d=" M 28.21 23.44 C 30.76 22.78 33.39 22.61 36.00 22.38 C 36.51 22.56 37.55 22.93 38.06 23.12 C 39.05 22.69 40.04 22.26 41.04 21.83 C 41.00 22.54 40.93 23.95 40.89 24.65 C 36.72 23.59 32.12 25.51 28.21 23.44 Z" />
</g>
<g id="#c5c4b8ff">
<path fill="#c5c4b8" opacity="1.00" d=" M 7.57 22.95 C 10.04 23.15 12.51 23.38 14.99 23.55 C 16.36 23.92 17.21 24.94 17.69 26.25 C 16.38 26.35 15.06 26.45 13.75 26.54 C 14.60 26.60 16.32 26.73 17.17 26.79 C 17.25 27.50 17.41 28.93 17.49 29.64 C 15.65 29.19 13.82 28.65 11.94 28.37 C 9.02 27.91 8.60 33.10 5.57 32.00 C 6.23 31.70 7.56 31.09 8.22 30.79 C 8.18 28.17 7.74 25.57 7.57 22.95 M 11.32 26.09 C 11.49 29.42 14.30 24.53 11.32 26.09 Z" />
</g>
<g id="#71835aff">
<path fill="#71835a" opacity="1.00" d=" M 42.48 24.94 C 42.97 22.89 45.13 22.63 46.82 23.32 C 47.37 26.10 44.02 25.00 42.48 24.94 Z" />
</g>
<g id="#6c734fff">
<path fill="#6c734f" opacity="1.00" d=" M 49.22 23.14 C 52.19 21.51 49.43 26.44 49.22 23.14 Z" />
</g>
<g id="#81965bff">
<path fill="#81965b" opacity="1.00" d=" M 54.07 22.93 C 58.77 24.97 64.02 24.60 68.98 24.08 C 68.86 24.70 68.62 25.94 68.50 26.56 C 63.08 26.90 57.75 25.68 52.35 25.45 C 52.78 24.82 53.64 23.56 54.07 22.93 Z" />
</g>
<g id="#cabbb3ff">
<path fill="#cabbb3" opacity="1.00" d=" M 97.09 25.80 C 96.01 24.60 97.23 23.24 98.42 22.85 C 98.56 23.60 98.85 25.10 99.00 25.85 C 98.52 25.84 97.57 25.81 97.09 25.80 Z" />
</g>
<g id="#e1f0f1ff">
<path fill="#e1f0f1" opacity="1.00" d=" M 11.32 26.09 C 14.30 24.53 11.49 29.42 11.32 26.09 Z" />
</g>
<g id="#736d50ff">
<path fill="#736d50" opacity="1.00" d=" M 46.38 27.18 C 47.65 26.32 48.46 26.51 48.80 27.76 C 47.54 28.60 46.73 28.41 46.38 27.18 Z" />
</g>
<g id="#889368ff">
<path fill="#889368" opacity="1.00" d=" M 54.19 27.13 C 57.26 25.65 54.38 30.37 54.19 27.13 Z" />
</g>
<g id="#b4a79dff">
<path fill="#b4a79d" opacity="1.00" d=" M 70.15 26.94 C 70.20 28.02 70.25 29.10 70.25 30.18 C 70.15 32.71 69.97 35.24 69.94 37.78 C 69.91 38.48 69.85 39.87 69.82 40.57 C 68.23 39.95 66.60 39.43 64.99 38.87 C 61.21 38.77 57.44 38.58 53.69 38.08 C 57.65 38.23 61.62 38.37 65.55 37.80 C 59.01 37.12 52.47 36.40 45.91 36.02 C 44.82 33.43 43.75 30.84 42.62 28.28 C 48.65 29.32 54.82 29.19 60.86 30.29 C 62.00 30.55 63.13 30.83 64.25 31.13 C 63.49 32.16 62.74 33.21 61.88 34.17 C 60.31 34.71 58.61 34.06 57.00 34.03 L 56.98 34.90 C 60.73 34.30 64.27 35.84 67.92 36.33 C 67.63 34.63 67.33 32.94 67.02 31.25 C 66.42 31.00 65.24 30.50 64.64 30.25 C 66.16 30.15 67.68 30.04 69.20 29.92 C 69.44 29.17 69.91 27.68 70.15 26.94 M 51.10 30.20 C 49.02 30.81 51.20 34.06 52.72 32.80 C 53.69 31.73 52.42 29.92 51.10 30.20 Z" />
<path fill="#b4a79d" opacity="1.00" d=" M 67.84 67.48 C 68.25 67.19 69.07 66.60 69.48 66.30 C 69.43 67.94 69.35 69.59 69.39 71.23 C 68.46 71.31 67.53 71.39 66.60 71.47 C 66.60 70.47 66.59 69.47 66.58 68.48 C 66.90 68.23 67.53 67.73 67.84 67.48 Z" />
</g>
<g id="#d6cbc2ff">
<path fill="#d6cbc2" opacity="1.00" d=" M 96.15 27.29 C 96.62 27.33 97.57 27.39 98.05 27.43 C 98.56 28.48 99.02 29.57 99.50 30.64 C 98.30 30.79 97.10 30.94 95.91 31.09 C 95.98 29.82 96.06 28.56 96.15 27.29 Z" />
</g>
<g id="#c1c8c1ff">
<path fill="#c1c8c1" opacity="1.00" d=" M 98.05 27.43 L 98.51 27.43 L 99.71 27.45 C 99.13 42.92 100.55 58.39 99.88 73.85 C 98.60 73.58 97.31 73.32 96.03 73.01 C 96.02 72.56 95.99 71.66 95.98 71.21 C 96.02 65.39 95.94 59.57 96.05 53.75 L 96.07 53.06 C 97.58 52.68 97.76 50.13 95.97 50.12 C 96.11 43.77 95.63 37.43 95.91 31.09 C 97.10 30.94 98.30 30.79 99.50 30.64 C 99.02 29.57 98.56 28.48 98.05 27.43 Z" />
</g>
<g id="#61544edd">
<path fill="#61544e" opacity="0.87" d=" M 101.19 26.42 C 102.14 27.40 103.09 28.38 104.00 29.41 L 104.00 39.78 L 102.73 39.22 C 102.40 35.58 103.27 31.66 101.35 28.34 C 101.31 27.86 101.23 26.90 101.19 26.42 Z" />
</g>
<g id="#908578ff">
<path fill="#908578" opacity="1.00" d=" M 30.55 28.00 C 31.46 27.97 33.27 27.92 34.17 27.90 C 34.30 29.03 34.43 30.16 34.50 31.30 C 34.47 32.19 34.42 33.98 34.39 34.88 C 36.74 35.02 39.08 35.24 41.43 35.41 L 40.46 35.55 C 38.98 35.70 37.57 36.20 36.16 36.65 C 34.00 36.66 31.83 36.61 29.66 36.56 C 29.27 43.31 29.41 50.07 29.61 56.83 L 29.11 56.66 C 28.99 49.86 28.83 43.06 29.10 36.27 C 31.18 36.13 33.25 36.00 35.33 35.85 C 35.05 35.63 34.48 35.19 34.20 34.97 C 32.95 33.93 31.71 32.88 30.47 31.85 C 30.49 30.56 30.52 29.28 30.55 28.00 Z" />
</g>
<g id="#afada9ff">
<path fill="#afada9" opacity="1.00" d=" M 34.17 27.90 C 36.99 27.95 39.82 27.92 42.62 28.28 C 43.75 30.84 44.82 33.43 45.91 36.02 C 44.09 35.92 42.27 35.72 40.46 35.55 L 41.43 35.41 C 42.21 35.31 43.77 35.10 44.55 34.99 C 42.92 33.15 40.36 33.63 38.19 33.57 C 36.96 32.81 35.73 32.05 34.50 31.30 C 34.43 30.16 34.30 29.03 34.17 27.90 Z" />
</g>
<g id="#676c4bff">
<path fill="#676c4b" opacity="1.00" d=" M 60.35 28.36 C 61.66 27.60 63.48 27.63 64.82 28.30 C 64.47 29.67 60.78 29.73 60.35 28.36 Z" />
</g>
<g id="#bcc7c2ff">
<path fill="#bcc7c2" opacity="1.00" d=" M 81.10 29.41 C 82.67 29.61 84.23 29.80 85.80 30.01 C 87.21 32.23 88.95 34.32 89.63 36.91 C 86.73 36.72 83.87 36.21 80.99 35.85 C 81.02 33.70 81.05 31.55 81.10 29.41 Z" />
</g>
<g id="#76765aff">
<path fill="#76765a" opacity="1.00" d=" M 11.16 30.01 C 12.71 29.12 14.26 31.68 12.12 32.00 C 10.60 32.80 9.16 30.43 11.16 30.01 Z" />
</g>
<g id="#9b9087ff">
<path fill="#9b9087" opacity="1.00" d=" M 51.10 30.20 C 52.42 29.92 53.69 31.73 52.72 32.80 C 51.20 34.06 49.02 30.81 51.10 30.20 Z" />
</g>
<g id="#a8b7adff">
<path fill="#a8b7ad" opacity="1.00" d=" M 85.80 30.01 C 88.00 30.30 90.16 30.77 92.35 31.16 C 92.28 33.00 92.23 34.84 92.18 36.69 C 91.54 36.74 90.27 36.86 89.63 36.91 C 88.95 34.32 87.21 32.23 85.80 30.01 Z" />
</g>
<g id="#696c54ff">
<path fill="#696c54" opacity="1.00" d=" M 15.40 31.04 C 18.40 29.46 15.62 34.31 15.40 31.04 Z" />
</g>
<g id="#d9cac2ff">
<path fill="#d9cac2" opacity="1.00" d=" M 34.50 31.30 C 35.73 32.05 36.96 32.81 38.19 33.57 C 40.36 33.63 42.92 33.15 44.55 34.99 C 43.77 35.10 42.21 35.31 41.43 35.41 C 39.08 35.24 36.74 35.02 34.39 34.88 C 34.42 33.98 34.47 32.19 34.50 31.30 Z" />
</g>
<g id="#493b31ff">
<path fill="#493b31" opacity="1.00" d=" M 17.45 34.07 C 18.25 33.78 19.84 33.19 20.64 32.90 C 21.02 42.82 21.13 52.75 21.50 62.67 C 20.58 62.65 19.65 62.63 18.73 62.61 C 18.65 60.62 18.48 58.64 18.25 56.66 C 17.85 52.50 18.27 48.31 17.86 44.15 C 17.56 40.80 17.45 37.43 17.45 34.07 Z" />
</g>
<g id="#b6b4abff">
<path fill="#b6b4ab" opacity="1.00" d=" M 8.51 34.75 C 11.46 34.24 14.48 34.43 17.45 34.07 C 17.45 37.43 17.56 40.80 17.86 44.15 C 17.71 43.53 17.41 42.28 17.26 41.66 C 14.62 41.56 11.93 41.06 9.31 41.66 C 9.43 41.44 9.67 40.98 9.79 40.75 C 12.23 40.99 14.66 41.17 17.10 41.35 L 17.14 40.04 C 14.51 39.96 11.88 39.90 9.26 39.71 C 9.11 39.41 8.80 38.80 8.65 38.50 C 8.60 37.25 8.55 36.00 8.51 34.75 Z" />
</g>
<g id="#8c8f6aff">
<path fill="#8c8f6a" opacity="1.00" d=" M 81.17 38.06 C 82.38 37.18 83.18 37.37 83.56 38.63 C 82.34 39.50 81.54 39.32 81.17 38.06 Z" />
</g>
<g id="#717c5fff">
<path fill="#717c5f" opacity="1.00" d=" M 85.32 39.23 C 86.45 38.45 89.26 38.25 89.74 39.68 C 88.55 40.21 85.82 40.66 85.32 39.23 Z" />
</g>
<g id="#526434da">
<path fill="#526434" opacity="0.85" d=" M 0.00 39.52 L 0.67 40.76 C 0.45 47.90 2.17 55.32 0.00 62.25 L 0.00 39.52 Z" />
</g>
<g id="#acb5b1ff">
<path fill="#acb5b1" opacity="1.00" d=" M 81.00 40.88 C 84.58 42.08 88.37 42.13 92.09 41.86 C 92.15 43.57 92.20 45.28 92.22 47.00 C 88.50 46.47 84.76 46.06 81.00 45.92 C 81.00 44.24 81.00 42.56 81.00 40.88 Z" />
</g>
<g id="#bac7bcff">
<path fill="#bac7bc" opacity="1.00" d=" M 73.03 63.63 C 73.13 58.06 72.92 52.48 73.39 46.92 C 74.33 46.99 76.22 47.12 77.16 47.19 C 77.07 53.05 77.22 58.91 77.12 64.77 C 75.76 64.39 74.39 64.00 73.03 63.63 Z" />
</g>
<g id="#706147ff">
<path fill="#706147" opacity="1.00" d=" M 88.63 48.24 C 89.99 48.28 91.35 48.30 92.71 48.31 C 93.16 56.36 92.78 64.44 92.98 72.50 C 93.32 72.24 93.99 71.71 94.32 71.45 L 94.95 70.96 L 95.98 71.21 C 95.99 71.66 96.02 72.56 96.03 73.01 C 97.31 73.32 98.60 73.58 99.88 73.85 C 99.68 74.78 99.47 75.70 99.25 76.62 C 98.26 76.35 97.27 76.06 96.29 75.76 C 95.41 76.98 94.52 78.18 93.64 79.40 C 92.62 78.34 91.59 77.29 90.60 76.21 C 90.00 74.86 89.43 73.49 89.17 72.04 C 89.96 72.19 91.55 72.49 92.34 72.63 C 92.41 64.65 92.41 56.67 92.33 48.68 C 91.10 48.54 89.86 48.40 88.63 48.24 M 94.07 73.45 C 93.14 74.67 93.33 75.39 94.65 75.63 C 95.58 74.41 95.39 73.69 94.07 73.45 Z" />
</g>
<g id="#e9e9deff">
<path fill="#e9e9de" opacity="1.00" d=" M 95.97 50.12 C 97.76 50.13 97.58 52.68 96.07 53.06 C 96.05 52.32 96.00 50.85 95.97 50.12 Z" />
</g>
<g id="#3b342dff">
<path fill="#3b342d" opacity="1.00" d=" M 95.03 54.60 C 95.29 54.39 95.80 53.96 96.05 53.75 C 95.94 59.57 96.02 65.39 95.98 71.21 L 94.95 70.96 C 95.09 65.51 94.90 60.06 95.03 54.60 Z" />
</g>
<g id="#76675dff">
<path fill="#76675d" opacity="1.00" d=" M 94.08 55.40 L 95.03 54.60 C 94.90 60.06 95.09 65.51 94.95 70.96 L 94.32 71.45 C 94.23 66.10 93.81 60.75 94.08 55.40 Z" />
</g>
<g id="#a68744ff">
<path fill="#a68744" opacity="1.00" d=" M 34.84 59.45 C 38.90 59.03 42.98 58.68 47.08 58.39 C 47.37 58.50 47.96 58.72 48.25 58.83 C 44.91 58.93 41.62 60.53 38.31 59.31 C 38.26 60.45 38.21 61.60 38.15 62.74 C 39.00 62.49 39.85 62.25 40.69 62.01 C 42.16 62.12 43.63 62.19 45.10 62.25 C 46.62 62.23 46.90 61.67 45.93 60.56 C 47.99 59.05 48.96 62.92 50.58 63.68 C 50.09 62.17 49.60 60.65 49.01 59.18 C 50.22 59.51 51.45 59.74 52.70 59.89 C 53.41 60.59 54.13 61.29 54.84 62.00 C 55.42 61.57 56.59 60.72 57.18 60.30 C 58.12 60.46 59.06 60.61 60.00 60.78 C 60.45 61.62 60.91 62.47 61.36 63.32 C 61.13 63.73 60.66 64.55 60.43 64.96 C 60.80 65.18 61.54 65.63 61.90 65.85 C 60.54 66.45 59.19 67.06 57.84 67.68 C 57.04 67.30 56.24 66.94 55.42 66.60 C 54.05 66.05 52.67 65.53 51.30 64.99 C 51.28 66.67 51.26 68.34 51.23 70.02 C 49.86 70.43 48.51 70.90 47.20 71.48 C 46.72 71.78 45.74 72.39 45.26 72.69 C 43.40 72.01 41.57 72.08 40.69 74.11 C 39.35 74.72 37.89 74.66 36.47 74.42 C 37.97 73.24 39.57 72.17 40.95 70.85 C 41.60 68.73 39.18 67.59 38.01 66.30 C 37.42 67.46 36.83 68.62 36.25 69.79 C 35.81 69.05 35.37 68.31 34.94 67.56 C 34.57 66.89 34.23 66.21 33.88 65.54 C 33.14 65.94 32.40 66.31 31.64 66.66 C 29.08 64.88 25.83 66.09 23.01 65.18 C 23.81 63.70 24.58 62.20 25.32 60.69 C 25.98 60.74 27.32 60.85 27.98 60.90 C 28.94 60.11 29.89 59.32 30.85 58.53 C 31.50 59.79 32.16 61.06 32.81 62.32 C 32.90 61.36 33.08 59.44 33.17 58.48 C 33.58 58.72 34.42 59.21 34.84 59.45 M 55.39 62.67 C 55.57 63.77 55.75 64.86 55.95 65.96 C 56.90 64.38 59.03 62.95 58.40 60.88 C 57.39 61.47 56.39 62.07 55.39 62.67 Z" />
</g>
<g id="#5b3c25ff">
<path fill="#5b3c25" opacity="1.00" d=" M 38.31 59.31 C 41.62 60.53 44.91 58.93 48.25 58.83 L 49.01 59.18 C 49.60 60.65 50.09 62.17 50.58 63.68 C 48.96 62.92 47.99 59.05 45.93 60.56 C 45.72 60.99 45.30 61.83 45.10 62.25 C 43.63 62.19 42.16 62.12 40.69 62.01 C 39.85 62.25 39.00 62.49 38.15 62.74 C 38.21 61.60 38.26 60.45 38.31 59.31 Z" />
</g>
<g id="#d6c275ff">
<path fill="#d6c275" opacity="1.00" d=" M 45.10 62.25 C 45.30 61.83 45.72 60.99 45.93 60.56 C 46.90 61.67 46.62 62.23 45.10 62.25 Z" />
</g>
<g id="#8e8176f9">
<path fill="#8e8176" opacity="0.98" d=" M 0.00 63.08 C 0.27 63.42 0.80 64.10 1.07 64.44 L 0.73 65.31 L 0.00 64.94 L 0.00 63.08 Z" />
</g>
<g id="#be9050ff">
<path fill="#be9050" opacity="1.00" d=" M 16.24 67.38 C 16.80 65.98 17.35 64.58 17.90 63.17 C 19.21 63.64 20.51 64.15 21.80 64.68 C 21.53 65.25 21.00 66.39 20.73 66.96 C 20.03 68.45 19.40 69.97 18.92 71.55 C 18.82 72.08 18.62 73.14 18.51 73.67 C 16.83 72.87 15.15 72.07 13.48 71.25 C 13.52 70.68 13.60 69.53 13.64 68.96 C 14.47 67.68 15.21 66.34 15.71 64.90 C 15.84 65.52 16.10 66.76 16.24 67.38 Z" />
<path fill="#be9050" opacity="1.00" d=" M 9.17 68.25 C 9.78 68.31 10.99 68.43 11.60 68.48 C 11.65 69.01 11.73 70.06 11.78 70.59 C 11.07 70.72 9.67 70.98 8.97 71.11 C 8.77 72.26 8.59 73.42 8.41 74.57 C 5.74 75.53 4.26 72.88 2.14 71.85 C 2.18 71.16 2.27 69.77 2.32 69.08 C 3.35 69.96 4.38 70.85 5.40 71.74 C 5.90 71.69 6.89 71.59 7.39 71.54 C 7.98 70.44 8.57 69.35 9.17 68.25 Z" />
</g>
<g id="#d4d1c5ff">
<path fill="#d4d1c5" opacity="1.00" d=" M 73.03 63.63 C 74.39 64.00 75.76 64.39 77.12 64.77 C 77.06 65.21 76.93 66.10 76.87 66.54 C 75.58 67.26 74.27 67.94 72.97 68.64 C 72.99 66.97 73.01 65.30 73.03 63.63 Z" />
</g>
<g id="#cc502dff">
<path fill="#cc502d" opacity="1.00" d=" M 21.80 64.68 C 22.10 64.81 22.70 65.06 23.01 65.18 C 25.83 66.09 29.08 64.88 31.64 66.66 C 29.20 67.66 26.77 68.73 24.22 69.37 C 22.81 69.13 21.85 67.76 20.73 66.96 C 21.00 66.39 21.53 65.25 21.80 64.68 Z" />
</g>
<g id="#7b703dff">
<path fill="#7b703d" opacity="1.00" d=" M 33.88 65.54 C 34.23 66.21 34.57 66.89 34.94 67.56 C 33.28 68.73 31.94 70.24 31.28 72.20 C 30.50 72.01 29.72 71.82 28.94 71.65 C 28.31 72.14 27.69 72.61 27.05 73.08 C 27.29 71.49 25.35 70.81 24.09 71.10 C 22.36 71.22 20.64 71.36 18.92 71.55 C 19.40 69.97 20.03 68.45 20.73 66.96 C 21.85 67.76 22.81 69.13 24.22 69.37 C 26.77 68.73 29.20 67.66 31.64 66.66 C 32.40 66.31 33.14 65.94 33.88 65.54 Z" />
</g>
<g id="#bf5e30ff">
<path fill="#bf5e30" opacity="1.00" d=" M 51.30 64.99 C 52.67 65.53 54.05 66.05 55.42 66.60 C 54.81 67.53 54.19 68.46 53.58 69.39 C 52.99 69.55 51.82 69.86 51.23 70.02 C 51.26 68.34 51.28 66.67 51.30 64.99 Z" />
</g>
<g id="#be6f45ff">
<path fill="#be6f45" opacity="1.00" d=" M 57.84 67.68 C 59.19 67.06 60.54 66.45 61.90 65.85 C 62.15 66.26 62.64 67.07 62.89 67.48 C 63.33 67.79 64.20 68.42 64.64 68.74 C 63.68 68.64 62.72 68.55 61.76 68.46 C 62.78 69.39 63.80 70.32 64.83 71.24 C 64.40 72.26 63.98 73.27 63.59 74.31 C 62.27 73.87 60.93 73.44 59.63 72.94 C 58.72 72.43 57.82 71.92 56.92 71.39 C 57.90 70.74 58.88 70.09 59.86 69.44 C 59.20 68.84 58.52 68.26 57.84 67.68 Z" />
</g>
<g id="#9f753dff">
<path fill="#9f753d" opacity="1.00" d=" M 83.70 67.15 C 85.97 65.87 87.57 68.44 88.76 69.98 C 88.86 70.50 89.07 71.53 89.17 72.04 C 89.43 73.49 90.00 74.86 90.60 76.21 C 90.78 76.91 91.15 78.32 91.34 79.02 C 90.21 78.53 89.08 78.05 87.94 77.59 C 88.22 76.89 88.51 76.20 88.80 75.50 C 87.52 75.31 86.25 75.11 84.98 74.91 C 85.74 73.35 86.35 71.72 86.97 70.10 C 85.57 70.27 84.17 70.44 82.77 70.61 C 82.42 71.97 82.07 73.34 81.72 74.70 C 81.16 74.89 80.03 75.27 79.46 75.45 C 80.05 76.32 80.64 77.18 81.23 78.04 C 79.80 77.55 78.37 77.03 76.89 76.67 C 75.28 77.65 75.79 79.57 75.68 81.14 C 73.85 79.98 72.65 82.14 72.80 83.75 C 72.56 84.36 72.08 85.58 71.84 86.19 C 70.95 86.43 70.07 86.67 69.19 86.91 C 68.84 85.67 68.48 84.43 68.08 83.21 C 68.55 83.22 69.49 83.24 69.95 83.25 C 70.55 82.00 71.10 80.74 71.66 79.47 C 69.05 79.30 66.44 79.02 63.86 78.61 C 63.58 77.69 63.31 76.78 63.05 75.86 C 63.18 75.47 63.46 74.69 63.59 74.31 C 63.98 73.27 64.40 72.26 64.83 71.24 C 63.80 70.32 62.78 69.39 61.76 68.46 C 62.72 68.55 63.68 68.64 64.64 68.74 C 64.20 68.42 63.33 67.79 62.89 67.48 C 64.54 67.52 66.19 67.54 67.84 67.48 C 67.53 67.73 66.90 68.23 66.58 68.48 C 66.59 69.47 66.60 70.47 66.60 71.47 C 67.53 71.39 68.46 71.31 69.39 71.23 C 69.43 71.64 69.52 72.47 69.57 72.88 C 71.54 72.06 73.44 71.08 75.34 70.10 C 75.89 69.96 76.98 69.69 77.52 69.55 C 77.86 69.76 78.54 70.19 78.88 70.41 C 79.39 71.69 79.89 72.99 80.36 74.28 C 80.53 72.79 80.66 71.30 80.74 69.80 C 82.58 70.73 83.86 68.80 83.70 67.15 M 68.14 77.99 C 69.83 77.78 71.48 77.40 73.10 76.88 C 72.88 75.36 71.92 73.48 70.03 74.11 C 67.97 74.08 68.31 76.63 68.14 77.99 Z" />
</g>
<g id="#9c592fff">
<path fill="#9c592f" opacity="1.00" d=" M 36.25 69.79 C 36.83 68.62 37.42 67.46 38.01 66.30 C 39.18 67.59 41.60 68.73 40.95 70.85 C 39.57 72.17 37.97 73.24 36.47 74.42 C 37.89 74.66 39.35 74.72 40.69 74.11 C 40.41 75.75 40.20 77.39 39.96 79.03 C 37.46 78.46 35.25 77.08 33.64 75.09 C 33.35 74.45 32.77 73.19 32.47 72.56 L 31.28 72.20 C 31.94 70.24 33.28 68.73 34.94 67.56 C 35.37 68.31 35.81 69.05 36.25 69.79 Z" />
</g>
<g id="#90703aff">
<path fill="#90703a" opacity="1.00" d=" M 55.42 66.60 C 56.24 66.94 57.04 67.30 57.84 67.68 C 58.52 68.26 59.20 68.84 59.86 69.44 C 58.88 70.09 57.90 70.74 56.92 71.39 C 57.82 71.92 58.72 72.43 59.63 72.94 C 58.90 74.91 58.09 76.86 57.13 78.73 C 56.35 77.56 55.54 76.38 54.45 75.47 C 52.48 75.19 50.49 75.42 48.52 75.38 C 49.33 73.75 49.43 71.87 47.20 71.48 C 48.51 70.90 49.86 70.43 51.23 70.02 C 51.82 69.86 52.99 69.55 53.58 69.39 C 54.19 68.46 54.81 67.53 55.42 66.60 Z" />
</g>
<g id="#cbaf71ff">
<path fill="#cbaf71" opacity="1.00" d=" M 75.34 70.10 C 75.89 69.96 76.98 69.69 77.52 69.55 C 76.98 69.69 75.89 69.96 75.34 70.10 Z" />
</g>
<g id="#b4944cff">
<path fill="#b4944c" opacity="1.00" d=" M 82.77 70.61 C 84.17 70.44 85.57 70.27 86.97 70.10 C 86.35 71.72 85.74 73.35 84.98 74.91 C 83.55 77.33 81.30 79.98 83.19 82.83 C 82.61 83.04 81.45 83.46 80.87 83.67 C 81.00 81.79 81.12 79.91 81.23 78.04 C 80.64 77.18 80.05 76.32 79.46 75.45 C 80.03 75.27 81.16 74.89 81.72 74.70 C 82.07 73.34 82.42 71.97 82.77 70.61 Z" />
</g>
<g id="#93863bff">
<path fill="#93863b" opacity="1.00" d=" M 13.48 71.25 C 15.15 72.07 16.83 72.87 18.51 73.67 C 18.44 74.04 18.28 74.78 18.20 75.15 C 17.58 75.67 16.95 76.18 16.31 76.68 C 17.59 76.50 18.88 76.34 20.16 76.10 C 20.38 75.99 20.82 75.76 21.04 75.64 C 22.57 75.62 24.10 75.65 25.63 75.64 L 26.34 75.61 C 25.85 76.37 24.89 77.88 24.40 78.64 C 23.60 78.56 22.79 78.46 21.99 78.36 C 21.47 78.29 20.42 78.14 19.90 78.07 C 18.50 80.04 17.55 82.27 17.03 84.62 C 15.82 84.51 14.60 84.39 13.39 84.26 C 13.06 82.96 12.77 81.60 13.16 80.28 C 12.19 79.64 11.21 79.02 10.25 78.36 C 12.11 76.85 13.48 74.85 12.34 72.42 C 12.59 72.40 13.09 72.37 13.34 72.36 C 13.37 72.08 13.44 71.53 13.48 71.25 Z" />
</g>
<g id="#375029ff">
<path fill="#375029" opacity="1.00" d=" M 18.92 71.55 C 20.64 71.36 22.36 71.22 24.09 71.10 C 24.03 72.47 25.77 74.39 27.05 73.08 C 27.69 72.61 28.31 72.14 28.94 71.65 C 29.72 71.82 30.50 72.01 31.28 72.20 L 32.47 72.56 C 32.77 73.19 33.35 74.45 33.64 75.09 C 33.27 75.57 32.51 76.53 32.14 77.01 C 31.79 75.77 31.43 74.54 31.08 73.31 C 29.46 74.00 27.88 74.75 26.34 75.61 L 25.63 75.64 C 24.23 74.13 22.71 72.61 20.58 72.22 C 20.69 73.07 20.92 74.79 21.04 75.64 C 20.82 75.76 20.38 75.99 20.16 76.10 C 18.88 76.34 17.59 76.50 16.31 76.68 C 16.95 76.18 17.58 75.67 18.20 75.15 C 18.28 74.78 18.44 74.04 18.51 73.67 C 18.62 73.14 18.82 72.08 18.92 71.55 Z" />
</g>
<g id="#b78c4fff">
<path fill="#b78c4f" opacity="1.00" d=" M 24.09 71.10 C 25.35 70.81 27.29 71.49 27.05 73.08 C 25.77 74.39 24.03 72.47 24.09 71.10 Z" />
</g>
<g id="#806531ff">
<path fill="#806531" opacity="1.00" d=" M 40.69 74.11 C 41.57 72.08 43.40 72.01 45.26 72.69 C 46.33 73.60 47.42 74.50 48.52 75.38 C 50.49 75.42 52.48 75.19 54.45 75.47 C 55.54 76.38 56.35 77.56 57.13 78.73 C 57.26 79.53 57.37 80.33 57.48 81.13 C 55.03 79.56 53.15 76.50 49.95 76.64 C 48.64 76.58 47.32 76.57 46.01 76.59 C 45.03 76.01 44.02 75.48 43.01 74.96 C 42.68 77.53 44.14 79.76 45.22 81.97 C 44.84 82.46 44.08 83.45 43.69 83.95 C 41.39 83.40 40.67 81.48 40.64 79.27 L 39.96 79.03 C 40.20 77.39 40.41 75.75 40.69 74.11 Z" />
</g>
<g id="#c78c44ff">
<path fill="#c78c44" opacity="1.00" d=" M 45.26 72.69 C 45.74 72.39 46.72 71.78 47.20 71.48 C 49.43 71.87 49.33 73.75 48.52 75.38 C 47.42 74.50 46.33 73.60 45.26 72.69 Z" />
</g>
<g id="#a79371ff">
<path fill="#a79371" opacity="1.00" d=" M 0.87 72.88 C 1.20 73.13 1.86 73.62 2.19 73.87 L 1.78 74.74 L 0.85 74.54 C 0.85 74.12 0.86 73.30 0.87 72.88 Z" />
</g>
<g id="#ad9f4cff">
<path fill="#ad9f4c" opacity="1.00" d=" M 10.52 72.45 L 12.34 72.42 C 13.48 74.85 12.11 76.85 10.25 78.36 C 10.14 77.76 9.92 76.56 9.81 75.96 C 10.03 74.79 10.26 73.61 10.52 72.45 Z" />
</g>
<g id="#a99c52ff">
<path fill="#a99c52" opacity="1.00" d=" M 20.58 72.22 C 22.71 72.61 24.23 74.13 25.63 75.64 C 24.10 75.65 22.57 75.62 21.04 75.64 C 20.92 74.79 20.69 73.07 20.58 72.22 Z" />
</g>
<g id="#a55d32ff">
<path fill="#a55d32" opacity="1.00" d=" M 59.63 72.94 C 60.93 73.44 62.27 73.87 63.59 74.31 C 63.46 74.69 63.18 75.47 63.05 75.86 C 62.19 76.52 61.32 77.17 60.44 77.80 C 60.95 78.79 61.45 79.77 61.96 80.75 C 60.67 81.00 59.38 81.24 58.09 81.49 L 57.48 81.13 C 57.37 80.33 57.26 79.53 57.13 78.73 C 58.09 76.86 58.90 74.91 59.63 72.94 Z" />
</g>
<g id="#25251aff">
<path fill="#25251a" opacity="1.00" d=" M 94.07 73.45 C 95.39 73.69 95.58 74.41 94.65 75.63 C 93.33 75.39 93.14 74.67 94.07 73.45 Z" />
</g>
<g id="#7a6b3eff">
<path fill="#7a6b3e" opacity="1.00" d=" M 2.19 73.87 C 3.03 74.40 3.88 74.92 4.74 75.43 C 4.99 76.02 5.50 77.21 5.75 77.81 C 7.10 77.19 8.45 76.57 9.81 75.96 C 9.92 76.56 10.14 77.76 10.25 78.36 C 11.21 79.02 12.19 79.64 13.16 80.28 C 12.77 81.60 13.06 82.96 13.39 84.26 C 8.52 84.53 5.66 80.33 2.30 77.58 C 2.17 76.87 1.91 75.45 1.78 74.74 L 2.19 73.87 M 3.33 76.27 C 3.85 76.76 3.85 76.76 3.33 76.27 Z" />
</g>
<g id="#7d964dff">
<path fill="#7d964d" opacity="1.00" d=" M 26.34 75.61 C 27.88 74.75 29.46 74.00 31.08 73.31 C 31.43 74.54 31.79 75.77 32.14 77.01 C 32.51 76.53 33.27 75.57 33.64 75.09 C 35.25 77.08 37.46 78.46 39.96 79.03 L 40.64 79.27 C 40.67 81.48 41.39 83.40 43.69 83.95 C 44.08 83.45 44.84 82.46 45.22 81.97 C 44.14 79.76 42.68 77.53 43.01 74.96 C 44.02 75.48 45.03 76.01 46.01 76.59 C 47.00 77.77 47.94 78.99 48.89 80.20 C 50.95 80.91 53.33 81.60 53.41 84.24 C 51.65 83.53 49.90 82.80 48.16 82.06 C 47.94 82.50 47.49 83.37 47.27 83.80 C 47.92 85.30 48.56 86.79 49.20 88.29 C 47.65 88.26 46.10 88.23 44.55 88.19 C 44.51 87.17 44.46 86.14 44.41 85.11 C 42.80 85.26 41.19 85.41 39.59 85.62 C 38.03 85.16 36.75 84.20 35.90 82.82 C 35.50 81.67 35.15 80.51 34.79 79.36 C 33.91 78.90 33.03 78.45 32.13 78.03 C 31.85 77.96 31.30 77.82 31.02 77.75 C 28.86 78.35 26.66 78.97 24.40 78.64 C 24.89 77.88 25.85 76.37 26.34 75.61 Z" />
</g>
<g id="#b08d50ff">
<path fill="#b08d50" opacity="1.00" d=" M 68.14 77.99 C 68.31 76.63 67.97 74.08 70.03 74.11 C 71.92 73.48 72.88 75.36 73.10 76.88 C 71.48 77.40 69.83 77.78 68.14 77.99 Z" />
</g>
<g id="#453729f4">
<path fill="#453729" opacity="0.96" d=" M 0.85 74.54 L 1.78 74.74 C 1.91 75.45 2.17 76.87 2.30 77.58 C 5.66 80.33 8.52 84.53 13.39 84.26 C 14.60 84.39 15.82 84.51 17.03 84.62 C 18.96 84.79 20.89 84.93 22.82 85.11 C 23.38 85.17 24.50 85.28 25.05 85.34 C 25.92 85.76 26.77 86.24 27.60 86.74 C 28.88 87.55 30.14 88.42 31.40 89.26 C 33.46 90.62 35.63 91.81 37.75 93.08 C 39.11 93.90 40.46 94.75 41.85 95.53 C 43.50 96.37 45.23 97.05 46.95 97.73 C 47.34 97.85 48.13 98.10 48.53 98.22 C 49.84 98.55 51.14 98.89 52.45 99.22 C 57.80 100.66 63.45 100.66 68.90 99.86 L 69.09 99.84 C 71.72 99.45 74.46 99.08 76.96 100.28 C 78.08 99.65 79.22 99.03 80.37 98.43 C 80.78 98.80 81.60 99.54 82.01 99.92 L 80.70 100.40 C 76.59 101.13 72.40 101.38 68.27 102.00 L 52.39 102.00 L 55.36 101.84 C 51.12 100.00 46.26 100.19 42.21 97.85 C 39.21 96.22 36.20 94.62 33.17 93.03 C 30.31 91.61 28.71 88.47 25.65 87.39 C 21.32 85.68 16.55 86.10 12.06 85.01 C 9.58 84.47 7.09 83.95 4.60 83.48 C 4.29 82.14 3.51 80.94 2.36 80.18 L 1.73 80.10 C 1.07 78.32 0.87 76.43 0.85 74.54 Z" />
</g>
<g id="#92572eff">
<path fill="#92572e" opacity="1.00" d=" M 84.98 74.91 C 86.25 75.11 87.52 75.31 88.80 75.50 C 88.51 76.20 88.22 76.89 87.94 77.59 C 87.69 78.17 87.21 79.35 86.97 79.93 C 87.27 80.52 87.88 81.70 88.19 82.28 L 88.09 82.34 C 87.76 83.01 87.09 84.34 86.75 85.00 C 86.13 85.13 84.87 85.37 84.24 85.49 C 83.98 84.83 83.46 83.50 83.19 82.83 C 81.30 79.98 83.55 77.33 84.98 74.91 Z" />
</g>
<g id="#9e8e4fff">
<path fill="#9e8e4f" opacity="1.00" d=" M 96.29 75.76 C 97.27 76.06 98.26 76.35 99.25 76.62 C 99.90 76.78 101.20 77.09 101.85 77.25 C 101.62 78.03 101.16 79.60 100.93 80.39 C 101.96 79.98 102.98 79.56 104.00 79.13 L 104.00 81.02 C 103.03 80.99 101.09 80.93 100.12 80.90 C 100.92 81.39 102.54 82.36 103.35 82.84 C 101.98 83.65 100.60 84.44 99.20 85.20 C 98.35 84.46 97.51 83.73 96.67 83.00 C 97.85 81.88 99.03 80.76 100.20 79.63 C 98.68 78.81 96.87 78.24 95.34 79.40 C 94.32 80.93 95.20 82.79 95.20 84.45 C 94.92 84.81 94.36 85.52 94.08 85.87 C 92.39 84.22 90.56 82.57 88.09 82.34 L 88.19 82.28 C 89.34 81.65 90.53 81.08 91.67 80.43 C 91.59 80.08 91.42 79.37 91.34 79.02 C 91.15 78.32 90.78 76.91 90.60 76.21 C 91.59 77.29 92.62 78.34 93.64 79.40 C 94.52 78.18 95.41 76.98 96.29 75.76 Z" />
</g>
<g id="#b8af7aff">
<path fill="#b8af7a" opacity="1.00" d=" M 3.33 76.27 C 3.85 76.76 3.85 76.76 3.33 76.27 Z" />
</g>
<g id="#5d4b2cff">
<path fill="#5d4b2c" opacity="1.00" d=" M 60.44 77.80 C 61.32 77.17 62.19 76.52 63.05 75.86 C 63.31 76.78 63.58 77.69 63.86 78.61 C 66.44 79.02 69.05 79.30 71.66 79.47 C 71.10 80.74 70.55 82.00 69.95 83.25 C 69.49 83.24 68.55 83.22 68.08 83.21 C 67.82 82.96 67.29 82.46 67.02 82.20 C 66.47 82.41 65.37 82.81 64.82 83.02 C 63.03 83.32 61.21 83.41 59.40 83.28 C 58.62 82.99 57.06 82.39 56.28 82.09 C 56.73 81.94 57.64 81.64 58.09 81.49 C 59.38 81.24 60.67 81.00 61.96 80.75 C 61.45 79.77 60.95 78.79 60.44 77.80 Z" />
</g>
<g id="#a59c47ff">
<path fill="#a59c47" opacity="1.00" d=" M 24.40 78.64 C 26.66 78.97 28.86 78.35 31.02 77.75 C 31.30 77.82 31.85 77.96 32.13 78.03 C 29.83 80.49 28.33 84.00 25.05 85.34 C 24.50 85.28 23.38 85.17 22.82 85.11 C 24.31 83.74 25.62 82.17 26.21 80.19 C 24.68 81.14 23.34 84.65 21.43 82.56 C 21.43 81.14 21.76 79.75 21.99 78.36 C 22.79 78.46 23.60 78.56 24.40 78.64 Z" />
</g>
<g id="#5c7538ff">
<path fill="#5c7538" opacity="1.00" d=" M 46.01 76.59 C 47.32 76.57 48.64 76.58 49.95 76.64 C 53.15 76.50 55.03 79.56 57.48 81.13 L 58.09 81.49 C 57.64 81.64 56.73 81.94 56.28 82.09 C 55.50 82.61 54.76 83.19 54.06 83.80 C 55.02 84.69 55.99 85.58 56.96 86.47 C 56.14 88.31 55.55 90.23 55.01 92.17 C 56.10 95.78 60.18 96.46 63.43 96.58 C 63.59 97.11 63.92 98.16 64.08 98.68 C 60.68 98.99 57.55 97.66 54.88 95.66 C 54.07 96.84 53.26 98.03 52.45 99.22 C 51.14 98.89 49.84 98.55 48.53 98.22 C 49.86 97.88 50.64 96.58 50.49 95.25 C 50.53 93.72 50.57 92.13 49.82 90.74 C 50.90 90.12 52.14 89.74 53.09 88.92 C 53.32 87.37 53.37 85.80 53.41 84.24 C 53.33 81.60 50.95 80.91 48.89 80.20 C 47.94 78.99 47.00 77.77 46.01 76.59 Z" />
</g>
<g id="#69502eff">
<path fill="#69502e" opacity="1.00" d=" M 75.68 81.14 C 75.79 79.57 75.28 77.65 76.89 76.67 C 78.37 77.03 79.80 77.55 81.23 78.04 C 81.12 79.91 81.00 81.79 80.87 83.67 C 78.93 83.36 77.28 82.21 75.68 81.14 Z" />
<path fill="#69502e" opacity="1.00" d=" M 94.41 94.78 C 96.33 93.50 98.36 92.36 100.64 91.88 C 100.62 92.27 100.57 93.06 100.54 93.46 C 100.00 93.57 98.91 93.80 98.36 93.91 C 97.72 94.44 97.06 94.93 96.37 95.39 C 95.88 95.24 94.90 94.93 94.41 94.78 Z" />
</g>
<g id="#876030ff">
<path fill="#876030" opacity="1.00" d=" M 17.03 84.62 C 17.55 82.27 18.50 80.04 19.90 78.07 C 20.42 78.14 21.47 78.29 21.99 78.36 C 21.76 79.75 21.43 81.14 21.43 82.56 C 23.34 84.65 24.68 81.14 26.21 80.19 C 25.62 82.17 24.31 83.74 22.82 85.11 C 20.89 84.93 18.96 84.79 17.03 84.62 Z" />
</g>
<g id="#838136ff">
<path fill="#838136" opacity="1.00" d=" M 32.13 78.03 C 33.03 78.45 33.91 78.90 34.79 79.36 C 35.15 80.51 35.50 81.67 35.90 82.82 C 33.12 84.10 30.36 85.42 27.60 86.74 C 26.77 86.24 25.92 85.76 25.05 85.34 C 28.33 84.00 29.83 80.49 32.13 78.03 Z" />
</g>
<g id="#bb6941ff">
<path fill="#bb6941" opacity="1.00" d=" M 86.97 79.93 C 87.21 79.35 87.69 78.17 87.94 77.59 C 89.08 78.05 90.21 78.53 91.34 79.02 C 91.42 79.37 91.59 80.08 91.67 80.43 C 90.53 81.08 89.34 81.65 88.19 82.28 C 87.88 81.70 87.27 80.52 86.97 79.93 Z" />
</g>
<g id="#a56e34ff">
<path fill="#a56e34" opacity="1.00" d=" M 95.34 79.40 C 96.87 78.24 98.68 78.81 100.20 79.63 C 99.03 80.76 97.85 81.88 96.67 83.00 C 96.30 83.36 95.57 84.09 95.20 84.45 C 95.20 82.79 94.32 80.93 95.34 79.40 Z" />
</g>
<g id="#312b2558">
<path fill="#312b25" opacity="0.35" d=" M 1.73 80.10 L 2.36 80.18 C 3.51 80.94 4.29 82.14 4.60 83.48 C 2.69 83.57 1.59 81.86 1.73 80.10 Z" />
</g>
<g id="#b98c4dff">
<path fill="#b98c4d" opacity="1.00" d=" M 72.80 83.75 C 72.65 82.14 73.85 79.98 75.68 81.14 C 76.61 82.92 74.38 84.39 72.80 83.75 Z" />
</g>
<g id="#7c8b4cff">
<path fill="#7c8b4c" opacity="1.00" d=" M 75.68 81.14 C 77.28 82.21 78.93 83.36 80.87 83.67 C 81.45 83.46 82.61 83.04 83.19 82.83 C 83.46 83.50 83.98 84.83 84.24 85.49 L 83.36 85.69 C 79.62 86.91 75.66 87.39 71.84 86.19 C 72.08 85.58 72.56 84.36 72.80 83.75 C 74.38 84.39 76.61 82.92 75.68 81.14 Z" />
</g>
<g id="#604329ff">
<path fill="#604329" opacity="1.00" d=" M 100.12 80.90 C 101.09 80.93 103.03 80.99 104.00 81.02 L 104.00 84.56 C 103.04 85.11 102.06 85.63 101.07 86.13 C 99.95 86.45 98.83 86.72 97.69 86.94 C 95.72 87.25 93.75 87.52 91.78 87.82 C 90.83 87.19 89.88 86.56 88.94 85.93 C 88.14 87.00 87.35 88.07 86.59 89.16 C 85.53 88.97 84.48 88.79 83.43 88.60 C 83.40 87.63 83.38 86.66 83.36 85.69 L 84.24 85.49 C 84.87 85.37 86.13 85.13 86.75 85.00 C 87.09 84.34 87.76 83.01 88.09 82.34 C 90.56 82.57 92.39 84.22 94.08 85.87 C 94.36 85.52 94.92 84.81 95.20 84.45 C 95.57 84.09 96.30 83.36 96.67 83.00 C 97.51 83.73 98.35 84.46 99.20 85.20 C 100.60 84.44 101.98 83.65 103.35 82.84 C 102.54 82.36 100.92 81.39 100.12 80.90 Z" />
</g>
<g id="#996231ff">
<path fill="#996231" opacity="1.00" d=" M 48.16 82.06 C 49.90 82.80 51.65 83.53 53.41 84.24 C 53.37 85.80 53.32 87.37 53.09 88.92 C 52.14 89.74 50.90 90.12 49.82 90.74 C 49.22 91.26 48.03 92.30 47.44 92.81 C 46.62 91.48 45.81 90.15 44.99 88.82 C 44.37 88.81 43.12 88.81 42.49 88.80 C 42.50 88.33 42.52 87.38 42.53 86.90 C 40.56 87.54 38.61 88.20 36.66 88.87 C 37.54 89.65 38.42 90.42 39.29 91.20 C 38.91 91.67 38.13 92.61 37.75 93.08 C 35.63 91.81 33.46 90.62 31.40 89.26 C 34.23 88.27 36.94 86.99 39.59 85.62 C 41.19 85.41 42.80 85.26 44.41 85.11 C 44.46 86.14 44.51 87.17 44.55 88.19 C 46.10 88.23 47.65 88.26 49.20 88.29 C 48.56 86.79 47.92 85.30 47.27 83.80 C 47.49 83.37 47.94 82.50 48.16 82.06 Z" />
</g>
<g id="#a49654ff">
<path fill="#a49654" opacity="1.00" d=" M 54.06 83.80 C 54.76 83.19 55.50 82.61 56.28 82.09 C 57.06 82.39 58.62 82.99 59.40 83.28 C 58.57 84.33 57.75 85.39 56.96 86.47 C 55.99 85.58 55.02 84.69 54.06 83.80 Z" />
</g>
<g id="#849043ff">
<path fill="#849043" opacity="1.00" d=" M 64.82 83.02 C 65.37 82.81 66.47 82.41 67.02 82.20 C 67.29 82.46 67.82 82.96 68.08 83.21 C 68.48 84.43 68.84 85.67 69.19 86.91 C 70.52 91.09 68.70 96.31 65.03 98.72 L 64.08 98.68 C 63.92 98.16 63.59 97.11 63.43 96.58 C 60.18 96.46 56.10 95.78 55.01 92.17 C 55.53 92.27 56.56 92.46 57.08 92.56 C 58.48 89.30 61.47 87.36 64.42 85.65 C 64.52 85.00 64.72 83.68 64.82 83.02 Z" />
</g>
<g id="#a58440ff">
<path fill="#a58440" opacity="1.00" d=" M 27.60 86.74 C 30.36 85.42 33.12 84.10 35.90 82.82 C 36.75 84.20 38.03 85.16 39.59 85.62 C 36.94 86.99 34.23 88.27 31.40 89.26 C 30.14 88.42 28.88 87.55 27.60 86.74 Z" />
</g>
<g id="#b27037ff">
<path fill="#b27037" opacity="1.00" d=" M 59.40 83.28 C 61.21 83.41 63.03 83.32 64.82 83.02 C 64.72 83.68 64.52 85.00 64.42 85.65 C 61.47 87.36 58.48 89.30 57.08 92.56 C 56.56 92.46 55.53 92.27 55.01 92.17 C 55.55 90.23 56.14 88.31 56.96 86.47 C 57.75 85.39 58.57 84.33 59.40 83.28 Z" />
</g>
<g id="#8f7133ff">
<path fill="#8f7133" opacity="1.00" d=" M 71.84 86.19 C 75.66 87.39 79.62 86.91 83.36 85.69 C 83.38 86.66 83.40 87.63 83.43 88.60 C 84.48 88.79 85.53 88.97 86.59 89.16 C 85.65 91.12 85.41 93.30 85.09 95.42 C 83.07 95.47 81.09 95.12 79.59 93.66 C 80.42 92.52 81.52 91.49 81.86 90.07 C 79.13 88.60 75.88 90.56 72.99 90.79 C 72.96 92.47 73.03 94.15 72.79 95.82 C 71.93 96.76 70.52 96.94 69.42 97.54 C 69.34 98.11 69.17 99.27 69.09 99.84 L 68.90 99.86 C 67.62 99.45 66.33 99.07 65.03 98.72 C 68.70 96.31 70.52 91.09 69.19 86.91 C 70.07 86.67 70.95 86.43 71.84 86.19 Z" />
</g>
<g id="#ab9e48ff">
<path fill="#ab9e48" opacity="1.00" d=" M 88.94 85.93 C 89.88 86.56 90.83 87.19 91.78 87.82 C 93.75 87.52 95.72 87.25 97.69 86.94 C 97.22 88.30 96.76 89.66 96.22 90.99 C 95.67 91.08 94.57 91.27 94.01 91.36 C 92.23 91.58 90.44 91.92 88.84 92.79 C 88.33 93.11 87.30 93.74 86.78 94.05 C 86.79 94.61 86.81 95.71 86.81 96.27 C 85.35 95.62 83.61 95.31 82.09 95.99 C 79.79 96.45 81.91 98.70 82.30 99.84 C 82.23 99.86 82.08 99.90 82.01 99.92 C 81.60 99.54 80.78 98.80 80.37 98.43 C 80.30 97.83 80.17 96.63 80.10 96.02 C 79.12 95.32 78.14 94.62 77.16 93.92 C 77.97 93.83 78.78 93.74 79.59 93.66 C 81.09 95.12 83.07 95.47 85.09 95.42 C 85.41 93.30 85.65 91.12 86.59 89.16 C 87.35 88.07 88.14 87.00 88.94 85.93 Z" />
</g>
<g id="#be7047ff">
<path fill="#be7047" opacity="1.00" d=" M 97.69 86.94 C 98.83 86.72 99.95 86.45 101.07 86.13 C 101.31 86.58 101.78 87.50 102.01 87.96 C 101.14 89.00 99.81 90.44 100.64 91.88 C 98.36 92.36 96.33 93.50 94.41 94.78 C 94.10 94.69 93.50 94.51 93.20 94.42 C 93.46 93.40 93.72 92.37 94.01 91.36 C 94.57 91.27 95.67 91.08 96.22 90.99 C 96.76 89.66 97.22 88.30 97.69 86.94 Z" />
</g>
<g id="#9d8a3dff">
<path fill="#9d8a3d" opacity="1.00" d=" M 36.66 88.87 C 38.61 88.20 40.56 87.54 42.53 86.90 C 42.52 87.38 42.50 88.33 42.49 88.80 C 42.45 91.06 42.19 93.30 41.85 95.53 C 40.46 94.75 39.11 93.90 37.75 93.08 C 38.13 92.61 38.91 91.67 39.29 91.20 C 38.42 90.42 37.54 89.65 36.66 88.87 Z" />
</g>
<g id="#566532ff">
<path fill="#566532" opacity="1.00" d=" M 42.49 88.80 C 43.12 88.81 44.37 88.81 44.99 88.82 C 45.81 90.15 46.62 91.48 47.44 92.81 C 48.03 92.30 49.22 91.26 49.82 90.74 C 50.57 92.13 50.53 93.72 50.49 95.25 C 49.02 95.38 46.84 95.83 46.95 97.73 C 45.23 97.05 43.50 96.37 41.85 95.53 C 42.19 93.30 42.45 91.06 42.49 88.80 Z" />
</g>
<g id="#687036ff">
<path fill="#687036" opacity="1.00" d=" M 72.99 90.79 C 75.88 90.56 79.13 88.60 81.86 90.07 C 81.52 91.49 80.42 92.52 79.59 93.66 C 78.78 93.74 77.97 93.83 77.16 93.92 C 78.14 94.62 79.12 95.32 80.10 96.02 C 80.17 96.63 80.30 97.83 80.37 98.43 C 79.22 99.03 78.08 99.65 76.96 100.28 C 74.46 99.08 71.72 99.45 69.09 99.84 C 69.17 99.27 69.34 98.11 69.42 97.54 C 70.52 96.94 71.93 96.76 72.79 95.82 C 73.03 94.15 72.96 92.47 72.99 90.79 Z" />
</g>
<g id="#938942f7">
<path fill="#938942" opacity="0.97" d=" M 88.84 92.79 C 90.44 91.92 92.23 91.58 94.01 91.36 C 93.72 92.37 93.46 93.40 93.20 94.42 C 93.50 94.51 94.10 94.69 94.41 94.78 C 94.90 94.93 95.88 95.24 96.37 95.39 C 95.28 95.89 94.18 96.37 93.08 96.83 C 91.67 95.48 90.25 94.14 88.84 92.79 Z" />
</g>
<g id="#737636ff">
<path fill="#737636" opacity="1.00" d=" M 86.78 94.05 C 87.30 93.74 88.33 93.11 88.84 92.79 C 90.25 94.14 91.67 95.48 93.08 96.83 C 89.65 98.39 85.93 98.99 82.30 99.84 C 81.91 98.70 79.79 96.45 82.09 95.99 C 83.61 95.31 85.35 95.62 86.81 96.27 C 86.81 95.71 86.79 94.61 86.78 94.05 Z" />
</g>
<g id="#988b4bff">
<path fill="#988b4b" opacity="1.00" d=" M 46.95 97.73 C 46.84 95.83 49.02 95.38 50.49 95.25 C 50.64 96.58 49.86 97.88 48.53 98.22 C 48.13 98.10 47.34 97.85 46.95 97.73 Z" />
</g>
<g id="#96854cff">
<path fill="#96854c" opacity="1.00" d=" M 52.45 99.22 C 53.26 98.03 54.07 96.84 54.88 95.66 C 57.55 97.66 60.68 98.99 64.08 98.68 L 65.03 98.72 C 66.33 99.07 67.62 99.45 68.90 99.86 C 63.45 100.66 57.80 100.66 52.45 99.22 Z" />
</g>
</svg>
