<?xml version="1.0" encoding="UTF-8" ?>
<!DOCTYPE svg PUBLIC "-//W3C//DTD SVG 1.1//EN" "http://www.w3.org/Graphics/SVG/1.1/DTD/svg11.dtd">
<svg width="231pt" height="206pt" viewBox="0 0 231 206" version="1.1" xmlns="http://www.w3.org/2000/svg">
<g id="#563a27ff">
<path fill="#563a27" opacity="1.00" d=" M 137.71 0.86 C 141.54 1.84 145.37 2.80 149.20 3.75 C 149.58 4.21 150.33 5.12 150.71 5.57 C 152.98 6.59 155.26 7.62 157.59 8.53 L 158.41 8.82 C 154.51 8.36 150.62 7.85 146.74 7.23 C 149.01 12.06 151.83 16.59 154.40 21.26 C 154.11 21.55 153.54 22.15 153.26 22.44 C 149.31 16.64 146.00 10.44 142.54 4.34 C 137.68 6.32 134.39 10.51 130.24 13.51 C 127.08 14.00 123.95 14.65 120.93 15.73 C 124.66 9.25 132.35 7.37 138.71 4.52 C 138.38 3.30 138.05 2.08 137.71 0.86 Z" />
<path fill="#563a27" opacity="1.00" d=" M 120.84 113.44 C 121.64 113.42 123.24 113.39 124.04 113.37 C 123.60 115.01 123.16 116.65 122.71 118.29 C 122.07 116.68 121.45 115.06 120.84 113.44 Z" />
<path fill="#563a27" opacity="1.00" d=" M 131.09 114.18 C 133.04 114.21 135.01 114.25 136.97 114.29 C 136.80 115.29 136.64 116.29 136.47 117.28 C 136.01 116.91 135.08 116.16 134.62 115.78 C 133.77 116.13 132.92 116.48 132.08 116.83 C 131.74 115.95 131.41 115.06 131.09 114.18 Z" />
<path fill="#563a27" opacity="1.00" d=" M 157.25 114.59 C 158.95 113.54 160.21 116.55 158.73 117.49 C 157.02 118.54 155.79 115.54 157.25 114.59 Z" />
<path fill="#563a27" opacity="1.00" d=" M 125.13 123.29 C 125.57 123.31 126.46 123.35 126.91 123.37 C 126.88 124.45 126.86 125.54 126.83 126.63 C 126.42 126.65 125.60 126.69 125.18 126.71 C 125.17 125.57 125.15 124.43 125.13 123.29 Z" />
<path fill="#563a27" opacity="1.00" d=" M 131.56 126.68 C 132.24 125.35 132.72 123.92 133.45 122.62 C 133.69 124.05 133.92 125.48 134.13 126.92 C 133.49 126.86 132.20 126.74 131.56 126.68 Z" />
<path fill="#563a27" opacity="1.00" d=" M 153.16 123.93 C 154.19 124.44 155.22 124.96 156.24 125.48 C 155.32 126.43 154.39 127.38 153.45 128.31 C 153.35 126.85 153.25 125.39 153.16 123.93 Z" />
<path fill="#563a27" opacity="1.00" d=" M 66.95 132.36 C 67.32 130.24 68.77 128.81 70.57 127.78 C 70.73 128.57 71.05 130.16 71.21 130.96 C 70.85 131.42 70.14 132.36 69.79 132.83 C 69.08 132.71 67.66 132.47 66.95 132.36 Z" />
<path fill="#563a27" opacity="1.00" d=" M 97.84 131.39 C 98.69 131.31 100.39 131.16 101.24 131.08 C 100.74 132.45 100.25 133.84 99.76 135.22 C 99.10 133.95 98.46 132.68 97.84 131.39 Z" />
<path fill="#563a27" opacity="1.00" d=" M 121.53 144.79 C 123.82 143.43 127.11 143.09 128.27 146.11 C 125.97 146.00 123.70 145.58 121.53 144.79 Z" />
</g>
<g id="#fff9dbff">
<path fill="#fff9db" opacity="1.00" d=" M 149.20 3.75 C 149.58 4.21 150.33 5.12 150.71 5.57 C 150.33 5.12 149.58 4.21 149.20 3.75 Z" />
</g>
<g id="#cb6331ff">
<path fill="#cb6331" opacity="1.00" d=" M 130.24 13.51 C 134.39 10.51 137.68 6.32 142.54 4.34 C 146.00 10.44 149.31 16.64 153.26 22.44 C 148.26 22.50 143.36 21.38 138.45 20.62 C 132.99 19.78 127.47 19.70 121.96 19.55 C 124.74 17.56 127.50 15.55 130.24 13.51 Z" />
</g>
<g id="#43402eff">
<path fill="#43402e" opacity="1.00" d=" M 157.59 8.53 C 160.38 7.86 163.18 7.19 165.97 6.50 C 165.31 8.56 164.65 10.62 164.01 12.69 C 168.01 12.64 172.03 12.56 176.00 12.00 C 177.72 11.83 179.40 11.34 180.91 10.50 C 185.03 12.55 187.56 16.38 188.05 20.93 L 187.27 20.90 C 183.20 21.48 179.27 22.75 175.25 23.58 C 175.48 26.57 175.71 29.56 175.92 32.54 C 177.77 31.44 179.55 30.13 181.64 29.48 C 184.69 30.43 186.82 33.03 189.15 35.07 C 189.24 35.87 189.41 37.47 189.50 38.27 C 192.18 34.55 194.64 30.67 196.81 26.62 C 196.11 29.19 195.46 31.76 194.89 34.36 C 196.80 32.77 198.99 31.32 200.13 29.03 C 201.68 25.90 201.98 22.37 202.66 18.99 C 207.25 17.83 211.53 21.05 215.98 21.77 C 215.73 22.46 215.49 23.15 215.25 23.84 C 214.41 23.31 213.58 22.79 212.75 22.26 C 210.64 26.63 207.94 30.75 206.34 35.35 C 205.60 37.35 207.22 39.17 207.81 40.98 C 210.20 36.51 212.24 31.86 214.07 27.13 C 214.22 28.50 214.44 29.86 214.73 31.21 C 215.58 34.39 218.44 36.35 219.89 39.17 C 220.80 44.08 219.71 49.06 218.94 53.91 C 220.22 51.89 221.51 49.88 222.81 47.88 C 224.40 48.24 226.00 48.61 227.60 48.97 C 227.94 44.05 227.49 39.04 225.47 34.50 C 227.25 36.58 229.77 38.76 229.52 41.78 C 229.08 47.26 228.22 52.74 228.56 58.27 C 228.79 58.93 229.23 60.25 229.46 60.91 C 228.78 61.70 228.13 62.52 227.50 63.35 C 228.05 58.28 227.45 52.67 223.35 49.13 C 221.05 54.39 218.41 60.63 221.69 66.10 C 222.72 63.35 223.54 60.53 224.42 57.72 C 225.01 60.32 225.66 62.91 226.17 65.53 C 226.72 69.12 226.21 72.76 225.65 76.32 C 225.19 69.67 218.10 66.39 217.20 59.84 C 216.19 64.38 215.04 68.89 213.71 73.35 C 215.29 72.82 217.01 71.15 218.67 72.35 C 221.14 73.72 223.27 75.58 225.51 77.27 C 224.90 80.60 224.07 83.87 223.43 87.19 C 223.32 86.59 223.10 85.38 222.99 84.78 C 220.80 87.44 219.53 90.66 218.89 94.01 C 216.80 92.55 214.30 91.41 212.82 89.26 C 211.83 86.47 211.81 83.46 211.44 80.55 C 210.01 83.73 208.59 86.92 207.11 90.07 C 207.00 88.99 206.92 87.92 206.85 86.84 C 208.07 82.07 211.39 78.11 212.17 73.19 C 213.63 63.62 218.58 54.76 217.94 44.88 C 213.42 55.46 208.40 65.85 204.65 76.74 C 203.07 81.06 202.35 85.63 202.12 90.21 C 203.37 90.39 204.63 90.56 205.89 90.74 C 206.95 92.14 208.01 93.55 209.07 94.96 C 207.14 100.55 205.71 106.34 205.28 112.26 C 204.87 111.01 204.45 109.77 204.01 108.54 C 201.39 112.87 200.56 117.91 201.47 122.87 C 200.66 122.07 199.87 121.27 199.07 120.48 C 198.14 123.00 197.20 125.51 196.23 128.02 C 196.83 128.34 198.05 128.98 198.66 129.30 C 196.79 131.21 194.39 132.80 193.33 135.34 C 192.93 137.39 193.69 139.42 194.15 141.40 C 193.02 141.12 191.88 140.85 190.75 140.58 C 190.38 143.60 190.07 146.63 189.77 149.67 C 188.06 149.51 186.35 149.36 184.65 149.21 C 184.98 157.13 185.02 165.08 184.20 172.97 C 183.67 177.87 183.63 182.79 183.82 187.70 C 183.51 188.15 182.88 189.05 182.56 189.50 C 182.04 188.82 181.51 188.15 181.00 187.46 C 182.47 177.30 183.23 166.95 182.57 156.69 C 179.68 166.46 181.07 176.77 180.52 186.80 C 177.97 191.01 175.64 195.36 174.15 200.06 C 172.59 198.29 171.04 196.51 169.30 194.91 C 165.28 193.98 161.17 193.54 157.09 193.04 C 155.43 196.00 153.78 198.96 152.19 201.96 C 150.35 199.15 148.74 196.07 146.16 193.85 C 142.01 191.70 135.02 193.49 134.37 198.74 C 134.30 202.05 138.62 202.03 140.89 203.16 C 131.40 203.52 121.81 204.09 112.39 202.51 C 103.95 200.52 95.21 201.90 86.69 200.43 C 95.57 200.01 104.45 200.33 113.32 200.79 C 111.10 197.12 108.76 193.52 106.42 189.92 C 102.99 189.69 99.56 189.37 96.14 189.05 C 96.47 186.51 96.76 183.98 97.03 181.44 C 90.72 181.46 84.40 180.85 78.10 181.35 C 75.32 181.52 74.29 184.67 72.65 186.48 C 76.94 186.73 81.20 187.33 85.37 188.40 C 79.56 188.59 73.73 188.14 67.94 188.66 C 65.13 188.73 63.75 191.48 62.14 193.35 C 59.92 190.74 57.87 187.13 54.07 186.88 C 51.24 186.61 48.25 186.58 45.60 187.71 C 44.35 188.93 43.89 190.69 43.31 192.29 C 40.66 188.18 37.21 184.36 37.07 179.16 C 36.81 177.67 36.47 176.19 36.13 174.71 C 39.21 172.79 42.19 170.43 45.83 169.71 C 49.11 171.22 51.55 173.98 54.22 176.32 C 52.53 177.04 50.71 177.56 49.19 178.62 C 47.96 180.62 47.47 182.96 46.73 185.16 C 49.78 185.25 52.82 185.30 55.87 185.35 C 57.31 180.91 58.08 174.71 63.39 173.27 C 67.21 171.83 69.17 176.17 70.94 178.69 C 70.97 172.78 71.33 166.89 71.26 160.99 C 62.56 160.96 53.81 161.04 45.17 159.81 C 35.61 158.51 26.03 157.04 16.35 157.13 C 16.30 161.82 16.27 166.51 16.46 171.20 C 18.79 168.15 20.63 164.77 21.99 161.18 C 22.61 161.20 23.24 161.22 23.87 161.25 C 25.47 164.81 28.89 167.13 30.52 170.62 C 31.06 174.86 28.30 178.57 26.73 182.31 C 30.14 183.03 33.57 183.64 37.02 184.08 C 36.95 184.50 36.81 185.33 36.74 185.75 C 32.22 185.39 27.75 184.66 23.22 184.43 C 27.86 190.73 36.29 190.89 43.11 193.13 C 44.81 193.97 46.45 194.95 48.13 195.85 C 39.44 193.46 30.48 191.60 22.45 187.37 C 19.50 185.80 17.30 183.23 14.89 180.99 L 15.53 181.41 C 17.82 182.79 20.12 184.15 22.42 185.53 C 20.49 182.78 18.45 180.12 16.38 177.48 C 16.09 177.81 15.52 178.46 15.23 178.78 C 14.43 172.28 14.59 165.72 14.55 159.18 C 14.56 158.84 14.57 158.18 14.57 157.84 C 13.43 157.38 12.28 156.91 11.14 156.45 C 12.40 153.61 13.67 150.78 14.96 147.95 C 13.42 146.46 11.88 144.97 10.33 143.49 C 11.39 139.81 15.03 136.03 12.88 132.15 C 11.38 128.57 6.93 130.31 4.12 130.95 C 5.66 129.88 7.23 128.85 8.76 127.78 C 10.44 129.04 12.43 127.77 13.34 126.23 C 16.26 124.19 19.29 122.29 22.22 120.26 C 25.03 118.81 26.74 116.15 27.17 113.04 C 27.60 111.43 27.91 109.79 28.16 108.14 C 28.46 106.20 28.74 104.25 29.02 102.30 C 31.56 103.51 34.14 104.86 37.00 105.10 C 40.25 105.33 43.38 104.24 46.44 103.30 C 46.59 100.61 47.36 97.75 46.39 95.15 C 43.79 92.41 39.94 91.14 36.34 90.34 C 33.20 89.65 30.30 91.33 27.64 92.73 C 27.46 92.59 27.12 92.32 26.94 92.18 C 27.21 91.59 27.74 90.43 28.01 89.84 C 32.52 89.46 36.92 86.81 37.59 82.00 C 38.29 84.99 39.72 88.02 42.58 89.48 C 44.16 90.28 46.44 91.61 47.96 90.04 C 51.79 86.79 53.98 82.03 57.89 78.85 C 59.84 77.14 62.61 77.54 65.00 77.39 C 66.80 73.12 67.97 68.55 67.71 63.88 C 72.99 59.78 78.97 55.91 81.81 49.59 C 83.02 49.31 84.23 49.03 85.44 48.74 C 83.83 51.11 82.08 53.43 81.02 56.11 C 81.61 58.52 83.33 60.42 84.68 62.44 C 86.29 60.75 87.83 58.98 89.67 57.54 C 92.24 55.57 95.58 55.07 98.23 53.25 C 99.91 51.41 100.57 48.91 101.58 46.69 C 99.49 46.81 97.40 46.95 95.32 47.14 C 95.30 45.99 95.27 44.85 95.23 43.70 C 94.40 43.08 93.58 42.45 92.77 41.82 C 91.02 43.13 89.26 44.41 87.60 45.82 C 87.78 43.78 86.92 41.14 88.95 39.79 C 93.29 36.18 97.48 32.27 100.18 27.23 C 100.47 26.71 101.04 25.67 101.33 25.14 C 104.14 22.74 106.40 19.60 109.69 17.82 C 112.99 18.03 116.04 19.48 119.22 20.26 C 119.78 18.75 120.33 17.23 120.93 15.73 C 123.95 14.65 127.08 14.00 130.24 13.51 C 127.50 15.55 124.74 17.56 121.96 19.55 C 127.47 19.70 132.99 19.78 138.45 20.62 C 143.36 21.38 148.26 22.50 153.26 22.44 C 153.54 22.15 154.11 21.55 154.40 21.26 C 157.80 17.81 160.27 13.61 162.66 9.43 C 161.24 9.24 159.82 9.04 158.41 8.82 L 157.59 8.53 M 175.00 19.16 C 178.97 19.12 182.98 18.62 186.57 16.79 C 184.73 14.30 181.92 13.05 179.02 12.27 C 177.66 14.56 176.31 16.84 175.00 19.16 M 161.54 15.45 C 159.60 18.70 157.97 22.39 154.65 24.50 C 153.71 25.49 151.48 26.08 152.16 27.84 C 153.48 32.11 157.14 35.05 160.89 37.17 C 166.07 30.80 171.04 24.04 174.09 16.36 C 169.91 15.99 165.73 15.69 161.54 15.45 M 101.18 31.92 C 101.72 33.62 103.10 34.88 104.13 36.30 C 109.05 32.99 112.29 27.94 115.16 22.88 C 113.83 21.47 112.50 20.07 111.16 18.67 C 107.44 22.71 102.96 26.57 101.18 31.92 M 205.17 19.79 C 203.68 23.48 201.83 27.14 201.39 31.14 C 201.07 32.69 202.24 33.89 203.16 34.97 C 204.73 34.79 205.38 33.27 206.13 32.09 C 207.82 28.97 209.55 25.75 210.06 22.20 C 208.50 21.26 206.83 20.53 205.17 19.79 M 117.60 21.41 C 115.68 24.25 114.52 27.50 113.31 30.68 C 116.73 28.22 119.44 24.95 121.55 21.33 C 120.24 21.33 118.86 20.93 117.60 21.41 M 125.01 21.07 C 125.07 22.38 125.12 23.70 125.18 25.01 C 133.31 25.51 141.45 26.82 149.61 26.00 C 148.71 24.93 147.74 23.77 146.25 23.67 C 139.23 22.41 132.15 21.30 125.01 21.07 M 117.99 29.40 C 120.59 27.80 124.14 26.10 123.55 22.44 C 121.43 24.53 119.57 26.88 117.99 29.40 M 164.81 38.78 C 162.67 41.54 160.03 44.07 158.75 47.39 C 158.30 49.96 159.05 52.57 159.29 55.13 C 161.06 55.05 162.87 55.17 164.59 54.66 C 166.53 53.23 167.14 50.78 168.20 48.75 C 168.95 46.96 170.96 46.30 172.43 45.26 C 173.34 38.73 175.69 32.17 173.52 25.60 C 169.89 29.51 168.21 34.72 164.81 38.78 M 124.34 27.46 C 120.46 29.48 117.34 32.64 113.87 35.25 C 120.31 36.23 126.84 35.77 133.32 35.91 C 140.89 36.59 148.47 37.05 156.07 36.88 C 154.03 33.97 151.91 31.12 149.77 28.29 C 144.19 27.94 138.60 27.68 133.04 27.05 C 130.16 26.75 127.14 26.61 124.34 27.46 M 177.68 34.42 C 175.05 36.55 174.60 40.06 173.80 43.12 C 176.33 41.84 178.78 40.00 181.72 39.90 C 183.16 40.84 182.19 42.24 181.55 43.34 L 181.46 42.46 C 178.21 42.94 176.16 45.82 173.44 47.37 C 169.85 49.39 168.18 53.35 165.61 56.38 C 166.28 56.45 167.60 56.60 168.27 56.67 C 170.80 58.28 172.77 61.29 175.75 61.89 C 178.82 58.44 180.40 53.93 183.16 50.23 C 185.57 47.05 186.23 42.99 186.04 39.10 C 186.07 36.62 185.96 33.67 183.48 32.33 C 181.25 30.54 179.36 33.20 177.68 34.42 M 94.45 37.01 C 97.05 37.05 99.66 37.01 102.27 36.91 C 101.17 35.48 100.07 34.05 98.94 32.65 C 97.40 34.06 95.91 35.52 94.45 37.01 M 194.40 36.88 C 197.05 36.99 199.71 36.96 202.37 36.83 C 201.27 35.82 200.22 34.77 199.00 33.93 C 197.03 34.05 195.73 35.64 194.40 36.88 M 208.73 49.30 C 212.00 44.72 214.18 39.26 213.89 33.56 C 211.09 38.31 208.42 43.63 208.73 49.30 M 107.39 35.92 C 106.84 42.99 102.79 49.01 101.08 55.77 C 102.51 55.76 103.94 55.75 105.38 55.73 C 105.71 53.08 106.69 50.52 109.58 49.91 C 109.59 45.66 108.91 40.98 111.92 37.48 C 110.41 36.96 108.90 36.44 107.39 35.92 M 114.61 37.22 C 114.31 40.60 113.71 43.97 112.50 47.15 C 111.91 49.94 111.39 52.74 110.90 55.54 C 112.06 54.71 113.23 53.89 114.41 53.08 C 115.10 54.24 115.78 55.40 116.46 56.57 C 120.12 56.76 123.78 56.89 127.45 56.77 C 128.63 54.74 130.32 53.13 132.69 52.65 C 132.88 54.23 133.07 55.82 133.24 57.41 C 141.07 54.39 149.62 56.50 157.75 55.26 C 157.41 52.94 157.10 50.63 156.78 48.32 C 146.19 46.61 135.44 47.37 124.77 46.84 C 127.73 46.77 130.66 46.23 133.58 45.74 C 130.53 44.88 126.90 45.16 124.27 43.35 C 124.64 41.60 125.27 39.92 125.83 38.23 C 126.55 39.94 127.26 41.67 127.89 43.42 C 128.16 43.47 128.69 43.55 128.95 43.59 C 129.68 42.63 130.43 41.69 131.22 40.78 C 133.46 41.01 134.84 43.08 136.49 44.38 C 137.34 42.70 138.20 41.04 139.07 39.37 C 139.90 41.29 140.71 43.21 141.54 45.13 C 142.50 43.01 143.42 40.87 144.40 38.75 C 145.41 40.90 146.39 43.06 147.38 45.22 C 148.22 43.19 149.14 41.20 150.33 39.36 C 150.70 41.22 151.05 43.10 151.37 44.97 C 152.44 44.83 153.52 44.69 154.60 44.55 C 154.72 42.73 154.84 40.90 154.95 39.08 C 148.00 38.13 140.97 38.27 133.98 37.72 C 128.74 37.49 123.48 36.96 118.25 37.51 C 117.04 37.41 115.82 37.31 114.61 37.22 M 92.38 38.56 C 95.14 42.94 101.98 43.36 105.39 39.56 C 101.09 38.84 96.74 38.52 92.38 38.56 M 211.15 50.10 C 209.69 53.44 207.05 56.23 206.23 59.85 C 204.27 67.48 201.51 74.90 197.88 81.89 C 191.32 81.87 184.77 81.22 178.21 81.62 C 177.95 80.43 177.69 79.24 177.43 78.05 C 176.69 79.69 175.95 81.33 175.21 82.97 C 183.68 83.82 192.20 84.20 200.70 83.64 C 203.69 72.69 208.20 62.29 212.84 51.95 C 214.85 47.24 217.04 42.49 217.56 37.32 C 214.04 40.78 213.22 45.81 211.15 50.10 M 157.09 39.04 C 157.06 41.42 157.02 43.79 157.02 46.17 C 158.62 44.08 160.19 41.95 161.75 39.82 C 160.20 39.55 158.64 39.30 157.09 39.04 M 188.70 41.98 C 194.95 42.32 201.19 43.20 207.46 42.96 C 206.32 41.28 205.54 38.54 203.02 38.74 C 198.15 38.52 192.07 37.56 188.70 41.98 M 194.54 42.89 C 192.71 47.39 190.11 51.80 189.66 56.71 C 191.51 61.29 196.72 63.03 200.86 65.01 C 202.98 59.18 204.92 53.26 206.05 47.14 C 204.70 47.13 203.35 47.12 202.00 47.10 C 199.14 51.14 198.19 56.08 195.89 60.40 C 195.32 55.55 197.95 51.21 199.53 46.82 C 197.87 45.50 196.23 44.15 194.54 42.89 M 184.94 58.41 C 188.43 55.08 190.26 50.53 190.82 45.81 C 187.93 49.51 186.12 53.89 184.94 58.41 M 131.02 62.68 C 131.85 59.76 131.80 56.71 131.37 53.73 C 130.59 56.65 130.60 59.70 131.02 62.68 M 78.45 56.68 C 77.50 57.88 76.54 59.07 75.56 60.25 C 77.13 60.45 78.70 60.66 80.26 60.88 C 79.68 59.47 79.07 58.07 78.45 56.68 M 92.53 57.57 C 88.87 59.36 87.29 63.50 85.16 66.74 C 93.13 67.00 101.10 67.05 109.07 66.92 C 109.89 64.01 110.54 61.07 111.03 58.09 C 104.94 57.21 98.64 56.45 92.53 57.57 M 136.69 58.84 C 135.59 60.60 135.39 62.73 134.92 64.71 C 143.42 65.56 152.04 65.86 160.52 64.65 C 160.65 62.19 160.79 59.73 160.93 57.27 C 152.86 57.54 144.54 56.58 136.69 58.84 M 116.24 58.73 C 116.64 61.41 117.04 64.08 117.41 66.76 C 120.84 66.82 124.27 66.79 127.70 66.68 C 128.15 64.13 128.62 61.59 129.07 59.04 C 124.81 58.67 120.52 58.56 116.24 58.73 M 184.85 62.02 C 186.82 61.79 188.78 61.56 190.75 61.34 C 189.72 60.31 188.69 59.28 187.66 58.26 C 186.71 59.50 185.78 60.75 184.85 62.02 M 69.71 64.85 C 74.57 65.52 80.19 67.30 84.57 64.21 C 79.89 62.62 73.65 60.64 69.71 64.85 M 111.88 63.81 C 111.62 73.93 111.84 84.05 111.77 94.17 C 113.17 94.17 114.58 94.17 115.98 94.17 C 115.59 84.14 116.07 74.09 115.67 64.06 C 114.41 63.97 113.14 63.89 111.88 63.81 M 129.82 63.81 C 129.59 72.33 129.27 80.84 128.91 89.36 C 130.16 89.24 131.40 89.13 132.65 89.01 C 133.01 80.62 132.97 72.22 132.98 63.83 C 132.19 63.82 130.61 63.81 129.82 63.81 M 177.78 66.80 C 184.30 67.54 190.90 67.18 197.40 66.35 C 196.08 65.30 194.84 63.92 193.03 63.86 C 187.84 63.22 181.81 62.81 177.78 66.80 M 70.08 67.21 C 70.09 70.56 70.31 73.91 70.79 77.23 C 74.92 77.58 79.09 77.71 83.22 77.20 C 83.28 75.59 83.34 73.99 83.39 72.39 C 82.31 72.39 81.23 72.38 80.15 72.38 C 80.15 71.95 80.15 71.10 80.15 70.68 C 81.37 70.56 82.58 70.44 83.79 70.30 C 83.05 69.41 82.34 68.50 81.49 67.70 C 77.76 66.87 73.88 67.35 70.08 67.21 M 134.68 67.54 C 140.48 69.96 146.85 69.36 152.98 69.46 C 155.67 69.29 159.05 69.92 160.78 67.29 C 152.10 66.86 143.35 66.70 134.68 67.54 M 159.10 72.62 C 158.37 78.47 158.58 84.37 158.91 90.24 C 161.35 90.28 163.79 90.32 166.23 90.34 C 166.56 82.57 165.89 74.81 166.00 67.04 C 164.11 69.36 161.82 71.33 159.10 72.62 M 198.22 68.27 C 198.21 70.69 198.24 73.10 198.33 75.52 C 200.04 72.99 201.21 70.15 202.08 67.23 C 200.79 67.58 199.50 67.92 198.22 68.27 M 116.38 69.71 C 120.42 69.90 125.09 71.03 128.58 68.38 C 124.59 68.26 119.65 66.65 116.38 69.71 M 87.06 68.76 C 87.00 71.20 86.91 73.64 86.80 76.08 C 86.29 82.40 86.22 88.73 86.36 95.07 C 93.88 95.76 101.44 95.50 108.98 95.90 C 109.80 89.76 110.31 83.50 109.57 77.33 C 102.75 75.76 95.52 76.85 88.54 76.05 C 89.54 74.28 90.37 72.42 91.30 70.62 C 91.74 72.11 92.17 73.61 92.57 75.12 C 93.57 73.71 94.57 72.30 95.58 70.89 C 96.11 72.33 96.61 73.78 97.10 75.24 C 98.08 74.13 99.04 73.00 100.01 71.88 C 100.89 72.89 101.71 73.96 102.68 74.89 C 103.45 73.94 104.15 72.95 104.87 71.96 C 106.11 73.60 107.75 74.80 109.71 75.42 C 109.80 73.34 109.88 71.26 109.93 69.18 C 102.31 68.96 94.68 68.74 87.06 68.76 M 179.79 68.99 C 179.70 72.60 179.74 76.23 179.95 79.84 C 185.64 80.08 191.33 80.16 197.03 79.91 C 196.77 76.21 196.34 72.52 195.88 68.84 C 190.51 68.63 185.15 68.81 179.79 68.99 M 117.36 71.33 C 118.14 78.02 117.38 84.79 118.37 91.47 C 119.49 89.68 120.29 87.77 120.98 85.78 C 122.92 86.97 124.59 88.77 126.92 89.17 C 127.73 83.24 127.62 77.25 127.74 71.29 C 124.28 71.29 120.82 71.30 117.36 71.33 M 135.19 70.89 C 135.17 72.72 135.15 74.56 135.15 76.39 C 136.29 74.95 137.45 73.51 138.57 72.05 C 139.54 73.26 140.55 74.43 141.50 75.66 C 142.13 74.56 142.78 73.47 143.43 72.37 C 144.53 73.71 145.66 75.04 146.80 76.35 C 147.35 74.94 147.94 73.55 148.57 72.18 C 149.39 73.51 150.22 74.84 151.07 76.16 C 151.92 75.12 152.77 74.07 153.61 73.02 C 154.55 74.21 155.49 75.40 156.44 76.59 C 156.67 74.78 156.88 72.97 157.08 71.15 C 149.78 71.28 142.48 71.31 135.19 70.89 M 216.45 73.91 C 215.24 78.11 213.53 82.39 213.94 86.84 C 214.12 88.27 215.65 88.79 216.53 89.72 C 216.84 86.99 216.96 84.25 217.36 81.53 C 218.40 83.23 219.07 85.09 219.70 86.97 C 220.96 83.99 222.93 80.73 221.55 77.42 C 220.92 75.13 218.30 74.76 216.45 73.91 M 135.19 77.11 C 134.88 81.18 134.69 85.27 134.72 89.36 C 142.06 87.89 149.53 89.31 156.92 89.55 C 156.91 85.75 156.94 81.95 156.87 78.15 C 149.65 77.61 142.41 77.52 135.19 77.11 M 67.78 78.58 C 67.82 79.13 67.91 80.25 67.96 80.80 C 72.65 80.91 77.35 81.29 82.05 81.01 C 83.43 81.15 84.41 80.20 85.45 79.47 C 79.55 79.31 73.62 79.60 67.78 78.58 M 60.29 79.47 C 56.77 82.94 53.51 86.70 50.47 90.59 C 48.67 92.81 48.68 95.78 48.57 98.48 C 50.05 96.98 51.45 95.39 52.67 93.68 C 58.53 93.69 64.39 95.09 70.24 94.18 C 72.10 94.17 73.95 94.13 75.81 94.07 C 76.50 94.16 77.89 94.34 78.58 94.43 C 80.38 95.11 82.36 94.97 84.24 95.17 C 84.39 91.12 84.31 87.07 84.12 83.03 C 80.79 82.86 77.47 82.66 74.15 82.68 C 69.28 82.82 64.51 81.98 60.29 79.47 M 173.06 85.10 C 173.06 86.81 173.06 88.53 173.07 90.25 C 182.33 91.09 191.55 88.40 200.77 90.04 C 200.48 88.78 200.20 87.53 199.92 86.28 C 190.97 85.81 182.03 84.99 173.06 85.10 M 124.07 91.11 C 122.13 94.46 120.54 98.02 119.70 101.82 C 139.64 105.07 159.88 102.91 179.95 104.19 C 173.70 116.66 169.93 130.11 165.19 143.17 C 171.21 143.19 177.29 144.31 183.27 143.30 C 184.14 141.76 184.70 140.08 185.33 138.44 C 186.55 136.48 187.28 134.27 188.20 132.16 C 190.90 125.39 194.95 119.23 197.41 112.35 C 199.83 105.65 202.34 98.96 204.03 92.03 C 202.44 92.10 200.86 92.18 199.28 92.26 C 195.41 100.55 193.26 109.48 189.99 118.00 C 187.54 125.60 184.22 132.87 181.49 140.36 C 178.45 141.20 175.25 140.73 172.14 140.74 C 171.54 135.85 172.53 131.03 174.47 126.56 C 178.08 114.80 183.43 103.67 187.10 91.93 C 166.07 93.20 145.11 90.34 124.07 91.11 M 184.99 102.90 C 181.54 112.43 177.44 121.79 175.00 131.66 C 178.18 128.78 179.05 124.43 180.68 120.65 C 183.25 114.47 185.22 108.07 187.83 101.91 C 189.38 98.23 190.88 94.51 191.79 90.61 C 187.80 93.54 186.79 98.58 184.99 102.90 M 194.03 90.92 C 190.39 99.24 186.94 107.66 184.17 116.31 C 182.27 121.60 179.40 126.56 178.58 132.20 C 179.98 132.16 181.97 133.72 182.77 131.90 C 185.57 126.31 187.00 120.13 189.37 114.35 C 191.64 106.93 194.59 99.75 196.88 92.34 C 195.93 91.87 194.98 91.39 194.03 90.92 M 115.01 104.30 C 118.36 100.92 119.56 96.21 120.82 91.78 C 117.86 95.40 115.65 99.63 115.01 104.30 M 203.51 99.62 C 201.24 106.50 198.82 113.33 196.06 120.03 C 191.98 129.00 186.42 137.56 184.78 147.42 C 187.91 146.03 188.61 142.49 189.85 139.66 C 192.97 131.49 196.60 123.51 199.36 115.21 C 201.74 108.03 206.10 101.45 206.70 93.75 C 205.37 95.55 204.19 97.47 203.51 99.62 M 47.09 103.69 C 62.32 103.21 77.43 105.77 92.65 105.67 C 94.55 102.96 96.43 100.23 98.18 97.42 C 83.52 96.56 68.83 96.82 54.18 96.11 C 50.80 97.18 49.23 101.06 47.09 103.69 M 105.16 99.16 C 101.20 103.66 101.06 110.20 101.89 115.83 C 106.04 117.72 110.89 116.89 115.34 117.22 C 115.40 114.87 115.61 112.50 115.24 110.16 C 114.21 108.92 112.62 108.36 111.29 107.52 C 112.96 103.79 114.47 99.97 115.36 95.96 C 111.87 96.48 107.93 96.69 105.16 99.16 M 94.50 106.27 C 95.03 107.21 95.57 108.16 96.11 109.10 C 99.25 105.86 101.75 102.00 102.86 97.59 C 98.94 99.22 96.57 102.77 94.50 106.27 M 115.62 106.55 C 122.74 107.26 129.90 106.79 137.03 107.11 C 148.06 107.67 159.08 108.24 170.08 109.24 C 172.65 109.73 174.49 107.82 176.24 106.28 C 167.52 105.21 158.74 105.77 149.99 105.67 C 140.30 105.65 130.66 104.47 120.98 104.12 C 118.83 103.84 117.20 105.36 115.62 106.55 M 45.67 105.82 C 44.95 107.02 44.35 108.28 43.81 109.57 C 60.52 109.60 77.26 111.38 93.95 109.95 C 93.58 109.18 93.20 108.41 92.83 107.63 C 78.51 107.62 64.31 105.22 49.98 105.18 C 48.55 105.28 46.98 105.09 45.67 105.82 M 28.91 112.02 C 28.31 114.31 28.36 116.71 28.23 119.07 C 22.54 121.41 19.17 127.12 13.24 129.05 C 14.26 131.33 15.43 133.58 16.01 136.04 C 15.46 138.28 13.99 140.14 12.82 142.09 C 14.10 143.78 15.40 145.45 16.74 147.09 C 17.35 145.55 18.52 144.10 18.47 142.39 C 22.09 138.67 26.10 135.30 29.23 131.14 C 32.27 127.24 34.83 122.72 39.32 120.29 C 41.51 119.36 42.02 117.00 42.59 114.94 C 41.23 112.62 40.78 109.03 37.79 108.23 C 34.52 108.27 31.38 109.96 28.91 112.02 M 93.73 116.95 C 93.26 124.41 93.06 131.92 93.44 139.39 C 94.39 135.67 94.50 131.83 94.84 128.02 C 95.08 124.08 98.28 121.31 99.61 117.78 C 100.20 114.60 99.95 111.34 99.99 108.12 C 97.74 110.90 93.79 112.97 93.73 116.95 M 117.22 108.85 C 117.22 115.51 117.19 122.17 117.19 128.83 C 127.40 129.07 137.64 128.96 147.79 130.26 C 153.77 131.12 159.78 130.10 165.78 130.34 C 167.83 123.89 170.72 117.76 172.73 111.30 C 154.26 110.04 135.75 108.15 117.22 108.85 M 44.23 111.19 C 44.28 112.50 44.33 113.81 44.39 115.11 C 45.32 113.88 46.25 112.64 47.17 111.40 C 46.43 111.35 44.96 111.25 44.23 111.19 M 49.43 111.25 C 46.35 116.14 42.53 120.52 39.58 125.49 C 37.25 129.42 34.43 133.01 31.83 136.75 C 35.82 137.06 39.84 137.69 43.84 137.20 C 46.66 134.06 48.30 130.08 50.58 126.57 C 53.44 121.43 57.48 117.07 60.27 111.89 C 56.66 111.55 53.05 111.34 49.43 111.25 M 62.91 112.02 C 62.62 120.26 62.37 128.52 62.87 136.75 C 66.58 136.85 70.30 136.87 74.01 136.79 C 74.93 129.34 74.54 121.79 75.61 114.36 C 77.75 122.11 74.87 130.26 76.91 138.03 C 79.19 129.66 77.57 120.90 77.67 112.36 C 72.76 111.98 67.83 111.81 62.91 112.02 M 79.18 112.27 C 79.56 120.75 79.67 129.23 79.96 137.71 C 83.71 137.77 87.46 137.96 91.20 138.27 C 91.69 129.58 91.65 120.85 92.80 112.21 C 88.26 112.06 83.72 112.13 79.18 112.27 M 45.99 137.76 C 50.37 138.39 54.78 138.73 59.20 139.01 C 62.28 131.35 60.66 122.85 60.93 114.81 C 55.18 121.92 50.60 129.89 45.99 137.76 M 101.67 118.69 C 99.66 120.75 98.41 123.40 97.06 125.91 C 103.10 126.77 109.21 127.18 115.32 127.12 C 115.31 124.45 115.30 121.79 115.28 119.13 C 110.75 118.88 106.18 117.92 101.67 118.69 M 96.31 128.13 C 96.20 131.77 96.09 135.41 96.04 139.06 C 98.30 138.99 100.56 138.91 102.82 138.82 C 104.50 135.46 105.94 131.98 107.05 128.39 C 103.47 128.24 99.89 128.16 96.31 128.13 M 109.67 130.66 C 108.90 132.58 108.47 134.60 107.97 136.60 C 116.64 136.48 125.30 136.64 133.97 136.89 C 142.27 137.13 150.56 136.42 158.87 136.63 C 158.99 135.19 159.02 133.74 159.14 132.31 C 147.38 132.29 135.71 130.54 123.96 130.64 C 119.20 130.71 114.36 129.55 109.67 130.66 M 161.27 131.39 C 160.97 134.16 160.80 136.95 160.84 139.73 C 163.40 137.94 164.20 134.91 164.96 132.06 C 163.73 131.84 162.50 131.61 161.27 131.39 M 173.53 138.97 C 175.84 138.98 178.16 138.97 180.48 138.96 C 181.07 135.96 179.18 133.76 176.97 132.02 C 174.80 133.77 173.41 136.11 173.53 138.97 M 27.02 138.88 C 23.69 141.78 21.85 145.92 19.90 149.79 C 37.59 150.29 55.16 153.02 72.88 152.89 C 75.20 149.55 77.08 145.93 78.38 142.07 C 66.62 140.54 54.71 140.72 42.94 139.21 C 37.66 139.10 32.23 137.71 27.02 138.88 M 60.57 138.37 C 67.28 140.14 74.36 140.27 81.24 139.61 C 74.39 138.75 67.48 138.03 60.57 138.37 M 104.61 139.94 C 110.37 140.84 116.18 139.67 121.97 139.91 C 129.32 140.19 136.65 140.88 144.00 141.14 C 149.34 141.26 154.90 142.17 160.00 140.06 C 155.75 137.50 150.69 138.26 146.00 138.40 C 133.96 139.09 121.91 137.87 109.88 138.02 C 107.92 137.95 106.24 139.00 104.61 139.94 M 82.35 139.84 C 83.42 141.59 85.64 143.37 84.61 145.63 C 82.64 151.26 82.20 157.23 82.76 163.14 C 86.37 163.57 90.01 163.76 93.66 163.72 C 95.13 160.56 96.43 157.29 98.36 154.37 C 99.84 152.15 102.07 150.60 103.80 148.59 C 104.75 146.65 104.22 144.32 103.74 142.32 C 101.81 140.89 99.32 140.78 97.03 140.60 C 92.13 140.33 87.23 140.23 82.35 139.84 M 105.84 142.21 C 105.87 144.71 105.90 147.22 105.95 149.72 C 122.95 149.24 139.93 151.18 156.92 150.02 C 156.92 147.77 156.91 145.53 156.91 143.28 C 139.86 143.74 122.86 140.38 105.84 142.21 M 74.30 154.90 C 74.82 155.67 75.35 156.44 75.88 157.21 C 78.87 153.40 81.40 149.26 83.67 144.99 C 82.97 144.01 82.26 143.02 81.56 142.04 C 78.76 146.10 76.52 150.50 74.30 154.90 M 159.17 142.82 C 158.52 145.13 158.73 147.54 158.97 149.90 C 160.21 150.04 161.45 150.20 162.69 150.36 C 160.85 148.19 160.18 145.41 159.17 142.82 M 163.07 145.11 C 163.04 145.58 162.98 146.53 162.95 147.00 C 169.75 147.19 176.62 147.85 183.38 146.67 C 176.77 144.87 169.83 145.55 163.07 145.11 M 164.38 149.32 C 167.13 150.92 170.38 150.96 173.43 151.56 C 176.79 152.16 179.99 153.38 183.15 154.63 C 183.03 152.86 182.91 151.09 182.79 149.33 C 176.66 149.18 170.50 148.64 164.38 149.32 M 19.11 151.70 C 17.00 151.66 16.08 153.74 14.95 155.14 C 24.96 155.50 34.89 156.79 44.83 157.91 C 50.12 159.22 55.60 158.70 60.99 158.99 C 65.30 159.19 69.62 159.06 73.92 158.75 C 73.55 157.61 73.19 156.47 72.82 155.33 C 66.12 154.81 59.43 153.97 52.69 153.99 C 41.50 153.22 30.35 151.18 19.11 151.70 M 103.41 151.53 C 100.93 153.73 100.17 157.18 98.85 160.11 C 106.51 161.41 114.29 160.49 122.01 160.59 C 132.02 160.22 141.99 161.64 152.00 161.30 C 158.38 161.02 164.68 162.20 171.03 162.38 C 175.42 162.60 175.42 157.20 176.22 154.15 C 164.16 150.29 151.38 152.44 138.97 151.99 C 127.14 151.35 115.23 150.84 103.41 151.53 M 73.38 161.89 C 72.83 169.36 72.11 176.85 72.09 184.35 C 73.41 182.53 74.90 180.77 75.71 178.66 C 75.95 176.68 75.65 174.71 75.62 172.73 C 75.33 169.73 77.85 167.55 79.15 165.10 C 81.40 162.09 80.79 158.17 80.83 154.66 C 78.73 157.43 76.58 160.31 73.38 161.89 M 178.12 155.15 C 176.92 158.40 176.11 161.80 176.17 165.29 C 179.11 162.76 180.01 158.92 181.00 155.35 C 180.28 155.30 178.84 155.20 178.12 155.15 M 97.20 161.96 C 96.78 162.59 95.95 163.84 95.54 164.46 C 103.94 166.12 112.54 164.96 121.03 165.41 C 139.40 166.44 157.81 167.23 176.20 166.50 C 172.75 163.68 168.12 164.27 163.98 163.84 C 158.34 163.35 152.67 163.03 147.01 163.11 C 138.65 163.26 130.36 161.88 122.01 162.02 C 113.74 162.09 105.46 162.54 97.20 161.96 M 81.04 164.89 C 80.63 165.89 80.21 166.89 79.80 167.88 C 85.58 168.00 91.36 167.97 97.14 167.76 C 92.15 165.20 86.53 164.91 81.04 164.89 M 18.89 172.13 C 17.76 175.53 19.37 178.82 21.61 181.32 C 21.92 178.70 22.22 176.08 22.64 173.48 C 23.96 175.47 24.36 177.82 24.74 180.13 C 26.15 177.77 27.97 175.55 28.61 172.82 C 28.87 170.13 26.92 166.84 23.98 166.78 C 21.02 166.24 19.60 169.84 18.89 172.13 M 98.73 167.06 C 98.75 173.90 97.85 180.91 99.40 187.64 C 100.73 188.55 102.45 188.29 103.95 188.06 C 106.38 187.99 106.71 185.19 107.77 183.53 C 106.46 182.70 105.15 181.87 103.85 181.03 C 107.90 180.83 111.83 179.67 115.21 177.39 C 116.96 178.72 118.69 180.06 120.43 181.41 C 119.72 184.28 119.22 187.19 118.80 190.11 C 121.05 190.58 123.32 190.99 125.55 191.54 C 122.75 191.86 119.93 192.12 117.11 192.30 C 115.69 195.36 114.97 198.66 114.78 202.02 C 120.93 202.18 127.04 202.80 133.15 203.41 C 133.01 201.75 132.87 200.09 132.72 198.43 C 130.86 197.65 128.88 197.05 127.25 195.83 C 126.29 194.07 125.88 192.08 125.32 190.17 C 126.51 186.07 126.42 178.98 131.92 178.36 C 137.19 180.53 139.36 186.36 139.97 191.65 C 142.14 191.37 144.32 191.10 146.50 190.80 C 147.42 186.71 148.29 182.55 150.19 178.77 C 153.51 179.57 155.41 183.18 158.98 183.71 C 157.19 185.70 156.86 188.32 156.91 190.90 C 160.29 191.51 163.67 192.08 167.06 192.57 C 167.91 189.92 168.75 187.27 169.66 184.64 C 167.98 184.32 166.31 183.92 164.65 183.53 C 167.25 182.49 170.14 182.58 172.71 181.55 C 175.97 178.35 174.30 173.21 174.77 169.14 C 163.54 168.31 152.26 169.01 141.04 168.05 C 126.93 167.82 112.84 166.60 98.73 167.06 M 176.24 168.84 C 176.05 172.21 176.04 175.60 176.08 178.98 C 176.86 179.03 178.40 179.14 179.17 179.19 C 179.29 175.47 179.49 171.36 176.24 168.84 M 78.30 169.87 C 77.93 170.35 77.20 171.30 76.84 171.78 C 83.74 171.75 90.65 172.26 97.54 171.83 C 96.16 170.90 94.83 169.57 93.01 169.74 C 88.11 169.59 83.20 170.03 78.30 169.87 M 41.73 187.32 C 42.30 184.08 42.87 180.83 43.60 177.63 C 43.96 179.52 44.33 181.42 44.70 183.32 C 47.02 179.60 48.24 175.28 47.17 170.93 C 40.28 172.42 36.19 182.17 41.73 187.32 M 77.79 173.78 C 77.81 175.60 77.84 177.42 77.85 179.25 C 84.17 179.97 90.54 179.83 96.89 179.82 C 96.85 177.98 96.82 176.15 96.78 174.32 C 90.48 173.57 84.13 173.46 77.79 173.78 M 60.33 178.34 C 57.87 181.34 58.61 185.48 60.52 188.55 C 61.31 185.84 62.21 183.16 63.50 180.64 C 63.66 183.22 63.68 185.81 63.73 188.39 C 66.96 185.66 70.96 180.52 67.47 176.51 C 65.45 173.46 61.80 176.14 60.33 178.34 M 108.75 186.05 C 108.02 189.93 110.43 193.28 112.61 196.21 C 112.82 193.77 112.99 191.33 113.15 188.89 C 114.16 189.95 115.17 191.01 116.19 192.06 C 117.07 188.31 117.32 184.46 117.15 180.62 C 113.39 179.68 109.32 182.15 108.75 186.05 M 128.88 194.98 C 129.66 195.04 131.22 195.16 132.00 195.22 C 131.94 191.74 132.00 188.26 132.32 184.79 C 133.48 188.17 134.06 191.71 134.55 195.24 C 135.64 192.71 137.55 190.11 136.83 187.22 C 135.97 184.40 133.62 182.43 131.72 180.31 C 127.61 184.06 127.50 189.97 128.88 194.98 M 171.26 186.33 C 170.42 188.36 170.16 190.57 169.77 192.73 C 170.35 193.14 171.50 193.97 172.08 194.39 C 172.44 191.07 173.21 187.81 174.38 184.69 C 174.71 186.98 174.97 189.27 175.31 191.56 C 177.86 188.47 177.76 184.49 177.10 180.77 C 174.92 182.32 172.36 183.75 171.26 186.33 M 151.21 181.51 C 149.42 186.22 147.29 191.83 150.52 196.43 C 150.73 193.08 150.80 189.72 151.13 186.38 C 153.43 189.17 152.85 193.00 153.48 196.33 C 155.97 191.50 155.76 185.05 151.21 181.51 M 69.08 185.28 C 67.54 188.26 72.41 185.42 69.08 185.28 Z" />
</g>
<g id="#c85533ff">
<path fill="#c85533" opacity="1.00" d=" M 146.74 7.23 C 150.62 7.85 154.51 8.36 158.41 8.82 C 159.82 9.04 161.24 9.24 162.66 9.43 C 160.27 13.61 157.80 17.81 154.40 21.26 C 151.83 16.59 149.01 12.06 146.74 7.23 Z" />
</g>
<g id="#b2aa95d1">
<path fill="#b2aa95" opacity="0.82" d=" M 176.00 12.00 C 176.50 9.82 179.28 9.03 180.91 10.50 C 179.40 11.34 177.72 11.83 176.00 12.00 Z" />
</g>
<g id="#c6c3bbff">
<path fill="#c6c3bb" opacity="1.00" d=" M 175.00 19.16 C 176.31 16.84 177.66 14.56 179.02 12.27 C 181.92 13.05 184.73 14.30 186.57 16.79 C 182.98 18.62 178.97 19.12 175.00 19.16 Z" />
</g>
<g id="#495e86ff">
<path fill="#495e86" opacity="1.00" d=" M 161.54 15.45 C 165.73 15.69 169.91 15.99 174.09 16.36 C 171.04 24.04 166.07 30.80 160.89 37.17 C 157.14 35.05 153.48 32.11 152.16 27.84 C 151.48 26.08 153.71 25.49 154.65 24.50 C 157.97 22.39 159.60 18.70 161.54 15.45 Z" />
</g>
<g id="#53658aff">
<path fill="#53658a" opacity="1.00" d=" M 101.18 31.92 C 102.96 26.57 107.44 22.71 111.16 18.67 C 112.50 20.07 113.83 21.47 115.16 22.88 C 112.29 27.94 109.05 32.99 104.13 36.30 C 103.10 34.88 101.72 33.62 101.18 31.92 Z" />
</g>
<g id="#e6b488ff">
<path fill="#e6b488" opacity="1.00" d=" M 175.25 23.58 C 179.27 22.75 183.20 21.48 187.27 20.90 C 187.97 25.61 188.66 30.33 189.15 35.07 C 186.82 33.03 184.69 30.43 181.64 29.48 C 179.55 30.13 177.77 31.44 175.92 32.54 C 175.71 29.56 175.48 26.57 175.25 23.58 Z" />
</g>
<g id="#59555aff">
<path fill="#59555a" opacity="1.00" d=" M 196.89 20.90 C 198.69 19.94 200.72 19.56 202.66 18.99 C 201.98 22.37 201.68 25.90 200.13 29.03 C 198.99 31.32 196.80 32.77 194.89 34.36 C 195.46 31.76 196.11 29.19 196.81 26.62 C 194.64 30.67 192.18 34.55 189.50 38.27 C 189.41 37.47 189.24 35.87 189.15 35.07 C 188.66 30.33 187.97 25.61 187.27 20.90 L 188.05 20.93 C 188.67 23.32 189.31 25.71 189.99 28.08 C 190.62 27.97 191.89 27.76 192.52 27.65 C 193.87 25.35 194.87 22.71 196.89 20.90 Z" />
</g>
<g id="#4e6587ff">
<path fill="#4e6587" opacity="1.00" d=" M 205.17 19.79 C 206.83 20.53 208.50 21.26 210.06 22.20 C 209.55 25.75 207.82 28.97 206.13 32.09 C 205.38 33.27 204.73 34.79 203.16 34.97 C 202.24 33.89 201.07 32.69 201.39 31.14 C 201.83 27.14 203.68 23.48 205.17 19.79 Z" />
</g>
<g id="#686172ff">
<path fill="#686172" opacity="1.00" d=" M 117.60 21.41 C 118.86 20.93 120.24 21.33 121.55 21.33 C 119.44 24.95 116.73 28.22 113.31 30.68 C 114.52 27.50 115.68 24.25 117.60 21.41 Z" />
</g>
<g id="#dbae84ff">
<path fill="#dbae84" opacity="1.00" d=" M 125.01 21.07 C 132.15 21.30 139.23 22.41 146.25 23.67 C 147.74 23.77 148.71 24.93 149.61 26.00 C 141.45 26.82 133.31 25.51 125.18 25.01 C 125.12 23.70 125.07 22.38 125.01 21.07 Z" />
<path fill="#dbae84" opacity="1.00" d=" M 60.57 138.37 C 67.48 138.03 74.39 138.75 81.24 139.61 C 74.36 140.27 67.28 140.14 60.57 138.37 Z" />
</g>
<g id="#595f7cff">
<path fill="#595f7c" opacity="1.00" d=" M 212.75 22.26 C 213.58 22.79 214.41 23.31 215.25 23.84 C 214.85 24.94 214.46 26.03 214.07 27.13 C 212.24 31.86 210.20 36.51 207.81 40.98 C 207.22 39.17 205.60 37.35 206.34 35.35 C 207.94 30.75 210.64 26.63 212.75 22.26 Z" />
</g>
<g id="#756f80ff">
<path fill="#756f80" opacity="1.00" d=" M 117.99 29.40 C 119.57 26.88 121.43 24.53 123.55 22.44 C 124.14 26.10 120.59 27.80 117.99 29.40 Z" />
</g>
<g id="#c2bbb1ff">
<path fill="#c2bbb1" opacity="1.00" d=" M 100.18 27.23 C 100.47 26.71 101.04 25.67 101.33 25.14 C 101.04 25.67 100.47 26.71 100.18 27.23 Z" />
</g>
<g id="#bec7c2ff">
<path fill="#bec7c2" opacity="1.00" d=" M 164.81 38.78 C 168.21 34.72 169.89 29.51 173.52 25.60 C 175.69 32.17 173.34 38.73 172.43 45.26 C 170.96 46.30 168.95 46.96 168.20 48.75 C 167.14 50.78 166.53 53.23 164.59 54.66 C 162.87 55.17 161.06 55.05 159.29 55.13 C 159.05 52.57 158.30 49.96 158.75 47.39 C 160.03 44.07 162.67 41.54 164.81 38.78 Z" />
</g>
<g id="#5675a3ff">
<path fill="#5675a3" opacity="1.00" d=" M 124.34 27.46 C 127.14 26.61 130.16 26.75 133.04 27.05 C 134.19 28.13 136.81 28.89 135.91 30.89 C 135.33 32.70 134.26 34.29 133.32 35.91 C 126.84 35.77 120.31 36.23 113.87 35.25 C 117.34 32.64 120.46 29.48 124.34 27.46 Z" />
</g>
<g id="#4c5e7fff">
<path fill="#4c5e7f" opacity="1.00" d=" M 133.04 27.05 C 138.60 27.68 144.19 27.94 149.77 28.29 C 151.91 31.12 154.03 33.97 156.07 36.88 C 148.47 37.05 140.89 36.59 133.32 35.91 C 134.26 34.29 135.33 32.70 135.91 30.89 C 136.81 28.89 134.19 28.13 133.04 27.05 Z" />
</g>
<g id="#7ea848ff">
<path fill="#7ea848" opacity="1.00" d=" M 214.73 31.21 L 215.70 31.27 C 218.63 31.84 221.54 32.50 224.38 33.45 C 224.65 33.71 225.20 34.24 225.47 34.50 C 227.49 39.04 227.94 44.05 227.60 48.97 C 226.00 48.61 224.40 48.24 222.81 47.88 C 221.51 49.88 220.22 51.89 218.94 53.91 C 219.71 49.06 220.80 44.08 219.89 39.17 C 218.44 36.35 215.58 34.39 214.73 31.21 Z" />
</g>
<g id="#e5c09eff">
<path fill="#e5c09e" opacity="1.00" d=" M 215.70 31.27 C 218.71 31.35 222.02 31.23 224.38 33.45 C 221.54 32.50 218.63 31.84 215.70 31.27 Z" />
<path fill="#e5c09e" opacity="1.00" d=" M 8.76 127.78 C 10.00 126.62 11.68 126.22 13.34 126.23 C 12.43 127.77 10.44 129.04 8.76 127.78 Z" />
<path fill="#e5c09e" opacity="1.00" d=" M 72.65 186.48 C 74.29 184.67 75.32 181.52 78.10 181.35 C 84.40 180.85 90.72 181.46 97.03 181.44 C 96.76 183.98 96.47 186.51 96.14 189.05 C 92.55 188.75 88.96 188.63 85.37 188.40 C 81.20 187.33 76.94 186.73 72.65 186.48 Z" />
</g>
<g id="#86a457ff">
<path fill="#86a457" opacity="1.00" d=" M 177.68 34.42 C 179.36 33.20 181.25 30.54 183.48 32.33 C 185.96 33.67 186.07 36.62 186.04 39.10 C 185.04 37.57 184.25 35.69 182.61 34.74 C 180.99 34.37 179.32 34.42 177.68 34.42 Z" />
</g>
<g id="#9d5937ff">
<path fill="#9d5937" opacity="1.00" d=" M 94.45 37.01 C 95.91 35.52 97.40 34.06 98.94 32.65 C 100.07 34.05 101.17 35.48 102.27 36.91 C 99.66 37.01 97.05 37.05 94.45 37.01 Z" />
</g>
<g id="#4f7137ff">
<path fill="#4f7137" opacity="1.00" d=" M 177.68 34.42 C 179.32 34.42 180.99 34.37 182.61 34.74 C 184.25 35.69 185.04 37.57 186.04 39.10 C 186.23 42.99 185.57 47.05 183.16 50.23 C 180.40 53.93 178.82 58.44 175.75 61.89 C 172.77 61.29 170.80 58.28 168.27 56.67 C 169.08 56.76 169.89 56.85 170.71 56.94 C 170.94 55.24 171.04 53.47 171.72 51.87 C 174.99 49.02 179.70 47.62 181.55 43.34 C 182.19 42.24 183.16 40.84 181.72 39.90 C 178.78 40.00 176.33 41.84 173.80 43.12 C 174.60 40.06 175.05 36.55 177.68 34.42 Z" />
</g>
<g id="#a25534ff">
<path fill="#a25534" opacity="1.00" d=" M 194.40 36.88 C 195.73 35.64 197.03 34.05 199.00 33.93 C 200.22 34.77 201.27 35.82 202.37 36.83 C 199.71 36.96 197.05 36.99 194.40 36.88 Z" />
</g>
<g id="#e7c19bff">
<path fill="#e7c19b" opacity="1.00" d=" M 208.73 49.30 C 208.42 43.63 211.09 38.31 213.89 33.56 C 214.18 39.26 212.00 44.72 208.73 49.30 Z" />
<path fill="#e7c19b" opacity="1.00" d=" M 82.35 139.84 C 87.23 140.23 92.13 140.33 97.03 140.60 C 99.32 140.78 101.81 140.89 103.74 142.32 C 104.22 144.32 104.75 146.65 103.80 148.59 C 102.07 150.60 99.84 152.15 98.36 154.37 C 96.43 157.29 95.13 160.56 93.66 163.72 C 90.01 163.76 86.37 163.57 82.76 163.14 C 82.20 157.23 82.64 151.26 84.61 145.63 C 85.64 143.37 83.42 141.59 82.35 139.84 Z" />
<path fill="#e7c19b" opacity="1.00" d=" M 159.17 142.82 C 160.18 145.41 160.85 148.19 162.69 150.36 C 161.45 150.20 160.21 150.04 158.97 149.90 C 158.73 147.54 158.52 145.13 159.17 142.82 Z" />
</g>
<g id="#709447ff">
<path fill="#709447" opacity="1.00" d=" M 107.39 35.92 C 108.90 36.44 110.41 36.96 111.92 37.48 C 108.91 40.98 109.59 45.66 109.58 49.91 C 106.69 50.52 105.71 53.08 105.38 55.73 C 103.94 55.75 102.51 55.76 101.08 55.77 C 102.79 49.01 106.84 42.99 107.39 35.92 Z" />
</g>
<g id="#5f4f40ff">
<path fill="#5f4f40" opacity="1.00" d=" M 114.61 37.22 C 115.82 37.31 117.04 37.41 118.25 37.51 C 117.17 37.65 116.09 37.79 115.01 37.93 C 114.88 39.70 114.77 41.47 114.65 43.23 C 115.47 41.66 116.30 40.10 117.13 38.53 C 117.85 40.09 118.60 41.65 119.33 43.21 C 119.92 41.58 120.51 39.95 121.10 38.32 C 122.13 40.02 123.13 41.73 124.27 43.35 C 126.90 45.16 130.53 44.88 133.58 45.74 C 130.66 46.23 127.73 46.77 124.77 46.84 C 120.67 46.87 116.58 46.95 112.50 47.15 C 113.71 43.97 114.31 40.60 114.61 37.22 Z" />
<path fill="#5f4f40" opacity="1.00" d=" M 212.04 165.09 C 213.25 158.27 211.98 151.10 214.50 144.51 C 213.83 151.33 215.64 158.87 212.04 165.09 Z" />
</g>
<g id="#e7bb89ff">
<path fill="#e7bb89" opacity="1.00" d=" M 118.25 37.51 C 123.48 36.96 128.74 37.49 133.98 37.72 C 140.97 38.27 148.00 38.13 154.95 39.08 C 154.84 40.90 154.72 42.73 154.60 44.55 C 153.52 44.69 152.44 44.83 151.37 44.97 C 151.05 43.10 150.70 41.22 150.33 39.36 C 149.14 41.20 148.22 43.19 147.38 45.22 C 146.39 43.06 145.41 40.90 144.40 38.75 C 143.42 40.87 142.50 43.01 141.54 45.13 C 140.71 43.21 139.90 41.29 139.07 39.37 C 138.20 41.04 137.34 42.70 136.49 44.38 C 134.84 43.08 133.46 41.01 131.22 40.78 C 130.43 41.69 129.68 42.63 128.95 43.59 C 128.69 43.55 128.16 43.47 127.89 43.42 C 127.26 41.67 126.55 39.94 125.83 38.23 C 125.27 39.92 124.64 41.60 124.27 43.35 C 123.13 41.73 122.13 40.02 121.10 38.32 C 120.51 39.95 119.92 41.58 119.33 43.21 C 118.60 41.65 117.85 40.09 117.13 38.53 C 116.30 40.10 115.47 41.66 114.65 43.23 C 114.77 41.47 114.88 39.70 115.01 37.93 C 116.09 37.79 117.17 37.65 118.25 37.51 Z" />
</g>
<g id="#696a81ff">
<path fill="#696a81" opacity="1.00" d=" M 92.38 38.56 C 96.74 38.52 101.09 38.84 105.39 39.56 C 101.98 43.36 95.14 42.94 92.38 38.56 Z" />
</g>
<g id="#d2cfb9ff">
<path fill="#d2cfb9" opacity="1.00" d=" M 211.15 50.10 C 213.22 45.81 214.04 40.78 217.56 37.32 C 217.04 42.49 214.85 47.24 212.84 51.95 C 208.20 62.29 203.69 72.69 200.70 83.64 C 192.20 84.20 183.68 83.82 175.21 82.97 C 175.95 81.33 176.69 79.69 177.43 78.05 C 177.69 79.24 177.95 80.43 178.21 81.62 C 184.77 81.22 191.32 81.87 197.88 81.89 C 201.51 74.90 204.27 67.48 206.23 59.85 C 207.05 56.23 209.69 53.44 211.15 50.10 Z" />
</g>
<g id="#ecc29eff">
<path fill="#ecc29e" opacity="1.00" d=" M 157.09 39.04 C 158.64 39.30 160.20 39.55 161.75 39.82 C 160.19 41.95 158.62 44.08 157.02 46.17 C 157.02 43.79 157.06 41.42 157.09 39.04 Z" />
</g>
<g id="#546286ff">
<path fill="#546286" opacity="1.00" d=" M 188.70 41.98 C 192.07 37.56 198.15 38.52 203.02 38.74 C 205.54 38.54 206.32 41.28 207.46 42.96 C 201.19 43.20 194.95 42.32 188.70 41.98 Z" />
</g>
<g id="#4b6289ff">
<path fill="#4b6289" opacity="1.00" d=" M 87.60 45.82 C 89.26 44.41 91.02 43.13 92.77 41.82 C 93.58 42.45 94.40 43.08 95.23 43.70 C 95.27 44.85 95.30 45.99 95.32 47.14 C 97.40 46.95 99.49 46.81 101.58 46.69 C 100.57 48.91 99.91 51.41 98.23 53.25 C 95.58 55.07 92.24 55.57 89.67 57.54 C 87.83 58.98 86.29 60.75 84.68 62.44 C 83.33 60.42 81.61 58.52 81.02 56.11 C 82.08 53.43 83.83 51.11 85.44 48.74 C 86.14 47.75 86.85 46.77 87.60 45.82 Z" />
</g>
<g id="#75a450ff">
<path fill="#75a450" opacity="1.00" d=" M 173.44 47.37 C 176.16 45.82 178.21 42.94 181.46 42.46 L 181.55 43.34 C 179.70 47.62 174.99 49.02 171.72 51.87 C 171.04 53.47 170.94 55.24 170.71 56.94 C 169.89 56.85 169.08 56.76 168.27 56.67 C 167.60 56.60 166.28 56.45 165.61 56.38 C 168.18 53.35 169.85 49.39 173.44 47.37 Z" />
</g>
<g id="#516183ff">
<path fill="#516183" opacity="1.00" d=" M 194.54 42.89 C 196.23 44.15 197.87 45.50 199.53 46.82 C 197.95 51.21 195.32 55.55 195.89 60.40 C 198.19 56.08 199.14 51.14 202.00 47.10 C 203.35 47.12 204.70 47.13 206.05 47.14 C 204.92 53.26 202.98 59.18 200.86 65.01 C 196.72 63.03 191.51 61.29 189.66 56.71 C 190.11 51.80 192.71 47.39 194.54 42.89 Z" />
</g>
<g id="#c0c3bcff">
<path fill="#c0c3bc" opacity="1.00" d=" M 204.65 76.74 C 208.40 65.85 213.42 55.46 217.94 44.88 C 218.58 54.76 213.63 63.62 212.17 73.19 C 211.39 78.11 208.07 82.07 206.85 86.84 C 206.50 88.13 206.19 89.44 205.89 90.74 C 204.63 90.56 203.37 90.39 202.12 90.21 C 202.35 85.63 203.07 81.06 204.65 76.74 Z" />
</g>
<g id="#726a79ff">
<path fill="#726a79" opacity="1.00" d=" M 184.94 58.41 C 186.12 53.89 187.93 49.51 190.82 45.81 C 190.26 50.53 188.43 55.08 184.94 58.41 Z" />
</g>
<g id="#bfc7c7ff">
<path fill="#bfc7c7" opacity="1.00" d=" M 112.50 47.15 C 116.58 46.95 120.67 46.87 124.77 46.84 C 135.44 47.37 146.19 46.61 156.78 48.32 C 157.10 50.63 157.41 52.94 157.75 55.26 C 149.62 56.50 141.07 54.39 133.24 57.41 C 133.07 55.82 132.88 54.23 132.69 52.65 C 130.32 53.13 128.63 54.74 127.45 56.77 C 123.78 56.89 120.12 56.76 116.46 56.57 C 115.78 55.40 115.10 54.24 114.41 53.08 C 113.23 53.89 112.06 54.71 110.90 55.54 C 111.39 52.74 111.91 49.94 112.50 47.15 Z" />
</g>
<g id="#608a3eff">
<path fill="#608a3e" opacity="1.00" d=" M 78.90 50.27 C 79.86 50.02 80.83 49.79 81.81 49.59 C 78.97 55.91 72.99 59.78 67.71 63.88 C 65.93 63.28 64.16 62.52 62.26 62.36 C 58.84 65.40 58.35 70.69 54.45 73.31 C 49.60 76.41 44.67 79.52 39.22 81.48 C 39.02 79.89 38.85 78.31 38.71 76.73 C 39.03 73.38 42.16 71.72 44.69 70.11 C 47.43 70.49 50.19 70.14 52.87 69.53 C 52.87 67.66 52.87 65.79 52.88 63.93 C 56.32 61.33 60.12 59.15 62.93 55.79 C 64.06 54.08 66.15 54.12 67.97 54.02 C 72.12 54.77 75.60 52.40 78.90 50.27 Z" />
</g>
<g id="#3d452aff">
<path fill="#3d452a" opacity="1.00" d=" M 67.97 54.02 C 71.61 52.75 75.12 51.09 78.90 50.27 C 75.60 52.40 72.12 54.77 67.97 54.02 Z" />
</g>
<g id="#768f48ff">
<path fill="#768f48" opacity="1.00" d=" M 223.35 49.13 C 227.45 52.67 228.05 58.28 227.50 63.35 C 227.17 63.89 226.51 64.98 226.17 65.53 C 225.66 62.91 225.01 60.32 224.42 57.72 C 223.54 60.53 222.72 63.35 221.69 66.10 C 218.41 60.63 221.05 54.39 223.35 49.13 Z" />
</g>
<g id="#eccaabff">
<path fill="#eccaab" opacity="1.00" d=" M 131.02 62.68 C 130.60 59.70 130.59 56.65 131.37 53.73 C 131.80 56.71 131.85 59.76 131.02 62.68 Z" />
<path fill="#eccaab" opacity="1.00" d=" M 179.79 68.99 C 185.15 68.81 190.51 68.63 195.88 68.84 C 196.34 72.52 196.77 76.21 197.03 79.91 C 191.33 80.16 185.64 80.08 179.95 79.84 C 179.74 76.23 179.70 72.60 179.79 68.99 Z" />
<path fill="#eccaab" opacity="1.00" d=" M 44.23 111.19 C 44.96 111.25 46.43 111.35 47.17 111.40 C 46.25 112.64 45.32 113.88 44.39 115.11 C 44.33 113.81 44.28 112.50 44.23 111.19 Z" />
</g>
<g id="#9e5e3eff">
<path fill="#9e5e3e" opacity="1.00" d=" M 78.45 56.68 C 79.07 58.07 79.68 59.47 80.26 60.88 C 78.70 60.66 77.13 60.45 75.56 60.25 C 76.54 59.07 77.50 57.88 78.45 56.68 Z" />
</g>
<g id="#5170a0ff">
<path fill="#5170a0" opacity="1.00" d=" M 92.53 57.57 C 98.64 56.45 104.94 57.21 111.03 58.09 C 110.54 61.07 109.89 64.01 109.07 66.92 C 101.10 67.05 93.13 67.00 85.16 66.74 C 87.29 63.50 88.87 59.36 92.53 57.57 Z" />
</g>
<g id="#53709cff">
<path fill="#53709c" opacity="1.00" d=" M 136.69 58.84 C 144.54 56.58 152.86 57.54 160.93 57.27 C 160.79 59.73 160.65 62.19 160.52 64.65 C 152.04 65.86 143.42 65.56 134.92 64.71 C 135.39 62.73 135.59 60.60 136.69 58.84 Z" />
</g>
<g id="#babb9dff">
<path fill="#babb9d" opacity="1.00" d=" M 228.56 58.27 C 230.13 58.06 230.79 60.10 229.46 60.91 C 229.23 60.25 228.79 58.93 228.56 58.27 Z" />
</g>
<g id="#c16032ff">
<path fill="#c16032" opacity="1.00" d=" M 116.24 58.73 C 120.52 58.56 124.81 58.67 129.07 59.04 C 128.62 61.59 128.15 64.13 127.70 66.68 C 124.27 66.79 120.84 66.82 117.41 66.76 C 117.04 64.08 116.64 61.41 116.24 58.73 Z" />
</g>
<g id="#9f5433ff">
<path fill="#9f5433" opacity="1.00" d=" M 184.85 62.02 C 185.78 60.75 186.71 59.50 187.66 58.26 C 188.69 59.28 189.72 60.31 190.75 61.34 C 188.78 61.56 186.82 61.79 184.85 62.02 Z" />
</g>
<g id="#779042ff">
<path fill="#779042" opacity="1.00" d=" M 213.71 73.35 C 215.04 68.89 216.19 64.38 217.20 59.84 C 218.10 66.39 225.19 69.67 225.65 76.32 L 225.51 77.27 C 223.27 75.58 221.14 73.72 218.67 72.35 C 217.01 71.15 215.29 72.82 213.71 73.35 Z" />
</g>
<g id="#425a31ff">
<path fill="#425a31" opacity="1.00" d=" M 54.45 73.31 C 58.35 70.69 58.84 65.40 62.26 62.36 C 64.16 62.52 65.93 63.28 67.71 63.88 C 67.97 68.55 66.80 73.12 65.00 77.39 C 62.61 77.54 59.84 77.14 57.89 78.85 C 53.98 82.03 51.79 86.79 47.96 90.04 C 46.44 91.61 44.16 90.28 42.58 89.48 C 39.72 88.02 38.29 84.99 37.59 82.00 C 37.94 80.24 38.30 78.48 38.71 76.73 C 38.85 78.31 39.02 79.89 39.22 81.48 C 44.67 79.52 49.60 76.41 54.45 73.31 Z" />
</g>
<g id="#7d7a94ff">
<path fill="#7d7a94" opacity="1.00" d=" M 69.71 64.85 C 73.65 60.64 79.89 62.62 84.57 64.21 C 80.19 67.30 74.57 65.52 69.71 64.85 Z" />
</g>
<g id="#2f4122dd">
<path fill="#2f4122" opacity="0.87" d=" M 44.69 70.11 C 47.59 68.29 50.24 66.11 52.88 63.93 C 52.87 65.79 52.87 67.66 52.87 69.53 C 50.19 70.14 47.43 70.49 44.69 70.11 Z" />
</g>
<g id="#f5d5b2ff">
<path fill="#f5d5b2" opacity="1.00" d=" M 111.88 63.81 C 113.14 63.89 114.41 63.97 115.67 64.06 C 116.07 74.09 115.59 84.14 115.98 94.17 C 114.58 94.17 113.17 94.17 111.77 94.17 C 111.84 84.05 111.62 73.93 111.88 63.81 Z" />
</g>
<g id="#f7d5b5ff">
<path fill="#f7d5b5" opacity="1.00" d=" M 129.82 63.81 C 130.61 63.81 132.19 63.82 132.98 63.83 C 132.97 72.22 133.01 80.62 132.65 89.01 C 131.40 89.13 130.16 89.24 128.91 89.36 C 129.27 80.84 129.59 72.33 129.82 63.81 Z" />
<path fill="#f7d5b5" opacity="1.00" d=" M 135.19 70.89 C 142.48 71.31 149.78 71.28 157.08 71.15 C 156.88 72.97 156.67 74.78 156.44 76.59 C 155.49 75.40 154.55 74.21 153.61 73.02 C 152.77 74.07 151.92 75.12 151.07 76.16 C 150.22 74.84 149.39 73.51 148.57 72.18 C 147.94 73.55 147.35 74.94 146.80 76.35 C 145.66 75.04 144.53 73.71 143.43 72.37 C 142.78 73.47 142.13 74.56 141.50 75.66 C 140.55 74.43 139.54 73.26 138.57 72.05 C 137.45 73.51 136.29 74.95 135.15 76.39 C 135.15 74.56 135.17 72.72 135.19 70.89 Z" />
</g>
<g id="#666a8cff">
<path fill="#666a8c" opacity="1.00" d=" M 177.78 66.80 C 181.81 62.81 187.84 63.22 193.03 63.86 C 194.84 63.92 196.08 65.30 197.40 66.35 C 190.90 67.18 184.30 67.54 177.78 66.80 Z" />
</g>
<g id="#ebd4b0ff">
<path fill="#ebd4b0" opacity="1.00" d=" M 70.08 67.21 C 73.88 67.35 77.76 66.87 81.49 67.70 C 82.34 68.50 83.05 69.41 83.79 70.30 C 82.58 70.44 81.37 70.56 80.15 70.68 C 80.15 71.10 80.15 71.95 80.15 72.38 C 81.23 72.38 82.31 72.39 83.39 72.39 C 83.34 73.99 83.28 75.59 83.22 77.20 C 79.09 77.71 74.92 77.58 70.79 77.23 C 70.31 73.91 70.09 70.56 70.08 67.21 M 72.21 70.17 C 70.75 71.16 72.33 73.73 73.81 72.57 C 75.28 71.58 73.68 69.00 72.21 70.17 M 76.15 70.25 C 74.69 71.28 76.42 73.76 77.85 72.59 C 79.31 71.56 77.58 69.07 76.15 70.25 Z" />
<path fill="#ebd4b0" opacity="1.00" d=" M 67.78 78.58 C 73.62 79.60 79.55 79.31 85.45 79.47 C 84.41 80.20 83.43 81.15 82.05 81.01 C 77.35 81.29 72.65 80.91 67.96 80.80 C 67.91 80.25 67.82 79.13 67.78 78.58 Z" />
</g>
<g id="#656e86ff">
<path fill="#656e86" opacity="1.00" d=" M 134.68 67.54 C 143.35 66.70 152.10 66.86 160.78 67.29 C 159.05 69.92 155.67 69.29 152.98 69.46 C 146.85 69.36 140.48 69.96 134.68 67.54 Z" />
</g>
<g id="#d9b084ff">
<path fill="#d9b084" opacity="1.00" d=" M 159.10 72.62 C 161.82 71.33 164.11 69.36 166.00 67.04 C 165.89 74.81 166.56 82.57 166.23 90.34 C 163.79 90.32 161.35 90.28 158.91 90.24 C 158.58 84.37 158.37 78.47 159.10 72.62 Z" />
<path fill="#d9b084" opacity="1.00" d=" M 22.22 120.26 C 24.10 118.02 25.74 115.59 27.17 113.04 C 26.74 116.15 25.03 118.81 22.22 120.26 Z" />
</g>
<g id="#dfb48aff">
<path fill="#dfb48a" opacity="1.00" d=" M 198.22 68.27 C 199.50 67.92 200.79 67.58 202.08 67.23 C 201.21 70.15 200.04 72.99 198.33 75.52 C 198.24 73.10 198.21 70.69 198.22 68.27 Z" />
<path fill="#dfb48a" opacity="1.00" d=" M 62.91 112.02 C 67.83 111.81 72.76 111.98 77.67 112.36 C 77.57 120.90 79.19 129.66 76.91 138.03 C 74.87 130.26 77.75 122.11 75.61 114.36 C 74.54 121.79 74.93 129.34 74.01 136.79 C 70.30 136.87 66.58 136.85 62.87 136.75 C 62.37 128.52 62.62 120.26 62.91 112.02 M 67.14 117.34 C 67.13 118.45 67.12 119.56 67.11 120.66 C 67.79 120.69 69.17 120.74 69.86 120.77 C 69.84 119.60 69.83 118.44 69.83 117.27 C 69.16 117.29 67.81 117.33 67.14 117.34 M 66.95 132.36 C 67.66 132.47 69.08 132.71 69.79 132.83 C 70.14 132.36 70.85 131.42 71.21 130.96 C 71.05 130.16 70.73 128.57 70.57 127.78 C 68.77 128.81 67.32 130.24 66.95 132.36 Z" />
</g>
<g id="#a07458ff">
<path fill="#a07458" opacity="1.00" d=" M 116.38 69.71 C 119.65 66.65 124.59 68.26 128.58 68.38 C 125.09 71.03 120.42 69.90 116.38 69.71 Z" />
</g>
<g id="#e6c5a2ff">
<path fill="#e6c5a2" opacity="1.00" d=" M 87.06 68.76 C 94.68 68.74 102.31 68.96 109.93 69.18 C 109.88 71.26 109.80 73.34 109.71 75.42 C 107.75 74.80 106.11 73.60 104.87 71.96 C 104.15 72.95 103.45 73.94 102.68 74.89 C 101.71 73.96 100.89 72.89 100.01 71.88 C 99.04 73.00 98.08 74.13 97.10 75.24 C 96.61 73.78 96.11 72.33 95.58 70.89 C 94.57 72.30 93.57 73.71 92.57 75.12 C 92.17 73.61 91.74 72.11 91.30 70.62 C 90.37 72.42 89.54 74.28 88.54 76.05 C 88.10 76.06 87.23 76.07 86.80 76.08 C 86.91 73.64 87.00 71.20 87.06 68.76 Z" />
</g>
<g id="#755e4aff">
<path fill="#755e4a" opacity="1.00" d=" M 72.21 70.17 C 73.68 69.00 75.28 71.58 73.81 72.57 C 72.33 73.73 70.75 71.16 72.21 70.17 Z" />
</g>
<g id="#775740ff">
<path fill="#775740" opacity="1.00" d=" M 76.15 70.25 C 77.58 69.07 79.31 71.56 77.85 72.59 C 76.42 73.76 74.69 71.28 76.15 70.25 Z" />
</g>
<g id="#e8c3a1ff">
<path fill="#e8c3a1" opacity="1.00" d=" M 117.36 71.33 C 120.82 71.30 124.28 71.29 127.74 71.29 C 127.62 77.25 127.73 83.24 126.92 89.17 C 124.59 88.77 122.92 86.97 120.98 85.78 C 120.29 87.77 119.49 89.68 118.37 91.47 C 117.38 84.79 118.14 78.02 117.36 71.33 M 120.47 75.57 C 120.48 76.95 120.49 78.34 120.49 79.74 C 121.99 79.57 123.49 79.36 124.99 79.12 C 124.58 77.82 124.17 76.52 123.77 75.22 C 122.67 75.33 121.57 75.45 120.47 75.57 Z" />
</g>
<g id="#769245ff">
<path fill="#769245" opacity="1.00" d=" M 216.45 73.91 C 218.30 74.76 220.92 75.13 221.55 77.42 C 222.93 80.73 220.96 83.99 219.70 86.97 C 219.07 85.09 218.40 83.23 217.36 81.53 C 216.96 84.25 216.84 86.99 216.53 89.72 C 215.65 88.79 214.12 88.27 213.94 86.84 C 213.53 82.39 215.24 78.11 216.45 73.91 Z" />
</g>
<g id="#2f2119ff">
<path fill="#2f2119" opacity="1.00" d=" M 120.47 75.57 C 121.57 75.45 122.67 75.33 123.77 75.22 C 124.17 76.52 124.58 77.82 124.99 79.12 C 123.49 79.36 121.99 79.57 120.49 79.74 C 120.49 78.34 120.48 76.95 120.47 75.57 Z" />
</g>
<g id="#eed0b0ff">
<path fill="#eed0b0" opacity="1.00" d=" M 86.80 76.08 C 87.23 76.07 88.10 76.06 88.54 76.05 C 95.52 76.85 102.75 75.76 109.57 77.33 C 110.31 83.50 109.80 89.76 108.98 95.90 C 101.44 95.50 93.88 95.76 86.36 95.07 C 86.22 88.73 86.29 82.40 86.80 76.08 M 90.41 79.72 C 90.27 81.18 90.15 82.65 90.03 84.11 C 91.11 83.59 92.19 83.07 93.27 82.54 C 92.31 81.60 91.36 80.66 90.41 79.72 M 94.27 80.25 C 94.25 81.42 94.23 82.59 94.21 83.77 C 94.85 83.76 96.13 83.75 96.77 83.74 C 96.75 82.59 96.74 81.44 96.74 80.28 C 96.12 80.28 94.89 80.26 94.27 80.25 M 99.61 79.62 C 99.41 81.02 99.22 82.41 99.05 83.81 C 99.69 83.76 100.98 83.66 101.63 83.61 C 101.12 82.20 100.41 80.89 99.61 79.62 M 103.27 84.08 C 104.03 84.10 105.56 84.13 106.33 84.15 C 106.18 82.63 106.01 81.11 105.84 79.60 C 104.08 80.45 103.78 82.41 103.27 84.08 M 89.86 93.81 C 90.48 93.65 91.72 93.31 92.34 93.15 C 92.47 92.71 92.72 91.83 92.85 91.40 C 92.30 90.91 91.21 89.95 90.66 89.46 C 90.33 90.90 90.09 92.36 89.86 93.81 M 94.33 89.99 C 94.45 91.07 94.57 92.15 94.68 93.23 C 95.20 93.39 96.24 93.70 96.76 93.86 C 96.82 92.54 96.87 91.22 96.93 89.89 C 96.28 89.92 94.98 89.97 94.33 89.99 M 100.10 90.54 C 99.06 91.28 99.32 93.38 100.72 93.49 C 102.79 93.40 102.06 89.44 100.10 90.54 M 104.34 89.69 C 104.20 91.14 104.09 92.59 104.00 94.04 C 105.08 93.52 106.16 92.99 107.24 92.46 C 106.26 91.54 105.29 90.63 104.34 89.69 Z" />
</g>
<g id="#f5d3b3ff">
<path fill="#f5d3b3" opacity="1.00" d=" M 135.19 77.11 C 142.41 77.52 149.65 77.61 156.87 78.15 C 156.94 81.95 156.91 85.75 156.92 89.55 C 149.53 89.31 142.06 87.89 134.72 89.36 C 134.69 85.27 134.88 81.18 135.19 77.11 M 136.74 81.50 C 136.56 82.58 136.38 83.66 136.21 84.75 C 136.82 84.72 138.06 84.67 138.67 84.64 C 139.07 83.72 139.47 82.79 139.87 81.86 C 138.83 81.74 137.78 81.62 136.74 81.50 M 141.07 80.86 C 141.28 81.96 141.56 83.05 141.90 84.12 C 143.07 85.54 144.04 83.41 144.97 82.77 C 143.78 81.92 142.42 81.38 141.07 80.86 M 148.10 81.44 C 146.58 82.42 148.24 84.98 149.71 83.78 C 151.20 82.79 149.56 80.25 148.10 81.44 M 152.33 81.10 C 152.33 81.81 152.32 83.23 152.32 83.94 C 153.48 83.94 154.65 83.95 155.82 83.96 C 155.68 83.38 155.39 82.22 155.25 81.65 C 154.28 81.46 153.30 81.28 152.33 81.10 Z" />
<path fill="#f5d3b3" opacity="1.00" d=" M 180.52 186.80 C 181.07 176.77 179.68 166.46 182.57 156.69 C 183.23 166.95 182.47 177.30 181.00 187.46 L 180.52 186.80 Z" />
</g>
<g id="#668540ff">
<path fill="#668540" opacity="1.00" d=" M 60.29 79.47 C 64.51 81.98 69.28 82.82 74.15 82.68 C 70.77 82.71 67.39 82.88 64.02 83.02 C 65.70 83.89 67.40 84.73 69.05 85.68 C 68.05 85.84 67.06 85.99 66.07 86.14 C 67.99 87.59 69.82 89.17 71.69 90.70 C 69.66 90.70 67.58 90.97 65.58 90.52 C 63.66 89.50 62.23 87.78 60.44 86.55 C 56.70 87.13 54.85 91.01 52.67 93.68 C 51.45 95.39 50.05 96.98 48.57 98.48 C 48.68 95.78 48.67 92.81 50.47 90.59 C 53.51 86.70 56.77 82.94 60.29 79.47 Z" />
</g>
<g id="#31321fff">
<path fill="#31321f" opacity="1.00" d=" M 90.41 79.72 C 91.36 80.66 92.31 81.60 93.27 82.54 C 92.19 83.07 91.11 83.59 90.03 84.11 C 90.15 82.65 90.27 81.18 90.41 79.72 Z" />
<path fill="#31321f" opacity="1.00" d=" M 94.27 80.25 C 94.89 80.26 96.12 80.28 96.74 80.28 C 96.74 81.44 96.75 82.59 96.77 83.74 C 96.13 83.75 94.85 83.76 94.21 83.77 C 94.23 82.59 94.25 81.42 94.27 80.25 Z" />
<path fill="#31321f" opacity="1.00" d=" M 99.61 79.62 C 100.41 80.89 101.12 82.20 101.63 83.61 C 100.98 83.66 99.69 83.76 99.05 83.81 C 99.22 82.41 99.41 81.02 99.61 79.62 Z" />
<path fill="#31321f" opacity="1.00" d=" M 136.74 81.50 C 137.78 81.62 138.83 81.74 139.87 81.86 C 139.47 82.79 139.07 83.72 138.67 84.64 C 138.06 84.67 136.82 84.72 136.21 84.75 C 136.38 83.66 136.56 82.58 136.74 81.50 Z" />
<path fill="#31321f" opacity="1.00" d=" M 141.07 80.86 C 142.42 81.38 143.78 81.92 144.97 82.77 C 144.04 83.41 143.07 85.54 141.90 84.12 C 141.56 83.05 141.28 81.96 141.07 80.86 Z" />
<path fill="#31321f" opacity="1.00" d=" M 152.33 81.10 C 153.30 81.28 154.28 81.46 155.25 81.65 C 155.39 82.22 155.68 83.38 155.82 83.96 C 154.65 83.95 153.48 83.94 152.32 83.94 C 152.32 83.23 152.33 81.81 152.33 81.10 Z" />
<path fill="#31321f" opacity="1.00" d=" M 89.86 93.81 C 90.09 92.36 90.33 90.90 90.66 89.46 C 91.21 89.95 92.30 90.91 92.85 91.40 C 92.72 91.83 92.47 92.71 92.34 93.15 C 91.72 93.31 90.48 93.65 89.86 93.81 Z" />
<path fill="#31321f" opacity="1.00" d=" M 94.33 89.99 C 94.98 89.97 96.28 89.92 96.93 89.89 C 96.87 91.22 96.82 92.54 96.76 93.86 C 96.24 93.70 95.20 93.39 94.68 93.23 C 94.57 92.15 94.45 91.07 94.33 89.99 Z" />
<path fill="#31321f" opacity="1.00" d=" M 100.10 90.54 C 102.06 89.44 102.79 93.40 100.72 93.49 C 99.32 93.38 99.06 91.28 100.10 90.54 Z" />
<path fill="#31321f" opacity="1.00" d=" M 104.34 89.69 C 105.29 90.63 106.26 91.54 107.24 92.46 C 106.16 92.99 105.08 93.52 104.00 94.04 C 104.09 92.59 104.20 91.14 104.34 89.69 Z" />
<path fill="#31321f" opacity="1.00" d=" M 213.32 97.25 C 214.93 95.44 217.64 96.14 219.79 95.85 C 220.47 102.17 218.17 108.13 215.14 113.54 C 216.90 114.14 218.67 114.74 220.44 115.34 C 219.91 121.00 219.39 126.68 218.15 132.25 C 218.55 126.96 218.81 121.67 219.23 116.39 C 214.75 116.39 208.81 115.51 206.02 119.92 C 203.74 125.46 203.43 131.63 200.85 137.09 C 197.37 144.57 195.90 152.73 193.15 160.46 C 196.10 160.54 199.05 160.22 201.92 159.53 C 200.87 153.23 200.10 146.03 204.93 141.00 C 208.19 144.81 211.16 149.64 210.42 154.87 C 209.45 158.94 207.73 162.80 206.98 166.94 C 206.04 165.22 205.10 163.51 204.15 161.80 C 202.91 161.51 201.68 161.23 200.45 160.94 C 201.73 164.91 203.41 169.11 202.31 173.34 C 201.19 177.83 198.80 181.85 196.78 185.97 C 194.41 182.61 191.43 179.30 191.00 175.03 C 190.45 170.20 192.63 165.70 194.28 161.30 C 192.21 163.62 189.79 165.85 188.81 168.89 C 188.02 172.46 189.35 176.13 188.62 179.71 C 187.77 182.75 185.60 185.16 183.82 187.70 C 184.92 184.74 186.18 181.77 186.48 178.60 C 186.87 174.98 186.25 171.17 187.78 167.74 C 189.62 163.51 190.45 158.90 192.71 154.85 C 194.96 150.78 194.86 145.96 196.62 141.71 C 198.78 136.36 201.18 131.08 202.55 125.45 C 204.04 119.95 203.91 114.19 204.01 108.54 C 204.45 109.77 204.87 111.01 205.28 112.26 C 205.23 113.85 205.17 115.44 205.12 117.03 C 207.62 115.92 210.11 114.79 212.61 113.68 C 211.30 111.28 209.37 108.95 209.28 106.11 C 209.62 102.84 211.06 99.65 213.32 97.25 M 212.94 110.93 C 213.54 108.61 214.03 106.27 214.52 103.92 C 215.25 104.95 215.98 105.97 216.73 107.00 C 218.09 103.63 218.56 99.96 217.07 96.54 C 213.06 99.86 208.66 106.10 212.94 110.93 M 204.52 159.35 C 204.91 156.84 205.24 154.32 205.53 151.80 C 206.19 154.02 206.88 156.23 207.66 158.41 C 210.16 153.63 207.73 148.10 204.93 144.03 C 201.96 148.67 201.97 154.54 204.52 159.35 M 194.17 166.27 C 192.24 170.36 192.95 175.00 193.54 179.31 C 194.03 179.47 195.02 179.78 195.51 179.94 C 195.98 177.14 196.55 174.37 197.32 171.65 C 197.70 174.24 198.03 176.84 198.40 179.44 C 201.21 174.21 201.11 168.04 198.78 162.67 C 197.13 163.66 194.94 164.31 194.17 166.27 Z" />
<path fill="#31321f" opacity="1.00" d=" M 125.29 113.48 C 127.07 112.39 128.13 115.52 126.58 116.38 C 124.81 117.49 123.80 114.34 125.29 113.48 Z" />
<path fill="#31321f" opacity="1.00" d=" M 168.54 119.36 C 167.07 117.21 167.06 114.80 168.50 112.63 C 168.61 114.87 168.62 117.12 168.54 119.36 Z" />
<path fill="#31321f" opacity="1.00" d=" M 141.94 114.23 C 142.97 114.51 144.00 114.80 145.03 115.11 C 144.57 116.15 144.10 117.18 143.63 118.22 C 143.05 116.89 142.48 115.57 141.94 114.23 Z" />
<path fill="#31321f" opacity="1.00" d=" M 146.38 114.39 C 148.46 113.20 149.38 117.46 147.15 117.60 C 145.67 117.46 145.27 115.23 146.38 114.39 Z" />
<path fill="#31321f" opacity="1.00" d=" M 163.15 114.32 C 164.61 113.19 166.28 115.70 164.77 116.68 C 163.31 117.81 161.62 115.29 163.15 114.32 Z" />
<path fill="#31321f" opacity="1.00" d=" M 67.14 117.34 C 67.81 117.33 69.16 117.29 69.83 117.27 C 69.83 118.44 69.84 119.60 69.86 120.77 C 69.17 120.74 67.79 120.69 67.11 120.66 C 67.12 119.56 67.13 118.45 67.14 117.34 Z" />
<path fill="#31321f" opacity="1.00" d=" M 204.69 129.99 C 204.45 125.39 206.99 121.15 210.83 118.74 C 214.21 122.61 216.14 127.82 215.17 132.96 C 214.40 135.86 212.62 138.32 211.14 140.89 C 208.43 137.68 204.35 134.69 204.69 129.99 M 209.83 136.41 C 209.83 133.79 209.77 131.17 209.71 128.56 C 210.90 130.75 211.96 133.01 213.15 135.20 C 214.10 130.30 213.49 125.01 210.17 121.09 C 206.39 125.14 204.07 132.96 209.83 136.41 Z" />
<path fill="#31321f" opacity="1.00" d=" M 55.91 129.74 C 56.34 127.51 56.83 125.18 58.61 123.62 C 58.61 125.52 58.66 127.42 58.54 129.32 C 57.88 129.42 56.56 129.63 55.91 129.74 Z" />
<path fill="#31321f" opacity="1.00" d=" M 142.38 124.33 C 143.85 123.16 145.47 125.73 143.98 126.71 C 142.51 127.85 140.89 125.30 142.38 124.33 Z" />
<path fill="#31321f" opacity="1.00" d=" M 157.17 125.22 C 158.62 124.04 160.31 126.57 158.81 127.57 C 157.35 128.74 155.69 126.21 157.17 125.22 Z" />
<path fill="#31321f" opacity="1.00" d=" M 163.47 125.21 C 164.83 123.70 166.97 126.15 165.53 127.44 C 164.17 128.94 162.04 126.49 163.47 125.21 Z" />
<path fill="#31321f" opacity="1.00" d=" M 82.54 129.63 C 83.14 129.49 84.34 129.22 84.95 129.08 C 84.92 130.30 84.90 131.53 84.88 132.75 C 84.20 132.72 82.84 132.67 82.15 132.65 C 82.28 131.64 82.41 130.63 82.54 129.63 Z" />
<path fill="#31321f" opacity="1.00" d=" M 110.72 145.66 C 112.83 144.22 115.32 144.37 117.68 145.02 C 115.70 146.93 113.07 146.50 110.72 145.66 Z" />
<path fill="#31321f" opacity="1.00" d=" M 131.61 145.08 C 133.91 144.38 136.35 144.25 138.33 145.83 C 136.02 146.66 133.54 146.85 131.61 145.08 Z" />
<path fill="#31321f" opacity="1.00" d=" M 63.55 164.62 C 65.00 164.36 66.48 164.26 67.95 164.12 C 67.54 165.48 67.12 166.84 66.69 168.20 C 65.60 167.10 62.62 166.65 63.55 164.62 Z" />
<path fill="#31321f" opacity="1.00" d=" M 114.61 171.39 C 116.88 171.28 119.15 171.27 121.42 171.41 C 119.57 173.89 116.72 172.81 114.61 171.39 Z" />
<path fill="#31321f" opacity="1.00" d=" M 141.62 172.09 C 143.84 171.40 146.16 171.39 148.38 172.09 C 146.23 173.73 143.78 173.70 141.62 172.09 Z" />
</g>
<g id="#5f4b3bff">
<path fill="#5f4b3b" opacity="1.00" d=" M 103.27 84.08 C 103.78 82.41 104.08 80.45 105.84 79.60 C 106.01 81.11 106.18 82.63 106.33 84.15 C 105.56 84.13 104.03 84.10 103.27 84.08 Z" />
</g>
<g id="#533f32ff">
<path fill="#533f32" opacity="1.00" d=" M 148.10 81.44 C 149.56 80.25 151.20 82.79 149.71 83.78 C 148.24 84.98 146.58 82.42 148.10 81.44 Z" />
</g>
<g id="#749044ff">
<path fill="#749044" opacity="1.00" d=" M 207.11 90.07 C 208.59 86.92 210.01 83.73 211.44 80.55 C 211.81 83.46 211.83 86.47 212.82 89.26 C 214.30 91.41 216.80 92.55 218.89 94.01 C 219.53 90.66 220.80 87.44 222.99 84.78 C 223.10 85.38 223.32 86.59 223.43 87.19 C 222.96 96.63 221.94 106.01 220.44 115.34 C 218.67 114.74 216.90 114.14 215.14 113.54 C 218.17 108.13 220.47 102.17 219.79 95.85 C 217.64 96.14 214.93 95.44 213.32 97.25 C 211.06 99.65 209.62 102.84 209.28 106.11 C 209.37 108.95 211.30 111.28 212.61 113.68 C 210.11 114.79 207.62 115.92 205.12 117.03 C 205.17 115.44 205.23 113.85 205.28 112.26 C 205.71 106.34 207.14 100.55 209.07 94.96 C 208.01 93.55 206.95 92.14 205.89 90.74 C 206.19 89.44 206.50 88.13 206.85 86.84 C 206.92 87.92 207.00 88.99 207.11 90.07 Z" />
</g>
<g id="#c2c7c3ff">
<path fill="#c2c7c3" opacity="1.00" d=" M 64.02 83.02 C 67.39 82.88 70.77 82.71 74.15 82.68 C 77.47 82.66 80.79 82.86 84.12 83.03 C 84.31 87.07 84.39 91.12 84.24 95.17 C 82.36 94.97 80.38 95.11 78.58 94.43 C 75.39 91.53 72.69 88.06 69.05 85.68 C 67.40 84.73 65.70 83.89 64.02 83.02 Z" />
</g>
<g id="#bdc6bfff">
<path fill="#bdc6bf" opacity="1.00" d=" M 173.06 85.10 C 182.03 84.99 190.97 85.81 199.92 86.28 C 200.20 87.53 200.48 88.78 200.77 90.04 C 191.55 88.40 182.33 91.09 173.07 90.25 C 173.06 88.53 173.06 86.81 173.06 85.10 Z" />
</g>
<g id="#435f31ff">
<path fill="#435f31" opacity="1.00" d=" M 52.67 93.68 C 54.85 91.01 56.70 87.13 60.44 86.55 C 62.23 87.78 63.66 89.50 65.58 90.52 C 67.58 90.97 69.66 90.70 71.69 90.70 C 69.82 89.17 67.99 87.59 66.07 86.14 C 67.06 85.99 68.05 85.84 69.05 85.68 C 72.69 88.06 75.39 91.53 78.58 94.43 C 77.89 94.34 76.50 94.16 75.81 94.07 C 73.96 93.87 72.09 93.95 70.24 94.18 C 64.39 95.09 58.53 93.69 52.67 93.68 Z" />
</g>
<g id="#dfbda3ff">
<path fill="#dfbda3" opacity="1.00" d=" M 26.94 92.18 C 25.35 91.48 26.62 89.55 28.01 89.84 C 27.74 90.43 27.21 91.59 26.94 92.18 Z" />
<path fill="#dfbda3" opacity="1.00" d=" M 96.31 128.13 C 99.89 128.16 103.47 128.24 107.05 128.39 C 105.94 131.98 104.50 135.46 102.82 138.82 C 100.56 138.91 98.30 138.99 96.04 139.06 C 96.09 135.41 96.20 131.77 96.31 128.13 M 97.84 131.39 C 98.46 132.68 99.10 133.95 99.76 135.22 C 100.25 133.84 100.74 132.45 101.24 131.08 C 100.39 131.16 98.69 131.31 97.84 131.39 Z" />
</g>
<g id="#5f883eff">
<path fill="#5f883e" opacity="1.00" d=" M 27.64 92.73 C 30.30 91.33 33.20 89.65 36.34 90.34 C 39.94 91.14 43.79 92.41 46.39 95.15 C 47.36 97.75 46.59 100.61 46.44 103.30 C 45.31 101.49 44.33 99.56 42.88 97.98 C 38.37 97.19 33.87 98.93 29.42 99.50 C 29.32 100.20 29.12 101.60 29.02 102.30 C 28.74 104.25 28.46 106.20 28.16 108.14 C 28.90 103.01 28.49 97.82 27.64 92.73 Z" />
</g>
<g id="#f9d9abff">
<path fill="#f9d9ab" opacity="1.00" d=" M 124.07 91.11 C 145.11 90.34 166.07 93.20 187.10 91.93 C 183.43 103.67 178.08 114.80 174.47 126.56 C 172.53 131.03 171.54 135.85 172.14 140.74 C 175.25 140.73 178.45 141.20 181.49 140.36 C 182.80 139.79 184.09 139.15 185.33 138.44 C 184.70 140.08 184.14 141.76 183.27 143.30 C 177.29 144.31 171.21 143.19 165.19 143.17 C 169.93 130.11 173.70 116.66 179.95 104.19 C 159.88 102.91 139.64 105.07 119.70 101.82 C 120.54 98.02 122.13 94.46 124.07 91.11 Z" />
</g>
<g id="#767488ff">
<path fill="#767488" opacity="1.00" d=" M 184.99 102.90 C 186.79 98.58 187.80 93.54 191.79 90.61 C 190.88 94.51 189.38 98.23 187.83 101.91 C 185.22 108.07 183.25 114.47 180.68 120.65 C 179.05 124.43 178.18 128.78 175.00 131.66 C 177.44 121.79 181.54 112.43 184.99 102.90 Z" />
</g>
<g id="#546486ff">
<path fill="#546486" opacity="1.00" d=" M 194.03 90.92 C 194.98 91.39 195.93 91.87 196.88 92.34 C 194.59 99.75 191.64 106.93 189.37 114.35 C 187.00 120.13 185.57 126.31 182.77 131.90 C 181.97 133.72 179.98 132.16 178.58 132.20 C 179.40 126.56 182.27 121.60 184.17 116.31 C 186.94 107.66 190.39 99.24 194.03 90.92 Z" />
</g>
<g id="#867171ff">
<path fill="#867171" opacity="1.00" d=" M 115.01 104.30 C 115.65 99.63 117.86 95.40 120.82 91.78 C 119.56 96.21 118.36 100.92 115.01 104.30 Z" />
</g>
<g id="#d9aa7bff">
<path fill="#d9aa7b" opacity="1.00" d=" M 199.28 92.26 C 200.86 92.18 202.44 92.10 204.03 92.03 C 202.34 98.96 199.83 105.65 197.41 112.35 C 194.95 119.23 190.90 125.39 188.20 132.16 C 187.28 134.27 186.55 136.48 185.33 138.44 C 184.09 139.15 182.80 139.79 181.49 140.36 C 184.22 132.87 187.54 125.60 189.99 118.00 C 193.26 109.48 195.41 100.55 199.28 92.26 Z" />
</g>
<g id="#8c995fff">
<path fill="#8c995f" opacity="1.00" d=" M 70.24 94.18 C 72.09 93.95 73.96 93.87 75.81 94.07 C 73.95 94.13 72.10 94.17 70.24 94.18 Z" />
</g>
<g id="#665d6cff">
<path fill="#665d6c" opacity="1.00" d=" M 203.51 99.62 C 204.19 97.47 205.37 95.55 206.70 93.75 C 206.10 101.45 201.74 108.03 199.36 115.21 C 196.60 123.51 192.97 131.49 189.85 139.66 C 188.61 142.49 187.91 146.03 184.78 147.42 C 186.42 137.56 191.98 129.00 196.06 120.03 C 198.82 113.33 201.24 106.50 203.51 99.62 Z" />
</g>
<g id="#f7d9b7ff">
<path fill="#f7d9b7" opacity="1.00" d=" M 47.09 103.69 C 49.23 101.06 50.80 97.18 54.18 96.11 C 68.83 96.82 83.52 96.56 98.18 97.42 C 96.43 100.23 94.55 102.96 92.65 105.67 C 77.43 105.77 62.32 103.21 47.09 103.69 Z" />
</g>
<g id="#e4c29aff">
<path fill="#e4c29a" opacity="1.00" d=" M 105.16 99.16 C 107.93 96.69 111.87 96.48 115.36 95.96 C 114.47 99.97 112.96 103.79 111.29 107.52 C 112.62 108.36 114.21 108.92 115.24 110.16 C 115.61 112.50 115.40 114.87 115.34 117.22 C 110.89 116.89 106.04 117.72 101.89 115.83 C 101.06 110.20 101.20 103.66 105.16 99.16 Z" />
</g>
<g id="#446734ff">
<path fill="#446734" opacity="1.00" d=" M 29.42 99.50 C 33.87 98.93 38.37 97.19 42.88 97.98 C 44.33 99.56 45.31 101.49 46.44 103.30 C 43.38 104.24 40.25 105.33 37.00 105.10 C 34.14 104.86 31.56 103.51 29.02 102.30 C 29.12 101.60 29.32 100.20 29.42 99.50 Z" />
</g>
<g id="#7c934bff">
<path fill="#7c934b" opacity="1.00" d=" M 212.94 110.93 C 208.66 106.10 213.06 99.86 217.07 96.54 C 218.56 99.96 218.09 103.63 216.73 107.00 C 215.98 105.97 215.25 104.95 214.52 103.92 C 214.03 106.27 213.54 108.61 212.94 110.93 Z" />
</g>
<g id="#706581ff">
<path fill="#706581" opacity="1.00" d=" M 94.50 106.27 C 96.57 102.77 98.94 99.22 102.86 97.59 C 101.75 102.00 99.25 105.86 96.11 109.10 C 95.57 108.16 95.03 107.21 94.50 106.27 Z" />
</g>
<g id="#667791ff">
<path fill="#667791" opacity="1.00" d=" M 115.62 106.55 C 117.20 105.36 118.83 103.84 120.98 104.12 C 130.66 104.47 140.30 105.65 149.99 105.67 C 158.74 105.77 167.52 105.21 176.24 106.28 C 174.49 107.82 172.65 109.73 170.08 109.24 C 159.08 108.24 148.06 107.67 137.03 107.11 C 129.90 106.79 122.74 107.26 115.62 106.55 Z" />
</g>
<g id="#65749cff">
<path fill="#65749c" opacity="1.00" d=" M 45.67 105.82 C 46.98 105.09 48.55 105.28 49.98 105.18 C 64.31 105.22 78.51 107.62 92.83 107.63 C 93.20 108.41 93.58 109.18 93.95 109.95 C 77.26 111.38 60.52 109.60 43.81 109.57 C 44.35 108.28 44.95 107.02 45.67 105.82 Z" />
</g>
<g id="#749948ff">
<path fill="#749948" opacity="1.00" d=" M 28.91 112.02 C 31.38 109.96 34.52 108.27 37.79 108.23 C 40.78 109.03 41.23 112.62 42.59 114.94 C 39.51 112.69 35.87 111.31 32.02 111.75 C 31.29 115.50 30.88 119.50 28.78 122.79 C 26.14 126.56 20.81 127.06 18.06 130.62 C 16.85 134.45 18.29 138.49 18.47 142.39 C 18.52 144.10 17.35 145.55 16.74 147.09 C 15.40 145.45 14.10 143.78 12.82 142.09 C 13.99 140.14 15.46 138.28 16.01 136.04 C 15.43 133.58 14.26 131.33 13.24 129.05 C 19.17 127.12 22.54 121.41 28.23 119.07 C 28.36 116.71 28.31 114.31 28.91 112.02 Z" />
</g>
<g id="#dba97aff">
<path fill="#dba97a" opacity="1.00" d=" M 93.73 116.95 C 93.79 112.97 97.74 110.90 99.99 108.12 C 99.95 111.34 100.20 114.60 99.61 117.78 C 98.28 121.31 95.08 124.08 94.84 128.02 C 94.50 131.83 94.39 135.67 93.44 139.39 C 93.06 131.92 93.26 124.41 93.73 116.95 Z" />
</g>
<g id="#edcfafff">
<path fill="#edcfaf" opacity="1.00" d=" M 117.22 108.85 C 135.75 108.15 154.26 110.04 172.73 111.30 C 170.72 117.76 167.83 123.89 165.78 130.34 C 159.78 130.10 153.77 131.12 147.79 130.26 C 137.64 128.96 127.40 129.07 117.19 128.83 C 117.19 122.17 117.22 115.51 117.22 108.85 M 120.84 113.44 C 121.45 115.06 122.07 116.68 122.71 118.29 C 123.16 116.65 123.60 115.01 124.04 113.37 C 123.24 113.39 121.64 113.42 120.84 113.44 M 125.29 113.48 C 123.80 114.34 124.81 117.49 126.58 116.38 C 128.13 115.52 127.07 112.39 125.29 113.48 M 168.54 119.36 C 168.62 117.12 168.61 114.87 168.50 112.63 C 167.06 114.80 167.07 117.21 168.54 119.36 M 131.09 114.18 C 131.41 115.06 131.74 115.95 132.08 116.83 C 132.92 116.48 133.77 116.13 134.62 115.78 C 135.08 116.16 136.01 116.91 136.47 117.28 C 136.64 116.29 136.80 115.29 136.97 114.29 C 135.01 114.25 133.04 114.21 131.09 114.18 M 141.94 114.23 C 142.48 115.57 143.05 116.89 143.63 118.22 C 144.10 117.18 144.57 116.15 145.03 115.11 C 144.00 114.80 142.97 114.51 141.94 114.23 M 146.38 114.39 C 145.27 115.23 145.67 117.46 147.15 117.60 C 149.38 117.46 148.46 113.20 146.38 114.39 M 157.25 114.59 C 155.79 115.54 157.02 118.54 158.73 117.49 C 160.21 116.55 158.95 113.54 157.25 114.59 M 163.15 114.32 C 161.62 115.29 163.31 117.81 164.77 116.68 C 166.28 115.70 164.61 113.19 163.15 114.32 M 153.22 115.21 C 151.77 116.20 153.36 118.77 154.83 117.60 C 156.29 116.60 154.69 114.02 153.22 115.21 M 121.69 123.27 C 122.11 124.80 122.50 126.43 123.81 127.48 C 123.97 126.00 124.11 124.52 124.24 123.04 C 123.60 123.09 122.33 123.21 121.69 123.27 M 125.13 123.29 C 125.15 124.43 125.17 125.57 125.18 126.71 C 125.60 126.69 126.42 126.65 126.83 126.63 C 126.86 125.54 126.88 124.45 126.91 123.37 C 126.46 123.35 125.57 123.31 125.13 123.29 M 131.56 126.68 C 132.20 126.74 133.49 126.86 134.13 126.92 C 133.92 125.48 133.69 124.05 133.45 122.62 C 132.72 123.92 132.24 125.35 131.56 126.68 M 135.21 124.31 C 133.74 125.30 135.37 127.86 136.83 126.69 C 138.29 125.70 136.68 123.14 135.21 124.31 M 142.38 124.33 C 140.89 125.30 142.51 127.85 143.98 126.71 C 145.47 125.73 143.85 123.16 142.38 124.33 M 146.01 124.38 C 144.56 125.38 146.20 127.93 147.66 126.75 C 149.11 125.74 147.46 123.20 146.01 124.38 M 153.16 123.93 C 153.25 125.39 153.35 126.85 153.45 128.31 C 154.39 127.38 155.32 126.43 156.24 125.48 C 155.22 124.96 154.19 124.44 153.16 123.93 M 157.17 125.22 C 155.69 126.21 157.35 128.74 158.81 127.57 C 160.31 126.57 158.62 124.04 157.17 125.22 M 163.47 125.21 C 162.04 126.49 164.17 128.94 165.53 127.44 C 166.97 126.15 164.83 123.70 163.47 125.21 Z" />
</g>
<g id="#dbad7fff">
<path fill="#dbad7f" opacity="1.00" d=" M 201.47 122.87 C 200.56 117.91 201.39 112.87 204.01 108.54 C 203.91 114.19 204.04 119.95 202.55 125.45 C 201.18 131.08 198.78 136.36 196.62 141.71 C 194.86 145.96 194.96 150.78 192.71 154.85 C 190.45 158.90 189.62 163.51 187.78 167.74 C 186.25 171.17 186.87 174.98 186.48 178.60 C 186.18 181.77 184.92 184.74 183.82 187.70 C 183.63 182.79 183.67 177.87 184.20 172.97 C 185.02 165.08 184.98 157.13 184.65 149.21 C 186.35 149.36 188.06 149.51 189.77 149.67 C 190.07 146.63 190.38 143.60 190.75 140.58 C 191.88 140.85 193.02 141.12 194.15 141.40 C 193.69 139.42 192.93 137.39 193.33 135.34 C 194.39 132.80 196.79 131.21 198.66 129.30 C 198.05 128.98 196.83 128.34 196.23 128.02 C 197.20 125.51 198.14 123.00 199.07 120.48 C 199.87 121.27 200.66 122.07 201.47 122.87 Z" />
</g>
<g id="#456935ff">
<path fill="#456935" opacity="1.00" d=" M 32.02 111.75 C 35.87 111.31 39.51 112.69 42.59 114.94 C 42.02 117.00 41.51 119.36 39.32 120.29 C 34.83 122.72 32.27 127.24 29.23 131.14 C 26.10 135.30 22.09 138.67 18.47 142.39 C 18.29 138.49 16.85 134.45 18.06 130.62 C 20.81 127.06 26.14 126.56 28.78 122.79 C 30.88 119.50 31.29 115.50 32.02 111.75 Z" />
</g>
<g id="#f7d9aeff">
<path fill="#f7d9ae" opacity="1.00" d=" M 49.43 111.25 C 53.05 111.34 56.66 111.55 60.27 111.89 C 57.48 117.07 53.44 121.43 50.58 126.57 C 48.30 130.08 46.66 134.06 43.84 137.20 C 39.84 137.69 35.82 137.06 31.83 136.75 C 34.43 133.01 37.25 129.42 39.58 125.49 C 42.53 120.52 46.35 116.14 49.43 111.25 Z" />
</g>
<g id="#e7c09dff">
<path fill="#e7c09d" opacity="1.00" d=" M 79.18 112.27 C 83.72 112.13 88.26 112.06 92.80 112.21 C 91.65 120.85 91.69 129.58 91.20 138.27 C 87.46 137.96 83.71 137.77 79.96 137.71 C 79.67 129.23 79.56 120.75 79.18 112.27 M 82.91 116.19 C 82.90 118.04 82.89 119.89 82.92 121.74 C 83.62 121.71 85.04 121.65 85.75 121.61 C 85.67 120.27 85.59 118.93 85.51 117.59 C 84.64 117.12 83.78 116.66 82.91 116.19 M 82.54 129.63 C 82.41 130.63 82.28 131.64 82.15 132.65 C 82.84 132.67 84.20 132.72 84.88 132.75 C 84.90 131.53 84.92 130.30 84.95 129.08 C 84.34 129.22 83.14 129.49 82.54 129.63 Z" />
</g>
<g id="#e5c39dff">
<path fill="#e5c39d" opacity="1.00" d=" M 45.99 137.76 C 50.60 129.89 55.18 121.92 60.93 114.81 C 60.66 122.85 62.28 131.35 59.20 139.01 C 54.78 138.73 50.37 138.39 45.99 137.76 M 55.91 129.74 C 56.56 129.63 57.88 129.42 58.54 129.32 C 58.66 127.42 58.61 125.52 58.61 123.62 C 56.83 125.18 56.34 127.51 55.91 129.74 M 52.14 133.38 C 50.41 133.52 50.14 136.68 51.98 136.86 C 53.71 136.73 53.95 133.57 52.14 133.38 Z" />
</g>
<g id="#62493bff">
<path fill="#62493b" opacity="1.00" d=" M 153.22 115.21 C 154.69 114.02 156.29 116.60 154.83 117.60 C 153.36 118.77 151.77 116.20 153.22 115.21 Z" />
</g>
<g id="#2a1c16ff">
<path fill="#2a1c16" opacity="1.00" d=" M 82.91 116.19 C 83.78 116.66 84.64 117.12 85.51 117.59 C 85.59 118.93 85.67 120.27 85.75 121.61 C 85.04 121.65 83.62 121.71 82.92 121.74 C 82.89 119.89 82.90 118.04 82.91 116.19 Z" />
</g>
<g id="#78a347ff">
<path fill="#78a347" opacity="1.00" d=" M 206.02 119.92 C 208.81 115.51 214.75 116.39 219.23 116.39 C 218.81 121.67 218.55 126.96 218.15 132.25 C 217.36 136.45 215.82 140.45 214.50 144.51 C 211.98 151.10 213.25 158.27 212.04 165.09 C 210.67 167.32 208.98 169.34 207.65 171.60 C 205.17 175.63 203.94 180.30 201.32 184.26 C 197.69 187.10 193.66 189.41 190.29 192.57 C 189.17 193.54 188.13 194.59 187.11 195.66 C 185.49 193.68 183.96 191.64 182.56 189.50 C 182.88 189.05 183.51 188.15 183.82 187.70 C 185.60 185.16 187.77 182.75 188.62 179.71 C 189.35 176.13 188.02 172.46 188.81 168.89 C 189.79 165.85 192.21 163.62 194.28 161.30 C 192.63 165.70 190.45 170.20 191.00 175.03 C 191.43 179.30 194.41 182.61 196.78 185.97 C 198.80 181.85 201.19 177.83 202.31 173.34 C 203.41 169.11 201.73 164.91 200.45 160.94 C 201.68 161.23 202.91 161.51 204.15 161.80 C 205.10 163.51 206.04 165.22 206.98 166.94 C 207.73 162.80 209.45 158.94 210.42 154.87 C 211.16 149.64 208.19 144.81 204.93 141.00 C 200.10 146.03 200.87 153.23 201.92 159.53 C 199.05 160.22 196.10 160.54 193.15 160.46 C 195.90 152.73 197.37 144.57 200.85 137.09 C 203.43 131.63 203.74 125.46 206.02 119.92 M 204.69 129.99 C 204.35 134.69 208.43 137.68 211.14 140.89 C 212.62 138.32 214.40 135.86 215.17 132.96 C 216.14 127.82 214.21 122.61 210.83 118.74 C 206.99 121.15 204.45 125.39 204.69 129.99 Z" />
</g>
<g id="#f8daaeff">
<path fill="#f8daae" opacity="1.00" d=" M 101.67 118.69 C 106.18 117.92 110.75 118.88 115.28 119.13 C 115.30 121.79 115.31 124.45 115.32 127.12 C 109.21 127.18 103.10 126.77 97.06 125.91 C 98.41 123.40 99.66 120.75 101.67 118.69 Z" />
</g>
<g id="#71914aff">
<path fill="#71914a" opacity="1.00" d=" M 209.83 136.41 C 204.07 132.96 206.39 125.14 210.17 121.09 C 213.49 125.01 214.10 130.30 213.15 135.20 C 211.96 133.01 210.90 130.75 209.71 128.56 C 209.77 131.17 209.83 133.79 209.83 136.41 Z" />
</g>
<g id="#7b644dff">
<path fill="#7b644d" opacity="1.00" d=" M 121.69 123.27 C 122.33 123.21 123.60 123.09 124.24 123.04 C 124.11 124.52 123.97 126.00 123.81 127.48 C 122.50 126.43 122.11 124.80 121.69 123.27 Z" />
</g>
<g id="#69523fff">
<path fill="#69523f" opacity="1.00" d=" M 135.21 124.31 C 136.68 123.14 138.29 125.70 136.83 126.69 C 135.37 127.86 133.74 125.30 135.21 124.31 Z" />
</g>
<g id="#574334ff">
<path fill="#574334" opacity="1.00" d=" M 146.01 124.38 C 147.46 123.20 149.11 125.74 147.66 126.75 C 146.20 127.93 144.56 125.38 146.01 124.38 Z" />
</g>
<g id="#5b873bff">
<path fill="#5b873b" opacity="1.00" d=" M 4.12 130.95 C 6.93 130.31 11.38 128.57 12.88 132.15 C 15.03 136.03 11.39 139.81 10.33 143.49 C 9.15 144.44 7.97 145.40 6.80 146.37 C 6.51 149.26 6.11 152.14 5.78 155.04 C 5.59 151.79 5.21 148.55 4.48 145.38 C 4.03 142.19 2.36 139.42 0.38 136.94 L 0.00 136.15 L 0.00 134.03 C 1.36 132.99 2.71 131.92 4.12 130.95 Z" />
</g>
<g id="#f3d7abff">
<path fill="#f3d7ab" opacity="1.00" d=" M 109.67 130.66 C 114.36 129.55 119.20 130.71 123.96 130.64 C 135.71 130.54 147.38 132.29 159.14 132.31 C 159.02 133.74 158.99 135.19 158.87 136.63 C 150.56 136.42 142.27 137.13 133.97 136.89 C 125.30 136.64 116.64 136.48 107.97 136.60 C 108.47 134.60 108.90 132.58 109.67 130.66 Z" />
</g>
<g id="#6a6276ff">
<path fill="#6a6276" opacity="1.00" d=" M 161.27 131.39 C 162.50 131.61 163.73 131.84 164.96 132.06 C 164.20 134.91 163.40 137.94 160.84 139.73 C 160.80 136.95 160.97 134.16 161.27 131.39 Z" />
</g>
<g id="#3d2c21ff">
<path fill="#3d2c21" opacity="1.00" d=" M 52.14 133.38 C 53.95 133.57 53.71 136.73 51.98 136.86 C 50.14 136.68 50.41 133.52 52.14 133.38 Z" />
</g>
<g id="#f6d9b3ff">
<path fill="#f6d9b3" opacity="1.00" d=" M 173.53 138.97 C 173.41 136.11 174.80 133.77 176.97 132.02 C 179.18 133.76 181.07 135.96 180.48 138.96 C 178.16 138.97 175.84 138.98 173.53 138.97 Z" />
</g>
<g id="#393e28ff">
<path fill="#393e28" opacity="1.00" d=" M 0.38 136.94 C 2.36 139.42 4.03 142.19 4.48 145.38 C 3.08 142.58 1.65 139.80 0.38 136.94 Z" />
</g>
<g id="#f9d8acff">
<path fill="#f9d8ac" opacity="1.00" d=" M 27.02 138.88 C 32.23 137.71 37.66 139.10 42.94 139.21 C 54.71 140.72 66.62 140.54 78.38 142.07 C 77.08 145.93 75.20 149.55 72.88 152.89 C 55.16 153.02 37.59 150.29 19.90 149.79 C 21.85 145.92 23.69 141.78 27.02 138.88 Z" />
</g>
<g id="#576181ff">
<path fill="#576181" opacity="1.00" d=" M 104.61 139.94 C 106.24 139.00 107.92 137.95 109.88 138.02 C 121.91 137.87 133.96 139.09 146.00 138.40 C 150.69 138.26 155.75 137.50 160.00 140.06 C 154.90 142.17 149.34 141.26 144.00 141.14 C 136.65 140.88 129.32 140.19 121.97 139.91 C 116.18 139.67 110.37 140.84 104.61 139.94 Z" />
</g>
<g id="#e8c39fff">
<path fill="#e8c39f" opacity="1.00" d=" M 105.84 142.21 C 122.86 140.38 139.86 143.74 156.91 143.28 C 156.91 145.53 156.92 147.77 156.92 150.02 C 139.93 151.18 122.95 149.24 105.95 149.72 C 105.90 147.22 105.87 144.71 105.84 142.21 M 121.53 144.79 C 123.70 145.58 125.97 146.00 128.27 146.11 C 127.11 143.09 123.82 143.43 121.53 144.79 M 110.72 145.66 C 113.07 146.50 115.70 146.93 117.68 145.02 C 115.32 144.37 112.83 144.22 110.72 145.66 M 131.61 145.08 C 133.54 146.85 136.02 146.66 138.33 145.83 C 136.35 144.25 133.91 144.38 131.61 145.08 M 142.29 145.40 C 142.32 145.96 142.38 147.09 142.41 147.65 C 144.34 147.54 146.28 147.44 148.21 147.34 C 148.39 146.85 148.74 145.89 148.92 145.40 C 146.71 145.40 144.50 145.39 142.29 145.40 Z" />
</g>
<g id="#646887ff">
<path fill="#646887" opacity="1.00" d=" M 74.30 154.90 C 76.52 150.50 78.76 146.10 81.56 142.04 C 82.26 143.02 82.97 144.01 83.67 144.99 C 81.40 149.26 78.87 153.40 75.88 157.21 C 75.35 156.44 74.82 155.67 74.30 154.90 Z" />
</g>
<g id="#70a644ff">
<path fill="#70a644" opacity="1.00" d=" M 6.80 146.37 C 7.97 145.40 9.15 144.44 10.33 143.49 C 11.88 144.97 13.42 146.46 14.96 147.95 C 13.67 150.78 12.40 153.61 11.14 156.45 C 12.28 156.91 13.43 157.38 14.57 157.84 C 14.57 158.18 14.56 158.84 14.55 159.18 C 14.53 160.25 14.49 161.33 14.46 162.41 C 12.46 161.23 10.46 160.05 8.46 158.87 C 8.00 161.01 7.53 163.15 7.06 165.29 C 6.52 162.18 6.01 159.05 5.73 155.91 L 5.78 155.04 C 6.11 152.14 6.51 149.26 6.80 146.37 Z" />
</g>
<g id="#281a15ff">
<path fill="#281a15" opacity="1.00" d=" M 142.29 145.40 C 144.50 145.39 146.71 145.40 148.92 145.40 C 148.74 145.89 148.39 146.85 148.21 147.34 C 146.28 147.44 144.34 147.54 142.41 147.65 C 142.38 147.09 142.32 145.96 142.29 145.40 Z" />
</g>
<g id="#797180ff">
<path fill="#797180" opacity="1.00" d=" M 163.07 145.11 C 169.83 145.55 176.77 144.87 183.38 146.67 C 176.62 147.85 169.75 147.19 162.95 147.00 C 162.98 146.53 163.04 145.58 163.07 145.11 Z" />
</g>
<g id="#798d43ff">
<path fill="#798d43" opacity="1.00" d=" M 204.52 159.35 C 201.97 154.54 201.96 148.67 204.93 144.03 C 207.73 148.10 210.16 153.63 207.66 158.41 C 206.88 156.23 206.19 154.02 205.53 151.80 C 205.24 154.32 204.91 156.84 204.52 159.35 Z" />
</g>
<g id="#e0c89bff">
<path fill="#e0c89b" opacity="1.00" d=" M 164.38 149.32 C 170.50 148.64 176.66 149.18 182.79 149.33 C 182.91 151.09 183.03 152.86 183.15 154.63 C 179.99 153.38 176.79 152.16 173.43 151.56 C 170.38 150.96 167.13 150.92 164.38 149.32 Z" />
<path fill="#e0c89b" opacity="1.00" d=" M 16.38 177.48 C 18.45 180.12 20.49 182.78 22.42 185.53 C 20.12 184.15 17.82 182.79 15.53 181.41 C 15.46 180.75 15.30 179.44 15.23 178.78 C 15.52 178.46 16.09 177.81 16.38 177.48 Z" />
</g>
<g id="#6379a2ff">
<path fill="#6379a2" opacity="1.00" d=" M 19.11 151.70 C 30.35 151.18 41.50 153.22 52.69 153.99 C 54.05 155.40 55.42 156.82 56.79 158.23 C 52.80 158.14 48.82 158.12 44.83 157.91 C 34.89 156.79 24.96 155.50 14.95 155.14 C 16.08 153.74 17.00 151.66 19.11 151.70 Z" />
</g>
<g id="#f7d8abff">
<path fill="#f7d8ab" opacity="1.00" d=" M 103.41 151.53 C 115.23 150.84 127.14 151.35 138.97 151.99 C 151.38 152.44 164.16 150.29 176.22 154.15 C 175.42 157.20 175.42 162.60 171.03 162.38 C 164.68 162.20 158.38 161.02 152.00 161.30 C 141.99 161.64 132.02 160.22 122.01 160.59 C 114.29 160.49 106.51 161.41 98.85 160.11 C 100.17 157.18 100.93 153.73 103.41 151.53 Z" />
</g>
<g id="#576488ff">
<path fill="#576488" opacity="1.00" d=" M 52.69 153.99 C 59.43 153.97 66.12 154.81 72.82 155.33 C 73.19 156.47 73.55 157.61 73.92 158.75 C 69.62 159.06 65.30 159.19 60.99 158.99 C 55.60 158.70 50.12 159.22 44.83 157.91 C 48.82 158.12 52.80 158.14 56.79 158.23 C 55.42 156.82 54.05 155.40 52.69 153.99 Z" />
</g>
<g id="#d9aa7eff">
<path fill="#d9aa7e" opacity="1.00" d=" M 73.38 161.89 C 76.58 160.31 78.73 157.43 80.83 154.66 C 80.79 158.17 81.40 162.09 79.15 165.10 C 77.85 167.55 75.33 169.73 75.62 172.73 C 75.65 174.71 75.95 176.68 75.71 178.66 C 74.90 180.77 73.41 182.53 72.09 184.35 C 72.11 176.85 72.83 169.36 73.38 161.89 Z" />
</g>
<g id="#656075ff">
<path fill="#656075" opacity="1.00" d=" M 178.12 155.15 C 178.84 155.20 180.28 155.30 181.00 155.35 C 180.01 158.92 179.11 162.76 176.17 165.29 C 176.11 161.80 176.92 158.40 178.12 155.15 Z" />
</g>
<g id="#5b8039ff">
<path fill="#5b8039" opacity="1.00" d=" M 7.11 171.79 C 4.83 166.81 5.11 161.21 5.73 155.91 C 6.01 159.05 6.52 162.18 7.06 165.29 C 7.53 163.15 8.00 161.01 8.46 158.87 C 10.46 160.05 12.46 161.23 14.46 162.41 C 14.49 161.33 14.53 160.25 14.55 159.18 C 14.59 165.72 14.43 172.28 15.23 178.78 C 15.30 179.44 15.46 180.75 15.53 181.41 L 14.89 180.99 C 11.88 178.34 8.66 175.60 7.11 171.79 Z" />
</g>
<g id="#edcdadff">
<path fill="#edcdad" opacity="1.00" d=" M 16.35 157.13 C 26.03 157.04 35.61 158.51 45.17 159.81 C 53.81 161.04 62.56 160.96 71.26 160.99 C 71.33 166.89 70.97 172.78 70.94 178.69 C 69.17 176.17 67.21 171.83 63.39 173.27 C 58.08 174.71 57.31 180.91 55.87 185.35 C 52.82 185.30 49.78 185.25 46.73 185.16 C 47.47 182.96 47.96 180.62 49.19 178.62 C 50.71 177.56 52.53 177.04 54.22 176.32 C 51.55 173.98 49.11 171.22 45.83 169.71 C 42.19 170.43 39.21 172.79 36.13 174.71 C 36.47 176.19 36.81 177.67 37.07 179.16 C 37.17 180.80 37.14 182.44 37.02 184.08 C 33.57 183.64 30.14 183.03 26.73 182.31 C 28.30 178.57 31.06 174.86 30.52 170.62 C 28.89 167.13 25.47 164.81 23.87 161.25 C 23.24 161.22 22.61 161.20 21.99 161.18 C 20.63 164.77 18.79 168.15 16.46 171.20 C 16.27 166.51 16.30 161.82 16.35 157.13 M 35.09 162.87 C 35.52 163.84 35.94 164.81 36.36 165.79 C 37.80 165.81 39.24 165.83 40.67 165.85 C 40.70 165.18 40.74 163.83 40.76 163.16 C 38.87 163.05 36.98 162.96 35.09 162.87 M 51.54 163.59 C 49.28 163.44 50.17 165.90 51.46 166.62 C 52.95 166.96 54.57 166.71 55.80 165.77 C 56.30 163.39 53.19 162.99 51.54 163.59 M 63.55 164.62 C 62.62 166.65 65.60 167.10 66.69 168.20 C 67.12 166.84 67.54 165.48 67.95 164.12 C 66.48 164.26 65.00 164.36 63.55 164.62 Z" />
</g>
<g id="#65779bff">
<path fill="#65779b" opacity="1.00" d=" M 97.20 161.96 C 105.46 162.54 113.74 162.09 122.01 162.02 C 130.36 161.88 138.65 163.26 147.01 163.11 C 152.67 163.03 158.34 163.35 163.98 163.84 C 168.12 164.27 172.75 163.68 176.20 166.50 C 157.81 167.23 139.40 166.44 121.03 165.41 C 112.54 164.96 103.94 166.12 95.54 164.46 C 95.95 163.84 96.78 162.59 97.20 161.96 Z" />
</g>
<g id="#30231cff">
<path fill="#30231c" opacity="1.00" d=" M 35.09 162.87 C 36.98 162.96 38.87 163.05 40.76 163.16 C 40.74 163.83 40.70 165.18 40.67 165.85 C 39.24 165.83 37.80 165.81 36.36 165.79 C 35.94 164.81 35.52 163.84 35.09 162.87 Z" />
</g>
<g id="#32251bff">
<path fill="#32251b" opacity="1.00" d=" M 51.54 163.59 C 53.19 162.99 56.30 163.39 55.80 165.77 C 54.57 166.71 52.95 166.96 51.46 166.62 C 50.17 165.90 49.28 163.44 51.54 163.59 Z" />
</g>
<g id="#728f3eff">
<path fill="#728f3e" opacity="1.00" d=" M 194.17 166.27 C 194.94 164.31 197.13 163.66 198.78 162.67 C 201.11 168.04 201.21 174.21 198.40 179.44 C 198.03 176.84 197.70 174.24 197.32 171.65 C 196.55 174.37 195.98 177.14 195.51 179.94 C 195.02 179.78 194.03 179.47 193.54 179.31 C 192.95 175.00 192.24 170.36 194.17 166.27 Z" />
</g>
<g id="#f9e0b8ff">
<path fill="#f9e0b8" opacity="1.00" d=" M 81.04 164.89 C 86.53 164.91 92.15 165.20 97.14 167.76 C 91.36 167.97 85.58 168.00 79.80 167.88 C 80.21 166.89 80.63 165.89 81.04 164.89 Z" />
</g>
<g id="#6c9142ff">
<path fill="#6c9142" opacity="1.00" d=" M 18.89 172.13 C 19.60 169.84 21.02 166.24 23.98 166.78 C 26.92 166.84 28.87 170.13 28.61 172.82 C 27.97 175.55 26.15 177.77 24.74 180.13 C 24.36 177.82 23.96 175.47 22.64 173.48 C 22.22 176.08 21.92 178.70 21.61 181.32 C 19.37 178.82 17.76 175.53 18.89 172.13 Z" />
</g>
<g id="#f1d2b3ff">
<path fill="#f1d2b3" opacity="1.00" d=" M 98.73 167.06 C 112.84 166.60 126.93 167.82 141.04 168.05 C 152.26 169.01 163.54 168.31 174.77 169.14 C 174.30 173.21 175.97 178.35 172.71 181.55 C 170.14 182.58 167.25 182.49 164.65 183.53 C 166.31 183.92 167.98 184.32 169.66 184.64 C 168.75 187.27 167.91 189.92 167.06 192.57 C 163.67 192.08 160.29 191.51 156.91 190.90 C 156.86 188.32 157.19 185.70 158.98 183.71 C 155.41 183.18 153.51 179.57 150.19 178.77 C 148.29 182.55 147.42 186.71 146.50 190.80 C 144.32 191.10 142.14 191.37 139.97 191.65 C 139.36 186.36 137.19 180.53 131.92 178.36 C 126.42 178.98 126.51 186.07 125.32 190.17 C 123.14 190.16 120.97 190.14 118.80 190.11 C 119.22 187.19 119.72 184.28 120.43 181.41 C 118.69 180.06 116.96 178.72 115.21 177.39 C 111.83 179.67 107.90 180.83 103.85 181.03 C 105.15 181.87 106.46 182.70 107.77 183.53 C 106.71 185.19 106.38 187.99 103.95 188.06 C 102.45 188.29 100.73 188.55 99.40 187.64 C 97.85 180.91 98.75 173.90 98.73 167.06 M 114.61 171.39 C 116.72 172.81 119.57 173.89 121.42 171.41 C 119.15 171.27 116.88 171.28 114.61 171.39 M 126.54 172.73 C 128.68 172.99 130.83 173.25 132.99 173.40 C 132.97 172.72 132.92 171.36 132.90 170.69 C 130.66 170.95 128.40 171.35 126.54 172.73 M 141.62 172.09 C 143.78 173.70 146.23 173.73 148.38 172.09 C 146.16 171.39 143.84 171.40 141.62 172.09 M 102.86 172.97 C 105.03 174.05 108.60 175.12 109.39 171.82 C 107.17 171.85 104.96 172.20 102.86 172.97 M 153.93 172.99 C 155.87 173.99 158.17 174.54 160.01 172.98 C 158.01 171.73 155.92 171.71 153.93 172.99 M 165.58 171.83 C 165.85 175.10 169.05 174.27 170.96 173.03 C 169.18 172.55 167.38 172.16 165.58 171.83 M 142.91 182.13 C 142.90 182.68 142.87 183.77 142.85 184.31 C 144.25 184.32 145.65 184.32 147.06 184.33 C 147.03 183.78 146.97 182.68 146.94 182.14 C 145.60 182.13 144.25 182.13 142.91 182.13 Z" />
</g>
<g id="#c9a37cff">
<path fill="#c9a37c" opacity="1.00" d=" M 176.24 168.84 C 179.49 171.36 179.29 175.47 179.17 179.19 C 178.40 179.14 176.86 179.03 176.08 178.98 C 176.04 175.60 176.05 172.21 176.24 168.84 Z" />
</g>
<g id="#726777ff">
<path fill="#726777" opacity="1.00" d=" M 78.30 169.87 C 83.20 170.03 88.11 169.59 93.01 169.74 C 94.83 169.57 96.16 170.90 97.54 171.83 C 90.65 172.26 83.74 171.75 76.84 171.78 C 77.20 171.30 77.93 170.35 78.30 169.87 Z" />
</g>
<g id="#708d44ff">
<path fill="#708d44" opacity="1.00" d=" M 41.73 187.32 C 36.19 182.17 40.28 172.42 47.17 170.93 C 48.24 175.28 47.02 179.60 44.70 183.32 C 44.33 181.42 43.96 179.52 43.60 177.63 C 42.87 180.83 42.30 184.08 41.73 187.32 Z" />
</g>
<g id="#5a4737ff">
<path fill="#5a4737" opacity="1.00" d=" M 126.54 172.73 C 128.40 171.35 130.66 170.95 132.90 170.69 C 132.92 171.36 132.97 172.72 132.99 173.40 C 130.83 173.25 128.68 172.99 126.54 172.73 Z" />
</g>
<g id="#644b3cff">
<path fill="#644b3c" opacity="1.00" d=" M 102.86 172.97 C 104.96 172.20 107.17 171.85 109.39 171.82 C 108.60 175.12 105.03 174.05 102.86 172.97 Z" />
</g>
<g id="#5a4a38ff">
<path fill="#5a4a38" opacity="1.00" d=" M 153.93 172.99 C 155.92 171.71 158.01 171.73 160.01 172.98 C 158.17 174.54 155.87 173.99 153.93 172.99 Z" />
</g>
<g id="#604b3cff">
<path fill="#604b3c" opacity="1.00" d=" M 165.58 171.83 C 167.38 172.16 169.18 172.55 170.96 173.03 C 169.05 174.27 165.85 175.10 165.58 171.83 Z" />
</g>
<g id="#daab7aff">
<path fill="#daab7a" opacity="1.00" d=" M 77.79 173.78 C 84.13 173.46 90.48 173.57 96.78 174.32 C 96.82 176.15 96.85 177.98 96.89 179.82 C 90.54 179.83 84.17 179.97 77.85 179.25 C 77.84 177.42 77.81 175.60 77.79 173.78 Z" />
</g>
<g id="#6e8f44ff">
<path fill="#6e8f44" opacity="1.00" d=" M 60.33 178.34 C 61.80 176.14 65.45 173.46 67.47 176.51 C 70.96 180.52 66.96 185.66 63.73 188.39 C 63.68 185.81 63.66 183.22 63.50 180.64 C 62.21 183.16 61.31 185.84 60.52 188.55 C 58.61 185.48 57.87 181.34 60.33 178.34 Z" />
</g>
<g id="#84aa49ff">
<path fill="#84aa49" opacity="1.00" d=" M 37.02 184.08 C 37.14 182.44 37.17 180.80 37.07 179.16 C 37.21 184.36 40.66 188.18 43.31 192.29 L 43.11 193.13 C 36.29 190.89 27.86 190.73 23.22 184.43 C 27.75 184.66 32.22 185.39 36.74 185.75 C 36.81 185.33 36.95 184.50 37.02 184.08 Z" />
</g>
<g id="#63903eff">
<path fill="#63903e" opacity="1.00" d=" M 108.75 186.05 C 109.32 182.15 113.39 179.68 117.15 180.62 C 117.32 184.46 117.07 188.31 116.19 192.06 C 115.17 191.01 114.16 189.95 113.15 188.89 C 112.99 191.33 112.82 193.77 112.61 196.21 C 110.43 193.28 108.02 189.93 108.75 186.05 Z" />
</g>
<g id="#7c904cff">
<path fill="#7c904c" opacity="1.00" d=" M 128.88 194.98 C 127.50 189.97 127.61 184.06 131.72 180.31 C 133.62 182.43 135.97 184.40 136.83 187.22 C 137.55 190.11 135.64 192.71 134.55 195.24 C 134.06 191.71 133.48 188.17 132.32 184.79 C 132.00 188.26 131.94 191.74 132.00 195.22 C 131.22 195.16 129.66 195.04 128.88 194.98 Z" />
</g>
<g id="#7d8c51ff">
<path fill="#7d8c51" opacity="1.00" d=" M 171.26 186.33 C 172.36 183.75 174.92 182.32 177.10 180.77 C 177.76 184.49 177.86 188.47 175.31 191.56 C 174.97 189.27 174.71 186.98 174.38 184.69 C 173.21 187.81 172.44 191.07 172.08 194.39 C 171.50 193.97 170.35 193.14 169.77 192.73 C 170.16 190.57 170.42 188.36 171.26 186.33 Z" />
</g>
<g id="#594034ff">
<path fill="#594034" opacity="1.00" d=" M 142.91 182.13 C 144.25 182.13 145.60 182.13 146.94 182.14 C 146.97 182.68 147.03 183.78 147.06 184.33 C 145.65 184.32 144.25 184.32 142.85 184.31 C 142.87 183.77 142.90 182.68 142.91 182.13 Z" />
</g>
<g id="#7e8d55ff">
<path fill="#7e8d55" opacity="1.00" d=" M 151.21 181.51 C 155.76 185.05 155.97 191.50 153.48 196.33 C 152.85 193.00 153.43 189.17 151.13 186.38 C 150.80 189.72 150.73 193.08 150.52 196.43 C 147.29 191.83 149.42 186.22 151.21 181.51 Z" />
</g>
<g id="#43492eff">
<path fill="#43492e" opacity="1.00" d=" M 190.29 192.57 C 193.66 189.41 197.69 187.10 201.32 184.26 C 198.99 188.52 194.79 191.12 190.29 192.57 Z" />
</g>
<g id="#d5cd9aff">
<path fill="#d5cd9a" opacity="1.00" d=" M 69.08 185.28 C 72.41 185.42 67.54 188.26 69.08 185.28 Z" />
</g>
<g id="#638e3dff">
<path fill="#638e3d" opacity="1.00" d=" M 45.60 187.71 C 48.25 186.58 51.24 186.61 54.07 186.88 C 57.87 187.13 59.92 190.74 62.14 193.35 C 63.75 191.48 65.13 188.73 67.94 188.66 C 73.73 188.14 79.56 188.59 85.37 188.40 C 88.96 188.63 92.55 188.75 96.14 189.05 C 99.56 189.37 102.99 189.69 106.42 189.92 C 108.76 193.52 111.10 197.12 113.32 200.79 C 104.45 200.33 95.57 200.01 86.69 200.43 C 73.87 198.54 60.41 200.77 48.13 195.85 C 46.45 194.95 44.81 193.97 43.11 193.13 L 43.31 192.29 C 43.89 190.69 44.35 188.93 45.60 187.71 Z" />
</g>
<g id="#638440ff">
<path fill="#638440" opacity="1.00" d=" M 180.52 186.80 L 181.00 187.46 C 181.51 188.15 182.04 188.82 182.56 189.50 C 183.96 191.64 185.49 193.68 187.11 195.66 C 184.16 198.92 180.79 202.57 176.05 202.66 C 169.41 202.81 162.68 201.63 156.12 203.28 C 159.23 200.82 162.02 197.99 164.80 195.18 C 166.34 195.99 167.89 196.80 169.44 197.62 C 169.39 196.71 169.34 195.81 169.30 194.91 C 171.04 196.51 172.59 198.29 174.15 200.06 C 175.64 195.36 177.97 191.01 180.52 186.80 Z" />
</g>
<g id="#658d40ff">
<path fill="#658d40" opacity="1.00" d=" M 118.80 190.11 C 120.97 190.14 123.14 190.16 125.32 190.17 C 125.88 192.08 126.29 194.07 127.25 195.83 C 128.88 197.05 130.86 197.65 132.72 198.43 C 132.87 200.09 133.01 201.75 133.15 203.41 C 127.04 202.80 120.93 202.18 114.78 202.02 C 114.97 198.66 115.69 195.36 117.11 192.30 C 119.93 192.12 122.75 191.86 125.55 191.54 C 123.32 190.99 121.05 190.58 118.80 190.11 Z" />
</g>
<g id="#73a746ff">
<path fill="#73a746" opacity="1.00" d=" M 134.37 198.74 C 135.02 193.49 142.01 191.70 146.16 193.85 C 148.74 196.07 150.35 199.15 152.19 201.96 C 153.78 198.96 155.43 196.00 157.09 193.04 C 161.17 193.54 165.28 193.98 169.30 194.91 C 169.34 195.81 169.39 196.71 169.44 197.62 C 167.89 196.80 166.34 195.99 164.80 195.18 C 162.02 197.99 159.23 200.82 156.12 203.28 L 155.31 203.49 C 150.78 203.80 146.23 203.69 141.71 203.36 L 140.89 203.16 C 138.62 202.03 134.30 202.05 134.37 198.74 Z" />
</g>
<g id="#504a33ff">
<path fill="#504a33" opacity="1.00" d=" M 141.71 203.36 C 146.23 203.69 150.78 203.80 155.31 203.49 C 150.89 205.29 146.08 205.29 141.71 203.36 Z" />
</g>
</svg>
