<?xml version="1.0" encoding="UTF-8" ?>
<!DOCTYPE svg PUBLIC "-//W3C//DTD SVG 1.1//EN" "http://www.w3.org/Graphics/SVG/1.1/DTD/svg11.dtd">
<svg width="92pt" height="111pt" viewBox="0 0 92 111" version="1.1" xmlns="http://www.w3.org/2000/svg">
<g id="#675d626b">
<path fill="#675d62" opacity="0.42" d=" M 13.48 0.00 L 16.43 0.00 C 17.23 0.46 18.83 1.39 19.62 1.85 C 18.95 1.88 17.61 1.94 16.94 1.97 C 16.71 1.64 16.25 1.00 16.02 0.68 L 15.23 0.93 C 14.69 1.12 13.59 1.52 13.05 1.71 C 13.15 1.28 13.37 0.43 13.48 0.00 Z" />
</g>
<g id="#503b465f">
<path fill="#503b46" opacity="0.37" d=" M 82.37 0.00 L 85.14 0.00 L 85.11 0.58 C 83.86 1.37 82.42 1.97 80.91 1.75 C 81.27 1.31 82.01 0.44 82.37 0.00 Z" />
</g>
<g id="#e3d9dee7">
<path fill="#e3d9de" opacity="0.91" d=" M 85.14 0.00 L 91.08 0.00 L 90.89 0.88 C 88.97 1.35 86.96 1.30 85.11 0.58 L 85.14 0.00 Z" />
</g>
<g id="#d0528dff">
<path fill="#d0528d" opacity="1.00" d=" M 13.05 1.71 C 13.59 1.52 14.69 1.12 15.23 0.93 L 15.18 1.70 C 15.12 2.33 15.02 3.59 14.96 4.22 C 15.44 3.83 16.39 3.05 16.87 2.66 C 19.87 2.80 22.99 2.62 25.82 3.82 C 24.41 5.59 23.34 7.58 22.49 9.67 L 23.99 9.46 C 23.28 10.40 22.53 11.32 21.80 12.25 C 24.19 12.33 26.59 12.45 28.98 12.57 C 27.13 13.02 25.26 13.40 23.40 13.77 C 22.19 13.81 20.99 13.87 19.79 13.94 C 20.40 13.38 21.61 12.24 22.22 11.68 C 21.01 10.43 19.68 10.10 18.23 10.71 C 20.23 8.20 22.83 6.19 24.44 3.37 C 21.86 3.33 19.28 3.35 16.71 3.38 C 12.94 6.90 8.81 10.01 5.30 13.80 C 7.95 14.13 10.60 14.44 13.24 14.82 C 13.80 14.52 14.91 13.93 15.47 13.64 C 15.11 13.95 14.38 14.58 14.02 14.90 C 11.92 14.91 9.72 14.81 7.85 15.96 C 6.38 15.99 4.92 16.05 3.45 16.10 C 4.69 23.70 3.41 31.38 4.03 39.01 C 2.14 39.64 2.37 42.11 3.88 43.03 L 3.88 43.53 C 3.35 43.63 2.30 43.82 1.78 43.92 C 2.02 41.29 2.09 38.64 1.98 35.99 C 3.81 34.76 3.62 32.19 2.08 30.80 C 1.96 28.41 1.97 26.01 2.11 23.62 C 2.57 20.39 2.87 17.13 3.67 13.95 C 3.16 14.39 2.16 15.28 1.65 15.73 L 1.05 16.13 C 0.88 15.24 0.54 13.45 0.38 12.55 L 1.65 12.85 C 2.05 13.18 2.84 13.82 3.24 14.15 C 4.21 12.74 5.17 11.32 6.16 9.93 C 7.09 9.08 8.02 8.23 8.95 7.38 C 10.63 6.18 12.32 4.99 13.99 3.78 C 13.71 3.41 13.15 2.68 12.87 2.31 L 13.05 1.71 Z" />
<path fill="#d0528d" opacity="1.00" d=" M 64.14 6.33 C 64.80 6.12 66.12 5.69 66.78 5.47 L 67.24 5.48 C 70.95 5.47 74.67 5.42 78.37 5.00 C 78.05 5.51 77.43 6.54 77.11 7.05 C 73.37 6.73 69.57 5.99 65.90 7.21 C 59.86 7.61 53.78 6.60 47.71 7.06 C 46.80 8.03 45.88 8.99 44.83 9.81 C 44.45 9.79 43.69 9.76 43.30 9.74 C 43.52 10.15 43.96 10.95 44.18 11.35 C 44.04 11.84 43.75 12.82 43.61 13.31 C 47.85 13.45 52.08 13.63 56.30 14.01 C 51.97 14.20 47.63 14.20 43.30 14.45 C 42.81 14.32 41.82 14.07 41.33 13.95 C 41.64 13.49 42.27 12.57 42.58 12.11 C 41.97 12.26 40.76 12.55 40.15 12.69 C 41.09 10.42 42.42 8.36 43.84 6.37 C 50.60 6.41 57.37 6.58 64.14 6.33 Z" />
<path fill="#d0528d" opacity="1.00" d=" M 38.92 15.14 L 39.19 15.10 L 39.96 16.11 C 40.74 17.78 43.15 17.61 44.02 16.12 C 45.40 16.40 46.77 16.67 48.16 16.90 C 46.85 17.19 45.54 17.50 44.24 17.81 C 42.38 17.65 40.52 17.40 38.66 17.18 C 38.76 19.08 38.87 20.98 38.97 22.88 L 37.33 22.78 L 37.06 23.99 C 40.88 23.73 44.79 23.48 48.50 24.64 C 44.88 24.89 41.24 24.86 37.65 24.29 C 36.32 26.05 34.81 27.68 33.11 29.11 C 34.13 29.38 35.15 29.65 36.17 29.90 C 35.38 29.91 33.81 29.92 33.02 29.93 C 32.96 29.31 32.86 28.06 32.81 27.43 L 31.64 27.73 C 32.41 27.12 33.16 26.50 33.91 25.87 C 33.91 25.22 33.91 23.93 33.91 23.28 L 35.09 23.10 C 35.57 23.04 36.53 22.91 37.00 22.85 C 36.99 21.39 36.98 19.93 36.97 18.47 C 37.61 17.35 38.23 16.23 38.92 15.14 M 34.90 24.23 C 33.24 27.19 38.22 24.49 34.90 24.23 Z" />
<path fill="#d0528d" opacity="1.00" d=" M 82.16 17.14 L 82.77 17.17 C 84.00 18.61 83.16 20.49 82.38 21.90 C 82.09 20.35 81.44 18.67 82.16 17.14 Z" />
<path fill="#d0528d" opacity="1.00" d=" M 82.97 31.14 C 82.95 28.27 83.17 25.41 83.73 22.59 C 83.56 25.45 83.28 28.30 82.97 31.14 Z" />
<path fill="#d0528d" opacity="1.00" d=" M 39.68 30.45 C 43.93 30.54 48.17 30.25 52.41 30.24 C 48.23 31.27 43.89 31.30 39.68 30.45 Z" />
<path fill="#d0528d" opacity="1.00" d=" M 28.11 64.04 C 28.08 61.27 28.50 58.54 28.81 55.80 C 28.75 58.50 28.73 61.29 29.89 63.79 C 29.80 65.60 29.55 67.39 29.33 69.18 C 29.18 67.42 28.68 65.71 28.11 64.04 Z" />
<path fill="#d0528d" opacity="1.00" d=" M 10.20 57.44 C 12.84 58.87 8.62 63.43 7.32 60.43 C 7.80 60.15 8.76 59.60 9.25 59.32 C 9.48 58.85 9.96 57.91 10.20 57.44 Z" />
<path fill="#d0528d" opacity="1.00" d=" M 61.27 79.00 L 62.06 79.00 C 61.85 86.09 61.59 93.18 61.94 100.27 C 61.56 101.34 61.26 102.43 61.01 103.54 C 60.92 104.26 60.75 105.70 60.66 106.43 C 60.31 104.85 59.40 103.81 57.91 103.30 C 58.01 100.78 58.19 98.26 58.60 95.76 C 58.98 97.28 59.42 98.78 59.90 100.27 C 60.14 99.72 60.61 98.61 60.84 98.05 C 61.33 91.73 60.93 85.34 61.27 79.00 Z" />
<path fill="#d0528d" opacity="1.00" d=" M 81.18 94.75 C 81.74 98.20 82.10 101.70 81.75 105.19 C 81.43 101.72 81.13 98.24 81.18 94.75 Z" />
<path fill="#d0528d" opacity="1.00" d=" M 48.99 102.26 C 49.80 102.19 51.41 102.03 52.22 101.95 L 51.47 102.90 C 50.67 103.79 50.54 104.77 51.07 105.84 C 50.57 105.82 49.55 105.77 49.05 105.75 C 49.38 104.58 49.36 103.42 48.99 102.26 Z" />
</g>
<g id="#d7adc8e4">
<path fill="#d7adc8" opacity="0.89" d=" M 15.23 0.93 L 16.02 0.68 C 16.25 1.00 16.71 1.64 16.94 1.97 C 16.50 1.90 15.62 1.77 15.18 1.70 L 15.23 0.93 Z" />
</g>
<g id="#360f2bff">
<path fill="#360f2b" opacity="1.00" d=" M 19.62 1.85 C 22.34 2.17 25.08 2.16 27.82 2.13 L 27.76 2.13 C 26.89 3.70 26.23 5.37 25.58 7.04 C 25.11 7.88 24.58 8.69 23.99 9.46 L 22.49 9.67 C 23.34 7.58 24.41 5.59 25.82 3.82 C 22.99 2.62 19.87 2.80 16.87 2.66 C 16.39 3.05 15.44 3.83 14.96 4.22 C 15.02 3.59 15.12 2.33 15.18 1.70 C 15.62 1.77 16.50 1.90 16.94 1.97 C 17.61 1.94 18.95 1.88 19.62 1.85 Z" />
<path fill="#360f2b" opacity="1.00" d=" M 47.71 7.06 C 53.78 6.60 59.86 7.61 65.90 7.21 C 65.57 7.83 64.89 9.05 64.55 9.66 C 63.71 9.04 62.89 8.41 62.06 7.78 C 60.29 7.63 58.52 7.48 56.75 7.35 C 58.16 9.00 59.63 10.61 61.12 12.18 L 61.99 9.30 C 62.46 9.96 62.92 10.62 63.37 11.30 C 62.94 11.73 62.08 12.58 61.65 13.00 L 61.06 13.60 C 60.82 14.00 60.35 14.78 60.12 15.18 C 54.91 15.11 49.70 15.11 44.49 14.83 L 43.30 14.45 C 47.63 14.20 51.97 14.20 56.30 14.01 C 57.23 14.02 59.08 14.03 60.00 14.03 C 58.71 11.94 57.31 9.91 55.95 7.86 C 53.58 7.77 51.22 7.71 48.85 7.69 C 47.33 8.95 45.81 10.23 44.18 11.35 C 43.96 10.95 43.52 10.15 43.30 9.74 C 43.69 9.76 44.45 9.79 44.83 9.81 C 45.88 8.99 46.80 8.03 47.71 7.06 Z" />
<path fill="#360f2b" opacity="1.00" d=" M 44.24 17.81 C 45.54 17.50 46.85 17.19 48.16 16.90 C 52.24 16.90 56.33 16.89 60.41 17.00 C 60.47 17.15 60.58 17.45 60.63 17.61 L 60.07 17.67 L 59.00 17.78 C 58.55 17.79 57.64 17.81 57.19 17.81 C 52.89 18.20 48.54 18.24 44.24 17.81 Z" />
<path fill="#360f2b" opacity="1.00" d=" M 48.29 36.14 C 49.97 36.04 49.90 38.98 48.35 39.12 C 46.91 38.92 46.97 36.49 48.29 36.14 Z" />
<path fill="#360f2b" opacity="1.00" d=" M 74.32 43.58 C 74.94 43.53 76.17 43.43 76.79 43.38 C 76.90 44.63 77.00 45.88 77.10 47.13 C 76.33 47.10 74.79 47.04 74.02 47.01 C 74.12 45.87 74.22 44.73 74.32 43.58 Z" />
<path fill="#360f2b" opacity="1.00" d=" M 74.28 57.22 C 75.36 57.25 76.44 57.29 77.52 57.33 C 77.58 58.47 77.65 59.62 77.72 60.76 C 76.62 60.75 75.53 60.73 74.45 60.70 C 74.39 59.54 74.33 58.38 74.28 57.22 Z" />
<path fill="#360f2b" opacity="1.00" d=" M 53.57 62.64 C 53.85 61.46 53.52 59.12 55.36 60.40 C 55.32 60.80 55.24 61.60 55.20 62.01 C 54.79 62.16 53.98 62.48 53.57 62.64 Z" />
<path fill="#360f2b" opacity="1.00" d=" M 64.50 76.54 C 64.96 76.57 65.88 76.62 66.33 76.65 C 66.50 77.93 66.66 79.21 66.81 80.50 C 66.07 80.60 64.61 80.82 63.87 80.92 C 64.05 79.45 64.26 77.99 64.50 76.54 Z" />
<path fill="#360f2b" opacity="1.00" d=" M 52.28 96.53 C 53.74 95.28 55.25 97.85 53.83 98.84 C 52.35 100.23 50.79 97.49 52.28 96.53 Z" />
</g>
<g id="#952143ff">
<path fill="#952143" opacity="1.00" d=" M 80.91 1.75 C 82.42 1.97 83.86 1.37 85.11 0.58 C 86.96 1.30 88.97 1.35 90.89 0.88 C 90.88 1.33 90.86 2.25 90.84 2.70 C 88.19 2.30 85.51 2.06 82.82 2.23 C 79.81 6.49 76.30 10.39 73.68 14.93 C 76.52 15.27 79.37 15.64 82.23 15.73 C 80.25 16.09 78.28 16.44 76.30 16.76 C 74.89 16.75 73.48 16.72 72.07 16.70 C 72.13 24.84 71.11 32.93 71.07 41.06 C 71.16 36.90 70.76 32.76 70.11 28.65 C 70.89 23.73 69.91 18.22 72.30 13.73 C 72.80 13.16 73.30 12.59 73.80 12.02 C 75.02 10.44 76.10 8.77 77.11 7.05 C 77.43 6.54 78.05 5.51 78.37 5.00 L 79.07 4.70 L 79.55 4.53 L 79.75 4.07 C 80.04 3.49 80.62 2.33 80.91 1.75 Z" />
<path fill="#952143" opacity="1.00" d=" M 40.15 12.69 C 40.76 12.55 41.97 12.26 42.58 12.11 C 42.27 12.57 41.64 13.49 41.33 13.95 C 41.82 14.07 42.81 14.32 43.30 14.45 L 44.49 14.83 C 42.72 14.88 40.95 14.97 39.19 15.10 L 38.92 15.14 C 38.23 16.23 37.61 17.35 36.97 18.47 C 36.98 17.69 37.01 16.14 37.02 15.36 C 37.43 14.94 38.24 14.10 38.65 13.68 C 39.14 13.34 39.64 13.01 40.15 12.69 Z" />
<path fill="#952143" opacity="1.00" d=" M 61.06 13.60 L 61.65 13.00 L 61.64 13.69 C 61.99 19.37 61.85 25.07 62.28 30.74 C 62.29 32.30 62.23 33.86 62.13 35.41 C 61.64 35.62 60.66 36.05 60.18 36.26 C 59.78 39.18 60.05 42.14 60.13 45.07 C 60.43 51.19 59.91 57.34 60.66 63.44 C 60.71 64.08 60.82 65.35 60.88 65.98 C 61.21 66.25 61.89 66.80 62.22 67.07 L 62.83 67.57 C 62.53 71.38 62.13 75.18 62.06 79.00 L 61.27 79.00 L 59.99 79.00 C 60.10 83.19 60.13 87.43 59.22 91.55 C 59.48 81.35 58.72 71.14 59.67 60.97 C 59.63 51.12 59.84 41.25 59.30 31.40 C 57.35 31.46 55.39 31.53 53.45 31.65 L 54.58 31.42 C 56.44 31.03 58.33 30.79 60.20 30.41 L 60.68 29.81 C 60.68 28.34 60.62 26.87 60.57 25.40 C 59.84 25.36 58.37 25.29 57.64 25.25 L 58.86 24.12 C 59.25 23.91 60.03 23.48 60.42 23.26 C 60.30 21.40 60.19 19.53 60.07 17.67 L 60.63 17.61 C 60.58 17.45 60.47 17.15 60.41 17.00 C 60.34 16.54 60.19 15.63 60.12 15.18 C 60.35 14.78 60.82 14.00 61.06 13.60 Z" />
<path fill="#952143" opacity="1.00" d=" M 88.47 38.91 C 88.94 32.87 88.19 26.81 88.88 20.79 C 89.78 27.04 88.52 33.39 89.84 39.59 C 89.94 40.32 90.14 41.78 90.24 42.51 C 89.61 46.40 90.15 50.30 90.37 54.19 C 89.78 54.69 88.59 55.69 87.99 56.18 C 88.12 50.42 88.06 44.66 88.47 38.91 Z" />
<path fill="#952143" opacity="1.00" d=" M 68.03 102.66 C 68.12 97.33 68.50 92.03 68.86 86.72 C 68.88 89.72 69.24 92.71 69.80 95.66 C 69.93 98.69 69.96 101.73 70.01 104.77 C 68.73 104.46 67.43 104.17 66.14 103.91 C 64.98 103.75 63.81 103.65 62.64 103.61 L 61.01 103.54 C 61.26 102.43 61.56 101.34 61.94 100.27 C 61.97 100.78 62.04 101.81 62.08 102.32 C 64.07 102.38 66.05 102.50 68.03 102.66 Z" />
<path fill="#952143" opacity="1.00" d=" M 32.11 100.21 C 37.42 99.88 42.73 100.29 48.01 100.75 C 47.50 101.01 46.47 101.52 45.96 101.78 C 44.48 102.43 44.57 104.48 44.99 105.78 C 44.43 105.78 43.32 105.78 42.76 105.78 C 43.49 104.40 44.57 101.58 41.96 101.67 C 41.84 101.77 41.61 101.97 41.50 102.07 C 40.83 101.89 39.49 101.53 38.81 101.35 C 39.02 103.13 39.23 104.91 39.52 106.69 C 38.83 106.71 37.44 106.75 36.75 106.77 L 37.08 105.58 C 37.40 104.52 37.66 103.45 37.94 102.38 C 37.45 102.09 36.48 101.50 35.99 101.20 C 36.07 102.75 36.16 104.30 36.25 105.85 C 35.68 106.03 34.54 106.37 33.97 106.55 C 34.44 104.57 35.08 102.33 33.58 100.61 C 33.41 101.15 33.07 102.24 32.89 102.78 C 32.55 103.91 32.21 105.03 31.87 106.16 C 30.58 106.18 29.30 106.20 28.01 106.22 L 28.01 105.56 C 28.92 105.50 30.74 105.36 31.65 105.30 C 31.79 103.60 31.95 101.90 32.11 100.21 Z" />
<path fill="#952143" opacity="1.00" d=" M 1.30 102.75 C 1.67 102.92 2.39 103.27 2.76 103.44 C 2.74 103.97 2.71 105.03 2.69 105.56 C 6.23 105.83 9.77 105.96 13.31 106.20 L 12.99 107.26 C 11.12 107.16 9.24 106.99 7.37 106.85 C 4.92 106.65 2.46 106.68 0.00 106.80 L 0.00 106.20 C 0.72 105.17 1.16 104.02 1.30 102.75 Z" />
</g>
<g id="#5d485765">
<path fill="#5d4857" opacity="0.40" d=" M 27.82 2.13 C 28.29 2.12 29.24 2.09 29.71 2.07 C 29.74 2.76 29.79 4.12 29.82 4.81 C 31.56 5.19 36.70 4.38 35.20 7.52 C 33.87 5.61 31.49 5.89 29.46 5.79 C 28.95 4.54 28.39 3.32 27.76 2.13 L 27.82 2.13 Z" />
</g>
<g id="#f7f9f9ff">
<path fill="#f7f9f9" opacity="1.00" d=" M 82.82 2.23 C 85.51 2.06 88.19 2.30 90.84 2.70 C 91.83 5.02 91.12 7.57 90.94 9.97 C 90.36 13.99 91.02 18.09 90.23 22.08 C 89.84 17.24 90.22 12.41 90.41 7.58 C 90.37 6.41 91.02 4.20 89.25 4.34 C 86.55 7.23 85.96 11.48 84.75 15.14 C 83.92 15.37 83.08 15.56 82.23 15.73 C 79.37 15.64 76.52 15.27 73.68 14.93 C 76.30 10.39 79.81 6.49 82.82 2.23 Z" />
</g>
<g id="#f9f9f8ff">
<path fill="#f9f9f8" opacity="1.00" d=" M 8.95 7.38 C 10.30 5.73 11.66 4.07 12.87 2.31 C 13.15 2.68 13.71 3.41 13.99 3.78 C 12.32 4.99 10.63 6.18 8.95 7.38 Z" />
<path fill="#f9f9f8" opacity="1.00" d=" M 1.65 12.85 C 3.19 11.93 4.69 10.95 6.16 9.93 C 5.17 11.32 4.21 12.74 3.24 14.15 C 2.84 13.82 2.05 13.18 1.65 12.85 Z" />
<path fill="#f9f9f8" opacity="1.00" d=" M 30.70 12.43 C 31.60 11.54 32.49 10.66 33.39 9.77 C 33.47 12.93 33.68 16.09 33.90 19.24 C 33.91 20.59 33.92 21.94 33.91 23.28 C 33.91 23.93 33.91 25.22 33.91 25.87 C 33.16 26.50 32.41 27.12 31.64 27.73 L 30.85 27.96 C 30.97 22.78 31.11 17.60 30.70 12.43 Z" />
<path fill="#f9f9f8" opacity="1.00" d=" M 39.19 15.10 C 40.95 14.97 42.72 14.88 44.49 14.83 C 49.70 15.11 54.91 15.11 60.12 15.18 C 60.19 15.63 60.34 16.54 60.41 17.00 C 56.33 16.89 52.24 16.90 48.16 16.90 C 46.77 16.67 45.40 16.40 44.02 16.12 C 42.67 15.79 41.32 15.79 39.96 16.11 L 39.19 15.10 Z" />
<path fill="#f9f9f8" opacity="1.00" d=" M 90.48 30.88 C 92.39 34.55 90.46 38.66 90.24 42.51 C 90.14 41.78 89.94 40.32 89.84 39.59 C 90.07 36.69 90.19 33.78 90.48 30.88 Z" />
<path fill="#f9f9f8" opacity="1.00" d=" M 33.58 100.61 C 35.08 102.33 34.44 104.57 33.97 106.55 C 33.57 105.30 33.21 104.05 32.89 102.78 C 33.07 102.24 33.41 101.15 33.58 100.61 Z" />
<path fill="#f9f9f8" opacity="1.00" d=" M 35.99 101.20 C 36.48 101.50 37.45 102.09 37.94 102.38 C 37.66 103.45 37.40 104.52 37.08 105.58 L 36.25 105.85 C 36.16 104.30 36.07 102.75 35.99 101.20 Z" />
<path fill="#f9f9f8" opacity="1.00" d=" M 38.81 101.35 C 39.49 101.53 40.83 101.89 41.50 102.07 C 40.84 103.57 40.31 105.12 39.92 106.72 C 39.82 106.71 39.62 106.70 39.52 106.69 C 39.23 104.91 39.02 103.13 38.81 101.35 Z" />
<path fill="#f9f9f8" opacity="1.00" d=" M 44.99 105.78 C 44.57 104.48 44.48 102.43 45.96 101.78 C 46.29 103.16 46.13 104.49 45.49 105.78 L 44.99 105.78 Z" />
<path fill="#f9f9f8" opacity="1.00" d=" M 49.05 105.75 C 46.70 106.60 46.61 101.60 48.99 102.26 C 49.36 103.42 49.38 104.58 49.05 105.75 Z" />
</g>
<g id="#c6468fff">
<path fill="#c6468f" opacity="1.00" d=" M 27.76 2.13 C 28.39 3.32 28.95 4.54 29.46 5.79 L 29.10 6.95 C 28.22 6.97 26.46 7.01 25.58 7.04 C 26.23 5.37 26.89 3.70 27.76 2.13 Z" />
</g>
<g id="#f4f8f8ff">
<path fill="#f4f8f8" opacity="1.00" d=" M 16.71 3.38 C 19.28 3.35 21.86 3.33 24.44 3.37 C 22.83 6.19 20.23 8.20 18.23 10.71 C 17.35 11.72 16.49 12.75 15.47 13.64 C 14.91 13.93 13.80 14.52 13.24 14.82 C 10.60 14.44 7.95 14.13 5.30 13.80 C 8.81 10.01 12.94 6.90 16.71 3.38 Z" />
</g>
<g id="#31303133">
<path fill="#313031" opacity="0.20" d=" M 66.78 5.47 C 66.82 2.43 70.96 3.64 72.67 4.52 C 70.88 4.96 69.05 5.18 67.24 5.48 L 66.78 5.47 Z" />
</g>
<g id="#fbf7f9ff">
<path fill="#fbf7f9" opacity="1.00" d=" M 79.28 4.24 L 79.75 4.07 L 79.55 4.53 L 79.07 4.70 L 79.28 4.24 Z" />
</g>
<g id="#5c1939ff">
<path fill="#5c1939" opacity="1.00" d=" M 89.25 4.34 C 91.02 4.20 90.37 6.41 90.41 7.58 C 89.95 7.66 89.03 7.82 88.56 7.90 C 87.36 12.99 83.65 17.23 83.73 22.59 C 83.17 25.41 82.95 28.27 82.97 31.14 C 82.85 33.61 82.75 36.07 82.64 38.54 C 81.63 54.86 81.29 71.33 82.61 87.64 C 82.69 93.65 82.97 99.65 83.27 105.66 C 85.13 105.91 87.20 105.78 88.67 107.18 C 87.02 107.29 85.36 107.38 83.71 107.45 C 84.26 107.84 85.36 108.62 85.91 109.02 C 85.84 109.32 85.70 109.92 85.63 110.22 C 85.53 110.41 85.33 110.80 85.24 111.00 L 82.76 111.00 C 80.55 109.77 81.96 107.12 81.75 105.19 C 82.10 101.70 81.74 98.20 81.18 94.75 C 80.98 76.85 81.02 58.94 81.02 41.04 C 81.00 34.64 81.83 28.27 82.38 21.90 C 83.16 20.49 84.00 18.61 82.77 17.17 L 82.16 17.14 C 80.20 17.04 78.25 16.90 76.30 16.76 C 78.28 16.44 80.25 16.09 82.23 15.73 C 83.08 15.56 83.92 15.37 84.75 15.14 C 85.96 11.48 86.55 7.23 89.25 4.34 Z" />
<path fill="#5c1939" opacity="1.00" d=" M 53.79 51.66 C 54.22 51.69 55.09 51.75 55.52 51.78 C 55.53 52.23 55.56 53.15 55.57 53.60 C 54.99 53.93 54.41 54.26 53.83 54.59 C 53.81 53.61 53.80 52.64 53.79 51.66 Z" />
<path fill="#5c1939" opacity="1.00" d=" M 40.43 52.10 C 42.16 51.89 42.36 53.27 42.45 54.62 C 42.05 54.52 41.24 54.32 40.84 54.22 C 40.74 53.69 40.53 52.63 40.43 52.10 Z" />
<path fill="#5c1939" opacity="1.00" d=" M 33.94 62.76 C 32.28 62.63 32.13 59.63 33.93 59.61 C 35.60 59.75 35.60 62.63 33.94 62.76 Z" />
<path fill="#5c1939" opacity="1.00" d=" M 54.15 67.26 C 55.83 67.12 55.96 70.04 54.27 70.04 C 52.82 69.95 52.68 67.43 54.15 67.26 Z" />
<path fill="#5c1939" opacity="1.00" d=" M 32.50 68.02 C 34.32 65.99 35.98 70.23 33.83 70.87 C 32.34 71.14 31.73 69.03 32.50 68.02 Z" />
<path fill="#5c1939" opacity="1.00" d=" M 33.08 77.76 C 31.41 77.67 31.46 74.85 33.08 74.68 C 34.90 74.67 34.87 77.77 33.08 77.76 Z" />
<path fill="#5c1939" opacity="1.00" d=" M 31.41 89.42 C 34.06 88.10 34.24 94.20 31.48 92.53 C 30.98 91.50 30.96 90.46 31.41 89.42 Z" />
<path fill="#5c1939" opacity="1.00" d=" M 38.06 96.36 C 39.42 95.34 41.46 97.54 39.85 98.58 C 38.47 99.67 36.43 97.41 38.06 96.36 Z" />
<path fill="#5c1939" opacity="1.00" d=" M 7.04 102.90 C 7.31 101.24 7.28 99.29 8.92 98.34 C 9.25 98.65 9.91 99.29 10.24 99.60 C 10.24 100.56 10.24 101.52 10.23 102.47 C 9.17 102.62 8.11 102.76 7.04 102.90 Z" />
</g>
<g id="#721c46ef">
<path fill="#721c46" opacity="0.94" d=" M 29.46 5.79 C 31.49 5.89 33.87 5.61 35.20 7.52 C 34.94 9.18 34.76 10.85 34.84 12.53 C 34.96 16.05 35.11 19.58 35.09 23.10 L 33.91 23.28 C 33.92 21.94 33.91 20.59 33.90 19.24 C 33.49 15.20 35.50 10.17 32.31 6.93 C 31.51 6.93 29.90 6.94 29.10 6.95 L 29.46 5.79 Z" />
</g>
<g id="#f7fbfbff">
<path fill="#f7fbfb" opacity="1.00" d=" M 25.58 7.04 C 26.46 7.01 28.22 6.97 29.10 6.95 C 29.90 6.94 31.51 6.93 32.31 6.93 C 31.63 8.14 30.97 9.37 30.28 10.57 C 29.95 11.07 29.31 12.07 28.98 12.57 C 26.59 12.45 24.19 12.33 21.80 12.25 C 22.53 11.32 23.28 10.40 23.99 9.46 C 24.58 8.69 25.11 7.88 25.58 7.04 Z" />
</g>
<g id="#cb90bcff">
<path fill="#cb90bc" opacity="1.00" d=" M 32.31 6.93 C 35.50 10.17 33.49 15.20 33.90 19.24 C 33.68 16.09 33.47 12.93 33.39 9.77 C 32.49 10.66 31.60 11.54 30.70 12.43 C 30.59 11.97 30.38 11.04 30.28 10.57 C 30.97 9.37 31.63 8.14 32.31 6.93 Z" />
</g>
<g id="#f7fafaff">
<path fill="#f7fafa" opacity="1.00" d=" M 65.90 7.21 C 69.57 5.99 73.37 6.73 77.11 7.05 C 76.10 8.77 75.02 10.44 73.80 12.02 C 73.60 12.07 73.21 12.18 73.01 12.24 C 69.91 11.96 66.80 11.96 63.70 11.99 C 63.96 11.21 64.25 10.43 64.55 9.66 C 64.89 9.05 65.57 7.83 65.90 7.21 Z" />
</g>
<g id="#dfa9f7ff">
<path fill="#dfa9f7" opacity="1.00" d=" M 44.18 11.35 C 45.81 10.23 47.33 8.95 48.85 7.69 C 51.22 7.71 53.58 7.77 55.95 7.86 C 57.31 9.91 58.71 11.94 60.00 14.03 C 59.08 14.03 57.23 14.02 56.30 14.01 C 52.08 13.63 47.85 13.45 43.61 13.31 C 43.75 12.82 44.04 11.84 44.18 11.35 Z" />
<path fill="#dfa9f7" opacity="1.00" d=" M 56.75 7.35 C 58.52 7.48 60.29 7.63 62.06 7.78 C 62.89 8.41 63.71 9.04 64.55 9.66 C 64.25 10.43 63.96 11.21 63.70 11.99 L 63.39 12.88 C 66.60 13.01 69.95 13.53 73.01 12.24 C 73.21 12.18 73.60 12.07 73.80 12.02 C 73.30 12.59 72.80 13.16 72.30 13.73 C 68.75 13.50 65.19 13.53 61.64 13.69 L 61.65 13.00 C 62.08 12.58 62.94 11.73 63.37 11.30 C 62.92 10.62 62.46 9.96 61.99 9.30 L 61.12 12.18 C 59.63 10.61 58.16 9.00 56.75 7.35 Z" />
</g>
<g id="#5f1534ff">
<path fill="#5f1534" opacity="1.00" d=" M 88.56 7.90 C 89.03 7.82 89.95 7.66 90.41 7.58 C 90.22 12.41 89.84 17.24 90.23 22.08 C 89.66 24.99 89.06 28.10 90.48 30.88 C 90.19 33.78 90.07 36.69 89.84 39.59 C 88.52 33.39 89.78 27.04 88.88 20.79 C 88.73 16.49 89.60 12.15 88.56 7.90 Z" />
<path fill="#5f1534" opacity="1.00" d=" M 57.14 20.31 C 58.52 19.17 60.49 21.45 58.89 22.50 C 57.51 23.70 55.58 21.36 57.14 20.31 Z" />
<path fill="#5f1534" opacity="1.00" d=" M 70.11 28.65 C 70.76 32.76 71.16 36.90 71.07 41.06 C 71.01 45.07 70.76 49.08 70.83 53.09 C 70.42 53.08 69.60 53.05 69.19 53.04 C 69.43 44.91 70.03 36.79 70.11 28.65 Z" />
<path fill="#5f1534" opacity="1.00" d=" M 34.33 36.54 C 34.97 36.42 36.25 36.17 36.89 36.05 C 36.78 36.67 36.57 37.91 36.47 38.53 C 36.07 38.44 35.28 38.26 34.88 38.17 C 34.74 37.76 34.47 36.95 34.33 36.54 Z" />
<path fill="#5f1534" opacity="1.00" d=" M 65.52 37.22 C 67.08 37.07 65.95 39.76 67.96 39.33 C 67.80 40.30 67.63 41.28 67.45 42.25 C 66.93 42.27 65.90 42.32 65.39 42.34 C 65.25 41.77 64.97 40.61 64.83 40.03 C 65.00 39.33 65.35 37.92 65.52 37.22 Z" />
<path fill="#5f1534" opacity="1.00" d=" M 65.33 51.32 C 65.92 51.28 67.10 51.20 67.68 51.16 C 67.72 53.14 68.09 55.62 65.29 54.95 C 65.26 53.74 65.27 52.53 65.33 51.32 Z" />
<path fill="#5f1534" opacity="1.00" d=" M 7.12 70.73 C 8.23 70.82 9.33 70.95 10.42 71.16 C 10.38 72.20 10.35 73.24 10.31 74.29 C 9.37 74.35 8.43 74.42 7.49 74.49 C 7.37 73.24 7.24 71.98 7.12 70.73 Z" />
<path fill="#5f1534" opacity="1.00" d=" M 8.18 84.49 C 9.76 85.44 11.51 87.87 8.90 88.88 C 6.26 89.31 7.64 85.75 8.18 84.49 Z" />
<path fill="#5f1534" opacity="1.00" d=" M 68.23 104.60 L 69.39 105.08 C 69.67 105.96 69.94 106.85 70.19 107.75 C 73.71 107.88 77.23 107.93 80.75 108.10 C 77.18 110.18 72.80 108.67 68.88 109.08 L 68.25 109.05 C 68.25 107.57 68.24 106.08 68.23 104.60 Z" />
</g>
<g id="#f5faf9ff">
<path fill="#f5faf9" opacity="1.00" d=" M 88.56 7.90 C 89.60 12.15 88.73 16.49 88.88 20.79 C 88.19 26.81 88.94 32.87 88.47 38.91 C 88.06 44.66 88.12 50.42 87.99 56.18 C 87.11 68.10 87.01 80.07 87.64 92.00 C 86.65 98.06 89.84 103.79 88.62 109.87 C 87.86 110.04 86.34 110.38 85.58 110.54 L 85.63 110.22 C 85.70 109.92 85.84 109.32 85.91 109.02 C 85.36 108.62 84.26 107.84 83.71 107.45 C 85.36 107.38 87.02 107.29 88.67 107.18 C 87.20 105.78 85.13 105.91 83.27 105.66 C 82.97 99.65 82.69 93.65 82.61 87.64 C 83.14 81.76 82.87 75.85 82.96 69.96 C 82.91 59.49 83.26 49.00 82.64 38.54 C 82.75 36.07 82.85 33.61 82.97 31.14 C 83.28 28.30 83.56 25.45 83.73 22.59 C 83.65 17.23 87.36 12.99 88.56 7.90 Z" />
<path fill="#f5faf9" opacity="1.00" d=" M 30.72 30.66 C 38.25 31.69 45.85 32.65 53.45 31.65 C 55.39 31.53 57.35 31.46 59.30 31.40 C 59.84 41.25 59.63 51.12 59.67 60.97 C 58.72 71.14 59.48 81.35 59.22 91.55 C 59.01 92.95 58.79 94.36 58.60 95.76 C 58.19 98.26 58.01 100.78 57.91 103.30 C 57.86 103.91 57.76 105.12 57.71 105.73 C 56.20 105.81 54.69 105.84 53.18 105.88 C 53.23 104.32 53.28 102.77 53.33 101.23 C 51.56 101.06 49.79 100.88 48.01 100.75 C 42.73 100.29 37.42 99.88 32.11 100.21 C 31.95 101.90 31.79 103.60 31.65 105.30 C 30.74 105.36 28.92 105.50 28.01 105.56 C 28.04 102.60 27.95 99.63 27.85 96.67 C 28.05 87.49 28.80 78.35 29.33 69.18 C 29.55 67.39 29.80 65.60 29.89 63.79 C 30.14 52.75 30.26 41.70 30.72 30.66 M 34.33 36.54 C 34.47 36.95 34.74 37.76 34.88 38.17 C 35.28 38.26 36.07 38.44 36.47 38.53 C 36.57 37.91 36.78 36.67 36.89 36.05 C 36.25 36.17 34.97 36.42 34.33 36.54 M 41.32 36.47 C 39.83 37.46 41.47 40.10 42.96 38.88 C 44.33 37.87 42.74 35.41 41.32 36.47 M 48.29 36.14 C 46.97 36.49 46.91 38.92 48.35 39.12 C 49.90 38.98 49.97 36.04 48.29 36.14 M 54.11 38.96 C 56.00 39.41 56.79 36.28 54.98 35.71 C 53.34 35.48 52.41 38.45 54.11 38.96 M 34.31 44.24 C 32.97 45.18 34.20 48.00 35.78 46.84 C 37.04 45.90 35.85 43.04 34.31 44.24 M 40.77 44.77 C 40.73 45.25 40.65 46.21 40.61 46.69 C 42.39 47.08 42.40 45.60 42.49 44.29 C 42.06 44.41 41.20 44.65 40.77 44.77 M 47.18 44.36 C 45.79 45.34 47.27 48.19 48.79 46.88 C 50.00 45.88 48.63 43.34 47.18 44.36 M 53.52 44.48 C 52.48 45.39 53.13 47.83 54.73 47.34 C 55.82 46.66 56.06 45.75 55.47 44.60 C 54.98 44.57 54.01 44.51 53.52 44.48 M 47.41 51.49 C 46.09 52.42 47.39 55.33 48.94 54.08 C 50.16 53.10 48.92 50.38 47.41 51.49 M 53.79 51.66 C 53.80 52.64 53.81 53.61 53.83 54.59 C 54.41 54.26 54.99 53.93 55.57 53.60 C 55.56 53.15 55.53 52.23 55.52 51.78 C 55.09 51.75 54.22 51.69 53.79 51.66 M 34.02 52.15 C 32.62 53.16 34.22 55.72 35.67 54.57 C 37.07 53.56 35.50 50.97 34.02 52.15 M 40.43 52.10 C 40.53 52.63 40.74 53.69 40.84 54.22 C 41.24 54.32 42.05 54.52 42.45 54.62 C 42.36 53.27 42.16 51.89 40.43 52.10 M 33.94 62.76 C 35.60 62.63 35.60 59.75 33.93 59.61 C 32.13 59.63 32.28 62.63 33.94 62.76 M 40.30 60.09 C 39.25 61.02 40.49 63.40 41.82 62.49 C 42.94 61.55 41.72 58.97 40.30 60.09 M 48.08 62.71 C 49.72 62.56 49.76 59.59 48.00 59.61 C 46.25 59.74 46.35 62.68 48.08 62.71 M 53.57 62.64 C 53.98 62.48 54.79 62.16 55.20 62.01 C 55.24 61.60 55.32 60.80 55.36 60.40 C 53.52 59.12 53.85 61.46 53.57 62.64 M 40.35 67.58 C 38.81 68.49 40.38 71.25 41.89 70.02 C 43.26 69.05 41.83 66.50 40.35 67.58 M 46.69 67.75 C 46.31 69.05 47.22 70.62 48.74 69.70 C 49.86 68.06 48.06 67.16 46.69 67.75 M 54.15 67.26 C 52.68 67.43 52.82 69.95 54.27 70.04 C 55.96 70.04 55.83 67.12 54.15 67.26 M 32.50 68.02 C 31.73 69.03 32.34 71.14 33.83 70.87 C 35.98 70.23 34.32 65.99 32.50 68.02 M 53.19 74.50 C 53.04 74.95 52.74 75.85 52.59 76.29 C 54.31 80.15 56.60 72.98 53.19 74.50 M 33.08 77.76 C 34.87 77.77 34.90 74.67 33.08 74.68 C 31.46 74.85 31.41 77.67 33.08 77.76 M 40.05 75.36 C 38.96 76.14 40.11 78.51 41.34 77.49 C 42.25 76.66 41.32 74.53 40.05 75.36 M 47.18 75.05 C 45.81 75.35 45.76 77.82 47.22 78.02 C 48.77 77.92 48.80 75.02 47.18 75.05 M 32.00 83.16 C 31.55 84.93 32.07 85.50 33.58 84.88 C 34.02 83.13 33.50 82.56 32.00 83.16 M 39.20 83.12 C 38.65 84.70 39.20 85.25 40.86 84.76 C 41.41 83.14 40.86 82.59 39.20 83.12 M 45.42 83.14 C 44.49 84.56 46.78 86.36 47.78 84.80 C 48.88 83.36 46.36 81.51 45.42 83.14 M 52.54 85.39 C 53.01 85.42 53.97 85.47 54.44 85.49 C 55.47 84.49 54.59 82.06 53.01 82.56 C 52.07 83.35 51.91 84.30 52.54 85.39 M 31.41 89.42 C 30.96 90.46 30.98 91.50 31.48 92.53 C 34.24 94.20 34.06 88.10 31.41 89.42 M 39.19 89.27 C 37.74 89.48 37.83 92.01 39.20 92.30 C 40.77 92.19 40.73 89.40 39.19 89.27 M 45.14 90.15 C 44.63 91.81 45.17 92.37 46.78 91.84 C 47.30 90.18 46.75 89.62 45.14 90.15 M 52.27 90.18 C 51.17 91.64 53.57 93.44 54.56 91.80 C 55.64 90.38 53.21 88.58 52.27 90.18 M 31.20 96.28 C 29.83 96.35 29.89 98.67 31.21 98.81 C 32.70 98.86 32.61 96.32 31.20 96.28 M 38.06 96.36 C 36.43 97.41 38.47 99.67 39.85 98.58 C 41.46 97.54 39.42 95.34 38.06 96.36 M 45.29 96.38 C 43.63 97.33 45.35 99.74 46.81 98.59 C 48.46 97.65 46.77 95.03 45.29 96.38 M 52.28 96.53 C 50.79 97.49 52.35 100.23 53.83 98.84 C 55.25 97.85 53.74 95.28 52.28 96.53 Z" />
</g>
<g id="#4f1536ff">
<path fill="#4f1536" opacity="1.00" d=" M 18.23 10.71 C 19.68 10.10 21.01 10.43 22.22 11.68 C 21.61 12.24 20.40 13.38 19.79 13.94 L 19.26 14.44 C 18.64 26.64 19.45 38.88 18.78 51.09 C 18.20 58.08 18.43 65.11 17.71 72.10 C 16.83 81.93 17.57 91.78 17.35 101.63 C 19.84 101.66 22.33 101.65 24.82 101.71 C 25.45 101.09 26.08 100.48 26.71 99.86 C 26.47 87.89 27.80 75.99 28.11 64.04 C 28.68 65.71 29.18 67.42 29.33 69.18 C 28.80 78.35 28.05 87.49 27.85 96.67 C 27.59 98.38 27.44 100.11 27.56 101.84 C 26.17 102.13 24.79 102.44 23.40 102.70 C 21.60 102.74 19.80 102.78 18.00 102.82 C 17.12 104.37 16.81 106.66 14.96 107.40 C 12.45 108.15 9.81 107.57 7.37 106.85 C 9.24 106.99 11.12 107.16 12.99 107.26 L 13.31 106.20 C 13.74 94.81 13.13 83.40 14.01 72.02 C 13.95 53.39 14.06 34.76 14.14 16.13 C 12.05 16.06 9.95 16.00 7.85 15.96 C 9.72 14.81 11.92 14.91 14.02 14.90 C 14.38 14.58 15.11 13.95 15.47 13.64 C 16.49 12.75 17.35 11.72 18.23 10.71 M 15.10 18.11 C 15.25 23.47 14.92 28.84 15.46 34.18 C 13.71 37.52 14.83 41.41 14.60 45.00 C 14.91 53.27 13.98 61.65 15.45 69.84 C 14.55 80.99 15.10 92.22 14.86 103.40 C 15.20 103.82 15.88 104.65 16.23 105.07 C 17.21 100.46 16.50 95.72 16.69 91.06 C 16.56 85.64 17.08 80.17 16.27 74.79 C 17.14 66.85 16.92 58.87 17.28 50.91 C 18.65 38.46 16.95 25.86 18.61 13.44 C 16.40 13.78 14.75 15.88 15.10 18.11 Z" />
<path fill="#4f1536" opacity="1.00" d=" M 30.28 10.57 C 30.38 11.04 30.59 11.97 30.70 12.43 C 31.11 17.60 30.97 22.78 30.85 27.96 L 31.64 27.73 L 32.81 27.43 C 32.86 28.06 32.96 29.31 33.02 29.93 C 33.81 29.92 35.38 29.91 36.17 29.90 C 37.34 30.09 38.51 30.27 39.68 30.45 C 43.89 31.30 48.23 31.27 52.41 30.24 C 55.00 29.99 57.62 29.98 60.20 30.41 C 58.33 30.79 56.44 31.03 54.58 31.42 L 53.45 31.65 C 45.85 32.65 38.25 31.69 30.72 30.66 C 30.26 41.70 30.14 52.75 29.89 63.79 C 28.73 61.29 28.75 58.50 28.81 55.80 C 29.27 47.47 28.87 39.12 29.74 30.81 C 30.13 25.22 29.45 19.62 29.76 14.02 C 27.64 13.93 25.52 13.86 23.40 13.77 C 25.26 13.40 27.13 13.02 28.98 12.57 C 29.31 12.07 29.95 11.07 30.28 10.57 Z" />
<path fill="#4f1536" opacity="1.00" d=" M 41.39 20.04 C 42.24 18.63 44.71 20.11 43.66 21.48 C 42.76 22.66 40.51 21.42 41.39 20.04 Z" />
<path fill="#4f1536" opacity="1.00" d=" M 41.32 36.47 C 42.74 35.41 44.33 37.87 42.96 38.88 C 41.47 40.10 39.83 37.46 41.32 36.47 Z" />
<path fill="#4f1536" opacity="1.00" d=" M 54.11 38.96 C 52.41 38.45 53.34 35.48 54.98 35.71 C 56.79 36.28 56.00 39.41 54.11 38.96 Z" />
<path fill="#4f1536" opacity="1.00" d=" M 40.77 44.77 C 41.20 44.65 42.06 44.41 42.49 44.29 C 42.40 45.60 42.39 47.08 40.61 46.69 C 40.65 46.21 40.73 45.25 40.77 44.77 Z" />
<path fill="#4f1536" opacity="1.00" d=" M 47.18 44.36 C 48.63 43.34 50.00 45.88 48.79 46.88 C 47.27 48.19 45.79 45.34 47.18 44.36 Z" />
<path fill="#4f1536" opacity="1.00" d=" M 53.52 44.48 C 54.01 44.51 54.98 44.57 55.47 44.60 C 56.06 45.75 55.82 46.66 54.73 47.34 C 53.13 47.83 52.48 45.39 53.52 44.48 Z" />
<path fill="#4f1536" opacity="1.00" d=" M 47.41 51.49 C 48.92 50.38 50.16 53.10 48.94 54.08 C 47.39 55.33 46.09 52.42 47.41 51.49 Z" />
<path fill="#4f1536" opacity="1.00" d=" M 69.19 53.04 C 69.60 53.05 70.42 53.08 70.83 53.09 C 70.89 61.06 70.30 69.00 70.16 76.96 C 70.28 83.20 70.16 89.43 69.80 95.66 C 69.24 92.71 68.88 89.72 68.86 86.72 C 69.05 80.33 68.78 73.95 69.08 67.57 C 69.10 66.53 69.12 65.48 69.12 64.45 C 69.13 60.64 69.15 56.84 69.19 53.04 Z" />
<path fill="#4f1536" opacity="1.00" d=" M 48.08 62.71 C 46.35 62.68 46.25 59.74 48.00 59.61 C 49.76 59.59 49.72 62.56 48.08 62.71 Z" />
<path fill="#4f1536" opacity="1.00" d=" M 40.35 67.58 C 41.83 66.50 43.26 69.05 41.89 70.02 C 40.38 71.25 38.81 68.49 40.35 67.58 Z" />
<path fill="#4f1536" opacity="1.00" d=" M 46.69 67.75 C 48.06 67.16 49.86 68.06 48.74 69.70 C 47.22 70.62 46.31 69.05 46.69 67.75 Z" />
<path fill="#4f1536" opacity="1.00" d=" M 40.05 75.36 C 41.32 74.53 42.25 76.66 41.34 77.49 C 40.11 78.51 38.96 76.14 40.05 75.36 Z" />
<path fill="#4f1536" opacity="1.00" d=" M 32.00 83.16 C 33.50 82.56 34.02 83.13 33.58 84.88 C 32.07 85.50 31.55 84.93 32.00 83.16 Z" />
<path fill="#4f1536" opacity="1.00" d=" M 52.54 85.39 C 51.91 84.30 52.07 83.35 53.01 82.56 C 54.59 82.06 55.47 84.49 54.44 85.49 C 53.97 85.47 53.01 85.42 52.54 85.39 Z" />
<path fill="#4f1536" opacity="1.00" d=" M 39.19 89.27 C 40.73 89.40 40.77 92.19 39.20 92.30 C 37.83 92.01 37.74 89.48 39.19 89.27 Z" />
<path fill="#4f1536" opacity="1.00" d=" M 52.27 90.18 C 53.21 88.58 55.64 90.38 54.56 91.80 C 53.57 93.44 51.17 91.64 52.27 90.18 Z" />
<path fill="#4f1536" opacity="1.00" d=" M 31.20 96.28 C 32.61 96.32 32.70 98.86 31.21 98.81 C 29.89 98.67 29.83 96.35 31.20 96.28 Z" />
<path fill="#4f1536" opacity="1.00" d=" M 45.29 96.38 C 46.77 95.03 48.46 97.65 46.81 98.59 C 45.35 99.74 43.63 97.33 45.29 96.38 Z" />
</g>
<g id="#511a3fff">
<path fill="#511a3f" opacity="1.00" d=" M 63.70 11.99 C 66.80 11.96 69.91 11.96 73.01 12.24 C 69.95 13.53 66.60 13.01 63.39 12.88 L 63.70 11.99 Z" />
</g>
<g id="#fcf0f4ff">
<path fill="#fcf0f4" opacity="1.00" d=" M 34.84 12.53 C 35.84 13.82 37.11 14.20 38.65 13.68 C 38.24 14.10 37.43 14.94 37.02 15.36 C 37.01 16.14 36.98 17.69 36.97 18.47 C 36.98 19.93 36.99 21.39 37.00 22.85 C 36.53 22.91 35.57 23.04 35.09 23.10 C 35.11 19.58 34.96 16.05 34.84 12.53 Z" />
</g>
<g id="#f5f9f8ff">
<path fill="#f5f9f8" opacity="1.00" d=" M 15.10 18.11 C 14.75 15.88 16.40 13.78 18.61 13.44 C 16.95 25.86 18.65 38.46 17.28 50.91 C 16.92 58.87 17.14 66.85 16.27 74.79 C 15.97 84.88 15.99 94.98 16.23 105.07 C 15.88 104.65 15.20 103.82 14.86 103.40 C 15.10 92.22 14.55 80.99 15.45 69.84 C 16.51 64.96 15.90 59.96 15.98 55.02 C 15.89 48.08 16.45 41.09 15.46 34.18 C 14.92 28.84 15.25 23.47 15.10 18.11 Z" />
</g>
<g id="#f3f9f8ff">
<path fill="#f3f9f8" opacity="1.00" d=" M 19.79 13.94 C 20.99 13.87 22.19 13.81 23.40 13.77 C 25.52 13.86 27.64 13.93 29.76 14.02 C 29.45 19.62 30.13 25.22 29.74 30.81 C 28.87 39.12 29.27 47.47 28.81 55.80 C 28.50 58.54 28.08 61.27 28.11 64.04 C 27.80 75.99 26.47 87.89 26.71 99.86 C 26.08 100.48 25.45 101.09 24.82 101.71 C 22.33 101.65 19.84 101.66 17.35 101.63 C 17.57 91.78 16.83 81.93 17.71 72.10 C 18.43 65.11 18.20 58.08 18.78 51.09 C 19.45 38.88 18.64 26.64 19.26 14.44 L 19.79 13.94 M 22.85 16.55 C 22.85 17.57 22.85 19.61 22.85 20.63 C 25.56 21.15 26.04 18.98 26.05 16.81 C 25.25 16.75 23.65 16.61 22.85 16.55 M 23.09 27.22 C 22.56 28.87 21.57 30.73 22.62 32.40 C 23.82 33.03 25.14 32.53 26.38 32.35 C 26.14 30.72 25.91 29.09 25.67 27.46 C 25.02 27.40 23.74 27.28 23.09 27.22 M 22.14 41.00 C 20.36 43.01 25.55 46.31 25.22 42.64 C 25.20 42.30 25.18 41.60 25.17 41.25 C 24.50 39.64 23.05 39.67 22.14 41.00 M 21.46 55.01 C 21.36 56.89 23.90 56.44 25.02 57.06 C 25.91 54.78 26.36 50.90 22.96 50.65 C 20.74 51.04 21.51 53.44 21.46 55.01 M 21.22 64.30 C 21.07 65.58 21.00 66.87 21.00 68.16 C 21.63 69.71 23.52 69.42 24.84 69.85 C 24.95 68.06 24.90 66.27 24.64 64.50 C 23.50 64.43 22.36 64.37 21.22 64.30 M 22.73 78.53 C 20.28 78.50 21.42 81.02 21.32 82.57 C 21.88 82.59 23.00 82.63 23.56 82.65 C 23.67 81.95 23.89 80.55 24.00 79.85 C 23.50 78.98 23.01 78.12 22.51 77.25 C 22.57 77.57 22.67 78.21 22.73 78.53 M 20.39 91.44 C 19.76 93.16 20.22 95.01 20.28 96.79 C 21.37 96.78 22.46 96.77 23.55 96.77 C 23.75 95.48 23.91 94.18 24.02 92.89 C 24.22 90.96 21.65 90.76 20.39 91.44 Z" />
</g>
<g id="#f0f7f6ff">
<path fill="#f0f7f6" opacity="1.00" d=" M 61.64 13.69 C 65.19 13.53 68.75 13.50 72.30 13.73 C 69.91 18.22 70.89 23.73 70.11 28.65 C 70.03 36.79 69.43 44.91 69.19 53.04 C 69.15 56.84 69.13 60.64 69.12 64.45 C 67.66 64.00 66.19 63.56 64.73 63.12 C 64.59 64.83 64.52 66.56 64.52 68.28 C 66.04 68.04 67.56 67.81 69.08 67.57 C 68.78 73.95 69.05 80.33 68.86 86.72 C 68.50 92.03 68.12 97.33 68.03 102.66 C 66.05 102.50 64.07 102.38 62.08 102.32 C 62.04 101.81 61.97 100.78 61.94 100.27 C 61.59 93.18 61.85 86.09 62.06 79.00 C 62.13 75.18 62.53 71.38 62.83 67.57 C 63.23 60.44 63.04 53.30 62.92 46.17 C 63.18 41.02 62.95 35.86 62.28 30.74 C 61.85 25.07 61.99 19.37 61.64 13.69 M 65.43 15.10 C 65.27 15.86 64.96 17.39 64.80 18.15 C 64.99 18.81 65.36 20.11 65.55 20.76 C 67.91 19.76 68.85 17.69 68.10 15.25 C 67.43 15.21 66.09 15.14 65.43 15.10 M 65.09 30.81 C 65.89 30.87 67.49 31.01 68.29 31.07 C 68.15 29.45 67.87 27.84 67.48 26.26 C 65.52 27.02 64.88 28.80 65.09 30.81 M 65.52 37.22 C 65.35 37.92 65.00 39.33 64.83 40.03 C 64.97 40.61 65.25 41.77 65.39 42.34 C 65.90 42.32 66.93 42.27 67.45 42.25 C 67.63 41.28 67.80 40.30 67.96 39.33 C 65.95 39.76 67.08 37.07 65.52 37.22 M 65.33 51.32 C 65.27 52.53 65.26 53.74 65.29 54.95 C 68.09 55.62 67.72 53.14 67.68 51.16 C 67.10 51.20 65.92 51.28 65.33 51.32 M 64.50 76.54 C 64.26 77.99 64.05 79.45 63.87 80.92 C 64.61 80.82 66.07 80.60 66.81 80.50 C 66.66 79.21 66.50 77.93 66.33 76.65 C 65.88 76.62 64.96 76.57 64.50 76.54 M 63.44 95.58 C 64.52 95.69 65.60 95.76 66.69 95.79 C 66.67 94.31 66.64 92.83 66.61 91.35 C 65.86 91.12 64.35 90.67 63.59 90.44 C 63.28 92.10 62.24 94.03 63.44 95.58 Z" />
</g>
<g id="#4a102dff">
<path fill="#4a102d" opacity="1.00" d=" M 1.65 15.73 C 2.16 15.28 3.16 14.39 3.67 13.95 C 2.87 17.13 2.57 20.39 2.11 23.62 C 1.99 20.99 1.79 18.36 1.65 15.73 Z" />
<path fill="#4a102d" opacity="1.00" d=" M 65.43 15.10 C 66.09 15.14 67.43 15.21 68.10 15.25 C 68.85 17.69 67.91 19.76 65.55 20.76 C 65.36 20.11 64.99 18.81 64.80 18.15 C 64.96 17.39 65.27 15.86 65.43 15.10 Z" />
<path fill="#4a102d" opacity="1.00" d=" M 37.33 22.78 L 38.97 22.88 C 42.38 23.04 45.79 23.07 49.20 23.35 C 50.58 23.93 52.07 24.31 53.58 24.09 C 55.34 24.07 57.10 24.08 58.86 24.12 L 57.64 25.25 C 54.58 25.26 51.53 25.03 48.50 24.64 C 44.79 23.48 40.88 23.73 37.06 23.99 L 37.33 22.78 Z" />
<path fill="#4a102d" opacity="1.00" d=" M 8.60 29.34 C 9.85 31.24 10.59 33.45 9.64 35.66 C 9.18 35.54 8.26 35.29 7.81 35.17 C 7.54 33.83 7.27 32.48 7.00 31.14 L 8.81 30.95 C 8.76 30.55 8.66 29.74 8.60 29.34 Z" />
<path fill="#4a102d" opacity="1.00" d=" M 6.56 46.45 C 7.21 45.94 8.52 44.91 9.18 44.39 C 9.66 45.60 10.14 46.82 10.61 48.04 C 9.09 47.96 7.51 47.79 6.56 46.45 Z" />
<path fill="#4a102d" opacity="1.00" d=" M 7.23 57.22 C 7.97 57.28 9.46 57.39 10.20 57.44 C 9.96 57.91 9.48 58.85 9.25 59.32 C 8.76 59.60 7.80 60.15 7.32 60.43 C 7.30 59.63 7.25 58.03 7.23 57.22 Z" />
<path fill="#4a102d" opacity="1.00" d=" M 16.27 74.79 C 17.08 80.17 16.56 85.64 16.69 91.06 C 16.50 95.72 17.21 100.46 16.23 105.07 C 15.99 94.98 15.97 84.88 16.27 74.79 Z" />
</g>
<g id="#dfdedfe0">
<path fill="#dfdedf" opacity="0.88" d=" M 1.05 16.13 L 1.65 15.73 C 1.79 18.36 1.99 20.99 2.11 23.62 C 1.97 26.01 1.96 28.41 2.08 30.80 C 1.83 32.52 1.79 34.26 1.98 35.99 C 2.09 38.64 2.02 41.29 1.78 43.92 L 1.72 44.49 C 1.09 35.05 2.15 25.55 1.05 16.13 Z" />
<path fill="#dfdedf" opacity="0.88" d=" M 0.90 69.94 C 1.98 62.66 1.09 55.29 1.82 47.99 L 1.90 49.35 C 1.95 50.03 2.04 51.40 2.09 52.08 C 2.09 52.54 2.09 53.45 2.09 53.91 C 1.83 56.95 2.04 59.99 2.19 63.03 C 1.42 76.25 2.30 89.53 1.30 102.75 C 1.16 104.02 0.72 105.17 0.00 106.20 L 0.00 101.16 C 0.38 98.25 0.75 95.26 0.00 92.38 L 0.00 87.49 C 1.14 81.70 0.20 75.77 0.90 69.94 Z" />
</g>
<g id="#f6faf9ff">
<path fill="#f6faf9" opacity="1.00" d=" M 3.45 16.10 C 4.92 16.05 6.38 15.99 7.85 15.96 C 9.95 16.00 12.05 16.06 14.14 16.13 C 14.06 34.76 13.95 53.39 14.01 72.02 C 13.13 83.40 13.74 94.81 13.31 106.20 C 9.77 105.96 6.23 105.83 2.69 105.56 C 2.71 105.03 2.74 103.97 2.76 103.44 C 3.49 89.33 2.49 75.15 3.87 61.06 C 4.05 58.93 3.94 56.80 3.79 54.67 L 3.77 54.05 C 3.77 53.52 3.77 52.45 3.77 51.92 C 3.92 49.72 3.91 47.52 3.87 45.32 C 3.87 44.87 3.87 43.98 3.88 43.53 L 3.88 43.03 C 4.14 41.69 4.19 40.36 4.03 39.01 C 3.41 31.38 4.69 23.70 3.45 16.10 M 7.55 17.97 L 8.35 18.44 C 7.00 19.22 6.60 20.33 7.13 21.78 L 7.26 23.07 C 8.61 22.22 11.12 22.15 10.94 20.02 C 11.27 17.79 8.94 18.27 7.55 17.97 M 8.60 29.34 C 8.66 29.74 8.76 30.55 8.81 30.95 L 7.00 31.14 C 7.27 32.48 7.54 33.83 7.81 35.17 C 8.26 35.29 9.18 35.54 9.64 35.66 C 10.59 33.45 9.85 31.24 8.60 29.34 M 6.56 46.45 C 7.51 47.79 9.09 47.96 10.61 48.04 C 11.78 45.83 10.60 43.44 7.93 43.57 C 7.59 44.29 6.90 45.73 6.56 46.45 M 7.23 57.22 C 7.25 58.03 7.30 59.63 7.32 60.43 C 8.62 63.43 12.84 58.87 10.20 57.44 C 9.46 57.39 7.97 57.28 7.23 57.22 M 7.12 70.73 C 7.24 71.98 7.37 73.24 7.49 74.49 C 8.43 74.42 9.37 74.35 10.31 74.29 C 10.35 73.24 10.38 72.20 10.42 71.16 C 9.33 70.95 8.23 70.82 7.12 70.73 M 8.18 84.49 C 7.64 85.75 6.26 89.31 8.90 88.88 C 11.51 87.87 9.76 85.44 8.18 84.49 M 7.04 102.90 C 8.11 102.76 9.17 102.62 10.23 102.47 C 10.24 101.52 10.24 100.56 10.24 99.60 C 9.91 99.29 9.25 98.65 8.92 98.34 C 7.28 99.29 7.31 101.24 7.04 102.90 Z" />
<path fill="#f6faf9" opacity="1.00" d=" M 72.07 16.70 C 73.48 16.72 74.89 16.75 76.30 16.76 C 78.25 16.90 80.20 17.04 82.16 17.14 C 81.44 18.67 82.09 20.35 82.38 21.90 C 81.83 28.27 81.00 34.64 81.02 41.04 C 81.02 58.94 80.98 76.85 81.18 94.75 C 81.13 98.24 81.43 101.72 81.75 105.19 C 81.96 107.12 80.55 109.77 82.76 111.00 L 81.81 111.00 C 81.23 110.59 80.08 109.77 79.50 109.36 C 75.96 109.59 72.41 109.36 68.88 109.08 C 72.80 108.67 77.18 110.18 80.75 108.10 C 77.23 107.93 73.71 107.88 70.19 107.75 C 69.94 106.85 69.67 105.96 69.39 105.08 L 68.23 104.60 C 67.71 104.43 66.66 104.08 66.14 103.91 C 67.43 104.17 68.73 104.46 70.01 104.77 C 69.96 101.73 69.93 98.69 69.80 95.66 C 70.16 89.43 70.28 83.20 70.16 76.96 C 70.30 69.00 70.89 61.06 70.83 53.09 C 70.76 49.08 71.01 45.07 71.07 41.06 C 71.11 32.93 72.13 24.84 72.07 16.70 M 74.97 20.06 C 75.01 21.36 75.06 22.66 75.12 23.96 C 76.42 23.70 77.73 23.43 79.03 23.16 C 79.07 22.33 79.16 20.66 79.20 19.83 L 77.81 20.06 L 77.03 19.73 L 76.28 20.12 L 74.97 20.06 M 74.12 30.07 C 74.17 31.94 73.17 35.21 76.04 35.32 C 78.47 35.08 77.90 32.40 78.20 30.71 C 76.84 30.49 75.48 30.28 74.12 30.07 M 74.32 43.58 C 74.22 44.73 74.12 45.87 74.02 47.01 C 74.79 47.04 76.33 47.10 77.10 47.13 C 77.00 45.88 76.90 44.63 76.79 43.38 C 76.17 43.43 74.94 43.53 74.32 43.58 M 74.28 57.22 C 74.33 58.38 74.39 59.54 74.45 60.70 C 75.53 60.73 76.62 60.75 77.72 60.76 C 77.65 59.62 77.58 58.47 77.52 57.33 C 76.44 57.29 75.36 57.25 74.28 57.22 M 73.74 70.95 C 73.89 72.55 74.06 74.15 74.26 75.75 C 75.18 75.56 76.10 75.34 77.00 75.09 C 77.08 73.74 77.07 72.40 76.96 71.05 C 76.15 71.03 74.55 70.98 73.74 70.95 M 74.24 86.16 C 74.11 87.47 73.98 88.77 73.85 90.08 L 75.27 90.02 C 75.65 90.04 76.40 90.08 76.78 90.10 C 79.15 90.25 77.52 87.45 77.81 86.15 C 76.62 86.15 75.43 86.16 74.24 86.16 M 74.37 98.42 C 73.12 99.67 73.70 103.51 76.02 103.04 C 79.81 103.32 77.74 95.20 74.37 98.42 Z" />
</g>
<g id="#662040ff">
<path fill="#662040" opacity="1.00" d=" M 39.96 16.11 C 41.32 15.79 42.67 15.79 44.02 16.12 C 43.15 17.61 40.74 17.78 39.96 16.11 Z" />
</g>
<g id="#571e3fff">
<path fill="#571e3f" opacity="1.00" d=" M 22.85 16.55 C 23.65 16.61 25.25 16.75 26.05 16.81 C 26.04 18.98 25.56 21.15 22.85 20.63 C 22.85 19.61 22.85 17.57 22.85 16.55 Z" />
</g>
<g id="#c48db2ff">
<path fill="#c48db2" opacity="1.00" d=" M 7.55 17.97 C 8.94 18.27 11.27 17.79 10.94 20.02 C 11.12 22.15 8.61 22.22 7.26 23.07 L 7.13 21.78 C 9.41 22.24 11.09 19.23 8.35 18.44 L 7.55 17.97 Z" />
</g>
<g id="#f2f6f3ff">
<path fill="#f2f6f3" opacity="1.00" d=" M 38.66 17.18 C 40.52 17.40 42.38 17.65 44.24 17.81 C 48.54 18.24 52.89 18.20 57.19 17.81 C 57.65 19.34 58.26 19.33 59.00 17.78 L 60.07 17.67 C 60.19 19.53 60.30 21.40 60.42 23.26 C 60.03 23.48 59.25 23.91 58.86 24.12 C 57.10 24.08 55.34 24.07 53.58 24.09 C 53.55 23.56 53.47 22.49 53.44 21.96 C 54.15 20.31 51.23 18.67 51.05 20.91 C 51.44 21.20 52.23 21.78 52.62 22.08 C 51.46 22.45 50.32 22.87 49.20 23.35 C 45.79 23.07 42.38 23.04 38.97 22.88 C 38.87 20.98 38.76 19.08 38.66 17.18 M 41.39 20.04 C 40.51 21.42 42.76 22.66 43.66 21.48 C 44.71 20.11 42.24 18.63 41.39 20.04 M 46.59 20.08 C 46.13 21.77 46.67 22.32 48.20 21.74 C 48.68 20.01 48.14 19.45 46.59 20.08 M 57.14 20.31 C 55.58 21.36 57.51 23.70 58.89 22.50 C 60.49 21.45 58.52 19.17 57.14 20.31 Z" />
</g>
<g id="#d3679eff">
<path fill="#d3679e" opacity="1.00" d=" M 57.19 17.81 C 57.64 17.81 58.55 17.79 59.00 17.78 C 58.26 19.33 57.65 19.34 57.19 17.81 Z" />
</g>
<g id="#3d1736ff">
<path fill="#3d1736" opacity="1.00" d=" M 7.13 21.78 C 6.60 20.33 7.00 19.22 8.35 18.44 C 11.09 19.23 9.41 22.24 7.13 21.78 Z" />
</g>
<g id="#32112dff">
<path fill="#32112d" opacity="1.00" d=" M 46.59 20.08 C 48.14 19.45 48.68 20.01 48.20 21.74 C 46.67 22.32 46.13 21.77 46.59 20.08 Z" />
<path fill="#32112d" opacity="1.00" d=" M 65.09 30.81 C 64.88 28.80 65.52 27.02 67.48 26.26 C 67.87 27.84 68.15 29.45 68.29 31.07 C 67.49 31.01 65.89 30.87 65.09 30.81 Z" />
<path fill="#32112d" opacity="1.00" d=" M 53.19 74.50 C 56.60 72.98 54.31 80.15 52.59 76.29 C 52.74 75.85 53.04 74.95 53.19 74.50 Z" />
<path fill="#32112d" opacity="1.00" d=" M 47.18 75.05 C 48.80 75.02 48.77 77.92 47.22 78.02 C 45.76 77.82 45.81 75.35 47.18 75.05 Z" />
<path fill="#32112d" opacity="1.00" d=" M 45.42 83.14 C 46.36 81.51 48.88 83.36 47.78 84.80 C 46.78 86.36 44.49 84.56 45.42 83.14 Z" />
</g>
<g id="#6d6385ff">
<path fill="#6d6385" opacity="1.00" d=" M 51.05 20.91 C 51.23 18.67 54.15 20.31 53.44 21.96 L 52.62 22.08 C 52.23 21.78 51.44 21.20 51.05 20.91 Z" />
</g>
<g id="#b979a5ff">
<path fill="#b979a5" opacity="1.00" d=" M 74.97 20.06 L 76.28 20.12 C 76.24 20.84 76.16 22.27 76.13 22.99 C 77.88 23.62 78.86 21.30 77.81 20.06 L 79.20 19.83 C 79.16 20.66 79.07 22.33 79.03 23.16 C 77.73 23.43 76.42 23.70 75.12 23.96 C 75.06 22.66 75.01 21.36 74.97 20.06 Z" />
</g>
<g id="#48122eff">
<path fill="#48122e" opacity="1.00" d=" M 76.28 20.12 L 77.03 19.73 L 77.81 20.06 C 78.86 21.30 77.88 23.62 76.13 22.99 C 76.16 22.27 76.24 20.84 76.28 20.12 Z" />
</g>
<g id="#d096b7ff">
<path fill="#d096b7" opacity="1.00" d=" M 52.62 22.08 L 53.44 21.96 C 53.47 22.49 53.55 23.56 53.58 24.09 C 52.07 24.31 50.58 23.93 49.20 23.35 C 50.32 22.87 51.46 22.45 52.62 22.08 Z" />
</g>
<g id="#51112dff">
<path fill="#51112d" opacity="1.00" d=" M 34.90 24.23 C 38.22 24.49 33.24 27.19 34.90 24.23 Z" />
</g>
<g id="#f8faf9ff">
<path fill="#f8faf9" opacity="1.00" d=" M 33.11 29.11 C 34.81 27.68 36.32 26.05 37.65 24.29 C 41.24 24.86 44.88 24.89 48.50 24.64 C 51.53 25.03 54.58 25.26 57.64 25.25 C 58.37 25.29 59.84 25.36 60.57 25.40 C 60.62 26.87 60.68 28.34 60.68 29.81 L 60.20 30.41 C 57.62 29.98 55.00 29.99 52.41 30.24 C 48.17 30.25 43.93 30.54 39.68 30.45 C 38.51 30.27 37.34 30.09 36.17 29.90 C 35.15 29.65 34.13 29.38 33.11 29.11 Z" />
</g>
<g id="#cea4c5ff">
<path fill="#cea4c5" opacity="1.00" d=" M 23.09 27.22 C 23.74 27.28 25.02 27.40 25.67 27.46 C 25.91 29.09 26.14 30.72 26.38 32.35 C 25.14 32.53 23.82 33.03 22.62 32.40 C 21.57 30.73 22.56 28.87 23.09 27.22 M 24.17 28.21 C 22.57 28.55 22.62 31.35 24.24 31.63 C 25.81 31.40 25.71 28.42 24.17 28.21 Z" />
</g>
<g id="#461a3aff">
<path fill="#461a3a" opacity="1.00" d=" M 24.17 28.21 C 25.71 28.42 25.81 31.40 24.24 31.63 C 22.62 31.35 22.57 28.55 24.17 28.21 Z" />
</g>
<g id="#c984afff">
<path fill="#c984af" opacity="1.00" d=" M 74.12 30.07 C 75.48 30.28 76.84 30.49 78.20 30.71 C 77.90 32.40 78.47 35.08 76.04 35.32 C 73.17 35.21 74.17 31.94 74.12 30.07 M 75.27 31.27 C 74.10 32.20 75.18 35.22 76.72 33.90 C 77.97 32.94 76.87 29.98 75.27 31.27 Z" />
</g>
<g id="#82193bee">
<path fill="#82193b" opacity="0.93" d=" M 2.08 30.80 C 3.62 32.19 3.81 34.76 1.98 35.99 C 1.79 34.26 1.83 32.52 2.08 30.80 Z" />
</g>
<g id="#be5f90ff">
<path fill="#be5f90" opacity="1.00" d=" M 62.28 30.74 C 62.95 35.86 63.18 41.02 62.92 46.17 C 61.27 52.99 62.13 60.12 62.22 67.07 C 61.89 66.80 61.21 66.25 60.88 65.98 C 60.82 65.35 60.71 64.08 60.66 63.44 C 61.07 54.09 61.06 44.72 62.13 35.41 C 62.23 33.86 62.29 32.30 62.28 30.74 Z" />
</g>
<g id="#350d28ff">
<path fill="#350d28" opacity="1.00" d=" M 75.27 31.27 C 76.87 29.98 77.97 32.94 76.72 33.90 C 75.18 35.22 74.10 32.20 75.27 31.27 Z" />
</g>
<g id="#ca5a93ff">
<path fill="#ca5a93" opacity="1.00" d=" M 15.46 34.18 C 16.45 41.09 15.89 48.08 15.98 55.02 C 15.90 59.96 16.51 64.96 15.45 69.84 C 13.98 61.65 14.91 53.27 14.60 45.00 C 14.83 41.41 13.71 37.52 15.46 34.18 Z" />
</g>
<g id="#651b3dff">
<path fill="#651b3d" opacity="1.00" d=" M 60.18 36.26 C 60.66 36.05 61.64 35.62 62.13 35.41 C 61.06 44.72 61.07 54.09 60.66 63.44 C 59.91 57.34 60.43 51.19 60.13 45.07 C 60.05 42.14 59.78 39.18 60.18 36.26 Z" />
</g>
<g id="#84214fff">
<path fill="#84214f" opacity="1.00" d=" M 3.88 43.03 C 2.37 42.11 2.14 39.64 4.03 39.01 C 4.19 40.36 4.14 41.69 3.88 43.03 Z" />
</g>
<g id="#a95994ff">
<path fill="#a95994" opacity="1.00" d=" M 82.61 87.64 C 81.29 71.33 81.63 54.86 82.64 38.54 C 83.26 49.00 82.91 59.49 82.96 69.96 C 82.87 75.85 83.14 81.76 82.61 87.64 Z" />
</g>
<g id="#a14e7aff">
<path fill="#a14e7a" opacity="1.00" d=" M 22.14 41.00 C 23.05 39.67 24.50 39.64 25.17 41.25 C 22.60 40.40 22.72 43.67 25.22 42.64 C 25.55 46.31 20.36 43.01 22.14 41.00 Z" />
</g>
<g id="#38122cff">
<path fill="#38122c" opacity="1.00" d=" M 25.22 42.64 C 22.72 43.67 22.60 40.40 25.17 41.25 C 25.18 41.60 25.20 42.30 25.22 42.64 Z" />
</g>
<g id="#6c1d36a5">
<path fill="#6c1d36" opacity="0.65" d=" M 1.72 44.49 L 1.78 43.92 C 2.30 43.82 3.35 43.63 3.88 43.53 C 3.87 43.98 3.87 44.87 3.87 45.32 C 3.22 46.66 2.52 47.99 1.90 49.35 L 1.82 47.99 C 1.80 46.82 1.76 45.66 1.72 44.49 Z" />
</g>
<g id="#c588b5ff">
<path fill="#c588b5" opacity="1.00" d=" M 6.56 46.45 C 6.90 45.73 7.59 44.29 7.93 43.57 C 10.60 43.44 11.78 45.83 10.61 48.04 C 10.14 46.82 9.66 45.60 9.18 44.39 C 8.52 44.91 7.21 45.94 6.56 46.45 Z" />
</g>
<g id="#a2689aff">
<path fill="#a2689a" opacity="1.00" d=" M 34.31 44.24 C 35.85 43.04 37.04 45.90 35.78 46.84 C 34.20 48.00 32.97 45.18 34.31 44.24 Z" />
</g>
<g id="#b13664f3">
<path fill="#b13664" opacity="0.95" d=" M 1.90 49.35 C 2.52 47.99 3.22 46.66 3.87 45.32 C 3.91 47.52 3.92 49.72 3.77 51.92 C 3.35 51.96 2.51 52.04 2.09 52.08 C 2.04 51.40 1.95 50.03 1.90 49.35 Z" />
</g>
<g id="#571d3fff">
<path fill="#571d3f" opacity="1.00" d=" M 62.22 67.07 C 62.13 60.12 61.27 52.99 62.92 46.17 C 63.04 53.30 63.23 60.44 62.83 67.57 L 62.22 67.07 Z" />
</g>
<g id="#d1a4c2ff">
<path fill="#d1a4c2" opacity="1.00" d=" M 21.46 55.01 C 21.51 53.44 20.74 51.04 22.96 50.65 C 26.36 50.90 25.91 54.78 25.02 57.06 C 23.90 56.44 21.36 56.89 21.46 55.01 M 21.78 55.39 C 22.59 55.35 24.21 55.27 25.01 55.23 C 26.52 53.51 23.59 52.23 22.86 51.00 C 22.35 52.42 21.99 53.89 21.78 55.39 Z" />
</g>
<g id="#781b43f0">
<path fill="#781b43" opacity="0.94" d=" M 2.09 52.08 C 2.51 52.04 3.35 51.96 3.77 51.92 C 3.77 52.45 3.77 53.52 3.77 54.05 C 3.35 54.01 2.51 53.94 2.09 53.91 C 2.09 53.45 2.09 52.54 2.09 52.08 Z" />
</g>
<g id="#4f1433ff">
<path fill="#4f1433" opacity="1.00" d=" M 21.78 55.39 C 21.99 53.89 22.35 52.42 22.86 51.00 C 23.59 52.23 26.52 53.51 25.01 55.23 C 24.21 55.27 22.59 55.35 21.78 55.39 Z" />
</g>
<g id="#c7a0c2ff">
<path fill="#c7a0c2" opacity="1.00" d=" M 34.02 52.15 C 35.50 50.97 37.07 53.56 35.67 54.57 C 34.22 55.72 32.62 53.16 34.02 52.15 Z" />
</g>
<g id="#b8448bf1">
<path fill="#b8448b" opacity="0.95" d=" M 2.09 53.91 C 2.51 53.94 3.35 54.01 3.77 54.05 L 3.79 54.67 C 3.63 57.03 3.39 59.39 2.81 61.69 L 2.19 63.03 C 2.04 59.99 1.83 56.95 2.09 53.91 Z" />
</g>
<g id="#651d4afd">
<path fill="#651d4a" opacity="1.00" d=" M 2.81 61.69 C 3.39 59.39 3.63 57.03 3.79 54.67 C 3.94 56.80 4.05 58.93 3.87 61.06 C 2.49 75.15 3.49 89.33 2.76 103.44 C 2.39 103.27 1.67 102.92 1.30 102.75 C 2.30 89.53 1.42 76.25 2.19 63.03 L 2.81 61.69 Z" />
</g>
<g id="#c7936eef">
<path fill="#c7936e" opacity="0.94" d=" M 87.99 56.18 C 88.59 55.69 89.78 54.69 90.37 54.19 C 90.60 58.80 90.01 63.38 89.87 67.98 C 89.74 70.99 91.28 73.95 90.37 76.93 C 89.35 80.60 89.63 84.43 89.68 88.19 C 91.25 95.22 90.34 102.54 89.62 109.64 L 88.62 109.87 C 89.84 103.79 86.65 98.06 87.64 92.00 C 87.01 80.07 87.11 68.10 87.99 56.18 Z" />
</g>
<g id="#916595ff">
<path fill="#916595" opacity="1.00" d=" M 40.30 60.09 C 41.72 58.97 42.94 61.55 41.82 62.49 C 40.49 63.40 39.25 61.02 40.30 60.09 Z" />
</g>
<g id="#bc96b9ff">
<path fill="#bc96b9" opacity="1.00" d=" M 64.73 63.12 C 66.19 63.56 67.66 64.00 69.12 64.45 C 69.12 65.48 69.10 66.53 69.08 67.57 C 67.56 67.81 66.04 68.04 64.52 68.28 C 64.52 66.56 64.59 64.83 64.73 63.12 M 65.17 64.92 C 64.14 66.44 66.58 67.99 67.69 66.70 C 68.74 65.30 66.17 63.60 65.17 64.92 Z" />
</g>
<g id="#c28eb1ff">
<path fill="#c28eb1" opacity="1.00" d=" M 21.22 64.30 C 22.36 64.37 23.50 64.43 24.64 64.50 C 24.90 66.27 24.95 68.06 24.84 69.85 C 23.52 69.42 21.63 69.71 21.00 68.16 C 21.00 66.87 21.07 65.58 21.22 64.30 M 22.23 65.48 C 20.98 66.42 22.18 69.45 23.73 68.21 C 24.76 67.22 23.81 64.30 22.23 65.48 Z" />
</g>
<g id="#3e1029ff">
<path fill="#3e1029" opacity="1.00" d=" M 22.23 65.48 C 23.81 64.30 24.76 67.22 23.73 68.21 C 22.18 69.45 20.98 66.42 22.23 65.48 Z" />
</g>
<g id="#34122fff">
<path fill="#34122f" opacity="1.00" d=" M 65.17 64.92 C 66.17 63.60 68.74 65.30 67.69 66.70 C 66.58 67.99 64.14 66.44 65.17 64.92 Z" />
</g>
<g id="#a05077ff">
<path fill="#a05077" opacity="1.00" d=" M 73.74 70.95 C 74.55 70.98 76.15 71.03 76.96 71.05 C 77.07 72.40 77.08 73.74 77.00 75.09 C 76.10 75.34 75.18 75.56 74.26 75.75 C 74.06 74.15 73.89 72.55 73.74 70.95 M 75.16 72.38 C 73.66 75.36 78.51 72.54 75.16 72.38 Z" />
</g>
<g id="#3f0d28ff">
<path fill="#3f0d28" opacity="1.00" d=" M 75.16 72.38 C 78.51 72.54 73.66 75.36 75.16 72.38 Z" />
</g>
<g id="#2f0b24ff">
<path fill="#2f0b24" opacity="1.00" d=" M 22.73 78.53 C 22.67 78.21 22.57 77.57 22.51 77.25 C 23.01 78.12 23.50 78.98 24.00 79.85 C 23.89 80.55 23.67 81.95 23.56 82.65 C 23.00 82.63 21.88 82.59 21.32 82.57 C 21.42 81.02 20.28 78.50 22.73 78.53 Z" />
</g>
<g id="#5a102cff">
<path fill="#5a102c" opacity="1.00" d=" M 59.99 79.00 L 61.27 79.00 C 60.93 85.34 61.33 91.73 60.84 98.05 C 60.61 98.61 60.14 99.72 59.90 100.27 C 59.42 98.78 58.98 97.28 58.60 95.76 C 58.79 94.36 59.01 92.95 59.22 91.55 C 60.13 87.43 60.10 83.19 59.99 79.00 Z" />
</g>
<g id="#805285ff">
<path fill="#805285" opacity="1.00" d=" M 39.20 83.12 C 40.86 82.59 41.41 83.14 40.86 84.76 C 39.20 85.25 38.65 84.70 39.20 83.12 Z" />
</g>
<g id="#cd7eaeff">
<path fill="#cd7eae" opacity="1.00" d=" M 74.24 86.16 C 75.43 86.16 76.62 86.15 77.81 86.15 C 77.52 87.45 79.15 90.25 76.78 90.10 C 77.52 88.65 77.26 87.59 76.01 86.92 C 74.77 87.58 74.52 88.61 75.27 90.02 L 73.85 90.08 C 73.98 88.77 74.11 87.47 74.24 86.16 Z" />
</g>
<g id="#440f29ff">
<path fill="#440f29" opacity="1.00" d=" M 75.27 90.02 C 74.52 88.61 74.77 87.58 76.01 86.92 C 77.26 87.59 77.52 88.65 76.78 90.10 C 76.40 90.08 75.65 90.04 75.27 90.02 Z" />
</g>
<g id="#67447aff">
<path fill="#67447a" opacity="1.00" d=" M 45.14 90.15 C 46.75 89.62 47.30 90.18 46.78 91.84 C 45.17 92.37 44.63 91.81 45.14 90.15 Z" />
</g>
<g id="#c992b9ff">
<path fill="#c992b9" opacity="1.00" d=" M 20.39 91.44 C 21.65 90.76 24.22 90.96 24.02 92.89 C 23.91 94.18 23.75 95.48 23.55 96.77 C 22.46 96.77 21.37 96.78 20.28 96.79 C 20.22 95.01 19.76 93.16 20.39 91.44 M 20.84 91.69 C 20.82 93.32 20.82 94.95 20.84 96.58 C 23.74 96.19 24.93 90.97 20.84 91.69 Z" />
</g>
<g id="#c69cbfff">
<path fill="#c69cbf" opacity="1.00" d=" M 63.44 95.58 C 62.24 94.03 63.28 92.10 63.59 90.44 C 64.35 90.67 65.86 91.12 66.61 91.35 C 66.64 92.83 66.67 94.31 66.69 95.79 C 65.60 95.76 64.52 95.69 63.44 95.58 M 64.84 95.11 C 66.50 94.89 66.38 91.98 64.83 91.69 C 63.32 92.02 63.14 94.93 64.84 95.11 Z" />
</g>
<g id="#511837ff">
<path fill="#511837" opacity="1.00" d=" M 20.84 91.69 C 24.93 90.97 23.74 96.19 20.84 96.58 C 20.82 94.95 20.82 93.32 20.84 91.69 Z" />
</g>
<g id="#3d122fff">
<path fill="#3d122f" opacity="1.00" d=" M 64.84 95.11 C 63.14 94.93 63.32 92.02 64.83 91.69 C 66.38 91.98 66.50 94.89 64.84 95.11 Z" />
</g>
<g id="#79294dda">
<path fill="#79294d" opacity="0.85" d=" M 27.56 101.84 C 27.44 100.11 27.59 98.38 27.85 96.67 C 27.95 99.63 28.04 102.60 28.01 105.56 L 28.01 106.22 C 29.30 106.20 30.58 106.18 31.87 106.16 C 32.21 105.03 32.55 103.91 32.89 102.78 C 33.21 104.05 33.57 105.30 33.97 106.55 C 34.54 106.37 35.68 106.03 36.25 105.85 L 37.08 105.58 L 36.75 106.77 C 33.29 106.85 29.83 106.80 26.37 106.82 C 26.17 105.59 25.95 104.37 25.72 103.15 C 25.14 103.04 23.98 102.81 23.40 102.70 C 24.79 102.44 26.17 102.13 27.56 101.84 Z" />
</g>
<g id="#c478a5ff">
<path fill="#c478a5" opacity="1.00" d=" M 74.37 98.42 C 77.74 95.20 79.81 103.32 76.02 103.04 C 73.70 103.51 73.12 99.67 74.37 98.42 M 75.96 102.41 C 77.51 102.09 77.50 99.20 75.92 98.92 C 74.24 99.16 74.44 102.06 75.96 102.41 Z" />
</g>
<g id="#47102cff">
<path fill="#47102c" opacity="1.00" d=" M 75.96 102.41 C 74.44 102.06 74.24 99.16 75.92 98.92 C 77.50 99.20 77.51 102.09 75.96 102.41 Z" />
</g>
<g id="#2d091fff">
<path fill="#2d091f" opacity="1.00" d=" M 41.50 102.07 C 41.61 101.97 41.84 101.77 41.96 101.67 L 41.50 102.07 Z" />
</g>
<g id="#771e47ff">
<path fill="#771e47" opacity="1.00" d=" M 45.96 101.78 C 46.47 101.52 47.50 101.01 48.01 100.75 C 49.79 100.88 51.56 101.06 53.33 101.23 C 53.28 102.77 53.23 104.32 53.18 105.88 C 54.69 105.84 56.20 105.81 57.71 105.73 C 57.76 105.12 57.86 103.91 57.91 103.30 C 59.40 103.81 60.31 104.85 60.66 106.43 C 55.49 107.90 50.04 106.51 44.75 107.20 C 43.14 107.05 41.53 106.87 39.92 106.72 C 40.31 105.12 40.84 103.57 41.50 102.07 L 41.96 101.67 C 41.92 103.05 42.06 104.42 42.36 105.77 L 42.76 105.78 C 43.32 105.78 44.43 105.78 44.99 105.78 L 45.49 105.78 C 46.13 104.49 46.29 103.16 45.96 101.78 M 49.05 105.75 C 49.55 105.77 50.57 105.82 51.07 105.84 C 52.44 105.22 52.58 104.24 51.47 102.90 L 52.22 101.95 C 51.41 102.03 49.80 102.19 48.99 102.26 C 46.61 101.60 46.70 106.60 49.05 105.75 Z" />
</g>
<g id="#f7dde9ff">
<path fill="#f7dde9" opacity="1.00" d=" M 41.96 101.67 C 44.57 101.58 43.49 104.40 42.76 105.78 L 42.36 105.77 C 42.06 104.42 41.92 103.05 41.96 101.67 Z" />
</g>
<g id="#f5d0e4ff">
<path fill="#f5d0e4" opacity="1.00" d=" M 51.07 105.84 C 50.54 104.77 50.67 103.79 51.47 102.90 C 52.58 104.24 52.44 105.22 51.07 105.84 Z" />
</g>
<g id="#493c454e">
<path fill="#493c45" opacity="0.31" d=" M 61.01 103.54 L 62.64 103.61 C 61.89 105.38 61.04 107.47 58.88 107.81 C 54.19 108.52 49.41 107.87 44.75 107.20 C 50.04 106.51 55.49 107.90 60.66 106.43 C 60.75 105.70 60.92 104.26 61.01 103.54 Z" />
</g>
</svg>
